<svg width="40" height="40" viewBox="0 0 40 40" fill="none" xmlns="http://www.w3.org/2000/svg">
<path fill-rule="evenodd" clip-rule="evenodd" d="M16.1 7.5H13.5V10H16.1V7.5ZM10.9 5V12.5H13.5V15H9.88889C8.3 15 7 16.125 7 17.5V22.5C7 23.875 8.3 25 9.88889 25H13.5V27.5H10.9V35H18.7V27.5H16.1V25H23.9V27.5H21.3V35H29.1V27.5H26.5V25H30.1111C31.7 25 33 23.875 33 22.5V17.5C33 16.125 31.7 15 30.1111 15H26.5V12.5H29.1V5H21.3V12.5H23.9V15H16.1V12.5H18.7V5H10.9ZM10.9 18.7498H13.5V21.2498H10.9V18.7498ZM14.8 18.7498H17.4V21.2498H14.8V18.7498ZM18.7 18.7498H21.3V21.2498H18.7V18.7498ZM13.5 30H16.1V32.5H13.5V30ZM26.5 7.5H23.9V10H26.5V7.5ZM23.9 30H26.5V32.5H23.9V30Z" fill="#FF9900"/>
</svg>
