<svg width="52" height="52" viewBox="0 0 52 52" fill="none" xmlns="http://www.w3.org/2000/svg">
<path fill-rule="evenodd" clip-rule="evenodd" d="M44.4166 7.58356H7.58325V12.1877V39.8127V44.4169H44.4166V39.8127V12.1877V7.58356ZM40.7333 16.7919V40.7336H11.2666V16.7919H40.7333ZM29.6833 26.0002C29.6833 28.0261 28.0258 29.6836 25.9999 29.6836C23.9741 29.6836 22.3166 28.0261 22.3166 26.0002C22.3166 23.9744 23.9741 22.3169 25.9999 22.3169C28.0258 22.3169 29.6833 23.9744 29.6833 26.0002ZM33.3666 37.0502V35.2086C33.3666 32.7591 28.4493 31.5252 25.9999 31.5252C23.5505 31.5252 18.6333 32.7591 18.6333 35.2086V37.0502H33.3666ZM33.3666 11.2669H31.5249V13.1086H33.3666V11.2669ZM35.2083 11.2669H37.0499V13.1086H35.2083V11.2669ZM40.7333 11.2669H38.8916V13.1086H40.7333V11.2669Z" fill="#8BCD00"/>
</svg>
