<svg width="52" height="52" viewBox="0 0 52 52" fill="none" xmlns="http://www.w3.org/2000/svg">
<path fill-rule="evenodd" clip-rule="evenodd" d="M24.6079 27.5209L25.8923 28.137L27.1767 27.5209L27.5097 26.1466L26.6059 25.009H25.1787L24.2749 26.1466L24.6079 27.5209ZM23.6565 22.7818C24.0846 22.7818 24.4652 22.4501 24.4652 22.0236L24.703 17.2846L23.7516 17.474C22.0866 17.8533 20.5644 18.7063 19.3276 19.891L23.2759 22.687C23.4186 22.7344 23.5138 22.7818 23.6565 22.7818ZM27.4147 22.4501C27.6525 22.7818 28.1282 22.8292 28.4612 22.6396L32.362 19.8911C30.9349 18.4694 29.0796 17.569 26.9865 17.332L27.2719 22.1184C27.2719 22.2605 27.3195 22.3553 27.4147 22.4501ZM21.5633 25.8622C21.8487 25.5305 21.8012 25.0566 21.4682 24.7722L17.9477 21.6443C16.9014 23.3979 16.4257 25.4357 16.5684 27.426L21.1828 26.0991C21.373 26.0517 21.4682 26.0044 21.5633 25.8622ZM21.8487 28.8479L17.1393 29.6535C17.8052 31.5491 19.1372 33.2077 20.8022 34.2977L22.6099 29.9379C22.705 29.7957 22.705 29.6059 22.6574 29.464C22.6099 29.0848 22.2293 28.8479 21.8487 28.8479ZM40.8298 30.6485C40.7346 30.6485 40.687 30.6485 40.5919 30.6011C40.5443 30.5537 40.5443 30.5537 40.4968 30.5537C40.4016 30.5537 40.354 30.5066 40.3065 30.5066C40.1162 30.4589 39.9735 30.3642 39.7832 30.2694C39.6881 30.2694 39.5929 30.222 39.4978 30.1746H39.4502C38.9745 29.985 38.4512 29.8429 37.928 29.7481H37.8804C37.7377 29.7481 37.595 29.7955 37.4998 29.8905C37.4998 29.8905 37.4998 29.9377 37.4523 29.9377L37.0717 29.8905C36.2154 32.5915 34.3602 34.8664 31.9341 36.3352L32.0768 36.7143C32.0768 36.7143 32.029 36.7143 32.029 36.762C31.9341 36.9041 31.9341 37.0937 31.9814 37.2359C32.1717 37.7097 32.4098 38.1836 32.7428 38.6101V38.7049C32.8377 38.7997 32.8855 38.8471 32.9331 38.9419C33.0758 39.084 33.1709 39.2262 33.2658 39.4158C33.3134 39.4632 33.3612 39.5105 33.3612 39.5579C33.3612 39.5579 33.4085 39.5579 33.4085 39.6053C33.5039 39.842 33.5039 40.0792 33.4561 40.3162C33.4085 40.5531 33.2185 40.7427 33.0282 40.8374C32.8855 40.8848 32.7901 40.9322 32.6474 40.9322C32.2671 40.9322 31.9341 40.6953 31.7436 40.3635C31.696 40.3635 31.696 40.3162 31.696 40.3162C31.6484 40.2688 31.6484 40.2214 31.6011 40.174C31.5057 40.0318 31.4584 39.842 31.4106 39.6527L31.3157 39.3684V39.321C31.1727 38.7997 30.9349 38.3258 30.697 37.8519C30.6019 37.7097 30.4591 37.6147 30.3164 37.5676C30.3164 37.5202 30.3164 37.5202 30.2689 37.5202L30.0786 37.1885C29.6029 37.3304 29.0796 37.5202 28.5563 37.6147C27.7001 37.8519 26.8438 37.9465 25.9875 37.9465C24.5604 37.9465 23.1809 37.7097 21.8486 37.1885L21.6586 37.5676C21.6586 37.6147 21.6586 37.6147 21.611 37.6147C21.4683 37.6621 21.3256 37.7571 21.2302 37.8993C20.9926 38.3732 20.7545 38.8471 20.6118 39.3684L20.5167 39.6527C20.4691 39.842 20.3742 39.9844 20.3266 40.174C20.2788 40.2214 20.2313 40.2688 20.2313 40.3162C20.1839 40.3162 20.1839 40.3635 20.1839 40.3635C19.9934 40.6953 19.6604 40.9322 19.2798 40.9322C19.1847 40.9322 19.042 40.8848 18.9468 40.8374C18.5187 40.6005 18.3284 40.0318 18.5663 39.5579C18.6139 39.5579 18.6139 39.5105 18.6139 39.5105C18.6614 39.4632 18.6614 39.4158 18.709 39.3684C18.8517 39.1788 18.9468 38.9893 19.042 38.8942C19.1371 38.7997 19.1847 38.7523 19.2323 38.6575V38.6101C19.5177 38.1836 19.8031 37.7097 19.9934 37.2359C20.0412 37.0937 20.0412 36.9041 19.9458 36.762C19.9458 36.762 19.8983 36.762 19.8983 36.7143L20.1361 36.3826C19.6604 36.1459 19.2798 35.8616 18.8517 35.5298C16.9965 34.1079 15.6645 32.165 14.9509 29.985L14.5228 30.0324C14.5228 30.0324 14.5228 29.985 14.4752 29.985C14.3801 29.8905 14.2374 29.8429 14.0947 29.8429H14.0471C13.4762 29.9377 13.0005 30.0798 12.477 30.2694H12.4297C12.3345 30.2694 12.2394 30.3168 12.1443 30.3642C12.0016 30.4115 11.8113 30.5066 11.621 30.5537C11.5734 30.5537 11.4307 30.5066 11.4307 30.5537C11.4307 30.6011 11.4307 30.6011 11.3829 30.6011C11.288 30.6485 11.2404 30.6485 11.1453 30.6485C10.7169 30.6959 10.2888 30.4115 10.1939 29.985C10.0985 29.4638 10.4315 28.9899 10.955 28.8951C11.0026 28.8477 11.0026 28.8477 11.0499 28.8477C11.1453 28.8477 11.1926 28.8003 11.2404 28.8003C11.4307 28.8003 11.621 28.7529 11.8113 28.7529C11.9064 28.7055 12.0016 28.7055 12.0967 28.7055C12.6675 28.6581 13.1908 28.5634 13.7141 28.4212C13.8568 28.3264 13.9995 28.2316 14.0471 28.0895C14.0471 28.0895 14.0947 28.0895 14.0947 28.0421L14.4752 27.9473C14.0471 25.2461 14.6655 22.4973 16.1402 20.1752C16.1878 20.0804 16.2353 20.033 16.2829 19.9383L16.0055 19.6621C16.0036 19.6755 16.0017 19.6886 15.9975 19.7013V19.6539L16.0055 19.6621C16.0269 19.5258 15.9414 19.3611 15.8548 19.2748C15.4742 18.8957 14.9985 18.6114 14.5228 18.327C14.4276 18.2796 14.3325 18.2322 14.2374 18.1849C14.0471 18.0901 13.8568 17.9953 13.7141 17.9005C13.6665 17.9005 13.5714 17.8057 13.5714 17.8057C13.5714 17.8057 13.5714 17.7584 13.5238 17.7584C13.1432 17.4266 13.0481 16.858 13.3335 16.4314C13.4762 16.1945 13.7141 16.0997 13.9995 16.0997C14.2374 16.0997 14.4752 16.1945 14.6655 16.3367L14.7131 16.3841C14.7606 16.4314 14.8082 16.4314 14.8558 16.4788C14.9985 16.621 15.0936 16.7632 15.2363 16.9053C15.2839 16.9527 15.3791 17.0001 15.4266 17.0949C15.7596 17.474 16.1878 17.8531 16.6159 18.1849C16.711 18.2322 16.8062 18.2796 16.9013 18.2796C16.9965 18.2796 17.044 18.2322 17.0916 18.2322H17.1392L17.4246 18.4218C18.9944 16.7632 21.04 15.5784 23.2758 15.1045C23.8468 15.0098 24.3701 14.915 24.8934 14.8676L24.941 14.4885V14.3937C25.0837 14.2989 25.1312 14.1568 25.1788 14.0146C25.1788 13.4459 25.1788 12.9246 25.0837 12.4034V12.3557C25.0837 12.2612 25.0837 12.1664 25.0361 12.0714C24.9885 11.8818 24.941 11.6925 24.941 11.503V11.2658C24.941 11.0291 25.0361 10.7919 25.2264 10.6023C25.4642 10.3654 25.7497 10.2234 26.0351 10.2706C26.5108 10.318 26.8914 10.7919 26.8438 11.2658V11.5501C26.7962 11.7397 26.7962 11.9292 26.7486 12.119C26.7486 12.2136 26.7011 12.3086 26.7011 12.4034V12.4507C26.6059 13.0192 26.6059 13.5407 26.6059 14.062C26.6535 14.2041 26.7011 14.3463 26.8438 14.4411V14.3937L26.8914 14.7728C29.1272 15.0098 31.3157 15.8628 33.0755 17.2371C33.4561 17.6162 33.8845 17.9953 34.265 18.3744L34.6456 18.1375H34.6929C34.7407 18.1849 34.8359 18.1849 34.8834 18.1849C34.9786 18.1849 35.0737 18.1375 35.1689 18.0901C35.597 17.8057 36.0251 17.4266 36.3581 17.0475C36.4057 17.0001 36.5008 16.9527 36.5484 16.858C36.6435 16.7158 36.7863 16.5736 36.929 16.4314C36.9765 16.4314 37.0241 16.3841 37.0717 16.3367L37.1193 16.2893C37.3095 16.1471 37.5474 16.0523 37.7852 16.0523C38.0231 16.0523 38.3085 16.1945 38.4512 16.3841C38.7842 16.8106 38.6891 17.3792 38.2609 17.711C38.2609 17.7584 38.3085 17.7584 38.2609 17.8057C38.2134 17.8531 38.1658 17.8531 38.1182 17.9005C37.928 17.9953 37.7852 18.0901 37.595 18.1849C37.4998 18.2322 37.4047 18.2796 37.3095 18.327C36.8338 18.6114 36.4057 18.8957 35.9776 19.2748C35.8824 19.3696 35.8349 19.5591 35.8349 19.7013V19.7487L35.5494 20.033C36.3106 21.2178 36.8814 22.5449 37.2144 23.919C37.4998 25.2935 37.595 26.7149 37.4047 28.0895L37.7852 28.1842C37.8328 28.3264 37.9755 28.4686 38.1182 28.516C38.6415 28.6581 39.2124 28.7529 39.7356 28.8003H39.7832C39.8783 28.8477 39.9735 28.8477 40.0686 28.8477C40.2589 28.8477 40.4492 28.8477 40.6395 28.8951C40.7346 28.8951 40.8298 28.8951 40.8298 28.9425C40.8298 28.9899 40.8773 28.9899 40.9249 28.9899C41.353 29.0846 41.7336 29.4638 41.7812 29.985C41.6385 30.3642 41.2579 30.6485 40.8298 30.6485ZM46.7761 29.606L43.1607 14.1092C42.9229 13.3512 42.352 12.7352 41.6385 12.3558L27.1292 5.43696C26.7486 5.2474 26.3205 5.20001 25.9399 5.20001C25.5594 5.20001 25.1312 5.20001 24.7507 5.29479L10.2412 12.2613C9.52788 12.593 9.00437 13.2091 8.81409 14.0147L5.2463 29.606C5.10359 30.4116 5.29387 31.2172 5.76958 31.8807L15.8072 44.2498C16.378 44.8182 17.1867 45.1976 17.9954 45.245H33.9796C34.8359 45.3395 35.6446 44.9606 36.1678 44.2498L46.2055 31.8807C46.6812 31.2172 46.8714 30.4116 46.7761 29.606ZM29.4602 28.8953C29.1272 29.0372 28.9369 29.4166 29.0321 29.7957L30.8873 34.2503C32.029 33.5394 33.028 32.5443 33.7416 31.4069C34.1221 30.8854 34.4075 30.2693 34.6456 29.6059L29.8883 28.8005C29.7456 28.8005 29.6029 28.8479 29.4602 28.8953ZM33.7892 21.6443L30.2214 24.8668C30.1263 24.9618 30.0787 25.0563 30.0311 25.1985C29.936 25.6252 30.1736 26.0515 30.602 26.1463L35.1212 27.426C35.2163 26.4306 35.1687 25.4357 34.9309 24.4403C34.693 23.4451 34.3125 22.4973 33.7892 21.6443ZM26.1777 30.8855C25.8447 30.696 25.4642 30.791 25.2263 31.0753L22.8954 35.293C23.8468 35.5773 24.8933 35.7669 25.8923 35.7669C26.6059 35.7669 27.2718 35.6721 27.9378 35.5299C28.2708 35.4352 28.5565 35.3875 28.8419 35.3404L26.5583 31.2173C26.4156 31.0753 26.3204 30.9803 26.1777 30.8855Z" fill="#326DE6"/>
</svg>
