<svg width="40" height="40" viewBox="0 0 40 40" fill="none" xmlns="http://www.w3.org/2000/svg">
<circle cx="20" cy="20" r="20" fill="white"/>
<path d="M26.3 21.6167C25.1667 21.6167 24.1333 22.0333 23.3333 22.7333L21.1833 21.4833C21.3333 21 21.4 20.4833 21.4 19.95C21.4 19.4167 21.3333 18.9 21.2333 18.4167L23.2833 17.2C24.0833 17.9333 25.15 18.3333 26.3 18.3333C28.7833 18.3333 30.8 16.35 30.8 13.8667C30.8 11.3833 28.7833 9.38333 26.3 9.38333C23.8167 9.38333 21.8 11.4 21.8 13.8833C21.8 14.1667 21.8333 14.5 21.8833 14.8L19.8 16C19.0833 15.25 18.1333 14.7 17.0667 14.4167V12.1C18.8833 11.5167 20.2 9.81666 20.2 7.81666C20.2 5.33333 18.1833 3.33333 15.7 3.33333C13.2167 3.33333 11.2333 5.33333 11.2333 7.81666C11.2333 9.81666 12.5 11.5 14.3 12.1V14.4333C11.8333 15.0667 10 17.2833 10 19.95C10 22.6167 11.8333 24.85 14.3 25.4667V27.8833C12.5 28.4833 11.2333 30.1667 11.2333 32.1667C11.2333 34.65 13.2167 36.6667 15.7 36.6667C18.1833 36.6667 20.2 34.65 20.2 32.1667C20.2 30.1667 18.8833 28.4667 17.0667 27.8833V25.4833C18.1333 25.2167 19.0667 24.6667 19.8 23.9167L21.9 25.1333C21.8333 25.45 21.8 25.7667 21.8 26.1C21.8 28.5833 23.8167 30.6 26.3 30.6C28.7833 30.6 30.8 28.5833 30.8 26.1C30.8 23.6167 28.7833 21.6167 26.3 21.6167ZM26.3 11.6667C27.5333 11.6667 28.5167 12.65 28.5167 13.8667C28.5167 15.0833 27.5333 16.1 26.3 16.1C25.0667 16.1 24.0833 15.1 24.0833 13.8667C24.0833 12.6333 25.0667 11.6667 26.3 11.6667ZM13.4833 7.81666C13.4833 6.58333 14.4667 5.58333 15.7 5.58333C16.9333 5.58333 17.9 6.58333 17.9 7.81666C17.9 9.04999 16.9333 10.05 15.7 10.05C14.4667 10.05 13.4833 9.04999 13.4833 7.81666ZM17.9 32.1667C17.9 33.4 16.9333 34.4 15.7 34.4C14.4667 34.4 13.4833 33.4 13.4833 32.1667C13.4833 30.9333 14.4667 29.9333 15.7 29.9333C16.9333 29.9333 17.9 30.9333 17.9 32.1667ZM15.7 23.15C13.9333 23.15 12.5 21.7167 12.5 19.95C12.5 18.1833 13.9333 16.75 15.7 16.75C17.4667 16.75 18.9 18.1833 18.9 19.95C18.9 21.7167 17.4667 23.15 15.7 23.15ZM26.3 28.3333C25.0667 28.3333 24.0833 27.3333 24.0833 26.1C24.0833 24.8667 25.0667 23.8833 26.3 23.8833C27.5333 23.8833 28.5167 24.8833 28.5167 26.1C28.5167 27.3167 27.5333 28.3333 26.3 28.3333Z" fill="black"/>
</svg>
