<svg width="40" height="40" viewBox="0 0 40 40" fill="none" xmlns="http://www.w3.org/2000/svg">
<ellipse cx="20" cy="20" rx="16" ry="16" transform="rotate(-90 20 20)" fill="#FF9900"/>
<path fill-rule="evenodd" clip-rule="evenodd" d="M10.8076 10.8075C11.1981 10.417 11.8313 10.417 12.2218 10.8075C12.6123 11.1981 12.6123 11.8312 12.2218 12.2218C11.2004 13.2432 10.3901 14.4558 9.83732 15.7904C9.28452 17.125 8.99999 18.5554 8.99999 19.9999C8.99999 21.4445 9.28452 22.8749 9.83732 24.2094C10.3901 25.544 11.2004 26.7567 12.2218 27.7781C12.6123 28.1686 12.6123 28.8018 12.2218 29.1923C11.8313 29.5828 11.1981 29.5828 10.8076 29.1923C9.60044 27.9852 8.64287 26.552 7.98956 24.9748C7.33625 23.3976 6.99999 21.7071 6.99999 19.9999C6.99999 18.2927 7.33625 16.6023 7.98956 15.025C8.64287 13.4478 9.60044 12.0147 10.8076 10.8075ZM29.1924 10.8075C28.8019 10.417 28.1687 10.417 27.7782 10.8075C27.3877 11.1981 27.3877 11.8312 27.7782 12.2218C28.7996 13.2432 29.6099 14.4558 30.1627 15.7904C30.7155 17.125 31 18.5554 31 19.9999C31 21.4445 30.7155 22.8749 30.1627 24.2094C29.6099 25.544 28.7996 26.7567 27.7782 27.7781C27.3877 28.1686 27.3877 28.8018 27.7782 29.1923C28.1687 29.5828 28.8019 29.5828 29.1924 29.1923C30.3996 27.9852 31.3571 26.552 32.0104 24.9748C32.6638 23.3976 33 21.7071 33 19.9999C33 18.2927 32.6638 16.6023 32.0104 15.025C31.3571 13.4478 30.3996 12.0147 29.1924 10.8075ZM24.9498 13.6362C25.3403 13.2456 25.9734 13.2456 26.364 13.6362C27.1997 14.4719 27.8626 15.464 28.3149 16.556C28.7672 17.6479 29 18.8182 29 20.0001C29 21.182 28.7672 22.3523 28.3149 23.4443C27.8626 24.5362 27.1997 25.5284 26.364 26.3641C25.9734 26.7546 25.3403 26.7546 24.9498 26.3641C24.5592 25.9736 24.5592 25.3404 24.9498 24.9499C25.5998 24.2999 26.1154 23.5282 26.4672 22.6789C26.8189 21.8296 27 20.9194 27 20.0001C27 19.0809 26.8189 18.1706 26.4672 17.3213C26.1154 16.4721 25.5998 15.7004 24.9498 15.0504C24.5592 14.6598 24.5592 14.0267 24.9498 13.6362ZM23 20C23 21.6569 21.6569 23 20 23C18.3431 23 17 21.6569 17 20C17 18.3431 18.3431 17 20 17C21.6569 17 23 18.3431 23 20ZM15.0503 13.6362C14.6598 13.2456 14.0266 13.2456 13.6361 13.6362C12.8003 14.4719 12.1374 15.464 11.6851 16.556C11.2328 17.6479 11 18.8182 11 20.0001C11 21.182 11.2328 22.3523 11.6851 23.4443C12.1374 24.5362 12.8003 25.5284 13.6361 26.3641C14.0266 26.7546 14.6598 26.7546 15.0503 26.3641C15.4408 25.9736 15.4408 25.3404 15.0503 24.9499C14.4003 24.2999 13.8847 23.5282 13.5329 22.6789C13.1811 21.8296 13 20.9194 13 20.0001C13 19.0809 13.1811 18.1706 13.5329 17.3213C13.8847 16.4721 14.4003 15.7004 15.0503 15.0504C15.4408 14.6598 15.4408 14.0267 15.0503 13.6362Z" fill="white"/>
</svg>
