<svg width="52" height="52" viewBox="0 0 52 52" fill="none" xmlns="http://www.w3.org/2000/svg">
<path fill-rule="evenodd" clip-rule="evenodd" d="M38.9679 26.0318C39.6787 26.2014 40.418 26.2862 41.1572 26.2862C41.8822 26.2862 42.5504 26.1873 43.1901 25.9894C43.8014 25.8057 44.3274 25.5513 44.7681 25.1979C45.2088 24.8587 45.55 24.4346 45.8059 23.9541C46.0476 23.4735 46.1755 22.9223 46.1755 22.3145C46.1755 21.5795 45.9623 20.9152 45.5216 20.3357C45.0809 19.7562 44.3416 19.3039 43.3181 18.9788L41.2994 18.3428C40.5459 18.1025 40.0199 17.8339 39.7356 17.5654C39.4513 17.2968 39.3091 16.9576 39.3091 16.5618C39.3091 15.9823 39.5366 15.5724 39.9773 15.3039C40.418 15.0353 41.0577 14.9081 41.868 14.9081C42.8774 14.9081 43.7872 15.0919 44.5975 15.4594C44.8392 15.5724 45.024 15.629 45.1377 15.629C45.351 15.629 45.4647 15.4735 45.4647 15.1767V14.5124C45.4647 14.3145 45.4221 14.159 45.3368 14.0459C45.2515 13.9187 45.1093 13.8057 44.9103 13.6926C44.7681 13.6078 44.5691 13.523 44.3132 13.4382C44.0573 13.3534 43.7872 13.2827 43.5029 13.212C43.2043 13.1555 42.9058 13.0989 42.5788 13.0565C42.2661 13.0141 41.9391 13 41.6263 13C41.0008 13 40.4037 13.0707 39.8351 13.2403C39.2664 13.4099 38.7831 13.6502 38.3566 13.9753C37.9301 14.2862 37.5889 14.682 37.333 15.1343C37.0771 15.5866 36.9492 16.1095 36.9492 16.7032C36.9492 17.4382 37.1909 18.1308 37.66 18.7527C38.1291 19.3887 38.8968 19.8693 39.9346 20.1944L41.996 20.8304C42.6926 21.0566 43.1759 21.2968 43.4318 21.5654C43.6877 21.8339 43.8156 22.159 43.8156 22.5548C43.8156 23.1343 43.5597 23.5866 43.0764 23.8975C42.593 24.2085 41.8964 24.364 41.0008 24.364C40.4322 24.364 39.8777 24.3074 39.3091 24.1944C38.7547 24.0813 38.2287 23.9117 37.7453 23.6997C37.695 23.6796 37.6464 23.6596 37.6009 23.6408C37.5179 23.6066 37.445 23.5766 37.3899 23.5583C37.3046 23.5301 37.2193 23.5159 37.134 23.5159C36.9208 23.5159 36.807 23.6573 36.807 23.9541V24.6749C36.807 24.8021 36.8355 24.9435 36.8923 25.0707C36.9492 25.1979 37.1056 25.3392 37.333 25.4665C37.7027 25.6785 38.2571 25.8622 38.9679 26.0318ZM17.402 23.4874C17.3025 23.1764 17.2456 22.7524 17.2456 22.2294H17.2172V17.6499C17.2172 16.0951 16.8191 14.9361 16.0372 14.1729C15.2411 13.4096 14.0043 13.028 12.3126 13.028C11.5307 13.028 10.7914 13.1128 10.0949 13.2965C9.39826 13.4662 8.80118 13.6782 8.30361 13.9326C8.10458 14.0315 7.97664 14.1305 7.90555 14.2294C7.83447 14.3283 7.80604 14.498 7.80604 14.7241V15.4167C7.80604 15.7135 7.90555 15.8548 8.10458 15.8548C8.16145 15.8548 8.23253 15.8407 8.33204 15.8124C8.43155 15.7842 8.60215 15.7276 8.82961 15.6287C9.32718 15.4308 9.83896 15.2753 10.365 15.1481C10.891 15.0209 11.4027 14.9644 11.9003 14.9644C12.995 14.9644 13.7626 15.1764 14.2175 15.6146C14.6583 16.0527 14.8857 16.8018 14.8857 17.8761V18.9079C14.3171 18.7806 13.7768 18.6676 13.2508 18.5969C12.7248 18.5262 12.2273 18.4838 11.7439 18.4838C10.2797 18.4838 9.12815 18.8513 8.26096 19.5863C7.39377 20.3213 6.96729 21.2966 6.96729 22.498C6.96729 23.6287 7.32269 24.5333 8.01928 25.2118C8.71588 25.8902 9.66836 26.2294 10.8625 26.2294C12.54 26.2294 13.9332 25.5792 15.0421 24.2789C15.1985 24.604 15.3406 24.8725 15.4828 25.1128C15.625 25.339 15.7955 25.5651 15.9946 25.7771C16.1367 25.9043 16.2789 25.975 16.4211 25.975C16.5348 25.975 16.6627 25.9326 16.7907 25.8478L17.6863 25.2542C17.8711 25.1128 17.9564 24.9715 17.9564 24.8301C17.9564 24.7312 17.928 24.6181 17.8569 24.505C17.6579 24.1376 17.5157 23.7983 17.402 23.4874ZM12.9381 24.1235C12.4263 24.2931 11.9429 24.378 11.4738 24.378C10.8199 24.378 10.3223 24.2083 9.9811 23.855C9.62569 23.5158 9.4551 23.0211 9.4551 22.3567C9.4551 21.65 9.68256 21.1129 10.1517 20.7313C10.6208 20.3497 11.3174 20.1659 12.2699 20.1659C12.7106 20.1659 13.1513 20.1942 13.6062 20.2507C14.0611 20.3073 14.5019 20.3921 14.9141 20.491V21.0847C14.9141 21.5652 14.8573 21.9751 14.772 22.3143C14.6867 22.6536 14.5161 22.9504 14.2886 23.2189C13.9048 23.643 13.4499 23.9539 12.9381 24.1235ZM22.8895 25.9042C22.6336 25.9042 22.463 25.8618 22.3492 25.7629C22.2355 25.6781 22.136 25.4802 22.0507 25.2117L18.7099 14.2858C18.6246 14.0032 18.5819 13.8194 18.5819 13.7205C18.5819 13.4943 18.6957 13.3671 18.9231 13.3671H20.3163C20.5864 13.3671 20.7712 13.4095 20.8708 13.5085C20.9845 13.5933 21.0698 13.7911 21.1551 14.0597L23.5434 23.4166L25.7611 14.0597C25.8322 13.777 25.9175 13.5933 26.0312 13.5085C26.145 13.4236 26.344 13.3671 26.5999 13.3671H27.7372C28.0073 13.3671 28.1921 13.4095 28.3058 13.5085C28.4196 13.5933 28.5191 13.7911 28.5759 14.0597L30.8221 23.5297L33.2815 14.0597C33.3668 13.777 33.4663 13.5933 33.5658 13.5085C33.6796 13.4236 33.8644 13.3671 34.1203 13.3671H35.4424C35.6698 13.3671 35.7978 13.4802 35.7978 13.7205C35.7978 13.7808 35.7874 13.8412 35.7755 13.9104L35.7693 13.9466C35.7551 14.0314 35.7267 14.1445 35.6698 14.3L32.2437 25.2258C32.1584 25.5085 32.0589 25.6922 31.9452 25.777C31.8314 25.8618 31.6466 25.9184 31.405 25.9184H30.1824C29.9123 25.9184 29.7275 25.876 29.6137 25.777C29.5 25.6781 29.4005 25.4943 29.3436 25.2117L27.1401 16.095L24.9508 25.1975C24.8797 25.4802 24.7944 25.664 24.6807 25.7629C24.567 25.8618 24.3679 25.9042 24.1121 25.9042H22.8895Z" fill="#252F3E"/>
<path fill-rule="evenodd" clip-rule="evenodd" d="M43.8442 33.1558C39.167 36.5905 32.3717 38.4138 26.5288 38.4138C18.3403 38.4138 10.9621 35.4032 5.38931 30.3997C4.94861 30.0039 5.34666 29.4668 5.87266 29.7777C11.9003 33.2548 19.3354 35.3608 27.0264 35.3608C32.2153 35.3608 37.916 34.2866 43.1618 32.0816C43.9437 31.7283 44.6118 32.5905 43.8442 33.1558Z" fill="#FF9900"/>
<path fill-rule="evenodd" clip-rule="evenodd" d="M45.7918 30.9504C45.1948 30.1871 41.8397 30.5829 40.3186 30.7666C39.8637 30.8232 39.7926 30.4274 40.2049 30.1306C42.8775 28.2649 47.2703 28.802 47.7821 29.4239C48.2939 30.0599 47.6399 34.4274 45.1379 36.5193C44.7541 36.8444 44.3844 36.6748 44.555 36.2507C45.1237 34.8514 46.3889 31.6995 45.7918 30.9504Z" fill="#FF9900"/>
</svg>
