<svg width="52" height="52" viewBox="0 0 52 52" fill="none" xmlns="http://www.w3.org/2000/svg">
<path fill-rule="evenodd" clip-rule="evenodd" d="M6.94383 21.9249C8.09476 22.4764 12.0019 24.0928 15.7458 25.6416L15.746 25.6417L15.7463 25.6418C19.1677 27.0573 22.4526 28.4162 23.373 28.8545C25.3004 29.7723 26.6771 29.7723 29.1553 28.5333C30.425 27.8625 34.1835 26.2537 37.7997 24.7058L37.7998 24.7058L37.7999 24.7057L37.7999 24.7057C41.1107 23.2886 44.3021 21.9225 45.355 21.3742C46.5022 20.7776 47.007 20.3187 47.007 19.9057V15.7295C47.007 15.3165 46.4563 14.9494 45.355 14.5364L29.5224 8.38691C27.3196 7.56087 26.4477 7.60676 23.8778 8.52459C22.0225 9.17556 15.3423 11.7888 10.8452 13.5481L10.8452 13.5481C9.0017 14.2692 7.52504 14.8469 6.89793 15.0871C5.84243 15.5001 5.24584 15.9131 5.24584 16.3261H5.19995V20.5023C5.19995 20.9612 5.84243 21.4201 6.94383 21.9249ZM26.9525 22.5213L20.2064 19.7219L29.8895 18.2534L26.9525 22.5213ZM35.8555 18.1158L41.5919 15.8671L35.9014 13.5725L29.5684 16.0965L35.2589 18.3452L35.8555 18.1158ZM24.8415 11.7371L23.9237 9.99319L26.8148 11.1405L29.5683 10.2226L28.834 12.0124L31.6334 13.0679L28.008 13.4351L27.182 15.3625L25.897 13.2515L21.7209 12.8844L24.8415 11.7371ZM22.8223 16.1885C22.8223 15.0871 20.4818 14.1693 17.6365 14.1693C14.7913 14.1693 12.4508 15.0871 12.4508 16.1885C12.4508 17.2899 14.7913 18.2078 17.6365 18.2078C20.5277 18.2078 22.8223 17.2899 22.8223 16.1885ZM6.9438 29.0843C8.09474 29.6358 12.0019 31.2522 15.7458 32.801C19.1674 34.2165 22.4526 35.5756 23.3729 36.0139C25.3004 36.9317 26.6771 36.9317 29.1553 35.6926C30.425 35.0218 34.1836 33.413 37.7999 31.8651L37.7999 31.8651C41.1107 30.448 44.3021 29.0819 45.3549 28.5336C46.5022 27.937 47.007 27.4781 47.007 27.0651V22.8889C47.007 23.302 46.4563 23.715 45.4008 24.3116C44.2899 24.8902 40.798 26.3908 37.2971 27.8953L37.2969 27.8954L37.2969 27.8954C33.856 29.3741 30.4067 30.8565 29.2011 31.4706C26.7689 32.7556 25.3922 32.7556 23.4647 31.7919C22.5441 31.3535 19.2471 29.9938 15.8137 28.578C12.0586 27.0294 8.14037 25.4136 6.98969 24.8623C5.88829 24.3575 5.24581 23.8985 5.24581 23.4855V27.7075C5.19992 28.1206 5.8424 28.5336 6.9438 29.0843ZM15.7458 39.6843C12.0019 38.1355 8.09474 36.5191 6.9438 35.9676C5.8424 35.4169 5.19992 34.958 5.24581 34.5908V30.3688C5.24581 30.7818 5.88829 31.2407 6.98969 31.7456C8.14037 32.2969 12.0586 33.9127 15.8137 35.4613C19.2471 36.8771 22.5441 38.2368 23.4647 38.6752C25.3922 39.6389 26.7689 39.6389 29.2011 38.3539C30.4067 37.7397 33.8561 36.2574 37.2969 34.7787C40.7978 33.2742 44.2899 31.7735 45.4008 31.1949C46.4563 30.5983 47.007 30.1852 47.007 29.7722V33.9483C47.007 34.3614 46.5022 34.8203 45.3549 35.4169C44.3021 35.9652 41.1107 37.3313 37.7999 38.7484C34.1837 40.2963 30.425 41.9051 29.1553 42.5759C26.6771 43.815 25.3004 43.815 23.3729 42.8972C22.4526 42.4589 19.1674 41.0998 15.7458 39.6843Z" fill="#D82C20"/>
</svg>
