<svg width="40" height="40" viewBox="0 0 40 40" fill="none" xmlns="http://www.w3.org/2000/svg">
<path d="M19.9387 4H20.0129C20.3933 4.18118 20.7638 4.38243 21.1228 4.60292C25.2557 6.97958 29.3886 9.357 33.5215 11.7352C33.6814 11.8205 33.8119 11.9519 33.8962 12.1124C33.9805 12.2728 34.0147 12.4549 33.9942 12.635C33.9851 17.6468 33.9942 22.6574 33.9885 27.6669C33.9347 27.906 33.7886 28.1141 33.582 28.2458C29.1872 30.7763 24.7921 33.3052 20.3966 35.8326C20.29 35.9138 20.1617 35.9612 20.0279 35.9687C19.8942 35.9762 19.7613 35.9435 19.6463 35.8748C15.2462 33.352 10.8503 30.8246 6.45861 28.2926C6.31588 28.2252 6.19634 28.1169 6.11505 27.9816C6.03376 27.8462 5.99437 27.6898 6.00186 27.5321C6.00186 22.5215 6.00186 17.5113 6.00186 12.5014C5.99109 12.3444 6.02738 12.1877 6.1061 12.0514C6.18481 11.9152 6.30238 11.8055 6.44377 11.7363C10.5713 9.36271 14.6989 6.98757 18.8265 4.61091C19.1942 4.4008 19.555 4.17814 19.9387 4Z" fill="#019639"/>
<path d="M11.7387 13.7495C11.7387 17.8824 11.7387 22.0157 11.7387 26.1493C11.7335 26.3782 11.7739 26.6059 11.8576 26.819C11.9413 27.0322 12.0667 27.2265 12.2263 27.3906C12.5324 27.6929 12.9328 27.8812 13.3609 27.924C13.789 27.9668 14.2188 27.8615 14.5786 27.6258C14.8195 27.4621 15.0167 27.242 15.153 26.9847C15.2894 26.7273 15.3607 26.4406 15.3608 26.1493C15.3608 23.1576 15.3551 20.1658 15.3608 17.174C18.0884 20.4399 20.8217 23.7011 23.5608 26.9578C23.9413 27.3433 24.4126 27.6271 24.9313 27.7831C25.45 27.9391 25.9996 27.9624 26.5297 27.8508C26.904 27.777 27.2447 27.5851 27.5019 27.3033C27.759 27.0215 27.919 26.6647 27.9582 26.2852C27.9643 22.0671 27.9643 17.8493 27.9582 13.6319C27.9189 13.1817 27.7123 12.7626 27.3791 12.4573C27.046 12.152 26.6105 11.9826 26.1586 11.9826C25.7067 11.9826 25.2712 12.152 24.938 12.4573C24.6049 12.7626 24.3983 13.1817 24.3589 13.6319C24.3589 16.6716 24.3407 19.7079 24.3589 22.7465C21.6801 19.588 19.0343 16.4021 16.3657 13.2322C16.0139 12.7811 15.5481 12.432 15.0164 12.2208C14.4847 12.0096 13.9063 11.9441 13.3408 12.031C12.9124 12.0786 12.5153 12.2782 12.2214 12.5935C11.9275 12.9087 11.7563 13.3189 11.7387 13.7495Z" fill="white"/>
</svg>
