<svg width="52" height="52" viewBox="0 0 52 52" fill="none" xmlns="http://www.w3.org/2000/svg">
<path fill-rule="evenodd" clip-rule="evenodd" d="M13.7555 30.1889C14.183 30.7162 14.6582 31.2505 15.1811 31.7878C13.6587 32.2458 12.6606 33.0965 12.038 33.8477C11.0529 35.0365 10.5315 36.6066 10.6514 37.9542H8.02966C8.55546 36.8131 10.6542 33.5169 13.7555 30.1889Z" fill="#D1A41A"/>
<path fill-rule="evenodd" clip-rule="evenodd" d="M44.1264 38.6692H40.9384C33.6252 34.853 27.2047 32.162 20.384 31.5741C20.3985 30.625 20.5675 29.5504 20.8925 28.353L20.2641 28.184C19.9305 29.4146 19.7557 30.5283 19.7354 31.525C19.0248 31.4773 18.3098 31.4542 17.5875 31.4542C16.9765 31.4542 16.419 31.5106 15.9106 31.6088C15.2476 30.9472 14.6828 30.3146 14.2032 29.7152C17.3492 26.4391 22.5305 23.475 27.04 22.36C28.3097 26.5806 31.0354 29.4724 34.3431 31.4181C34.5857 31.2794 34.8241 31.135 35.0581 30.9819L40.8287 37.1944L41.0815 37.1727C42.6573 37.037 43.5528 37.8921 43.7898 38.1579C43.9646 38.3514 44.0685 38.5291 44.1264 38.6692Z" fill="#D1A41A"/>
<path fill-rule="evenodd" clip-rule="evenodd" d="M41.3111 17.8894C41.4282 23.6224 38.5032 28.1854 34.4081 30.5255C27.4575 27.0632 26.1488 18.2896 27.3333 13.5836C27.6626 15.3833 28.2621 16.5115 29.5563 17.0648C32.3787 16.2572 36.2628 16.1936 39.1243 16.9824C40.316 16.1157 40.7782 14.7912 41.031 13.6342C41.3458 14.9803 41.3097 17.8894 41.3111 17.8894Z" fill="#FFDC76"/>
<path fill-rule="evenodd" clip-rule="evenodd" d="M23.8273 23.3174L24.8879 26.4599L21.6669 24.2994L23.8273 23.3174Z" fill="black"/>
<path fill-rule="evenodd" clip-rule="evenodd" d="M20.7243 24.6923L21.8634 26.6562L19.4673 25.4386L20.7243 24.6923Z" fill="black"/>
<path fill-rule="evenodd" clip-rule="evenodd" d="M18.1317 26.2242L18.6816 28.1883L17.0319 27.0491L18.1317 26.2242Z" fill="black"/>
<path fill-rule="evenodd" clip-rule="evenodd" d="M35.6901 31.4878L34.6688 33.059L36.4757 32.2341L35.6901 31.4878Z" fill="black"/>
<path fill-rule="evenodd" clip-rule="evenodd" d="M37.3006 33.2947L35.6509 34.5517L37.9291 33.9625L37.3006 33.2947Z" fill="black"/>
<path fill-rule="evenodd" clip-rule="evenodd" d="M33.2939 16.2469L34.5117 18.918L35.2973 16.2077L33.2939 16.2469Z" fill="black"/>
<path fill-rule="evenodd" clip-rule="evenodd" d="M27.127 20.1356L29.0517 21.1569L27.3233 21.2748L27.127 20.1356Z" fill="black"/>
<path fill-rule="evenodd" clip-rule="evenodd" d="M27.5983 22.2177L28.7767 22.6889L27.7947 22.9639L27.5983 22.2177Z" fill="black"/>
<path fill-rule="evenodd" clip-rule="evenodd" d="M41.3465 20.8821L39.7753 21.5499L41.0715 21.7462L41.3465 20.8821Z" fill="black"/>
<path fill-rule="evenodd" clip-rule="evenodd" d="M40.718 22.8067L39.5004 23.1604L40.4823 23.5139L40.718 22.8067Z" fill="black"/>
<rect x="26.4945" y="25.7548" width="3.79089" height="0.467894" fill="black"/>
<rect x="26.4945" y="24.6314" width="3.79089" height="0.468035" fill="black"/>
<rect x="38.0703" y="25.7548" width="3.79082" height="0.467894" fill="black"/>
<rect x="38.0703" y="24.6314" width="3.79082" height="0.468035" fill="black"/>
<path fill-rule="evenodd" clip-rule="evenodd" d="M36.7341 21.8568H32.8071H32.3708H30.5565V21.4356H32.479C32.7157 20.4219 32.7625 19.4532 32.477 18.962C32.3551 18.7532 32.1867 18.6556 31.9463 18.6556C30.8472 18.6556 30.3931 19.8179 30.3742 19.8673L30.3745 19.867L29.9801 19.7191C30.0027 19.6584 30.5528 18.2344 31.9463 18.2344C32.3352 18.2344 32.6446 18.413 32.8406 18.7501C33.1888 19.3482 33.1479 20.383 32.912 21.4356H36.2854C36.7336 20.119 37.6694 19.4982 39.2329 19.4982V19.9192C37.5382 19.9192 37.0635 20.6376 36.7244 21.4356H38.5651L38.5609 21.8547L36.7341 21.8568Z" fill="black"/>
<path fill-rule="evenodd" clip-rule="evenodd" d="M37.0138 23.9366L37.0111 23.937C37.0118 23.9378 37.0122 23.9387 37.0129 23.9397C36.9003 24.0115 34.6352 25.4829 34.6352 25.4829L36.1502 26.4201L35.9258 26.7765L34.2919 25.7102L32.7783 26.7081L32.5464 26.3563L33.9006 25.464L31.4952 23.9498L31.5948 23.7746C31.9026 23.2325 32.1761 22.5483 32.3708 21.8568H32.8071C32.6305 22.5089 32.3887 23.1458 32.1279 23.6681H36.4143C36.0461 23.0518 35.9861 22.3336 36.1357 21.8568L36.5648 21.8547C36.3559 22.5708 36.5141 23.1998 37.0138 23.9366ZM32.5076 24.0892L34.2868 25.2093L35.9846 24.09L32.5076 24.0892Z" fill="black"/>
<path fill-rule="evenodd" clip-rule="evenodd" d="M41.3681 12.7014C41.7873 13.5536 42.0154 16.649 42.0181 17.3814L42.0151 17.3797L42.0126 17.3783C42.1384 23.7429 38.8898 28.8083 34.3425 31.4066C29.9225 28.8066 26.5426 24.5167 26.2826 17.6267L26.2878 17.6232L26.2904 17.6215C26.2238 15.9807 26.4857 13.6676 27.0769 12.67C28.4784 13.3339 30.3363 14.5123 30.7064 16.0521C32.922 15.6687 35.4512 15.629 37.6948 15.9641C38.1629 14.5329 40.2314 13.1333 41.3681 12.7014ZM38.2342 16.0531L38.2838 16.0622C38.2673 16.0591 38.2508 16.056 38.2342 16.0531ZM38.032 16.0178L38.0321 16.0178L38.0712 16.0246L38.0334 16.0181L37.9513 16.0043C37.9781 16.0085 38.0051 16.0132 38.032 16.0178ZM34.4077 30.5146C38.5026 28.1744 41.4276 23.6116 41.3107 17.8785C41.3106 17.8785 41.3107 17.8705 41.3108 17.8551C41.3125 17.5773 41.3295 14.8991 41.0307 13.6233C40.7782 14.7803 40.3158 16.1045 39.1234 16.9715C36.2623 16.1824 32.3781 16.2462 29.5567 17.0537C28.2611 16.5002 27.6629 15.3719 27.3332 13.5728C26.1479 18.2786 27.4573 27.0513 34.4077 30.5146Z" fill="black"/>
<path fill-rule="evenodd" clip-rule="evenodd" d="M40.9948 36.5646C42.1625 36.5367 43.561 36.9146 44.2747 37.7131C44.6884 38.1759 44.8911 38.6743 44.8167 39.0462L44.7645 39.3075H40.7781C33.5331 35.5227 27.1121 32.8119 20.3992 32.2174C20.4792 33.438 20.8495 34.4208 21.5101 35.1564C22.203 34.9201 22.9573 34.9641 23.4459 35.2836C23.7762 35.4996 23.958 35.8206 23.958 36.1874V36.5124H20.8649C18.8854 35.1166 17.1071 33.6699 15.7113 32.3077C14.1415 32.6914 13.1419 33.5229 12.5382 34.2515C11.5767 35.412 11.1072 36.9648 11.3423 38.2071L11.4152 38.5925H7.25293V38.2675C7.25293 37.6402 9.55924 33.8544 12.7144 30.324C12.9144 30.1003 13.1223 29.8725 13.3373 29.6418C12.0428 27.9212 11.2704 26.2621 11.0514 24.7021C10.8202 23.0551 11.2173 21.5393 12.1998 20.3187C13.2012 19.0745 14.5381 18.4635 16.287 18.4506C16.7846 18.447 17.4653 18.5382 18.1507 18.6608C18.2701 18.4193 18.4442 18.2122 18.675 18.0995C19.3719 17.7592 21.8867 18.6086 23.1283 20.3484C21.4459 21.099 18.6274 20.8269 18.1029 20.0524C17.9775 19.8671 17.9363 19.5678 17.975 19.2547C15.9921 18.9212 14.0635 19.04 12.7061 20.7262C11.8391 21.8035 11.4895 23.147 11.6952 24.6117C11.8579 25.7713 12.4061 27.3015 13.7877 29.1663C16.7648 26.0713 22.1075 22.8666 26.9886 21.6896L27.1352 22.3247C22.6021 23.4216 17.3712 26.4041 14.2026 29.7046C14.6826 30.304 15.2474 30.9355 15.9104 31.598C16.4187 31.4993 16.976 31.4425 17.588 31.4425C18.3096 31.4425 19.0249 31.4669 19.7355 31.514C19.7553 30.5178 19.931 29.4033 20.2643 28.1726L20.8916 28.3425C20.5674 29.5398 20.3984 30.6143 20.3835 31.5635C27.204 32.1511 33.6252 34.8418 40.9375 38.6575H44.1262C44.0691 38.5183 43.9641 38.3408 43.7902 38.1463C43.5531 37.8811 42.6571 37.0263 41.0809 37.1613L40.8291 37.1828L35.0279 30.9373L35.3609 30.5179C35.3609 30.5179 40.166 35.578 40.9948 36.5646ZM10.6509 37.9424C10.5314 36.5948 11.0532 35.0251 12.0377 33.8368C12.6605 33.0852 13.6586 32.2342 15.1811 31.7766C14.6583 31.2388 14.1824 30.7053 13.7551 30.1771C10.6543 33.5063 8.55568 36.8023 8.02883 37.9424H10.6509Z" fill="black"/>
</svg>
