<svg width="52" height="52" viewBox="0 0 52 52" fill="none" xmlns="http://www.w3.org/2000/svg">
<path fill-rule="evenodd" clip-rule="evenodd" d="M20.2425 36.5437L20.9431 36.1161L20.1532 36.3389C18.8414 36.7096 18.1183 37.1724 18.0055 37.7163C17.9585 37.9436 18.0009 38.2954 18.4749 38.6833C19.44 39.4726 21.9858 40.15 25.0661 40.15C27.4657 40.15 30.1911 39.7387 32.746 38.6481L33.0069 38.5363L32.7397 38.4388C31.3946 37.9436 30.3843 37.2996 30.3744 37.2923L30.3365 37.2689L30.2923 37.2761C26.5647 37.9932 24.7275 38.0663 21.353 37.6378C20.043 37.5025 19.8399 37.2193 19.8137 37.1038C19.7659 36.89 20.1162 36.6212 20.2425 36.5437Z" fill="#4E7896"/>
<path fill-rule="evenodd" clip-rule="evenodd" d="M20.8685 30.7121C21.2485 30.7202 21.6286 30.7238 22.0087 30.7238C26.1913 30.7238 30.2926 30.2936 33.1643 29.5449L33.1959 29.5304C33.9759 29.0352 35.1224 28.5319 35.1342 28.5265L36.0054 28.1458L35.0692 28.3127C35.0367 28.319 31.7813 28.8927 28.5683 29.1777C24.2674 29.4916 20.1869 29.5187 18.1728 29.2508C16.7058 29.0623 16.5785 28.7971 16.574 28.7204C16.5478 28.2288 19.1505 27.3854 21.0057 26.9425L21.7225 26.7711L20.9876 26.7197C20.956 26.7197 17.8044 26.5212 14.0561 28.3226C13.3935 28.6482 13.119 28.9793 13.2409 29.3058C13.5903 30.243 17.4099 30.6472 20.8685 30.7121Z" fill="#4E7896"/>
<path fill-rule="evenodd" clip-rule="evenodd" d="M36.8474 27.0881C38.0373 26.8554 39.377 27.6158 39.7706 28.747C40.074 29.6174 40.2193 31.9321 35.0374 34.613L35.004 34.6292L34.9877 34.6626C34.9263 34.7861 34.8649 34.8502 34.8649 34.8502L34.5715 35.1434L34.9724 35.0387C40.2473 33.6685 41.531 31.4459 41.8272 30.2426C42.0998 29.1331 41.7613 28.047 40.8964 27.2631C39.8167 26.2844 38.1592 26.0228 36.5775 26.5803C36.0295 26.7354 35.7939 27.1964 35.784 27.2162L35.6341 27.5166L35.9356 27.3678C35.9383 27.366 36.2245 27.2261 36.8474 27.0881Z" fill="#4E7896"/>
<path fill-rule="evenodd" clip-rule="evenodd" d="M41.7144 42.1162C41.7081 42.1298 41.0364 43.5279 35.3579 44.5779C28.7261 45.8029 20.4215 45.6513 15.644 44.8684L15.2458 44.8034L15.5519 45.065C15.5943 45.102 16.6533 45.9598 21.7684 46.2485C23.1632 46.3387 24.6573 46.3865 26.1803 46.3865C33.6084 46.3865 41.69 45.2346 41.9311 42.1686L41.9825 41.502L41.7144 42.1162Z" fill="#4E7896"/>
<mask id="mask0_2361_3512" style="mask-type:luminance" maskUnits="userSpaceOnUse" x="9" y="39" width="32" height="6">
<path fill-rule="evenodd" clip-rule="evenodd" d="M9.75 39.5076H40.0162V44.3297H9.75V39.5076Z" fill="white"/>
</mask>
<g mask="url(#mask0_2361_3512)">
<path fill-rule="evenodd" clip-rule="evenodd" d="M39.9868 41.03C40.078 40.7288 40.0003 40.2877 39.1147 39.8872L38.3428 39.5399L38.9965 40.0775C39.0001 40.0802 39.3016 40.3328 39.2366 40.6584C39.1833 40.9263 38.8665 41.3214 37.6612 41.6885C32.9677 43.0885 17.4742 43.6036 13.0651 41.693C12.889 41.6182 12.6841 41.5 12.7012 41.3593C12.759 40.9092 14.5023 40.3048 15.3617 40.1731C16.2753 39.962 16.7782 39.9593 16.7827 39.9593L17.142 39.9584L16.8477 39.7537C15.8537 39.06 12.2797 39.9404 10.6068 41.0562C9.96493 41.4856 9.68146 41.8951 9.76361 42.2758C9.87375 42.7782 10.6014 43.1318 11.989 43.3546C16.2347 44.0474 20.2963 44.3297 23.9481 44.3297C32.9975 44.3297 39.5156 42.5897 39.9868 41.03Z" fill="#4E7896"/>
</g>
<path fill-rule="evenodd" clip-rule="evenodd" d="M33.8001 33.9239L33.4607 33.8111C32.4189 33.4638 31.7788 32.7647 31.7725 32.7575L31.7291 32.7097L31.6659 32.7233C26.8641 33.6957 24.0113 33.6794 20.123 33.2997C19.0144 33.186 18.712 32.9145 18.6533 32.7061C18.563 32.385 18.9937 31.971 19.167 31.8384L19.7114 31.4243L19.0623 31.6426C16.846 32.3877 16.5562 33.0967 16.7033 33.5603C17.04 34.6221 20.0463 35.378 24.0104 35.378C26.874 35.378 30.2387 34.9838 33.4571 34.0258L33.8001 33.9239Z" fill="#4E7896"/>
<path fill-rule="evenodd" clip-rule="evenodd" d="M24.5082 24.271C22.5998 21.545 20.6263 18.7252 25.9698 14.4865C29.4221 11.7786 31.2556 9.10676 31.4199 6.54677C31.5662 4.2601 30.3032 2.95033 30.249 2.89621L29.9583 2.60034L30.0594 3.00265C31.2484 7.70589 28.0219 10.2533 24.901 12.7167C23.3464 13.9444 21.7394 15.2136 20.7419 16.7209C18.5878 19.9484 21.9173 23.3509 25.8245 26.8445L26.2136 27.1918L26.0032 26.7146C25.6376 25.8856 25.0635 25.0648 24.5082 24.271Z" fill="#F58219"/>
<path fill-rule="evenodd" clip-rule="evenodd" d="M35.6519 11.9653L36.3471 11.5648L35.568 11.7587C35.5481 11.7632 33.5097 12.2756 31.3303 13.3138C29.3081 14.2772 26.746 15.9054 26.0238 18.1866C25.4695 19.9375 26.0572 21.8255 27.7689 23.7982H27.7698C28.3376 24.4441 28.5958 25.1333 28.5353 25.8459C28.4225 27.1872 27.2155 28.1803 27.2038 28.1912L26.3642 28.8722L27.3265 28.3788C27.4484 28.3157 30.3219 26.8192 30.8474 24.629C31.0568 23.7558 30.8591 22.8944 30.2624 22.0699C30.1603 21.922 30.0601 21.7777 29.9608 21.6369C29.0319 20.3073 28.2988 19.2565 28.5678 18.0495C28.9263 16.4403 31.0451 14.6209 35.6519 11.9653Z" fill="#F58219"/>
</svg>
