<svg width="35" height="35" viewBox="0 0 35 35" fill="none" xmlns="http://www.w3.org/2000/svg">
<circle cx="17.5" cy="17.5" r="17.5" fill="#F9C12A"/>
<path d="M17.8281 23.2656C18.2969 23.2656 18.7135 23.1667 19.0781 22.9688C19.4531 22.7708 19.75 22.4635 19.9688 22.0469C20.1875 21.6198 20.3073 21.0677 20.3281 20.3906H23.75C23.7292 21.5885 23.4531 22.6354 22.9219 23.5312C22.3906 24.4167 21.6823 25.1042 20.7969 25.5938C19.9219 26.0729 18.9479 26.3125 17.875 26.3125C16.7604 26.3125 15.7865 26.1354 14.9531 25.7812C14.1302 25.4167 13.4479 24.8906 12.9062 24.2031C12.3646 23.5156 11.9583 22.6823 11.6875 21.7031C11.4271 20.7135 11.2969 19.5833 11.2969 18.3125V16.7812C11.2969 15.5208 11.4271 14.3958 11.6875 13.4062C11.9583 12.4167 12.3646 11.5781 12.9062 10.8906C13.4479 10.2031 14.1302 9.68229 14.9531 9.32812C15.776 8.96354 16.7448 8.78125 17.8594 8.78125C19.0469 8.78125 20.0729 9.03125 20.9375 9.53125C21.8125 10.0208 22.4948 10.7396 22.9844 11.6875C23.474 12.6354 23.7292 13.7969 23.75 15.1719H20.3281C20.3073 14.4427 20.1979 13.8333 20 13.3438C19.8021 12.8438 19.5208 12.4688 19.1562 12.2188C18.8021 11.9688 18.3542 11.8438 17.8125 11.8438C17.2188 11.8438 16.7292 11.9583 16.3438 12.1875C15.9688 12.4062 15.6771 12.7292 15.4688 13.1562C15.2708 13.5833 15.1302 14.1042 15.0469 14.7188C14.974 15.3229 14.9375 16.0104 14.9375 16.7812V18.3125C14.9375 19.1042 14.974 19.8073 15.0469 20.4219C15.1198 21.026 15.2552 21.5417 15.4531 21.9688C15.6615 22.3958 15.9583 22.7188 16.3438 22.9375C16.7292 23.1562 17.224 23.2656 17.8281 23.2656Z" fill="#333333"/>
</svg>
