<svg width="87" height="32" viewBox="0 0 87 32" fill="none" xmlns="http://www.w3.org/2000/svg">
<path d="M4 0.5H83C84.933 0.5 86.5 2.067 86.5 4V28C86.5 29.933 84.933 31.5 83 31.5H4C2.067 31.5 0.5 29.933 0.5 28V4C0.5 2.067 2.067 0.5 4 0.5Z" fill="#296CF2"/>
<path d="M4 0.5H83C84.933 0.5 86.5 2.067 86.5 4V28C86.5 29.933 84.933 31.5 83 31.5H4C2.067 31.5 0.5 29.933 0.5 28V4C0.5 2.067 2.067 0.5 4 0.5Z" stroke="#296CF2"/>
<rect width="16" height="16" transform="translate(8 8)" fill="#296CF2"/>
<path d="M16.6667 15.3337H21.3337V16.6667H16.6667V21.3337H15.3337V16.6667H10.6667V15.3337H15.3337V10.6667H16.6667V15.3337Z" fill="white"/>
<path d="M31.354 13.635H32.433V14.467C32.433 15.091 32.3593 15.702 32.212 16.3C32.0647 16.898 31.848 17.4613 31.562 17.99C31.276 18.51 30.9337 18.9693 30.535 19.368C30.145 19.7667 29.6943 20.0873 29.183 20.33L28.442 19.277C28.8927 19.0603 29.3 18.783 29.664 18.445C30.028 18.0983 30.3357 17.7083 30.587 17.275C30.8383 16.8417 31.029 16.3867 31.159 15.91C31.289 15.4333 31.354 14.9523 31.354 14.467V13.635ZM31.64 13.635H32.706V14.467C32.706 14.9177 32.7667 15.3727 32.888 15.832C33.018 16.2827 33.2 16.716 33.434 17.132C33.6767 17.5393 33.9713 17.912 34.318 18.25C34.6647 18.5793 35.0633 18.8523 35.514 19.069L34.76 20.109C34.2747 19.875 33.837 19.563 33.447 19.173C33.0657 18.7743 32.7407 18.328 32.472 17.834C32.2033 17.3313 31.9953 16.794 31.848 16.222C31.7093 15.65 31.64 15.065 31.64 14.467V13.635ZM28.793 12.699H35.215V13.778H28.793V12.699ZM31.354 10.931H32.706V13.284H31.354V10.931ZM36.437 10.697H37.802V22.579H36.437V10.697ZM37.503 15.455H39.648V16.586H37.503V15.455ZM41.783 16.963H50.025V18.055H41.783V16.963ZM40.457 20.005H51.221V21.123H40.457V20.005ZM41.783 11.646H49.921V12.738H43.161V17.288H41.783V11.646ZM42.745 14.272H49.661V15.351H42.745V14.272ZM60.2729 18.263H61.6249V22.592H60.2729V18.263ZM55.5929 17.847H66.3309V18.965H55.5929V17.847ZM60.2729 12.777H61.4689V13.063C61.4689 13.4703 61.3909 13.856 61.2349 14.22C61.0876 14.584 60.8709 14.9263 60.5849 15.247C60.3076 15.559 59.9696 15.8407 59.5709 16.092C59.1723 16.3347 58.7303 16.5427 58.2449 16.716C57.7596 16.8807 57.2396 16.9977 56.6849 17.067L56.2039 15.988C56.6806 15.9273 57.1269 15.832 57.5429 15.702C57.9589 15.572 58.3316 15.4117 58.6609 15.221C58.9989 15.0217 59.2849 14.8093 59.5189 14.584C59.7616 14.35 59.9479 14.1073 60.0779 13.856C60.2079 13.596 60.2729 13.3317 60.2729 13.063V12.777ZM60.4419 12.777H61.6379V13.063C61.6379 13.323 61.7029 13.583 61.8329 13.843C61.9629 14.0943 62.1449 14.337 62.3789 14.571C62.6216 14.805 62.9076 15.0173 63.2369 15.208C63.5749 15.3987 63.9476 15.5633 64.3549 15.702C64.7709 15.832 65.2173 15.9273 65.6939 15.988L65.2129 17.067C64.6583 16.9977 64.1383 16.8807 63.6529 16.716C63.1676 16.5427 62.7256 16.3303 62.3269 16.079C61.9369 15.8277 61.5989 15.546 61.3129 15.234C61.0356 14.9133 60.8189 14.571 60.6629 14.207C60.5156 13.843 60.4419 13.4617 60.4419 13.063V12.777ZM56.6069 12.101H65.3169V13.193H56.6069V12.101ZM60.2729 10.71H61.6249V12.478H60.2729V10.71ZM75.2909 10.684H76.6559V22.566H75.2909V10.684ZM76.3049 15.377H78.4499V16.508H76.3049V15.377ZM72.2229 11.945H73.5489C73.5489 13.0977 73.3712 14.1983 73.0159 15.247C72.6692 16.287 72.1016 17.2447 71.3129 18.12C70.5329 18.9953 69.4929 19.758 68.1929 20.408L67.4389 19.368C68.5136 18.8133 69.4019 18.1807 70.1039 17.47C70.8146 16.7593 71.3432 15.962 71.6899 15.078C72.0452 14.194 72.2229 13.2233 72.2229 12.166V11.945ZM68.0369 11.945H72.9249V13.05H68.0369V11.945Z" fill="white"/>
</svg>
