<svg width="24" height="24" viewBox="0 0 24 24" fill="none" xmlns="http://www.w3.org/2000/svg">
<path fill-rule="evenodd" clip-rule="evenodd" d="M12 22C17.5228 22 22 17.5228 22 12C22 6.47715 17.5228 2 12 2C6.47715 2 2 6.47715 2 12C2 17.5228 6.47715 22 12 22ZM18.3742 16.8349C17.1034 18.5078 15.189 19.6651 13 19.9381L13 15.874C13.7149 15.69 14.3525 15.3133 14.8541 14.8025L18.3742 16.8349ZM13.7512 12.9668L13.7147 13.03C13.3648 13.6112 12.7278 14 12 14C11.2722 14 10.6352 13.6112 10.2853 13.03L10.2488 12.9667C10.0902 12.6802 10 12.3506 10 12C10 11.6494 10.0902 11.3198 10.2488 11.0332L10.2853 10.97C10.6352 10.3888 11.2722 10 12 10C12.7278 10 13.3648 10.3888 13.7147 10.97L13.7512 11.0333C13.9098 11.3198 14 11.6494 14 12C14 12.3506 13.9098 12.6802 13.7512 12.9668ZM15.855 13.071C15.9495 12.7301 16 12.371 16 12C16 11.629 15.9495 11.2699 15.855 10.929L19.3757 8.89635C19.7777 9.8507 20 10.8994 20 12C20 13.1006 19.7777 14.1493 19.3757 15.1036L15.855 13.071ZM9.1459 9.19748C9.64746 8.68674 10.2851 8.31003 11 8.12602V4.06189C8.81099 4.33486 6.89663 5.49222 5.62576 7.16513L9.1459 9.19748ZM4.62433 8.89635C4.22225 9.8507 4 10.8994 4 12C4 13.1006 4.22225 14.1493 4.62433 15.1036L8.14499 13.071C8.0505 12.7301 8 12.371 8 12C8 11.629 8.0505 11.2699 8.14499 10.929L4.62433 8.89635ZM11 15.874V19.9381C8.81099 19.6651 6.89663 18.5078 5.62576 16.8349L9.1459 14.8025C9.64746 15.3133 10.2851 15.69 11 15.874ZM18.3742 7.16513L14.8541 9.19748C14.3525 8.68674 13.7149 8.31003 13 8.12602V4.06189C15.189 4.33486 17.1034 5.49222 18.3742 7.16513Z" fill="#757575"/>
</svg>
