<svg width="24" height="24" viewBox="0 0 24 24" fill="none" xmlns="http://www.w3.org/2000/svg">
<rect x="0.5" y="0.5" width="23" height="23" rx="3.5" fill="white"/>
<rect x="0.5" y="0.5" width="23" height="23" rx="3.5" stroke="#ADADAD"/>
<path d="M12.9525 4.66666C14.0429 4.66666 14.93 5.53932 14.9525 6.6237C15.179 6.73619 15.3975 6.86358 15.6078 7.00358C16.5585 6.48064 17.7577 6.81154 18.3031 7.75553L18.9701 8.9108C19.5153 9.8554 19.2023 11.0602 18.2738 11.6217C18.2816 11.7472 18.2855 11.8732 18.2855 11.9997C18.2855 12.1264 18.2816 12.2529 18.2738 12.3786C19.2025 12.9405 19.5153 14.1451 18.9701 15.0895L18.3031 16.2438C17.7578 17.1883 16.5584 17.5199 15.6078 16.9967C15.3975 17.1367 15.1789 17.2641 14.9525 17.3766C14.9295 18.4612 14.0426 19.3337 12.9525 19.3337H11.6195C10.5294 19.3337 9.64248 18.4612 9.61948 17.3766C9.39287 17.2641 9.1736 17.1368 8.96323 16.9967C8.01233 17.5196 6.8131 17.1881 6.26791 16.2438L5.6019 15.0895C5.05658 14.145 5.36887 12.9402 6.29721 12.3786C6.28936 12.2529 6.28549 12.1263 6.28549 11.9997C6.2855 11.8732 6.28938 11.7472 6.29721 11.6217C5.36865 11.0598 5.05664 9.85521 5.6019 8.9108L6.26791 7.75553C6.81324 6.8112 8.01268 6.48054 8.96323 7.00358C9.17357 6.86351 9.3929 6.73623 9.61948 6.6237C9.64234 5.53896 10.5293 4.66666 11.6195 4.66666H12.9525ZM11.5999 5.88932C11.2249 5.88932 10.9203 6.19302 10.9203 6.56803V7.44401C10.1976 7.65917 9.54671 8.04179 9.01303 8.54655L8.25327 8.10807C7.92852 7.92061 7.51305 8.03141 7.32553 8.35612L6.64682 9.53288C6.45957 9.8576 6.57118 10.2722 6.89584 10.4596L7.65366 10.8981C7.56978 11.2516 7.52575 11.6206 7.52573 11.9997C7.52573 12.3787 7.56982 12.7478 7.65366 13.1012L6.89584 13.5397C6.5711 13.7272 6.45937 14.1427 6.64682 14.4674L7.32553 15.6432C7.513 15.9679 7.92852 16.0796 8.25327 15.8923L9.01303 15.4538C9.54673 15.9586 10.1976 16.3412 10.9203 16.5563V17.4323C10.9204 17.8072 11.225 18.111 11.5999 18.111H12.9574C13.3323 18.111 13.637 17.8072 13.6371 17.4323V16.5563C14.3597 16.3412 15.0106 15.9585 15.5443 15.4538L16.304 15.8923C16.6288 16.0797 17.0443 15.968 17.2318 15.6432L17.9105 14.4674C18.098 14.1427 17.9871 13.7273 17.6624 13.5397L16.9037 13.1012C16.9875 12.7478 17.0316 12.3788 17.0316 11.9997C17.0316 11.6206 16.9875 11.2516 16.9037 10.8981L17.6624 10.4596C17.9868 10.2721 18.0977 9.85746 17.9105 9.53288L17.2318 8.35612C17.0442 8.03146 16.6288 7.92059 16.304 8.10807L15.5443 8.54655C15.0106 8.04178 14.3597 7.65917 13.6371 7.44401V6.56803C13.6371 6.19302 13.3324 5.88932 12.9574 5.88932H11.5999ZM12.3177 9.55534C13.6675 9.55548 14.7619 10.6499 14.7621 11.9997C14.7621 13.3496 13.6676 14.4439 12.3177 14.444C10.9677 14.4439 9.87338 13.3497 9.87338 11.9997C9.87356 10.6498 10.9678 9.55539 12.3177 9.55534ZM12.3177 10.778C11.6429 10.7781 11.0962 11.3248 11.096 11.9997C11.096 12.6747 11.6428 13.2223 12.3177 13.2223C12.9926 13.2222 13.5404 12.6746 13.5404 11.9997C13.5402 11.3249 12.9925 10.7781 12.3177 10.778Z" fill="#757575"/>
</svg>
