<svg width="20" height="20" viewBox="0 0 20 20" fill="none" xmlns="http://www.w3.org/2000/svg">
<rect width="20" height="20" rx="2" fill="#E8E1FF"/>
<path d="M12.667 5.33301C15.2442 5.33318 17.333 7.42278 17.333 10C17.333 12.5772 15.2442 14.6668 12.667 14.667H7.33301C4.75583 14.6668 2.66699 12.5772 2.66699 10C2.66699 7.42278 4.75583 5.33318 7.33301 5.33301H12.667ZM7.33301 6.66699C5.49221 6.66717 4 8.15916 4 10C4 11.8408 5.49221 13.3328 7.33301 13.333H12.667L12.4951 13.3291C10.7339 13.2398 9.33301 11.7834 9.33301 10C9.33301 8.15905 10.826 6.66699 12.667 6.66699H7.33301Z" fill="#8B52FF"/>
</svg>
