<svg width="24" height="24" viewBox="0 0 24 24" fill="none" xmlns="http://www.w3.org/2000/svg">
<rect x="0.5" y="0.5" width="23" height="23" rx="3.5" fill="white"/>
<rect x="0.5" y="0.5" width="23" height="23" rx="3.5" stroke="#ADADAD"/>
<path d="M12.387 17.3337C15.3973 17.3337 17.8381 14.9452 17.8381 11.9997C17.838 9.0543 15.3972 6.66666 12.387 6.66666C9.37686 6.66676 6.93695 9.05436 6.93677 11.9997C6.93677 12.4317 6.99085 12.8514 7.09009 13.2536L8.64966 12.3766L7.99731 16.5299L4.00024 14.9889L5.87134 13.9381C5.68031 13.3244 5.57349 12.6744 5.57349 11.9997C5.57367 8.31798 8.62428 5.33376 12.387 5.33366C16.1497 5.33366 19.2003 8.31792 19.2004 11.9997C19.2004 15.6816 16.1498 18.6667 12.387 18.6667V17.3337Z" fill="#757575"/>
</svg>
