<svg width="24" height="24" viewBox="0 0 24 24" fill="none" xmlns="http://www.w3.org/2000/svg">
<rect x="0.5" y="0.5" width="23" height="23" rx="3.5" fill="white"/>
<rect x="0.5" y="0.5" width="23" height="23" rx="3.5" stroke="#ADADAD"/>
<path d="M10.6695 17.0667H9.32184V15.7435L6.36285 18.7025L5.39996 17.7406L8.45953 14.681H6.9361V13.3333H10.6695V17.0667ZM17.0806 14.681H15.775L18.8336 17.7406L17.8707 18.7025L14.6949 15.5267V17.0667H13.3472V13.3333H17.0806V14.681Z" fill="#757575"/>
<path d="M10.6695 6.96957H9.32184V8.29379L6.36285 5.33382L5.39996 6.29574L8.45953 9.35531H6.9361V10.703H10.6695V6.96957ZM17.0806 9.35531H15.775L18.8336 6.29574L17.8707 5.33382L14.6949 8.50961V6.96957H13.3472V10.703H17.0806V9.35531Z" fill="#757575"/>
</svg>
