<svg width="24" height="24" viewBox="0 0 24 24" fill="none" xmlns="http://www.w3.org/2000/svg">
<path fill-rule="evenodd" clip-rule="evenodd" d="M14 10H16H18C19.1046 10 20 10.8954 20 12L20 18C20 19.1046 19.1046 20 18 20H12C10.8954 20 10 19.1046 10 18V17H8V18C8 20.2091 9.79086 22 12 22H18C20.2091 22 22 20.2091 22 18V12C22 9.79086 20.2091 8 18 8H16H14L12 8C9.79086 8 8 9.79086 8 12V13H10V12C10 10.8954 10.8954 10 12 10L14 10ZM14 6V7H16V6C16 3.79086 14.2091 2 12 2H6C3.79086 2 2 3.79086 2 6V12C2 14.2091 3.79086 16 6 16L8 16H10L12 16C14.2091 16 16 14.2091 16 12V11H14V12C14 13.1046 13.1046 14 12 14L10 14H8L6 14C4.89543 14 4 13.1046 4 12V6C4 4.89543 4.89543 4 6 4L12 4C13.1046 4 14 4.89543 14 6Z" fill="#757575"/>
</svg>
