<svg width="24" height="24" viewBox="0 0 24 24" fill="none" xmlns="http://www.w3.org/2000/svg">
<path fill-rule="evenodd" clip-rule="evenodd" d="M8.3359 1.5L6.9264 2.91L9.30555 5.29L2.77727 11.8372C2.18748 12.4272 2.18748 13.3772 2.77727 13.9572L9.96917 20.802C10.2591 21.092 10.6489 21.242 11.0288 21.242C11.4087 21.242 11.7985 21.092 12.0884 20.802L18.8015 14.1826C19.3913 13.6026 19.3913 12.6526 18.8015 12.0626L8.3359 1.5ZM10.6678 6.52555L16.8112 12.6166L4.60469 12.6193L10.6678 6.52555ZM16.5 21.3893C16.5 22.6159 17.625 23.6194 19 23.6194C20.375 23.6194 21.5 22.6159 21.5 21.3893C21.5 19.9063 19 17.4866 19 17.4866C17.75 19.438 16.5 19.9063 16.5 21.3893Z" fill="#757575"/>
</svg>
