<svg width="67" height="32" viewBox="0 0 67 32" fill="none" xmlns="http://www.w3.org/2000/svg">
<path d="M4 0.5H66.5V31.5H4C2.067 31.5 0.5 29.933 0.5 28V4C0.5 2.067 2.067 0.5 4 0.5Z" fill="white"/>
<path d="M4 0.5H66.5V31.5H4C2.067 31.5 0.5 29.933 0.5 28V4C0.5 2.067 2.067 0.5 4 0.5Z" stroke="#ADADAD"/>
<path d="M7.948 23.97C7.74 23.97 7.558 23.9527 7.402 23.918C7.246 23.892 7.10733 23.853 6.986 23.801V22.813C7.12467 22.8477 7.272 22.878 7.428 22.904C7.584 22.93 7.74867 22.943 7.922 22.943C8.13867 22.943 8.34233 22.8997 8.533 22.813C8.73233 22.7263 8.89267 22.5747 9.014 22.358C9.13533 22.1413 9.196 21.838 9.196 21.448V12.218H10.366V21.357C10.366 21.955 10.2663 22.4447 10.067 22.826C9.86767 23.216 9.586 23.502 9.222 23.684C8.858 23.8747 8.43333 23.97 7.948 23.97ZM17.9807 19.017C17.9807 19.5717 17.8464 20.044 17.5777 20.434C17.309 20.8153 16.9234 21.11 16.4207 21.318C15.9267 21.526 15.3417 21.63 14.6657 21.63C14.319 21.63 13.9854 21.6127 13.6647 21.578C13.3527 21.5433 13.0667 21.4957 12.8067 21.435C12.5467 21.3657 12.317 21.2833 12.1177 21.188V20.07C12.4297 20.2087 12.8154 20.3343 13.2747 20.447C13.7427 20.5597 14.2237 20.616 14.7177 20.616C15.177 20.616 15.5627 20.5553 15.8747 20.434C16.1867 20.3127 16.4207 20.1393 16.5767 19.914C16.7327 19.6887 16.8107 19.4243 16.8107 19.121C16.8107 18.8177 16.7457 18.562 16.6157 18.354C16.4857 18.146 16.2604 17.9553 15.9397 17.782C15.6277 17.6 15.19 17.4093 14.6267 17.21C14.228 17.0627 13.877 16.9067 13.5737 16.742C13.279 16.5687 13.032 16.3737 12.8327 16.157C12.6334 15.9403 12.4817 15.6933 12.3777 15.416C12.2824 15.1387 12.2347 14.818 12.2347 14.454C12.2347 13.96 12.3604 13.5397 12.6117 13.193C12.863 12.8377 13.2097 12.5647 13.6517 12.374C14.1024 12.1833 14.618 12.088 15.1987 12.088C15.71 12.088 16.178 12.1357 16.6027 12.231C17.0274 12.3263 17.413 12.452 17.7597 12.608L17.3957 13.609C17.075 13.4703 16.724 13.3533 16.3427 13.258C15.97 13.1627 15.58 13.115 15.1727 13.115C14.7827 13.115 14.4577 13.1713 14.1977 13.284C13.9377 13.3967 13.7427 13.557 13.6127 13.765C13.4827 13.9643 13.4177 14.1983 13.4177 14.467C13.4177 14.779 13.4827 15.039 13.6127 15.247C13.7427 15.455 13.955 15.6413 14.2497 15.806C14.5444 15.9707 14.943 16.1483 15.4457 16.339C15.9917 16.5383 16.451 16.755 16.8237 16.989C17.205 17.2143 17.491 17.4873 17.6817 17.808C17.881 18.1287 17.9807 18.5317 17.9807 19.017ZM27.8495 16.846C27.8495 17.5653 27.7585 18.2197 27.5765 18.809C27.3945 19.3897 27.1215 19.8923 26.7575 20.317C26.4021 20.7417 25.9558 21.0667 25.4185 21.292C24.8898 21.5173 24.2745 21.63 23.5725 21.63C22.8445 21.63 22.2118 21.5173 21.6745 21.292C21.1371 21.058 20.6908 20.733 20.3355 20.317C19.9801 19.8923 19.7158 19.3853 19.5425 18.796C19.3691 18.2067 19.2825 17.5523 19.2825 16.833C19.2825 15.8797 19.4385 15.0477 19.7505 14.337C20.0625 13.6263 20.5348 13.0717 21.1675 12.673C21.8088 12.2743 22.6148 12.075 23.5855 12.075C24.5128 12.075 25.2928 12.2743 25.9255 12.673C26.5581 13.063 27.0348 13.6177 27.3555 14.337C27.6848 15.0477 27.8495 15.884 27.8495 16.846ZM20.5175 16.846C20.5175 17.626 20.6258 18.2977 20.8425 18.861C21.0591 19.4243 21.3928 19.8577 21.8435 20.161C22.3028 20.4643 22.8791 20.616 23.5725 20.616C24.2745 20.616 24.8465 20.4643 25.2885 20.161C25.7391 19.8577 26.0728 19.4243 26.2895 18.861C26.5061 18.2977 26.6145 17.626 26.6145 16.846C26.6145 15.676 26.3718 14.7617 25.8865 14.103C25.4011 13.4357 24.6341 13.102 23.5855 13.102C22.8835 13.102 22.3028 13.2537 21.8435 13.557C21.3928 13.8517 21.0591 14.2807 20.8425 14.844C20.6258 15.3987 20.5175 16.066 20.5175 16.846ZM37.1647 21.5H35.7997L30.8337 13.791H30.7817C30.7904 13.947 30.799 14.1203 30.8077 14.311C30.825 14.5017 30.838 14.7097 30.8467 14.935C30.8554 15.1517 30.864 15.377 30.8727 15.611C30.8814 15.845 30.8857 16.079 30.8857 16.313V21.5H29.8067V12.218H31.1587L36.1117 19.901H36.1637C36.155 19.797 36.1464 19.654 36.1377 19.472C36.129 19.2813 36.1204 19.0733 36.1117 18.848C36.103 18.614 36.0944 18.3757 36.0857 18.133C36.077 17.8903 36.0727 17.665 36.0727 17.457V12.218H37.1647V21.5Z" fill="#757575"/>
<path fill-rule="evenodd" clip-rule="evenodd" d="M56.3333 21.3333H45.6667V10.6667H51V9.33334H44.3333V22.6667H57.6667V16H56.3333V20.6667V21.3333ZM53.5821 16.6908H51.2321L57.6667 10.2563L56.7437 9.33334L50.3092 15.7679V13.4179H49V18H53.5821V16.6908Z" fill="#757575"/>
</svg>
