<svg width="50" height="50" viewBox="0 0 50 50" fill="none" xmlns="http://www.w3.org/2000/svg">
<path fill-rule="evenodd" clip-rule="evenodd" d="M24.9795 4.16699C13.4795 4.16699 4.16699 13.5003 4.16699 25.0003C4.16699 36.5003 13.4795 45.8337 24.9795 45.8337C36.5003 45.8337 45.8337 36.5003 45.8337 25.0003C45.8337 13.5003 36.5003 4.16699 24.9795 4.16699V4.16699ZM39.417 16.667H33.2712C32.6045 14.0628 31.6462 11.5628 30.3962 9.25033C34.2295 10.5628 37.417 13.2295 39.417 16.667V16.667ZM25.0003 8.41699C26.7295 10.917 28.0837 13.6878 28.9795 16.667H21.0212C21.917 13.6878 23.2712 10.917 25.0003 8.41699V8.41699ZM8.87533 29.167C8.54199 27.8337 8.33366 26.4378 8.33366 25.0003C8.33366 23.5628 8.54199 22.167 8.87533 20.8337H15.917C15.7503 22.2087 15.6253 23.5837 15.6253 25.0003C15.6253 26.417 15.7503 27.792 15.917 29.167H8.87533V29.167ZM10.5837 33.3337H16.7295C17.3962 35.9378 18.3545 38.4378 19.6045 40.7503C15.7712 39.4378 12.5837 36.792 10.5837 33.3337V33.3337ZM16.7295 16.667H10.5837C12.5837 13.2087 15.7712 10.5628 19.6045 9.25033C18.3545 11.5628 17.3962 14.0628 16.7295 16.667V16.667ZM25.0003 41.5837C23.2712 39.0837 21.917 36.3128 21.0212 33.3337H28.9795C28.0837 36.3128 26.7295 39.0837 25.0003 41.5837V41.5837ZM29.8753 29.167H20.1253C19.9378 27.792 19.792 26.417 19.792 25.0003C19.792 23.5837 19.9378 22.1878 20.1253 20.8337H29.8753C30.0628 22.1878 30.2087 23.5837 30.2087 25.0003C30.2087 26.417 30.0628 27.792 29.8753 29.167V29.167ZM30.3962 40.7503C31.6462 38.4378 32.6045 35.9378 33.2712 33.3337H39.417C37.417 36.7712 34.2295 39.4378 30.3962 40.7503V40.7503ZM34.0837 29.167C34.2503 27.792 34.3753 26.417 34.3753 25.0003C34.3753 23.5837 34.2503 22.2087 34.0837 20.8337H41.1253C41.4587 22.167 41.667 23.5628 41.667 25.0003C41.667 26.4378 41.4587 27.8337 41.1253 29.167H34.0837V29.167Z" fill="#757575"/>
</svg>
