<svg width="37" height="37" viewBox="0 0 37 37" fill="none" xmlns="http://www.w3.org/2000/svg">
<circle cx="18.1032" cy="18.1032" r="18.1032" fill="#F9C12A"/>
<path d="M15.2058 25.2466H15.489C16.5274 25.2466 17.4383 25.1286 18.2219 24.8926C19.0054 24.6471 19.6615 24.2837 20.1901 23.8022C20.7282 23.3114 21.1341 22.7025 21.4079 21.9756C21.6817 21.2393 21.8186 20.3708 21.8186 19.3701V15.292C21.8186 14.584 21.7525 13.9704 21.6203 13.4512C21.4976 12.9225 21.3135 12.4836 21.0681 12.1343C20.8226 11.785 20.5347 11.5254 20.2043 11.3555C19.8739 11.1855 19.5104 11.1006 19.114 11.1006C18.6986 11.1006 18.3304 11.2091 18.0095 11.4263C17.6979 11.6434 17.4289 11.936 17.2023 12.3042C16.9758 12.6724 16.8059 13.0877 16.6926 13.5503C16.5793 14.0129 16.5227 14.4849 16.5227 14.9663C16.5227 15.4855 16.5793 15.9717 16.6926 16.4248C16.8153 16.8779 16.9899 17.2744 17.2165 17.6143C17.4431 17.9541 17.731 18.2231 18.0803 18.4214C18.4296 18.6102 18.8355 18.7046 19.298 18.7046C19.7606 18.7046 20.1618 18.6196 20.5017 18.4497C20.8509 18.2798 21.1436 18.0532 21.3796 17.77C21.625 17.4868 21.8091 17.18 21.9318 16.8496C22.0546 16.5098 22.1159 16.1746 22.1159 15.8442L23.4753 16.7505C23.4753 17.383 23.3337 18.006 23.0505 18.6196C22.7767 19.2332 22.3944 19.7902 21.9035 20.2905C21.4126 20.7909 20.8415 21.1921 20.1901 21.4941C19.5482 21.7868 18.8638 21.9331 18.1369 21.9331C17.1929 21.9331 16.3433 21.7632 15.5881 21.4233C14.8423 21.0835 14.2098 20.6068 13.6906 19.9932C13.1714 19.3701 12.7749 18.6338 12.5012 17.7842C12.2274 16.9346 12.0905 16 12.0905 14.9805C12.0905 13.9798 12.2604 13.0405 12.6003 12.1626C12.9401 11.2752 13.4216 10.4964 14.0446 9.82617C14.6677 9.15592 15.4087 8.62728 16.2678 8.24023C17.1363 7.85319 18.0944 7.65967 19.1423 7.65967C20.1713 7.65967 21.1153 7.85791 21.9743 8.25439C22.8334 8.64144 23.5839 9.1984 24.2258 9.92529C24.8677 10.6522 25.3633 11.5348 25.7126 12.5732C26.0713 13.6117 26.2507 14.7822 26.2507 16.085V17.6143C26.2507 19.0114 26.0902 20.2952 25.7692 21.4658C25.4483 22.6364 24.9763 23.6748 24.3532 24.5811C23.7396 25.4873 22.9938 26.2567 22.1159 26.8892C21.2474 27.5216 20.2609 28.0031 19.1564 28.3335C18.0614 28.6545 16.8625 28.8149 15.5598 28.8149H15.2058V25.2466Z" fill="black"/>
</svg>
