<svg width="37" height="37" viewBox="0 0 37 37" fill="none" xmlns="http://www.w3.org/2000/svg">
<circle cx="18.1032" cy="18.1032" r="18.1032" fill="#F9C12A"/>
<path d="M26.9704 24.425C26.9704 25.8393 26.6373 27.0282 25.9711 27.9916C25.305 28.9549 24.3928 29.6775 23.2347 30.1591C22.0869 30.6408 20.7751 30.8817 19.2993 30.8817C17.8337 30.8817 16.5167 30.6408 15.3484 30.1591C14.1903 29.6775 13.273 28.9549 12.5966 27.9916C11.9202 27.0282 11.582 25.8393 11.582 24.425C11.582 23.4617 11.7716 22.5956 12.1508 21.827C12.5403 21.0583 13.0783 20.4024 13.765 19.8592C14.4619 19.3161 15.2767 18.901 16.2093 18.614C17.1522 18.3271 18.1719 18.1836 19.2685 18.1836C20.7443 18.1836 22.0613 18.4398 23.2194 18.9522C24.3877 19.4544 25.305 20.1718 25.9711 21.1045C26.6373 22.0371 26.9704 23.1439 26.9704 24.425ZM22.1433 24.0714C22.1433 23.4155 22.0203 22.8621 21.7743 22.4112C21.5386 21.95 21.2055 21.5964 20.7751 21.3504C20.3446 21.0942 19.8424 20.9661 19.2685 20.9661C18.6946 20.9661 18.1924 21.0942 17.762 21.3504C17.3315 21.5964 16.9933 21.95 16.7473 22.4112C16.5116 22.8621 16.3938 23.4155 16.3938 24.0714C16.3938 24.7069 16.5167 25.2603 16.7627 25.7317C17.0087 26.1929 17.3469 26.5465 17.7773 26.7925C18.2078 27.0282 18.7151 27.146 19.2993 27.146C19.8834 27.146 20.3856 27.0282 20.8058 26.7925C21.226 26.5465 21.554 26.1929 21.7897 25.7317C22.0254 25.2603 22.1433 24.7069 22.1433 24.0714ZM26.4938 14.1405C26.4938 15.2986 26.1864 16.3183 25.5714 17.1997C24.9668 18.0709 24.1213 18.7524 23.0349 19.2443C21.9485 19.726 20.7033 19.9669 19.2993 19.9669C17.8952 19.9669 16.6449 19.726 15.5483 19.2443C14.4619 18.7524 13.6061 18.0709 12.981 17.1997C12.366 16.3183 12.0586 15.2986 12.0586 14.1405C12.0586 12.7877 12.366 11.6449 12.981 10.7123C13.6061 9.77969 14.4619 9.07254 15.5483 8.59085C16.6346 8.10916 17.8747 7.86832 19.2685 7.86832C20.6828 7.86832 21.9332 8.10916 23.0195 8.59085C24.1059 9.07254 24.9565 9.77969 25.5714 10.7123C26.1864 11.6449 26.4938 12.7877 26.4938 14.1405ZM21.6974 14.3865C21.6974 13.8228 21.6001 13.336 21.4054 12.926C21.2209 12.5058 20.9493 12.183 20.5906 11.9575C20.2319 11.7218 19.7912 11.604 19.2685 11.604C18.7663 11.604 18.3359 11.7167 17.9772 11.9422C17.6185 12.1574 17.3418 12.4751 17.147 12.8953C16.9626 13.3052 16.8703 13.8023 16.8703 14.3865C16.8703 14.9604 16.9626 15.4626 17.147 15.893C17.3418 16.3132 17.6185 16.6463 17.9772 16.8923C18.3461 17.128 18.7868 17.2458 19.2993 17.2458C19.8219 17.2458 20.2575 17.128 20.606 16.8923C20.9647 16.6463 21.2363 16.3132 21.4207 15.893C21.6052 15.4626 21.6974 14.9604 21.6974 14.3865Z" fill="black"/>
</svg>
