<svg width="37" height="37" viewBox="0 0 37 37" fill="none" xmlns="http://www.w3.org/2000/svg">
<circle cx="18.1032" cy="18.1032" r="18.1032" fill="#F9C12A"/>
<path d="M14.8565 26.9616H15.1639C16.2913 26.9616 17.2803 26.8335 18.1309 26.5772C18.9816 26.3108 19.6938 25.9162 20.2678 25.3935C20.8519 24.8606 21.2926 24.1996 21.5898 23.4104C21.887 22.611 22.0357 21.6681 22.0357 20.5818V16.1544C22.0357 15.3857 21.9639 14.7195 21.8204 14.1559C21.6872 13.5819 21.4873 13.1054 21.2209 12.7262C20.9544 12.347 20.6418 12.0651 20.2831 11.8807C19.9244 11.6962 19.5299 11.604 19.0994 11.604C18.6485 11.604 18.2488 11.7218 17.9003 11.9575C17.5621 12.1933 17.27 12.511 17.0241 12.9107C16.7781 13.3104 16.5936 13.7613 16.4706 14.2635C16.3476 14.7657 16.2862 15.2781 16.2862 15.8008C16.2862 16.3645 16.3476 16.8923 16.4706 17.3842C16.6039 17.8761 16.7935 18.3066 17.0394 18.6755C17.2854 19.0445 17.598 19.3366 17.9772 19.5518C18.3564 19.7568 18.7971 19.8592 19.2993 19.8592C19.8014 19.8592 20.237 19.767 20.606 19.5825C20.9852 19.3981 21.3029 19.1521 21.5591 18.8446C21.8256 18.5372 22.0254 18.2041 22.1586 17.8454C22.2919 17.4764 22.3585 17.1126 22.3585 16.7539L23.8343 17.7378C23.8343 18.4244 23.6806 19.1008 23.3731 19.767C23.0759 20.4332 22.6608 21.0378 22.1279 21.581C21.595 22.1242 20.9749 22.5598 20.2678 22.8877C19.5708 23.2054 18.8278 23.3643 18.0387 23.3643C17.0138 23.3643 16.0914 23.1798 15.2715 22.8109C14.4619 22.4419 13.7752 21.9244 13.2116 21.2582C12.6479 20.5818 12.2174 19.7824 11.9202 18.86C11.623 17.9376 11.4744 16.923 11.4744 15.8162C11.4744 14.7298 11.6589 13.7101 12.0278 12.7569C12.3968 11.7936 12.9195 10.948 13.5959 10.2204C14.2723 9.49273 15.0768 8.91881 16.0094 8.49861C16.9523 8.07842 17.9926 7.86832 19.1302 7.86832C20.2473 7.86832 21.2721 8.08354 22.2048 8.51399C23.1374 8.93418 23.9522 9.53885 24.6491 10.328C25.346 11.1171 25.884 12.0754 26.2632 13.2027C26.6527 14.3301 26.8474 15.6009 26.8474 17.0152V18.6755C26.8474 20.1923 26.6732 21.5861 26.3247 22.857C25.9763 24.1278 25.4638 25.2552 24.7874 26.239C24.1213 27.2229 23.3116 28.0582 22.3585 28.7448C21.4156 29.4315 20.3446 29.9542 19.1455 30.3129C17.9567 30.6613 16.6551 30.8356 15.2408 30.8356H14.8565V26.9616Z" fill="black"/>
</svg>
