<svg width="24" height="24" viewBox="0 0 24 24" fill="none" xmlns="http://www.w3.org/2000/svg">
<path fill-rule="evenodd" clip-rule="evenodd" d="M12 22C17.5228 22 22 17.5228 22 12C22 6.47715 17.5228 2 12 2C6.47715 2 2 6.47715 2 12C2 17.5228 6.47715 22 12 22ZM12 20C7.58172 20 4 16.4183 4 12C4 7.92038 7.05369 4.55399 11 4.06189V12.3814L17.0183 18.2306C15.6459 19.3374 13.9003 20 12 20ZM18.4059 16.7929C19.407 15.4571 20 13.7978 20 12C20 7.92038 16.9463 4.55399 13 4.06189V11.553L18.4059 16.7929Z" fill="#757575"/>
</svg>
