<svg width="20" height="20" viewBox="0 0 20 20" fill="none" xmlns="http://www.w3.org/2000/svg">
<circle cx="9.9974" cy="10.0013" r="8.33333" fill="white"/>
<path d="M9.99707 1.66797C14.597 1.66797 18.3309 5.40113 18.3311 10.001C18.3311 14.601 14.5971 18.335 9.99707 18.335C5.39722 18.3348 1.66406 14.6009 1.66406 10.001C1.66424 5.40123 5.39733 1.66815 9.99707 1.66797ZM9.99707 3.33594C6.31374 3.33594 3.33008 6.3196 3.33008 10.0029C3.33025 13.6861 6.31385 16.6689 9.99707 16.6689C13.6801 16.6688 16.6629 13.686 16.6631 10.0029C16.6631 6.31971 13.6803 3.33611 9.99707 3.33594ZM9.99707 5.83594C12.2981 5.83611 14.1631 7.70185 14.1631 10.0029C14.1629 12.3039 12.298 14.1688 9.99707 14.1689C7.69599 14.1689 5.83025 12.304 5.83008 10.0029C5.83008 7.70174 7.69588 5.83594 9.99707 5.83594Z" fill="#296CF2"/>
</svg>
