<svg width="24" height="24" viewBox="0 0 24 24" fill="none" xmlns="http://www.w3.org/2000/svg">
<path fill-rule="evenodd" clip-rule="evenodd" d="M21.8645 12C21.8645 17.5228 17.4177 22 11.9322 22C6.44682 22 2 17.5228 2 12C2 6.47728 6.44662 2.0002 11.9319 2V4C7.54354 4.00001 3.98609 7.58173 3.98609 12C3.98609 16.4183 7.54355 20 11.9319 20C16.3202 20 19.8777 16.4183 19.8777 12C19.8777 10.3323 19.3708 8.78376 18.5038 7.50205L16.3743 8.76381L17.5632 4.21039L21.9999 5.43048L20.2192 6.48562C21.259 8.0664 21.8645 9.96201 21.8645 12ZM10.9391 7H12.7846V12.0729L16.8984 14.5318L15.9756 16L10.9391 12.9682V7Z" fill="#757575"/>
</svg>
