<svg width="24" height="24" viewBox="0 0 24 24" fill="none" xmlns="http://www.w3.org/2000/svg">
<path fill-rule="evenodd" clip-rule="evenodd" d="M7.90734 2H2V21.6911H7.90734H9.87645H11.8456V19.722H9.87645V9.87645H19.722V12.8301H21.6911V9.87645V7.90734V2H9.87645H7.90734ZM7.90734 3.96911H3.96911V19.722H7.90734V3.96911ZM9.87645 3.96911V7.90734H19.722V3.96911H9.87645ZM19.8237 18.4313C20.7157 16.9211 20.5128 14.9433 19.2153 13.6458C17.6773 12.1078 15.1837 12.1078 13.6458 13.6458C12.1078 15.1837 12.1078 17.6773 13.6458 19.2153C14.9433 20.5128 16.9211 20.7157 18.4313 19.8237L20.6076 22L22 20.6076L19.8237 18.4313ZM15.0381 17.8229C15.8071 18.5919 17.0539 18.5919 17.8229 17.8229C18.5919 17.0539 18.5919 15.8071 17.8229 15.0381C17.0539 14.2691 15.8071 14.2691 15.0381 15.0381C14.2691 15.8071 14.2691 17.0539 15.0381 17.8229Z" fill="#757575"/>
</svg>
