<svg width="24" height="24" viewBox="0 0 24 24" fill="none" xmlns="http://www.w3.org/2000/svg">
<path fill-rule="evenodd" clip-rule="evenodd" d="M12.6919 0.31739C12.8887 0.532714 13 0.830432 13 1.14164V3.06547L15.278 0.351733C15.6601 -0.103486 16.2931 -0.118862 16.6919 0.31739C16.8887 0.532714 17 0.830432 17 1.14164V11H19V8.97508L22.9897 12L19 15.0655V13H17V16.902C17 17.1964 16.9004 17.4794 16.7219 17.6919L11.7219 23.6483C11.3398 24.1035 10.7068 24.1189 10.3081 23.6826C10.1112 23.4673 9.99996 23.1696 9.99996 22.8584V20.9345L7.72194 23.6483C7.33982 24.1035 6.70679 24.1189 6.30805 23.6826C6.11124 23.4673 5.99996 23.1696 5.99996 22.8584V13H1.047V11H5.99996V7.09799C5.99996 6.80362 6.09956 6.52063 6.27797 6.30809L11.278 0.351733C11.6601 -0.103486 12.2931 -0.118862 12.6919 0.31739ZM15 4V11H14V13H15V16.4334L12 20V7.56657L15 4ZM11 3.98115V5.44801L10.278 6.30809C10.0996 6.52063 9.99996 6.80362 9.99996 7.09799V17.6336L7.99996 20.0166V7.55561L11 3.98115Z" fill="#757575"/>
</svg>
