<svg width="24" height="24" viewBox="0 0 24 24" fill="none" xmlns="http://www.w3.org/2000/svg">
<path fill-rule="evenodd" clip-rule="evenodd" d="M11.4287 1H13.4287C15.0644 1 16.3944 2.30907 16.4281 3.93569C16.768 4.1045 17.0967 4.29462 17.4122 4.50475C18.8386 3.72021 20.6372 4.21746 21.455 5.63397L22.455 7.36603C23.2731 8.78295 22.8039 10.5898 21.411 11.4321C21.4228 11.6206 21.4287 11.81 21.4287 12C21.4287 12.19 21.4228 12.3794 21.411 12.5679C22.8041 13.4108 23.2729 15.2173 22.455 16.634L21.455 18.366C20.6371 19.7827 18.8381 20.2799 17.4122 19.4953C17.0966 19.7054 16.768 19.8955 16.4281 20.0643C16.3938 21.6915 15.0641 23 13.4287 23H11.4287C9.79335 23 8.46359 21.6914 8.4294 20.0643C8.0895 19.8955 7.76082 19.7054 7.44526 19.4953C6.01886 20.2798 4.22028 19.7825 3.40245 18.366L2.40245 16.634C1.58439 15.2171 2.05355 13.4102 3.44642 12.5679C3.43465 12.3794 3.42873 12.19 3.42873 12C3.42873 11.81 3.43465 11.6206 3.44642 11.4321C2.0534 10.5892 1.58452 8.78272 2.40245 7.36603L3.40245 5.63397C4.22039 4.21726 6.01935 3.72007 7.44527 4.50474C7.76082 4.29461 8.0895 4.10449 8.42941 3.93568C8.46363 2.30852 9.79337 1 11.4287 1ZM13.4366 2.83333H11.3996C10.8371 2.83333 10.3811 3.28934 10.3811 3.85185L10.381 5.16563C9.29676 5.48833 8.32059 6.06202 7.5199 6.81933L6.38013 6.1618C5.89298 5.88054 5.27006 6.04745 4.98881 6.5346L3.97029 8.29873C3.68903 8.78588 3.85594 9.4088 4.34309 9.69005L5.48094 10.3476C5.35509 10.8779 5.28848 11.4312 5.28848 12C5.28848 12.5688 5.35509 13.1221 5.48094 13.6524L4.34309 14.3099C3.85594 14.5912 3.68903 15.2141 3.97029 15.7013L4.98881 17.4654C5.27006 17.9525 5.89298 18.1195 6.38013 17.8382L7.5199 17.1807C8.32059 17.938 9.29676 18.5117 10.381 18.8344L10.3811 20.1481C10.3811 20.7107 10.8371 21.1667 11.3996 21.1667H13.4366C13.9991 21.1667 14.4552 20.7107 14.4552 20.1481L14.4558 18.8342C15.5399 18.5114 16.5158 17.9378 17.3163 17.1807L18.4561 17.8382C18.9432 18.1195 19.5662 17.9525 19.8474 17.4654L20.8659 15.7013C21.1472 15.2141 20.9803 14.5912 20.4931 14.3099L19.3553 13.6524C19.4811 13.1221 19.5477 12.5688 19.5477 12C19.5477 11.4312 19.4811 10.8779 19.3553 10.3476L20.4931 9.69005C20.9803 9.4088 21.1472 8.78588 20.8659 8.29873L19.8474 6.5346C19.5662 6.04745 18.9432 5.88054 18.4561 6.1618L17.3163 6.81933C16.5158 6.06217 15.5399 5.48856 14.4558 5.16582L14.4552 3.85185C14.4552 3.28934 13.9991 2.83333 13.4366 2.83333ZM12.4763 15.6667C14.5014 15.6667 16.143 14.025 16.143 12C16.143 9.97496 14.5014 8.33333 12.4763 8.33333C10.4513 8.33333 8.80967 9.97496 8.80967 12C8.80967 14.025 10.4513 15.6667 12.4763 15.6667ZM12.4763 13.8333C11.4638 13.8333 10.643 13.0125 10.643 12C10.643 10.9875 11.4638 10.1667 12.4763 10.1667C13.4889 10.1667 14.3097 10.9875 14.3097 12C14.3097 13.0125 13.4889 13.8333 12.4763 13.8333Z" fill="#757575"/>
</svg>
