<svg width="40" height="40" viewBox="0 0 40 40" fill="none" xmlns="http://www.w3.org/2000/svg">
<path fill-rule="evenodd" clip-rule="evenodd" d="M11 26H13V22H11V26Z" fill="#296CF2"/>
<path fill-rule="evenodd" clip-rule="evenodd" d="M15 26H17V18H15V26Z" fill="#296CF2"/>
<path fill-rule="evenodd" clip-rule="evenodd" d="M19 26H21V13H19V26Z" fill="#296CF2"/>
<path fill-rule="evenodd" clip-rule="evenodd" d="M25 13H28V14.95H25V26H23V13H25Z" fill="#296CF2"/>
<path fill-rule="evenodd" clip-rule="evenodd" d="M19 4V3.02892C19.3309 3.00973 19.6643 3 20 3C28.3652 3 35.3192 9.04197 36.7361 17H34.6999C33.3745 10.4703 27.8075 5.48087 21 5.0328V9H19V5.0328V4Z" fill="#296CF2"/>
<path fill-rule="evenodd" clip-rule="evenodd" d="M21 34.9672V36.9711C20.6692 36.9903 20.3357 37 20 37C11.6349 37 4.68085 30.958 3.26392 23H5.3001C6.62556 29.5297 12.1926 34.5191 19 34.9672V31H21L21 34.9672Z" fill="#296CF2"/>
<path fill-rule="evenodd" clip-rule="evenodd" d="M23 34.6999C29.5297 33.3745 34.5191 27.8075 34.9672 21L31 21V19H34.9672H36H36.9711C36.9903 19.3309 37 19.6643 37 20C37 28.3652 30.958 35.3192 23 36.7361V34.6999Z" fill="#296CF2"/>
<path fill-rule="evenodd" clip-rule="evenodd" d="M17 3.26392C9.04197 4.68085 3 11.6349 3 20C3 20.3357 3.00973 20.6692 3.02892 21H5.0328C5.0328 21 5.0328 21 5.0328 21H9V19H5.03281C5.4809 12.1926 10.4703 6.62556 17 5.3001V3.26392Z" fill="#296CF2"/>
</svg>
