<svg width="63" height="32" viewBox="0 0 63 32" fill="none" xmlns="http://www.w3.org/2000/svg">
<path d="M4 0.5H31.5V31.5H4C2.067 31.5 0.5 29.933 0.5 28V4C0.5 2.067 2.067 0.5 4 0.5Z" fill="white"/>
<path d="M4 0.5H31.5V31.5H4C2.067 31.5 0.5 29.933 0.5 28V4C0.5 2.067 2.067 0.5 4 0.5Z" stroke="#ADADAD"/>
<path fill-rule="evenodd" clip-rule="evenodd" d="M9.33333 9.33333V10.6345L15.3698 17.1111V22.6667L16.6577 21.7043V17.1111L22.6667 10.6345V9.33333H9.33333ZM11.6315 11.3333H20.4098L16.0097 16L11.6315 11.3333Z" fill="#757575"/>
<path d="M59 0.5C60.933 0.5 62.5 2.067 62.5 4V28C62.5 29.933 60.933 31.5 59 31.5H31.5V0.5H59Z" fill="#D7E2FF"/>
<path d="M59 0.5C60.933 0.5 62.5 2.067 62.5 4V28C62.5 29.933 60.933 31.5 59 31.5H31.5V0.5H59Z" stroke="#296CF2"/>
<path fill-rule="evenodd" clip-rule="evenodd" d="M45.0933 18.9889L41.72 15.6667L45.0933 12.3444L44.0667 11.3333L39.6667 15.6667L44.0667 20L45.0933 18.9889V18.9889ZM48.9067 18.9889L52.28 15.6667L48.9067 12.3444L49.9333 11.3333L54.3333 15.6667L49.9333 20L48.9067 18.9889V18.9889Z" fill="#296CF2"/>
</svg>
