<?xml version="1.0" encoding="utf-8"?>
<!-- Generator: Adobe Illustrator 27.1.1, SVG Export Plug-In . SVG Version: 6.00 Build 0)  -->
<svg version="1.1" id="레이어_1" xmlns="http://www.w3.org/2000/svg" xmlns:xlink="http://www.w3.org/1999/xlink" x="0px"
	 y="0px" viewBox="0 0 40 40" style="enable-background:new 0 0 40 40;" xml:space="preserve">
<style type="text/css">
	.st0{fill-rule:evenodd;clip-rule:evenodd;fill:#296CF2;}
</style>
<path class="st0" d="M12.3,25.2H14v-3.4h-1.7V25.2z"/>
<path class="st0" d="M15.7,25.2h1.7v-6.9h-1.7V25.2z"/>
<path class="st0" d="M19.1,25.2h1.7V14h-1.7V25.2z"/>
<path class="st0" d="M24.3,14h2.6v1.7h-2.6v9.5h-1.7V14H24.3z"/>
<path class="st0" d="M19.1,6.3V5.4c0.3,0,0.6,0,0.9,0c7.2,0,13.2,5.2,14.4,12h-1.7c-1.1-5.6-5.9-9.9-11.8-10.3v3.4h-1.7V7.1V6.3z"/>
<path class="st0" d="M20.9,32.9v1.7c-0.3,0-0.6,0-0.9,0c-7.2,0-13.2-5.2-14.4-12h1.7c1.1,5.6,5.9,9.9,11.8,10.3v-3.4h1.7V32.9z"/>
<path class="st0" d="M22.6,32.6c5.6-1.1,9.9-5.9,10.3-11.8h-3.4v-1.7h3.4h0.9h0.8c0,0.3,0,0.6,0,0.9c0,7.2-5.2,13.2-12,14.4V32.6z"
	/>
<path class="st0" d="M17.4,5.6c-6.8,1.2-12,7.2-12,14.4c0,0.3,0,0.6,0,0.9h1.7l0,0h3.4v-1.7H7.1c0.4-5.8,4.7-10.6,10.3-11.8V5.6z"/>
</svg>
