<svg class="SVGInline-svg" style="width: 28px;height: 28px;" xmlns="http://www.w3.org/2000/svg" width="24" height="24" viewBox="0 0 24 24">
    <path fill="#f6c03b" fill-rule="evenodd" d="M12 2c5.522 0 10 4.477 10 10 0 1.97-.571 3.805-1.555 5.353l-.189.287L22 22l-4.36-1.744C16.034 21.355 14.093 22 12 22 6.478 22 2 17.523 2 12S6.478 2 12 2zm.9 13.6h-1.8v1.8h1.8v-1.8zm-.9-9c-1.989 0-3.6 1.611-3.6 3.6h1.8l.006-.147C10.281 9.13 11.06 8.4 12 8.4c.99 0 1.8.81 1.8 1.8 0 1.8-2.7 1.575-2.7 4.5h1.8l.013-.235c.199-1.811 2.687-2.105 2.687-4.265 0-1.989-1.611-3.6-3.6-3.6z"></path>
</svg>