<?xml version="1.0" encoding="utf-8"?>
<!-- Generator: Adobe Illustrator 27.1.1, SVG Export Plug-In . SVG Version: 6.00 Build 0)  -->
<svg version="1.1" id="레이어_1" xmlns="http://www.w3.org/2000/svg" xmlns:xlink="http://www.w3.org/1999/xlink" x="0px"
	 y="0px" viewBox="0 0 22 22" style="enable-background:new 0 0 22 22;" xml:space="preserve">
<style type="text/css">
	.st0{fill-rule:evenodd;clip-rule:evenodd;fill:#22ADF6;}
</style>
<path class="st0" d="M17.4,13.1l-3.1,0.7c-0.2,0.1-0.4-0.1-0.4-0.3l-1.3-5.8c-0.1-0.2,0.1-0.4,0.3-0.4l3.1-0.7
	c0.2-0.1,0.4,0.1,0.4,0.3l1.3,5.8C17.8,12.8,17.6,13,17.4,13.1z M17,13.8l-3.8,3.5c-0.1,0.1-0.2,0.1-0.2-0.1l0.8-2.5
	c0.1-0.2,0.3-0.4,0.5-0.4l2.6-0.6C17.1,13.6,17.2,13.7,17,13.8z M12,17.9l-5.7-1.7c-0.2-0.1-0.3-0.3-0.3-0.5l0.9-3
	c0.1-0.2,0.3-0.3,0.5-0.3l5.7,1.7c0.2,0.1,0.3,0.3,0.3,0.5l-0.9,3C12.4,17.9,12.2,18,12,17.9z M5.7,15l-1.1-5
	c-0.1-0.2,0-0.2,0.2-0.1l1.8,2c0.1,0.1,0.2,0.4,0.1,0.6L5.8,15C5.8,15.2,5.7,15.2,5.7,15z M4.6,8.6l4.3-4c0.1-0.1,0.4-0.1,0.5,0
	l2.2,2.3c0.1,0.1,0.1,0.4,0,0.5l-4.3,4c-0.1,0.1-0.4,0.1-0.5,0L4.6,9.1C4.4,8.9,4.5,8.7,4.6,8.6z M13.4,13.4
	c0.1,0.2-0.1,0.3-0.3,0.3L7.8,12c-0.2-0.1-0.2-0.2-0.1-0.4l4.1-3.8c0.1-0.1,0.3-0.1,0.4,0.1L13.4,13.4z M10.3,4.6l4.9,1.5
	c0.2,0.1,0.2,0.1,0,0.2l-2.6,0.6c-0.2,0.1-0.5,0-0.6-0.2l-1.8-2C10.1,4.6,10.1,4.5,10.3,4.6z M19.2,12.9L17.6,6
	c-0.1-0.4-0.4-0.8-0.8-0.9L9.6,2.9c-0.1,0-0.2,0-0.3,0C9,2.9,8.6,3,8.4,3.2L3.3,8C3,8.3,2.8,8.8,2.9,9.1l1.7,7.3
	c0.1,0.4,0.4,0.8,0.8,0.9l6.7,2.1c0.1,0,0.2,0,0.3,0c0.3,0,0.6-0.1,0.8-0.3l5.5-5.1C19.1,13.7,19.2,13.2,19.2,12.9z"/>
</svg>
