<svg class="SVGInline-svg" style="width: 60px;height: 60px;" xmlns="http://www.w3.org/2000/svg" width="40" height="40" viewBox="0 0 40 40">
  <g fill="none" fill-rule="evenodd">
      <g>
          <g>
              <g>
                  <path d="M28 16H52V40H28z" transform="translate(-60 -4481) translate(40 4479)"></path>
              </g>
              <g>
                  <path d="M0 0L40 0 40 40 0 40z" transform="translate(-60 -4481) translate(40 4479) translate(20 2)"></path>
                  <g>
                      <path fill="#252F3E" fill-rule="nonzero" d="M7.635 5.813c0 .33.036.596.098.791.072.196.161.41.287.64.044.072.062.143.062.205 0 .089-.054.178-.17.267l-.563.373c-.08.053-.16.08-.232.08-.09 0-.18-.045-.269-.125-.125-.133-.232-.275-.322-.417-.089-.151-.178-.32-.277-.525-.697.818-1.573 1.227-2.628 1.227-.751 0-1.35-.213-1.788-.64-.438-.427-.662-.996-.662-1.707 0-.755.268-1.369.814-1.83.545-.463 1.27-.694 2.19-.694.304 0 .617.026.948.07.33.045.67.116 1.028.196v-.648c0-.676-.143-1.147-.42-1.423-.286-.275-.77-.409-1.457-.409-.313 0-.635.036-.966.116-.33.08-.653.178-.966.302-.143.062-.25.098-.313.116-.062.018-.107.026-.143.026-.125 0-.187-.088-.187-.275v-.436c0-.142.018-.249.062-.31.045-.063.125-.125.25-.187.314-.16.689-.294 1.127-.4.438-.116.903-.17 1.395-.17 1.064 0 1.842.24 2.342.72.492.48.742 1.21.742 2.187v2.88h.018zm-3.63 1.351c.295 0 .6-.053.921-.16.322-.106.608-.302.85-.568.143-.17.25-.356.303-.57.054-.213.09-.47.09-.773V4.72c-.26-.062-.537-.116-.823-.151-.286-.036-.563-.053-.84-.053-.599 0-1.037.115-1.332.355-.295.24-.438.578-.438 1.022 0 .418.107.73.33.943.215.222.528.328.94.328zm7.18.96c-.161 0-.269-.026-.34-.088-.072-.054-.134-.178-.188-.347L8.556.818c-.054-.178-.08-.294-.08-.356 0-.142.071-.222.214-.222h.876c.17 0 .286.027.349.089.071.053.125.178.179.347l1.502 5.884L12.99.676c.045-.178.099-.294.17-.347.072-.053.197-.089.358-.089h.715c.17 0 .286.027.358.089.071.053.134.178.17.347l1.412 5.955L17.72.676c.054-.178.116-.294.179-.347.071-.053.187-.089.348-.089h.832c.143 0 .223.071.223.222 0 .045-.009.09-.018.142-.009.054-.026.125-.062.223l-2.155 6.87c-.053.179-.116.294-.188.347-.071.054-.187.09-.34.09h-.768c-.17 0-.286-.027-.358-.09-.071-.062-.134-.177-.17-.355l-1.385-5.733L12.48 7.68c-.045.178-.099.293-.17.356-.072.062-.197.088-.358.088h-.769zm11.488.24c-.465 0-.93-.053-1.377-.16-.447-.106-.796-.222-1.028-.355-.143-.08-.242-.169-.277-.249-.036-.08-.054-.169-.054-.249v-.453c0-.187.072-.276.206-.276.053 0 .107.01.16.027.054.018.135.053.224.089.304.133.635.24.984.31.357.072.706.108 1.064.108.563 0 1-.098 1.305-.294.304-.195.465-.48.465-.844 0-.25-.08-.454-.242-.622-.16-.17-.465-.32-.903-.463l-1.296-.4c-.653-.204-1.135-.506-1.43-.906-.296-.391-.448-.827-.448-1.29 0-.373.081-.701.242-.986.16-.284.375-.533.644-.729.268-.204.572-.355.93-.462.357-.107.733-.151 1.126-.151.197 0 .402.009.599.035.206.027.393.063.581.098.179.045.349.09.51.142.16.054.286.107.375.16.125.072.215.143.268.223.054.07.08.169.08.293v.418c0 .186-.07.284-.205.284-.071 0-.188-.035-.34-.106-.51-.232-1.081-.347-1.716-.347-.51 0-.912.08-1.19.249-.276.169-.42.426-.42.79 0 .25.09.463.269.632.179.169.51.338.983.489l1.27.4c.643.204 1.108.489 1.386.853.277.365.41.782.41 1.245 0 .382-.08.729-.232 1.03-.16.303-.375.57-.652.783-.277.222-.608.382-.993.498-.402.124-.822.186-1.278.186z" transform="translate(-60 -4481) translate(40 4479) translate(20 2) translate(6.5 14)"></path>
                      <g fill="#F90">
                          <path d="M24.363 2.729c-2.942 2.16-7.215 3.307-10.89 3.307-5.15 0-9.79-1.894-13.294-5.04C-.098.746.152.409.483.604c3.79 2.187 8.466 3.512 13.303 3.512 3.263 0 6.848-.676 10.147-2.063.492-.222.912.32.43.676z" transform="translate(-60 -4481) translate(40 4479) translate(20 2) translate(6.5 14) translate(0 9.956)"></path>
                          <path d="M25.587 1.342c-.375-.48-2.485-.23-3.442-.115-.286.035-.33-.214-.071-.4 1.68-1.174 4.443-.836 4.765-.445.322.4-.09 3.147-1.663 4.462-.241.205-.474.098-.366-.168.357-.88 1.153-2.863.777-3.334z" transform="translate(-60 -4481) translate(40 4479) translate(20 2) translate(6.5 14) translate(0 9.956)"></path>
                      </g>
                  </g>
              </g>
          </g>
      </g>
  </g>
</svg>