<svg class="SVGInline-svg" style="width: 16px;height: 16px;" width="24px" height="24px" viewBox="0 0 24 24" version="1.1" xmlns="http://www.w3.org/2000/svg" xmlns:xlink="http://www.w3.org/1999/xlink">
    <!-- Generator: Sketch 59.1 (86144) - https://sketch.com -->
    <!-- <title>ic-delete</title> -->
    <desc>Created with Sketch.</desc>
    <g id="Icon-Set" stroke="none" stroke-width="1" fill="none" fill-rule="evenodd">
        <g id="WhaTap_Icon_Set" transform="translate(-356.000000, -1395.000000)" fill="red">
            <g id="editor-icons" transform="translate(40.000000, 1350.000000)">
                <g id="ic-delete" transform="translate(316.000000, 45.000000)">
                    <g transform="translate(3.000000, 2.000000)">
                        <path d="M1,20 L17,20 C17,20 17,19.0357143 17,17.8571429 L17,5 L1,5 L1,17.8571429 C1,19.0357143 1,20 1,20 Z M3,5 L15,5 L15,18 L3,18 L3,5 Z M18,2 L14,2 L12.8571429,0 L5.14285714,0 L4,2 L0,2 L0,4 L18,4 L18,2 Z"></path>
                    </g>
                </g>
            </g>
        </g>
    </g>
</svg>