<svg class="SVGInline-svg" style="width: 16px;height: 16px;" width="24px" height="24px" viewBox="0 0 24 24" version="1.1" xmlns="http://www.w3.org/2000/svg" xmlns:xlink="http://www.w3.org/1999/xlink">
    <!-- Generator: Sketch 59.1 (86144) - https://sketch.com -->
    <!-- <title>ic-search</title> -->
    <desc>Created with Sketch.</desc>
    <g id="Icon-Set" stroke="none" stroke-width="1" fill="none" fill-rule="evenodd">
        <g id="WhaTap_Icon_Set" transform="translate(-548.000000, -4262.000000)" fill="#757575">
            <g id="ic-search-copy-10" transform="translate(548.000000, 4262.000000)">
                <g id="ic-search" transform="translate(2.000000, 2.000000)">
                    <path d="M2.34314575,2.34314575 C5.46734008,-0.781048583 10.5326599,-0.781048583 13.6568542,2.34314575 C16.5416255,5.227917 16.7627004,9.76769699 14.3200788,12.9061319 L19.3636039,17.9493903 L17.9493903,19.3636039 L12.9061319,14.3200788 C9.76769699,16.7627004 5.227917,16.5416255 2.34314575,13.6568542 C-0.781048583,10.5326599 -0.781048583,5.46734008 2.34314575,2.34314575 Z M12.2426407,3.75735931 C9.89949494,1.41421356 6.10050506,1.41421356 3.75735931,3.75735931 C1.41421356,6.10050506 1.41421356,9.89949494 3.75735931,12.2426407 C6.10050506,14.5857864 9.89949494,14.5857864 12.2426407,12.2426407 C14.5857864,9.89949494 14.5857864,6.10050506 12.2426407,3.75735931 Z" id="Combined-Shape"></path>
                </g>
            </g>
        </g>
    </g>
</svg>