<svg class="SVGInline-svg" style="width: 24px;height: 24px;" width="24" height="24" viewBox="0 0 24 24" fill="none" xmlns="http://www.w3.org/2000/svg">
<path fill-rule="evenodd" clip-rule="evenodd" d="M1 2H23V4H1V2ZM5 6H19V15C19 15.5523 18.5523 16 18 16H16V17C16 17.5523 15.5523 18 15 18H13V22H11V18H9C8.44772 18 8 17.5523 8 17V16H6C5.44772 16 5 15.5523 5 15V6ZM9.70191 7.64123L12 9.93933L14.2981 7.64123L15.3588 8.70189L13.0607 11L15.3588 13.2981L14.2981 14.3587L12 12.0606L9.70191 14.3587L8.64125 13.2981L10.9393 11L8.64125 8.70189L9.70191 7.64123Z" fill="#757575"></path>
</svg>