<svg class="SVGInline-svg" style="width: 16px;height: 16px;" width="24px" height="24px" viewBox="0 0 24 24" version="1.1" xmlns="http://www.w3.org/2000/svg" xmlns:xlink="http://www.w3.org/1999/xlink">
    <!-- Generator: Sketch 59.1 (86144) - https://sketch.com -->
    <!-- <title>ic-export</title> -->
    <desc>Created with Sketch.</desc>
    <g id="Icon-Set" stroke="none" stroke-width="1" fill="none" fill-rule="evenodd">
        <g id="WhaTap_Icon_Set" transform="translate(-740.000000, -2951.000000)" fill="#757575">
            <g id="application-icons" transform="translate(40.000000, 2346.000000)">
                <g id="ic-export" transform="translate(700.000000, 605.000000)">
                    <g transform="translate(2.000000, 2.000000)" id="Icon">
                        <path d="M18,18 L2,18 L2,2 L10,2 L10,-1.84768867e-13 L-8.11795076e-13,-1.84768867e-13 L-8.11795076e-13,20 L20,20 L20,10 L18,10 L18,17 L18,18 Z M13.1268882,1.96374622 L16.6518127,1.96374622 L7,11.6155589 L8.38444109,13 L18.0362538,3.34818731 L18.0362538,6.87311178 L20,6.87311178 L20,-1.56319402e-13 L13.1268882,-1.56319402e-13 L13.1268882,1.96374622 Z"></path>
                    </g>
                </g>
            </g>
        </g>
    </g>
</svg>