<svg width="36" height="30" viewBox="0 0 36 30" fill="none" xmlns="http://www.w3.org/2000/svg">
<rect width="36" height="30" rx="4" fill="#296CF2"/>
<path d="M12.5821 8.58277C15.1365 6.0284 19.2784 6.0279 21.8331 8.58179C24.1916 10.9404 24.3707 14.6512 22.3741 17.2175L26.5001 21.3435L25.3438 22.4998L21.2178 18.3738C18.6516 20.3709 14.9409 20.1924 12.5821 17.8337C10.0279 15.2792 10.0279 11.1373 12.5821 8.58277ZM20.6768 9.73902C18.7608 7.8234 15.6552 7.82415 13.7393 9.74C11.8238 11.6559 11.8238 14.7607 13.7393 16.6765C15.6552 18.5923 18.7609 18.5931 20.6768 16.6775C22.5927 14.7616 22.5927 11.655 20.6768 9.73902Z" fill="white"/>
</svg>
