<svg width="40" height="40" viewBox="0 0 40 40" fill="none" xmlns="http://www.w3.org/2000/svg">
<path fill-rule="evenodd" clip-rule="evenodd" d="M10.4 5H24.8H30C31.1046 5 32 5.89543 32 7V28L28.5 31.5L25 35L9.9973 35C8.89273 35 8 34.1046 8 33V7C8 5.89543 8.89523 5 9.9998 5H10.4ZM27.5 11.4084V13.6366C27.4084 13.7421 27.2668 13.8567 27.0755 13.9803C26.8841 14.1013 26.6375 14.2055 26.3356 14.2931C26.0337 14.3806 25.6685 14.4244 25.2399 14.4244C24.8598 14.4244 24.5135 14.3652 24.2008 14.2467C23.8881 14.1257 23.6186 13.9494 23.3922 13.7177C23.1685 13.486 22.996 13.2028 22.8747 12.8681C22.7534 12.5309 22.6927 12.146 22.6927 11.7135L22.6822 11.7186C22.6822 11.2861 22.7402 10.9012 22.8561 10.564C22.9747 10.2267 23.1431 9.94225 23.3615 9.71055C23.5798 9.47885 23.8399 9.3025 24.1418 9.1815C24.4437 9.0605 24.7793 9 25.1485 9C25.6607 9 26.0811 9.07981 26.41 9.23942C26.7388 9.39647 26.9895 9.61529 27.162 9.89591C27.3372 10.174 27.445 10.4932 27.4855 10.8536H26.3089C26.2793 10.6631 26.2227 10.497 26.1391 10.3555C26.0555 10.2139 25.9356 10.1032 25.7793 10.0233C25.6256 9.94354 25.4262 9.90363 25.1809 9.90363C24.9787 9.90363 24.7981 9.94354 24.6391 10.0233C24.4828 10.1006 24.3507 10.2151 24.2429 10.367C24.1351 10.5189 24.0528 10.7069 23.9962 10.9308C23.9396 11.1548 23.9113 11.4148 23.9113 11.7109L23.9218 11.7135C23.9218 12.007 23.9515 12.267 24.0108 12.4935C24.0701 12.7175 24.1577 12.9067 24.2736 13.0612C24.3922 13.2131 24.5377 13.3277 24.7102 13.4049C24.8827 13.4821 25.0836 13.5207 25.3127 13.5207C25.504 13.5207 25.6631 13.5053 25.7898 13.4744C25.9191 13.4435 26.0229 13.4062 26.1011 13.3624C26.1819 13.3161 26.2439 13.2723 26.2871 13.2311V12.2348H25.1792V11.4084H27.5ZM21.7978 12.8974C21.918 12.5607 21.9787 12.1809 21.9798 11.7582L21.9798 11.7698V11.7466L21.9798 11.7582C21.9787 11.333 21.9167 10.9532 21.7938 10.619C21.6725 10.2792 21.5 9.98956 21.2763 9.75013C21.0553 9.51071 20.7911 9.32792 20.4838 9.20177C20.1792 9.07562 19.841 9.01255 19.469 9.01255C19.0997 9.01255 18.7615 9.07562 18.4542 9.20177C18.1496 9.32792 17.8854 9.51071 17.6617 9.75013C17.4407 9.98956 17.2695 10.2792 17.1482 10.619C17.028 10.9532 16.9674 11.3329 16.9663 11.7582L16.9663 11.7466V11.7698L16.9663 11.7582C16.9674 12.1809 17.028 12.5606 17.1482 12.8974C17.2722 13.2372 17.4461 13.5269 17.6698 13.7663C17.8935 14.0031 18.1577 14.1846 18.4623 14.3108C18.7695 14.4369 19.1078 14.5 19.4771 14.5C19.8491 14.5 20.1873 14.4369 20.4919 14.3108C20.7992 14.1846 21.0633 14.0031 21.2844 13.7663C21.5054 13.5269 21.6765 13.2372 21.7978 12.8974ZM20.6698 10.9743C20.7259 11.1989 20.7542 11.4589 20.7547 11.7543C20.7542 12.0472 20.7259 12.3073 20.6698 12.5344C20.6132 12.761 20.531 12.9528 20.4232 13.1098C20.3154 13.2643 20.1819 13.3814 20.0229 13.4612C19.8639 13.541 19.6819 13.5809 19.4771 13.5809C19.2722 13.5809 19.0903 13.541 18.9313 13.4612C18.7722 13.3814 18.6375 13.2643 18.527 13.1098C18.4164 12.9528 18.3329 12.761 18.2763 12.5344C18.2202 12.3073 18.1919 12.0472 18.1914 11.7543C18.1919 11.4589 18.2202 11.1989 18.2763 10.9743C18.3329 10.7477 18.4151 10.5572 18.5229 10.4028C18.6334 10.2483 18.7668 10.1324 18.9232 10.0552C19.0822 9.9754 19.2642 9.93549 19.469 9.93549C19.6739 9.93549 19.8558 9.9754 20.0148 10.0552C20.1739 10.1324 20.3086 10.2483 20.4191 10.4028C20.5296 10.5572 20.6132 10.7477 20.6698 10.9743ZM16.4596 14.4244V13.2964H13.7129V9.20177H12.5V14.4244H13.3208H13.7129H16.4596ZM28 17H12V18H28V17ZM12 21H28V22H12V21ZM12 25H28V26H12V25ZM12 29H22V30H12V29Z" fill="#D75EF5"/>
<path d="M25 30C25 28.8954 25.8954 28 27 28H32L28.5 31.5L25 35V30Z" fill="#F0B5FF"/>
</svg>
