<svg width="40" height="40" viewBox="0 0 40 40" fill="none" xmlns="http://www.w3.org/2000/svg">
<path fill-rule="evenodd" clip-rule="evenodd" d="M13.0385 6C11.9996 6 11.1663 6.84377 11.1663 7.8805V14.3124H8.87221C7.83327 14.3124 7 15.1594 7 16.1929V30.1195C7 31.1562 7.83327 32 8.87221 32H22.7951C23.8341 32 24.6937 31.1562 24.6937 30.1195V27.8302H31.1278C32.1657 27.8302 33 26.9831 33 25.9497V12.0231C33 10.9885 32.1657 10.1698 31.1278 10.1698H28.8337V7.8805C28.8337 6.84377 27.9983 6 26.9615 6H13.0385ZM13.0385 7.06289H26.9615C27.4161 7.06289 27.7789 7.42482 27.7789 7.8805V10.1698H17.2049C16.168 10.1698 15.3063 10.9885 15.3063 12.0231V14.3124H12.2211V7.8805C12.2211 7.42482 12.5808 7.06289 13.0385 7.06289ZM17.2049 11.2055H27.7789V21.7799C27.7789 22.2356 27.4161 22.6247 26.9615 22.6247H24.6937V16.1929C24.6937 15.1594 23.8341 14.3124 22.7951 14.3124H16.3611V12.0231C16.3611 11.5685 16.7503 11.2055 17.2049 11.2055ZM28.8337 11.2055H31.1278C31.5834 11.2055 31.9452 11.5685 31.9452 12.0231V25.9497C31.9452 26.4043 31.5834 26.7673 31.1278 26.7673H24.6937V23.6876H26.9615C27.9983 23.6876 28.8337 22.8166 28.8337 21.7799V11.2055ZM8.87221 15.3753H11.1663V21.7799C11.1663 22.8166 11.9996 23.6876 13.0385 23.6876H15.3063V25.9497C15.3063 26.9831 16.168 27.8302 17.2049 27.8302H23.6389V30.1195C23.6389 30.5741 23.2529 30.9371 22.7951 30.9371H8.87221C8.41128 30.9371 8.05477 30.5741 8.05477 30.1195V16.1929C8.05477 15.7394 8.41128 15.3753 8.87221 15.3753ZM12.2211 15.3753H15.3063V22.6247H13.0385C12.5808 22.6247 12.2211 22.2356 12.2211 21.7799V15.3753ZM16.3611 15.3753H22.7951C23.2529 15.3753 23.6389 15.7394 23.6389 16.1929V22.6247H16.3611V15.3753ZM16.3611 23.6876H23.6389V26.7673H17.2049C16.7503 26.7673 16.3611 26.4043 16.3611 25.9497V23.6876Z" fill="#879AC3"/>
</svg>
