<svg width="153" height="23" viewBox="0 0 153 23" fill="none" xmlns="http://www.w3.org/2000/svg">
<path d="M0.636719 0.9375H4.04688L6.85938 12L9.95312 0.9375H12.2617L15.3555 12L18.1562 0.9375H21.5664L16.6211 18H13.9609L11.1016 7.34766L8.21875 18H5.58203L0.636719 0.9375ZM25.5039 0.9375V6.57422C25.9414 5.98828 26.4414 5.55469 27.0039 5.27344C27.5742 4.99219 28.2227 4.85156 28.9492 4.85156C30.5586 4.85156 31.793 5.34766 32.6523 6.33984C33.5117 7.32422 33.9414 8.74609 33.9414 10.6055V18H30.9414V12.3164C30.9414 10.5508 30.7422 9.35547 30.3438 8.73047C29.9531 8.09766 29.2656 7.78125 28.2812 7.78125C27.2812 7.78125 26.5625 8.13672 26.125 8.84766C25.6875 9.55078 25.4688 10.7617 25.4688 12.4805V18H22.5742V0.9375H25.5039ZM38.8398 11.4492C38.8398 12.5352 39.1992 13.4453 39.918 14.1797C40.6445 14.9062 41.5273 15.2695 42.5664 15.2695C43.5117 15.2695 44.3438 14.9023 45.0625 14.168C45.7812 13.4336 46.1406 12.5742 46.1406 11.5898C46.1406 10.543 45.7773 9.64453 45.0508 8.89453C44.332 8.13672 43.4883 7.75781 42.5195 7.75781C41.5039 7.75781 40.6367 8.11719 39.918 8.83594C39.1992 9.54688 38.8398 10.418 38.8398 11.4492ZM46.4805 18V16.418C46.1211 17.0586 45.6133 17.5312 44.957 17.8359C44.3086 18.1406 43.4766 18.293 42.4609 18.293C40.5547 18.293 38.9609 17.6445 37.6797 16.3477C36.4062 15.043 35.7695 13.4258 35.7695 11.4961C35.7695 10.5898 35.9297 9.73047 36.25 8.91797C36.5703 8.10547 37.0273 7.39062 37.6211 6.77344C38.2617 6.09375 38.9727 5.59375 39.7539 5.27344C40.5352 4.94531 41.4141 4.78125 42.3906 4.78125C43.3281 4.78125 44.1328 4.9375 44.8047 5.25C45.4844 5.5625 46.0312 6.03516 46.4453 6.66797V5.10938H49.375V18H46.4805ZM60.6016 0.9375V3.9375H57.3789V18H54.0508V3.9375H50.8281V0.9375H60.6016ZM63.2852 11.4492C63.2852 12.5352 63.6445 13.4453 64.3633 14.1797C65.0898 14.9062 65.9727 15.2695 67.0117 15.2695C67.957 15.2695 68.7891 14.9023 69.5078 14.168C70.2266 13.4336 70.5859 12.5742 70.5859 11.5898C70.5859 10.543 70.2227 9.64453 69.4961 8.89453C68.7773 8.13672 67.9336 7.75781 66.9648 7.75781C65.9492 7.75781 65.082 8.11719 64.3633 8.83594C63.6445 9.54688 63.2852 10.418 63.2852 11.4492ZM70.9258 18V16.418C70.5664 17.0586 70.0586 17.5312 69.4023 17.8359C68.7539 18.1406 67.9219 18.293 66.9062 18.293C65 18.293 63.4062 17.6445 62.125 16.3477C60.8516 15.043 60.2148 13.4258 60.2148 11.4961C60.2148 10.5898 60.375 9.73047 60.6953 8.91797C61.0156 8.10547 61.4727 7.39062 62.0664 6.77344C62.707 6.09375 63.418 5.59375 64.1992 5.27344C64.9805 4.94531 65.8594 4.78125 66.8359 4.78125C67.7734 4.78125 68.5781 4.9375 69.25 5.25C69.9297 5.5625 70.4766 6.03516 70.8906 6.66797V5.10938H73.8203V18H70.9258ZM79.3281 11.4961C79.3281 12.5977 79.6836 13.5195 80.3945 14.2617C81.1055 14.9961 81.9844 15.3633 83.0312 15.3633C84.0625 15.3633 84.9414 14.9883 85.668 14.2383C86.4023 13.4883 86.7695 12.5898 86.7695 11.543C86.7695 10.457 86.4023 9.55469 85.668 8.83594C84.9336 8.11719 84.0078 7.75781 82.8906 7.75781C81.9062 7.75781 81.0664 8.12109 80.3711 8.84766C79.6758 9.56641 79.3281 10.4492 79.3281 11.4961ZM79.2109 16.9688V22.1719H76.2578V5.10938H79.2109V6.1875C79.8125 5.71094 80.4414 5.35938 81.0977 5.13281C81.7539 4.89844 82.4609 4.78125 83.2188 4.78125C84.0312 4.78125 84.7969 4.91016 85.5156 5.16797C86.2344 5.41797 86.8789 5.79297 87.4492 6.29297C88.2227 6.96484 88.8164 7.75781 89.2305 8.67188C89.6523 9.58594 89.8633 10.5586 89.8633 11.5898C89.8633 12.5508 89.6719 13.4688 89.2891 14.3438C88.9141 15.2188 88.3789 15.9727 87.6836 16.6055C87.0898 17.168 86.4102 17.5977 85.6445 17.8945C84.8867 18.1914 84.0859 18.3398 83.2422 18.3398C82.4219 18.3398 81.6836 18.2266 81.0273 18C80.3789 17.7812 79.7734 17.4375 79.2109 16.9688ZM104.594 15.0703C106.445 15.0703 107.809 14.6172 108.684 13.7109C109.559 12.8047 109.996 11.3867 109.996 9.45703C109.996 7.68359 109.516 6.30469 108.555 5.32031C107.602 4.33594 106.266 3.84375 104.547 3.84375H102.367V15.0703H104.594ZM104.805 18H99.0039V0.9375H104.711C106.258 0.9375 107.496 1.09375 108.426 1.40625C109.355 1.71875 110.199 2.24219 110.957 2.97656C111.762 3.75781 112.371 4.70312 112.785 5.8125C113.199 6.92188 113.406 8.16797 113.406 9.55078C113.406 11.0977 113.117 12.4844 112.539 13.7109C111.961 14.9297 111.121 15.9336 110.02 16.7227C109.395 17.1836 108.695 17.5117 107.922 17.707C107.148 17.9023 106.109 18 104.805 18ZM117.684 11.4727C117.684 12.668 118.012 13.6172 118.668 14.3203C119.324 15.0156 120.215 15.3633 121.34 15.3633C122.449 15.3633 123.332 15.0078 123.988 14.2969C124.652 13.5781 124.984 12.6133 124.984 11.4023C124.984 10.3164 124.637 9.42578 123.941 8.73047C123.254 8.02734 122.387 7.67578 121.34 7.67578C120.262 7.67578 119.383 8.03125 118.703 8.74219C118.023 9.44531 117.684 10.3555 117.684 11.4727ZM114.59 11.4961C114.59 10.5898 114.754 9.73047 115.082 8.91797C115.418 8.09766 115.902 7.37109 116.535 6.73828C117.184 6.08984 117.914 5.59375 118.727 5.25C119.539 4.89844 120.383 4.72266 121.258 4.72266C122.188 4.72266 123.043 4.87891 123.824 5.19141C124.613 5.49609 125.336 5.95703 125.992 6.57422C126.664 7.22266 127.184 7.97266 127.551 8.82422C127.918 9.66797 128.102 10.5352 128.102 11.4258C128.102 12.4102 127.941 13.3086 127.621 14.1211C127.301 14.9336 126.82 15.668 126.18 16.3242C125.539 16.9883 124.809 17.4922 123.988 17.8359C123.168 18.1719 122.277 18.3398 121.316 18.3398C120.348 18.3398 119.465 18.168 118.668 17.8242C117.871 17.4805 117.145 16.9648 116.488 16.2773C115.863 15.6055 115.391 14.8672 115.07 14.0625C114.75 13.25 114.59 12.3945 114.59 11.4961ZM139.27 9.69141C138.91 9.01953 138.449 8.51562 137.887 8.17969C137.332 7.84375 136.672 7.67578 135.906 7.67578C134.891 7.67578 134.039 8.04297 133.352 8.77734C132.672 9.51172 132.332 10.4336 132.332 11.543C132.332 12.6367 132.68 13.5469 133.375 14.2734C134.078 15 134.957 15.3633 136.012 15.3633C136.824 15.3633 137.5 15.1914 138.039 14.8477C138.578 14.4961 138.98 13.9727 139.246 13.2773H142.445C142.055 14.8555 141.293 16.0938 140.16 16.9922C139.027 17.8906 137.652 18.3398 136.035 18.3398C135.082 18.3398 134.199 18.1719 133.387 17.8359C132.574 17.4922 131.84 16.9883 131.184 16.3242C130.574 15.6992 130.098 14.9688 129.754 14.1328C129.41 13.2891 129.238 12.4336 129.238 11.5664C129.238 10.6602 129.395 9.8125 129.707 9.02344C130.02 8.23438 130.48 7.52344 131.09 6.89062C131.762 6.17969 132.52 5.64062 133.363 5.27344C134.207 4.90625 135.113 4.72266 136.082 4.72266C137.66 4.72266 139.027 5.17188 140.184 6.07031C141.34 6.96875 142.102 8.17578 142.469 9.69141H139.27ZM146.512 13.7227V13.8984C146.512 14.4688 146.656 14.9336 146.945 15.293C147.234 15.6445 147.609 15.8203 148.07 15.8203C148.508 15.8203 148.863 15.6875 149.137 15.4219C149.418 15.1562 149.559 14.8164 149.559 14.4023C149.559 14.0195 149.457 13.707 149.254 13.4648C149.051 13.2148 148.688 12.9648 148.164 12.7148C147.867 12.582 147.43 12.3984 146.852 12.1641C146.273 11.9297 145.902 11.7461 145.738 11.6133C145.262 11.2227 144.91 10.7891 144.684 10.3125C144.457 9.82812 144.344 9.27734 144.344 8.66016C144.344 7.57422 144.723 6.65625 145.48 5.90625C146.246 5.15625 147.172 4.78125 148.258 4.78125C149.406 4.78125 150.312 5.11328 150.977 5.77734C151.648 6.44141 152.016 7.37109 152.078 8.56641H149.383V8.49609C149.383 8.08203 149.273 7.75781 149.055 7.52344C148.844 7.28906 148.547 7.17188 148.164 7.17188C147.828 7.17188 147.547 7.28906 147.32 7.52344C147.102 7.75 146.992 8.03516 146.992 8.37891C146.992 8.94141 147.57 9.46484 148.727 9.94922C149.031 10.0742 149.266 10.1719 149.43 10.2422C150.539 10.7422 151.297 11.2812 151.703 11.8594C152.109 12.4297 152.312 13.2031 152.312 14.1797C152.312 15.3828 151.906 16.3789 151.094 17.168C150.281 17.9492 149.258 18.3398 148.023 18.3398C146.781 18.3398 145.777 17.9258 145.012 17.0977C144.254 16.2695 143.84 15.1484 143.77 13.7344L146.512 13.7227Z" fill="currentColor"/>
</svg>
