<svg width="52" height="52" viewBox="0 0 52 52" fill="none" xmlns="http://www.w3.org/2000/svg">
<path fill-rule="evenodd" clip-rule="evenodd" d="M37.5054 22.4105H35.6213L34.5947 27.7113H36.2672C37.3758 27.7113 38.2016 27.5019 38.7443 27.0827C39.287 26.6635 39.653 25.9638 39.8431 24.9835C40.0251 24.0422 39.9423 23.3779 39.5944 22.991C39.2464 22.604 38.5501 22.4105 37.5054 22.4105ZM16.0426 22.4105H14.1585L13.1318 27.7113H14.8044C15.913 27.7113 16.7388 27.5019 17.2815 27.0827C17.8241 26.6635 18.1902 25.9638 18.3803 24.9835C18.5624 24.0422 18.4795 23.3779 18.1317 22.991C17.7836 22.604 17.0873 22.4105 16.0426 22.4105ZM42.6853 25.177C42.5655 25.7954 42.3628 26.361 42.0776 26.8731C41.7921 27.3857 41.4193 27.8546 40.9586 28.2795C40.4095 28.7951 39.7995 29.1625 39.1283 29.3813C38.4571 29.6007 37.6022 29.71 36.5629 29.71H34.2075L33.5553 33.0773H30.8055L33.2589 20.4119H38.5467C40.1375 20.4119 41.2978 20.8307 42.0272 21.6685C42.7567 22.5063 42.9762 23.6756 42.6853 25.177ZM27.5224 29.71L28.6077 24.1061C28.7312 23.4686 28.6858 23.0337 28.4713 22.8019C28.2568 22.57 27.8005 22.454 27.1025 22.454H24.9221L23.5168 29.71H20.7886L23.242 17.0446H25.9702L25.318 20.4119H27.7483C29.2775 20.4119 30.3324 20.6797 30.9129 21.2146C31.4934 21.7499 31.6674 22.6172 31.4352 23.8162L30.2938 29.71H27.5224ZM19.4957 28.2795C18.9466 28.7951 18.3367 29.1625 17.6654 29.3813C16.9942 29.6007 16.1393 29.71 15.1 29.71H12.7447L12.0925 33.0773H9.34268L11.7961 20.4119H17.0839C18.6747 20.4119 19.8351 20.8307 20.5645 21.6685C21.2939 22.5063 21.5134 23.6756 21.2225 25.177C21.1027 25.7954 20.9001 26.361 20.6149 26.8731C20.3293 27.3857 19.9565 27.8546 19.4957 28.2795ZM26.0001 14.3C13.2922 14.3 2.98999 19.5384 2.98999 26C2.98999 32.4617 13.2922 37.7 26.0001 37.7C38.7079 37.7 49.01 32.4617 49.01 26C49.01 19.5384 38.7079 14.3 26.0001 14.3Z" fill="#777BB4"/>
</svg>
