<svg width="24" height="16" viewBox="0 0 24 16" fill="none" xmlns="http://www.w3.org/2000/svg">
<rect width="24" height="16" rx="4" fill="#4485FF"/>
<path d="M9.60742 9.14062H11.5059C11.4746 9.72656 11.3145 10.2441 11.0254 10.6934C10.7402 11.1387 10.3438 11.4883 9.83594 11.7422C9.32812 11.9922 8.72461 12.1172 8.02539 12.1172C7.4668 12.1172 6.9668 12.0215 6.52539 11.8301C6.08398 11.6387 5.70898 11.3652 5.40039 11.0098C5.0957 10.6504 4.86133 10.2188 4.69727 9.71484C4.53711 9.20703 4.45703 8.63477 4.45703 7.99805V7.47656C4.45703 6.83984 4.54102 6.26758 4.70898 5.75977C4.87695 5.25195 5.11719 4.81836 5.42969 4.45898C5.74219 4.09961 6.11719 3.82422 6.55469 3.63281C6.99219 3.44141 7.48047 3.3457 8.01953 3.3457C8.74609 3.3457 9.35938 3.47656 9.85938 3.73828C10.3594 4 10.7461 4.35938 11.0195 4.81641C11.2969 5.27344 11.4629 5.79492 11.5176 6.38086H9.61328C9.59766 6.04883 9.53516 5.76953 9.42578 5.54297C9.31641 5.3125 9.14844 5.13867 8.92188 5.02148C8.69531 4.9043 8.39453 4.8457 8.01953 4.8457C7.74609 4.8457 7.50586 4.89648 7.29883 4.99805C7.0957 5.09961 6.92578 5.25781 6.78906 5.47266C6.65625 5.6875 6.55664 5.96094 6.49023 6.29297C6.42383 6.62109 6.39062 7.01172 6.39062 7.46484V7.99805C6.39062 8.44727 6.41992 8.83594 6.47852 9.16406C6.53711 9.49219 6.63086 9.76367 6.75977 9.97852C6.89258 10.1934 7.0625 10.3535 7.26953 10.459C7.47656 10.5645 7.72852 10.6172 8.02539 10.6172C8.36523 10.6172 8.64844 10.5645 8.875 10.459C9.10156 10.3496 9.27539 10.1855 9.39648 9.9668C9.51758 9.74805 9.58789 9.47266 9.60742 9.14062ZM15.9297 9.03516H13.7852V7.55273H15.9297C16.2461 7.55273 16.5 7.5 16.6914 7.39453C16.8867 7.28906 17.0293 7.14453 17.1191 6.96094C17.2129 6.77344 17.2598 6.5625 17.2598 6.32812C17.2598 6.08594 17.2129 5.86133 17.1191 5.6543C17.0293 5.44336 16.8867 5.27344 16.6914 5.14453C16.5 5.01562 16.2461 4.95117 15.9297 4.95117H14.4766V12H12.5664V3.46875H15.9297C16.6094 3.46875 17.1914 3.5918 17.6758 3.83789C18.1641 4.08398 18.5371 4.42188 18.7949 4.85156C19.0566 5.27734 19.1875 5.76562 19.1875 6.31641C19.1875 6.86719 19.0566 7.3457 18.7949 7.75195C18.5371 8.1582 18.1641 8.47461 17.6758 8.70117C17.1914 8.92383 16.6094 9.03516 15.9297 9.03516Z" fill="white"/>
</svg>
