<svg width="24" height="24" viewBox="0 0 24 24" fill="none" xmlns="http://www.w3.org/2000/svg">
<path fill-rule="evenodd" clip-rule="evenodd" d="M4 4H20C21.0353 4 21.8934 4.79723 21.9908 5.8081L22 6V9.33333H20V6H4V18H14V20H4C2.96471 20 2.10657 19.2028 2.0092 18.1919L2 18V6C2 4.96471 2.79723 4.10657 3.8081 4.0092L4 4ZM20.4567 19.21L17.5467 16.3C16.8567 16.74 16.0367 17 15.1567 17C12.6767 17 10.6667 14.99 10.6667 12.5C10.6667 10.01 12.6767 8 15.1667 8C17.6567 8 19.6667 10.01 19.6667 12.5C19.6667 13.38 19.4067 14.19 18.9667 14.89L21.8767 17.79L20.4567 19.21ZM15.1667 10C13.7867 10 12.6667 11.12 12.6667 12.5C12.6667 13.88 13.7867 15 15.1667 15C16.5467 15 17.6667 13.88 17.6667 12.5C17.6667 11.12 16.5467 10 15.1667 10Z" fill="#757575"/>
</svg>
