<svg width="17" height="18" viewBox="0 0 17 18" fill="none" xmlns="http://www.w3.org/2000/svg">
<path fill-rule="evenodd" clip-rule="evenodd" d="M7.16667 3.99984C7.16667 2.15889 5.67428 0.666504 3.83333 0.666504C1.99238 0.666504 0.5 2.15889 0.5 3.99984C0.5 5.84079 1.99238 7.33317 3.83333 7.33317C4.69796 7.33317 5.48569 7.00398 6.07804 6.46409L9.69634 8.55312C9.67677 8.69924 9.66667 8.84836 9.66667 8.99984C9.66667 9.33843 9.71715 9.66523 9.811 9.97313L6.43854 11.9202C5.82774 11.156 4.8877 10.6665 3.83333 10.6665C1.99238 10.6665 0.5 12.1589 0.5 13.9998C0.5 15.8408 1.99238 17.3332 3.83333 17.3332C5.67428 17.3332 7.16667 15.8408 7.16667 13.9998C7.16667 13.8127 7.15124 13.6291 7.12159 13.4504L10.6817 11.3949C11.2816 11.9757 12.0991 12.3332 13 12.3332C14.841 12.3332 16.3333 10.8408 16.3333 8.99984C16.3333 7.15889 14.841 5.6665 13 5.6665C11.9106 5.6665 10.9432 6.18913 10.335 6.99733L6.99208 5.06731C7.10529 4.73218 7.16667 4.37318 7.16667 3.99984ZM2.16667 3.99984C2.16667 3.07936 2.91286 2.33317 3.83333 2.33317C4.75381 2.33317 5.5 3.07936 5.5 3.99984C5.5 4.92031 4.75381 5.6665 3.83333 5.6665C2.91286 5.6665 2.16667 4.92031 2.16667 3.99984ZM2.16667 13.9998C2.16667 13.0794 2.91286 12.3332 3.83333 12.3332C4.75381 12.3332 5.5 13.0794 5.5 13.9998C5.5 14.9203 4.75381 15.6665 3.83333 15.6665C2.91286 15.6665 2.16667 14.9203 2.16667 13.9998ZM13 7.33317C12.0795 7.33317 11.3333 8.07936 11.3333 8.99984C11.3333 9.92031 12.0795 10.6665 13 10.6665C13.9205 10.6665 14.6667 9.92031 14.6667 8.99984C14.6667 8.07936 13.9205 7.33317 13 7.33317Z" fill="#757575"/>
</svg>
