<svg class="SVGInline-svg" style="width: 16px;height: 16px;" xmlns="http://www.w3.org/2000/svg" width="24" height="24" viewBox="0 0 24 24">
    <path fill="#757575" fill-rule="evenodd" d="M20.59 5.491l-2.85 3.094C15.68 6.349 12.83 5 9.61 5 6.72 5 4.07 6.118 2 7.891l1.42 1.368c1.7-1.435 3.85-2.332 6.19-2.332 2.74 0 5.09 1.215 6.77 3.123l-2.88 3.122-4-3.855L2 16.554 3.5 18l6-5.792 4 3.855 4.05-4.385c.75 1.301 1.25 2.795 1.44 4.385H21c-.22-2.216-.95-4.23-2.04-5.917L22 6.85l-1.41-1.359z"></path>
</svg>