<svg class="SVGInline-svg" style="width: 60px;height: 60px;" xmlns="http://www.w3.org/2000/svg" xmlns:xlink="http://www.w3.org/1999/xlink" width="32" height="32" viewBox="0 0 32 32">
  <defs>
      <path id="g00ktodcya" d="M0 0.207L18.625 0.207 18.625 3.175 0 3.175z"></path>
  </defs>
  <g fill="none" fill-rule="evenodd">
      <g>
          <g>
              <g>
                  <g>
                      <path d="M0 0L32 0 32 32 0 32z" transform="translate(-1429 -383) translate(1413 216) translate(16 16) translate(0 151)"></path>
                      <g>
                          <path fill="#4E7896" d="M6.457 20.888l.431-.263-.486.137c-.807.229-1.252.513-1.322.848-.029.14-.003.356.29.595.593.486 2.16.903 4.055.903 1.477 0 3.154-.253 4.726-.925l.16-.068-.163-.06c-.828-.305-1.45-.701-1.456-.706l-.023-.014-.028.004c-2.293.441-3.424.486-5.5.223-.807-.083-.932-.258-.948-.329-.03-.131.186-.297.264-.345M6.842 17.3c.234.005.468.007.702.007 2.574 0 5.098-.265 6.865-.726l.02-.008c.48-.305 1.185-.615 1.192-.618l.536-.235-.576.103c-.02.004-2.023.357-4 .533-2.647.193-5.158.21-6.398.044-.902-.116-.98-.279-.984-.326-.016-.302 1.586-.821 2.728-1.094l.44-.105-.452-.032c-.019 0-1.958-.122-4.265.986-.408.2-.577.404-.502.605.215.577 2.566.826 4.694.866" transform="translate(-1429 -383) translate(1413 216) translate(16 16) translate(0 151) translate(6 1.6)"></path>
                          <path fill="#4E7896" d="M16.675 15.07c.733-.144 1.557.324 1.8 1.02.186.536.275 1.96-2.914 3.61l-.02.01-.01.02c-.038.077-.076.116-.076.116l-.18.18.246-.064c3.247-.843 4.037-2.21 4.219-2.951.168-.683-.04-1.351-.573-1.834-.664-.602-1.684-.763-2.658-.42-.337.096-.482.38-.488.391l-.092.185.185-.091c.002-.001.178-.087.561-.172M19.67 24.318c-.004.008-.417.868-3.911 1.515-4.081.753-9.192.66-12.132.178l-.245-.04.188.161c.026.023.678.551 3.826.729.858.055 1.778.085 2.715.085 4.571 0 9.544-.71 9.693-2.596l.031-.41-.165.378z" transform="translate(-1429 -383) translate(1413 216) translate(16 16) translate(0 151) translate(6 1.6)"></path>
                          <g transform="translate(-1429 -383) translate(1413 216) translate(16 16) translate(0 151) translate(6 1.6) translate(0 22.505)">
                              <mask id="4aginbhebb" fill="#fff">
                                  <use xlink:href="#g00ktodcya"></use>
                              </mask>
                              <path fill="#4E7896" d="M18.607 1.144c.056-.185.009-.457-.536-.703l-.475-.214.402.331c.002.002.188.157.148.358-.033.165-.228.408-.97.634-2.888.861-12.423 1.178-15.136.002-.108-.046-.234-.118-.224-.205.036-.277 1.109-.649 1.637-.73.563-.13.872-.132.875-.132h.22l-.18-.126c-.612-.427-2.811.115-3.84.801-.396.265-.57.517-.52.75.068.31.516.528 1.37.665 2.613.426 5.112.6 7.36.6 5.568 0 9.58-1.07 9.87-2.03" mask="url(#4aginbhebb)"></path>
                          </g>
                          <path fill="#4E7896" d="M14.8 19.276l-.209-.07c-.64-.213-1.035-.643-1.039-.647l-.026-.03-.04.008c-2.954.599-4.71.589-7.103.355-.682-.07-.868-.237-.904-.365-.056-.198.21-.453.316-.534l.335-.255-.4.134c-1.363.459-1.542.895-1.451 1.18.207.654 2.057 1.12 4.497 1.12 1.762 0 3.832-.244 5.813-.833l.211-.063z" transform="translate(-1429 -383) translate(1413 216) translate(16 16) translate(0 151) translate(6 1.6)"></path>
                          <path fill="#F58219" d="M9.082 13.336c-1.174-1.678-2.389-3.413.9-6.021 2.124-1.667 3.252-3.31 3.353-4.886.09-1.407-.687-2.213-.72-2.247L12.435 0l.063.248c.732 2.894-1.254 4.462-3.174 5.978-.957.755-1.946 1.536-2.56 2.464-1.325 1.986.724 4.08 3.128 6.23l.24.213-.13-.293c-.225-.51-.578-1.016-.92-1.504" transform="translate(-1429 -383) translate(1413 216) translate(16 16) translate(0 151) translate(6 1.6)"></path>
                          <path fill="#F58219" d="M15.94 5.763l.427-.246-.479.12c-.012.002-1.267.317-2.608.956-1.244.593-2.82 1.595-3.265 2.999-.341 1.077.02 2.24 1.074 3.453.35.398.508.822.471 1.26-.07.826-.812 1.437-.82 1.443l-.516.42.592-.304c.075-.039 1.844-.96 2.167-2.308.129-.537.007-1.067-.36-1.575-.063-.09-.124-.18-.186-.266-.571-.818-1.022-1.465-.857-2.208.22-.99 1.525-2.11 4.36-3.744" transform="translate(-1429 -383) translate(1413 216) translate(16 16) translate(0 151) translate(6 1.6)"></path>
                      </g>
                  </g>
              </g>
          </g>
      </g>
  </g>
</svg>