<svg class="SVGInline-svg" style="width: 20px;height: 20px;" width="24px" height="24px" viewBox="0 0 24 24" version="1.1" xmlns="http://www.w3.org/2000/svg" xmlns:xlink="http://www.w3.org/1999/xlink">
    <!-- Generator: Sketch 59.1 (86144) - https://sketch.com -->
    <!-- <title>ic-stop</title> -->
    <desc>Created with Sketch.</desc>
    <g id="Icon-Set" stroke="none" stroke-width="1" fill="none" fill-rule="evenodd">
        <g id="WhaTap_Icon_Set" transform="translate(-549.000000, -862.000000)" fill="#eb3737">
            <g id="suggested-icons" transform="translate(40.000000, 737.000000)">
                <g id="ic-stop" transform="translate(509.000000, 125.000000)">
                    <g transform="translate(2.000000, 2.000000)">
                        <path d="M10,0 C15.5228475,0 20,4.4771525 20,10 C20,15.5228475 15.5228475,20 10,20 C4.4771525,20 0,15.5228475 0,10 C0,4.4771525 4.4771525,0 10,0 Z M16.3207287,5.09547725 L5.09547725,16.3207287 C6.44997896,17.3732643 8.15179849,18 10,18 C14.418278,18 18,14.418278 18,10 C18,8.15179849 17.3732643,6.44997896 16.3207287,5.09547725 Z M10,2 C5.581722,2 2,5.581722 2,10 C2,11.8482015 2.62673571,13.550021 3.67927125,14.9045228 L14.9045228,3.67927125 C13.550021,2.62673571 11.8482015,2 10,2 Z"></path>
                    </g>
                </g>
            </g>
        </g>
    </g>
</svg>