<svg width="35" height="35" viewBox="0 0 35 35" fill="none" xmlns="http://www.w3.org/2000/svg">
<circle cx="17.5" cy="17.5" r="17.5" fill="#F9C12A"/>
<path d="M19.3281 25.4688V5H22.9688V29L19.6719 29.0156L19.3281 25.4688ZM10.25 21.2344V19.9062C10.25 18.5208 10.375 17.3229 10.625 16.3125C10.875 15.2917 11.2396 14.4427 11.7188 13.7656C12.2083 13.0885 12.7969 12.5885 13.4844 12.2656C14.1719 11.9427 14.9479 11.7812 15.8125 11.7812C16.6562 11.7812 17.3854 11.974 18 12.3594C18.6146 12.7344 19.1354 13.2708 19.5625 13.9688C19.9896 14.6667 20.3281 15.5 20.5781 16.4688C20.8385 17.4271 21.0156 18.5 21.1094 19.6875V21.5312C20.9948 22.6771 20.8125 23.7292 20.5625 24.6875C20.3125 25.6354 19.974 26.4531 19.5469 27.1406C19.1198 27.8281 18.5938 28.3646 17.9688 28.75C17.3542 29.125 16.6302 29.3125 15.7969 29.3125C14.9323 29.3125 14.1562 29.1406 13.4688 28.7969C12.7917 28.4531 12.2083 27.9427 11.7188 27.2656C11.2396 26.5885 10.875 25.75 10.625 24.75C10.375 23.7396 10.25 22.5677 10.25 21.2344ZM13.8906 19.9062V21.2344C13.8906 22.099 13.9427 22.8438 14.0469 23.4688C14.151 24.0938 14.3177 24.6094 14.5469 25.0156C14.776 25.4115 15.0781 25.7083 15.4531 25.9062C15.8281 26.0938 16.2812 26.1875 16.8125 26.1875C17.4792 26.1875 18.0208 26.0208 18.4375 25.6875C18.8646 25.3542 19.1927 24.9062 19.4219 24.3438C19.6615 23.7708 19.8281 23.1354 19.9219 22.4375V18.7969C19.8698 18.2448 19.7656 17.7344 19.6094 17.2656C19.4531 16.7865 19.25 16.3698 19 16.0156C18.75 15.6615 18.4427 15.3854 18.0781 15.1875C17.724 14.9792 17.3073 14.875 16.8281 14.875C16.2969 14.875 15.8438 14.9792 15.4688 15.1875C15.0938 15.3854 14.7917 15.6927 14.5625 16.1094C14.3333 16.5156 14.1615 17.0365 14.0469 17.6719C13.9427 18.2969 13.8906 19.0417 13.8906 19.9062Z" fill="#333333"/>
</svg>
