<svg width="48" height="48" viewBox="0 0 48 48" fill="none" xmlns="http://www.w3.org/2000/svg">
<path fill-rule="evenodd" clip-rule="evenodd" d="M25.7369 14.3355L21.1819 22.3066H12.6292L8.168 14.5004L12.6292 6.69496H21.3698L25.7369 14.3355ZM28.1429 13L23 4H11L5 14.5L10.2857 23.75L5 33L11 43.5H23L28.4286 34H38.5L44.5 23.5L38.5 13L28.1429 13ZM23.7625 23.6657L28.3172 15.695L36.8698 15.695L41.3311 23.5012L36.8698 31.3066H28.1292L23.7625 23.6657ZM12.6292 40.8066L8.168 33.0004L12.6292 25.195H21.3698L25.8311 33.0004L21.3698 40.8066H12.6292Z" fill="#757575"/>
</svg>
