<svg width="24" height="24" viewBox="0 0 24 24" fill="none" xmlns="http://www.w3.org/2000/svg">
<path fill-rule="evenodd" clip-rule="evenodd" d="M4.81107 20.4349L1.021 20.4349L1.021 18.4349L2.88747 18.4349L7.77467 13.5477L6.38467 12.1577L9.2131 9.32932L7.79888 7.91511L13.4557 2.25825L23.3552 12.1577L17.6984 17.8146L16.2842 16.4004L13.4557 19.2288L12.0173 17.7904L9.37285 20.4348L4.82542 20.4493L4.81107 20.4349ZM5.76437 18.4349H8.59279L10.6273 16.4004L9.21311 14.9862L5.76437 18.4349ZM9.23745 12.1334L13.4559 16.3518L13.4315 16.3762L13.4557 16.4004L14.87 14.9862L10.6273 10.7435L9.23745 12.1334ZM13.4557 5.08668L10.6273 7.91511L17.6984 14.9862L20.5268 12.1577L13.4557 5.08668Z" fill="#757575"/>
</svg>
