<svg width="15" height="19" viewBox="0 0 15 19" fill="none" xmlns="http://www.w3.org/2000/svg">
<path fill-rule="evenodd" clip-rule="evenodd" d="M15 8.33333V13.3333L12.6414 14.9239L11.6703 13.5872L13.3333 12.5058V8.33333H15ZM15 6.66667V0H8.33333V1.66667H13.3333V6.66667H15ZM6.66667 1.66667V0H0V6.66667H1.66667V1.66667H6.66667ZM1.66667 8.33333H0V13.3333L2.35856 14.9239L3.32971 13.5872L1.66667 12.5058V8.33333ZM4.72879 14.4971L3.74121 15.8564L7.5 18.3912L11.2588 15.8564L10.2712 14.4971L7.5 16.2992L4.72879 14.4971ZM5.73223 4.55372L4.55372 5.73223L6.32149 7.5L4.55372 9.26777L5.73223 10.4463L7.5 8.67851L9.26777 10.4463L10.4463 9.26777L8.67851 7.5L10.4463 5.73223L9.26777 4.55372L7.5 6.32149L5.73223 4.55372Z" fill="#296CF2"/>
</svg>
