<svg width="50" height="50" viewBox="0 0 50 50" fill="none" xmlns="http://www.w3.org/2000/svg">
<path fill-rule="evenodd" clip-rule="evenodd" d="M42.7083 6.25L42.375 6.3125L31.25 10.625L18.75 6.25L7 10.2083C6.5625 10.3542 6.25 10.7292 6.25 11.2083V42.7083C6.25 43.2917 6.70833 43.75 7.29167 43.75L7.625 43.6875L18.75 39.375L31.25 43.75L43 39.7917C43.4375 39.6458 43.75 39.2708 43.75 38.7917V7.29167C43.75 6.70833 43.2917 6.25 42.7083 6.25ZM20.8333 11.3958L29.1667 14.3125V38.6042L20.8333 35.6875V11.3958ZM10.4167 13.4583L16.6667 11.3542V35.7292L10.4167 38.1458V13.4583ZM39.5833 36.5417L33.3333 38.6458V14.2917L39.5833 11.875V36.5417Z" fill="#757575"/>
</svg>
