<svg width="37" height="37" viewBox="0 0 37 37" fill="none" xmlns="http://www.w3.org/2000/svg">
<circle cx="18.1032" cy="18.1032" r="18.1032" fill="#F9C12A"/>
<path d="M13.2371 9.08008V29H8.95781V13.9473L4.33672 15.3555V12.0469L12.8133 9.08008H13.2371ZM31.7023 17.2695V20.8105C31.7023 22.2689 31.5383 23.5312 31.2102 24.5977C30.8911 25.6641 30.4263 26.5436 29.8156 27.2363C29.2141 27.929 28.494 28.444 27.6555 28.7812C26.826 29.1094 25.9055 29.2734 24.8938 29.2734C24.0826 29.2734 23.326 29.1686 22.6242 28.959C21.9224 28.7493 21.2889 28.4258 20.7238 27.9883C20.1678 27.5417 19.6893 26.9857 19.2883 26.3203C18.8872 25.6549 18.5773 24.862 18.3586 23.9414C18.149 23.0208 18.0441 21.9772 18.0441 20.8105V17.2695C18.0441 15.793 18.2036 14.526 18.5227 13.4688C18.8508 12.4115 19.3202 11.5365 19.9309 10.8438C20.5415 10.151 21.2616 9.64062 22.091 9.3125C22.9296 8.98438 23.8547 8.82031 24.8664 8.82031C25.6776 8.82031 26.4296 8.92513 27.1223 9.13477C27.8241 9.3444 28.4576 9.66797 29.0227 10.1055C29.5878 10.543 30.0663 11.0944 30.4582 11.7598C30.8592 12.4251 31.1646 13.2181 31.3742 14.1387C31.593 15.0501 31.7023 16.0938 31.7023 17.2695ZM27.4367 21.3438V16.709C27.4367 16.0254 27.3957 15.4329 27.3137 14.9316C27.2408 14.4212 27.1314 13.9883 26.9855 13.6328C26.8488 13.2773 26.6757 12.9902 26.466 12.7715C26.2564 12.5527 26.0148 12.3932 25.7414 12.293C25.4771 12.1836 25.1854 12.1289 24.8664 12.1289C24.4654 12.1289 24.1053 12.2109 23.7863 12.375C23.4673 12.5391 23.1984 12.7988 22.9797 13.1543C22.7609 13.5007 22.5923 13.9701 22.4738 14.5625C22.3645 15.1458 22.3098 15.8613 22.3098 16.709V21.3438C22.3098 22.0273 22.3462 22.6243 22.4191 23.1348C22.5012 23.6452 22.6105 24.0827 22.7473 24.4473C22.8931 24.8027 23.0708 25.0944 23.2805 25.3223C23.4901 25.541 23.7316 25.7005 24.0051 25.8008C24.2785 25.901 24.5747 25.9512 24.8938 25.9512C25.2948 25.9512 25.6503 25.8737 25.9602 25.7188C26.2701 25.5547 26.5344 25.2949 26.7531 24.9395C26.981 24.5749 27.1496 24.0964 27.259 23.5039C27.3775 22.9115 27.4367 22.1914 27.4367 21.3438Z" fill="black"/>
</svg>
