<svg width="28" height="28" viewBox="0 0 28 28" fill="none" xmlns="http://www.w3.org/2000/svg">
<path fill-rule="evenodd" clip-rule="evenodd" d="M5.34238 3.98369C5.49059 3.68725 5.79357 3.5 6.125 3.5H21.875C22.2064 3.5 22.5094 3.68725 22.6576 3.98369L24.4076 7.48369C24.4684 7.60519 24.5 7.73916 24.5 7.875V22.75C24.5 23.2141 24.3156 23.6592 23.9874 23.9874C23.6592 24.3156 23.2141 24.5 22.75 24.5H5.25C4.78587 24.5 4.34075 24.3156 4.01256 23.9874C3.68437 23.6592 3.5 23.2141 3.5 22.75V7.875C3.5 7.73916 3.53163 7.60519 3.59238 7.48369L5.34238 3.98369ZM6.66578 5.25L5.25 8.08156V22.75H22.75V8.08156L21.3342 5.25H6.66578Z" fill="#061C3D"/>
<path fill-rule="evenodd" clip-rule="evenodd" d="M9.66888 15.794C10.0106 15.4523 10.5646 15.4523 10.9063 15.794L13.9999 18.8876L17.0935 15.794C17.4352 15.4523 17.9892 15.4523 18.3309 15.794C18.6726 16.1357 18.6726 16.6897 18.3309 17.0314L14.6186 20.7437C14.4545 20.9078 14.232 21 13.9999 21C13.7678 21 13.5453 20.9078 13.3812 20.7437L9.66888 17.0314C9.32717 16.6897 9.32717 16.1357 9.66888 15.794Z" fill="#061C3D"/>
<path fill-rule="evenodd" clip-rule="evenodd" d="M14 10.5C14.4832 10.5 14.875 10.8918 14.875 11.375V20.125C14.875 20.6082 14.4832 21 14 21C13.5168 21 13.125 20.6082 13.125 20.125V11.375C13.125 10.8918 13.5168 10.5 14 10.5Z" fill="#061C3D"/>
<path fill-rule="evenodd" clip-rule="evenodd" d="M3.5 7.875C3.5 7.39175 3.89175 7 4.375 7H23.625C24.1082 7 24.5 7.39175 24.5 7.875C24.5 8.35825 24.1082 8.75 23.625 8.75H4.375C3.89175 8.75 3.5 8.35825 3.5 7.875Z" fill="#061C3D"/>
</svg>
