<svg class="SVGInline-svg" style="width: 16px;height: 16px;" width="24px" height="24px" viewBox="0 0 24 24" version="1.1" xmlns="http://www.w3.org/2000/svg" xmlns:xlink="http://www.w3.org/1999/xlink">
    <!-- Generator: Sketch 59.1 (86144) - https://sketch.com -->
    <!-- <title>ic-tool</title> -->
    <desc>Created with Sketch.</desc>
    <g id="Icon-Set" stroke="none" stroke-width="1" fill="none" fill-rule="evenodd">
        <g id="WhaTap_Icon_Set" transform="translate(-68.000000, -2871.000000)" fill="#757575">
            <g id="application-icons" transform="translate(40.000000, 2346.000000)">
                <g id="ic-tool" transform="translate(27.508225, 524.488345)">
                    <g transform="translate(3.491775, 3.511655)" id="Icon">
                        <path d="M10.7136889,7.5246372 C11.4762668,5.55800611 11.0526124,3.24935221 9.4427256,1.62474391 C7.74810793,-0.0853700889 5.20618143,-0.427392889 3.17264023,0.51316981 L6.81606822,4.18991491 L4.27414172,6.7550859 L0.545982849,3.07834081 C-0.470787751,5.13047761 -0.0471333346,7.6956486 1.64748433,9.4057626 C3.25737112,11.0303709 5.54510497,11.4578994 7.49391528,10.6883481 L14.5357407,17.7434829 C14.8746642,18.0855057 15.3830495,18.0855057 15.7219731,17.7434829 L17.6707834,15.7768518 C18.0944378,15.434829 18.0944378,14.8362891 17.7555143,14.579772 L10.7136889,7.5246372 Z"></path>
                    </g>
                </g>
            </g>
        </g>
    </g>
</svg>