<svg class="SVGInline-svg" style="width: 60px;height: 60px;" width="40" height="40" viewBox="0 0 40 40" fill="none" xmlns="http://www.w3.org/2000/svg">
  <path d="M10.4 5H24.8H30C31.1046 5 32 5.89543 32 7V28L28.5 31.5L25 35L9.9973 35C8.89273 35 8 34.1046 8 33V7C8 5.89543 8.89523 5 9.9998 5H10.4Z" fill="#D75EF5"></path>
  <path d="M16.4596 20.2964V21.4244H13.3208V20.2964H16.4596ZM13.7129 16.2018V21.4244H12.5L12.5 16.2018H13.7129Z" fill="white"></path>
  <path d="M21.9798 18.7698V18.7466C21.9798 19.174 21.9191 19.5576 21.7978 19.8974C21.6765 20.2372 21.5054 20.5269 21.2844 20.7663C21.0633 21.0031 20.7992 21.1846 20.4919 21.3108C20.1873 21.4369 19.8491 21.5 19.4771 21.5C19.1078 21.5 18.7695 21.4369 18.4623 21.3108C18.1577 21.1846 17.8935 21.0031 17.6698 20.7663C17.4461 20.5269 17.2722 20.2372 17.1482 19.8974C17.027 19.5576 16.9663 19.174 16.9663 18.7466V18.7698C16.9663 18.3399 17.027 17.9563 17.1482 17.619C17.2695 17.2792 17.4407 16.9896 17.6617 16.7501C17.8854 16.5107 18.1496 16.3279 18.4542 16.2018C18.7615 16.0756 19.0997 16.0125 19.469 16.0125C19.841 16.0125 20.1792 16.0756 20.4838 16.2018C20.7911 16.3279 21.0553 16.5107 21.2763 16.7501C21.5 16.9896 21.6725 17.2792 21.7938 17.619C21.9178 17.9563 21.9798 18.3399 21.9798 18.7698ZM20.7547 18.7466V18.7621C20.7547 18.4634 20.7264 18.2008 20.6698 17.9743C20.6132 17.7477 20.5296 17.5572 20.4191 17.4028C20.3086 17.2483 20.1739 17.1324 20.0148 17.0552C19.8558 16.9754 19.6739 16.9355 19.469 16.9355C19.2642 16.9355 19.0822 16.9754 18.9232 17.0552C18.7668 17.1324 18.6334 17.2483 18.5229 17.4028C18.4151 17.5572 18.3329 17.7477 18.2763 17.9743C18.2197 18.2008 18.1914 18.4634 18.1914 18.7621V18.7466C18.1914 19.0427 18.2197 19.3053 18.2763 19.5344C18.3329 19.761 18.4164 19.9528 18.527 20.1098C18.6375 20.2643 18.7722 20.3814 18.9313 20.4612C19.0903 20.541 19.2722 20.5809 19.4771 20.5809C19.6819 20.5809 19.8639 20.541 20.0229 20.4612C20.1819 20.3814 20.3154 20.2643 20.4232 20.1098C20.531 19.9528 20.6132 19.761 20.6698 19.5344C20.7264 19.3053 20.7547 19.0427 20.7547 18.7466Z" fill="white"></path>
  <path d="M27.5 18.4084V20.6366C27.4084 20.7421 27.2668 20.8567 27.0755 20.9803C26.8841 21.1013 26.6375 21.2055 26.3356 21.2931C26.0337 21.3806 25.6685 21.4244 25.2399 21.4244C24.8598 21.4244 24.5135 21.3652 24.2008 21.2467C23.8881 21.1257 23.6186 20.9494 23.3922 20.7177C23.1685 20.486 22.996 20.2028 22.8747 19.8681C22.7534 19.5309 22.6927 19.146 22.6927 18.7135L22.6822 18.7186C22.6822 18.2861 22.7402 17.9012 22.8561 17.564C22.9747 17.2267 23.1431 16.9423 23.3615 16.7105C23.5798 16.4788 23.8399 16.3025 24.1418 16.1815C24.4437 16.0605 24.7793 16 25.1485 16C25.6607 16 26.0811 16.0798 26.41 16.2394C26.7388 16.3965 26.9895 16.6153 27.162 16.8959C27.3372 17.174 27.445 17.4932 27.4855 17.8536H26.3089C26.2793 17.6631 26.2227 17.497 26.1391 17.3555C26.0555 17.2139 25.9356 17.1032 25.7793 17.0233C25.6256 16.9435 25.4262 16.9036 25.1809 16.9036C24.9787 16.9036 24.7981 16.9435 24.6391 17.0233C24.4828 17.1006 24.3507 17.2151 24.2429 17.367C24.1351 17.5189 24.0528 17.7069 23.9962 17.9308C23.9396 18.1548 23.9113 18.4148 23.9113 18.7109L23.9218 18.7135C23.9218 19.007 23.9515 19.267 24.0108 19.4935C24.0701 19.7175 24.1577 19.9067 24.2736 20.0612C24.3922 20.2131 24.5377 20.3277 24.7102 20.4049C24.8827 20.4821 25.0836 20.5207 25.3127 20.5207C25.504 20.5207 25.6631 20.5053 25.7898 20.4744C25.9191 20.4435 26.0229 20.4062 26.1011 20.3624C26.1819 20.3161 26.2439 20.2723 26.2871 20.2311V19.2348H25.1792V18.4084H27.5Z" fill="white"></path>
  <path d="M15.012 9.98176L13.5654 14.1772H12.4L14.3764 9.11625H15.118L15.012 9.98176ZM16.2139 14.1772L14.7636 9.98176L14.6467 9.11625H15.3956L17.3829 14.1772H16.2139ZM16.1482 12.2933V13.1101H13.3389V12.2933H16.1482Z" fill="white"></path>
  <path d="M18.5812 13.3212L19.6406 9.06316H20.2324L20.3676 9.77225L19.2388 14.1241H18.6031L18.5812 13.3212ZM18.0369 9.06316L18.9136 13.3212L18.8406 14.1241H18.1318L16.9519 9.06316H18.0369ZM21.2992 13.3038L22.165 9.06316H23.25L22.0736 14.1241H21.3649L21.2992 13.3038ZM20.5649 9.06316L21.6316 13.3386L21.6024 14.1241H20.9667L19.8306 9.76878L19.9767 9.06316H20.5649Z" fill="white"></path>
  <path d="M26.304 12.8061C26.304 12.7158 26.2894 12.6347 26.2602 12.5628C26.2334 12.4887 26.1823 12.4215 26.1068 12.3612C26.0313 12.2987 25.9253 12.2373 25.7889 12.177C25.6526 12.1168 25.476 12.0542 25.2592 11.9893C25.0181 11.9152 24.7892 11.8317 24.5724 11.739C24.3581 11.6463 24.1681 11.5386 24.0025 11.4158C23.8394 11.2906 23.7103 11.1458 23.6153 10.9813C23.5227 10.8168 23.4765 10.6256 23.4765 10.4078C23.4765 10.1969 23.5252 10.0057 23.6226 9.83422C23.72 9.66043 23.8564 9.51212 24.0318 9.3893C24.2071 9.26417 24.4141 9.168 24.6528 9.1008C24.8939 9.0336 25.1582 9 25.4455 9C25.8376 9 26.1798 9.0672 26.4721 9.2016C26.7643 9.33601 26.9908 9.52023 27.1516 9.75428C27.3148 9.98832 27.3963 10.256 27.3963 10.5572H26.3077C26.3077 10.4089 26.2748 10.2791 26.2091 10.1679C26.1457 10.0544 26.0483 9.96515 25.9168 9.90027C25.7877 9.83538 25.6245 9.80294 25.4273 9.80294C25.2373 9.80294 25.079 9.83075 24.9524 9.88636C24.8257 9.93966 24.7307 10.0127 24.6674 10.1053C24.6041 10.1957 24.5724 10.2977 24.5724 10.4112C24.5724 10.497 24.5943 10.5746 24.6382 10.6441C24.6845 10.7136 24.7526 10.7785 24.8428 10.8388C24.9329 10.899 25.0437 10.9558 25.1752 11.0091C25.3067 11.0624 25.4589 11.1145 25.6319 11.1655C25.9217 11.2489 26.1762 11.3428 26.3954 11.4471C26.617 11.5513 26.8021 11.6684 26.9507 11.7981C27.0992 11.9279 27.2112 12.075 27.2867 12.2396C27.3622 12.4041 27.4 12.5906 27.4 12.7992C27.4 13.0193 27.3549 13.2163 27.2648 13.3901C27.1747 13.5639 27.0444 13.7111 26.8739 13.8316C26.7035 13.952 26.5001 14.0436 26.2639 14.1061C26.0276 14.1687 25.7634 14.2 25.4711 14.2C25.2081 14.2 24.9487 14.1676 24.693 14.1027C24.4373 14.0355 24.2047 13.9347 23.9952 13.8003C23.7882 13.6659 23.6226 13.4944 23.4984 13.2858C23.3742 13.0773 23.3121 12.8305 23.3121 12.5455H24.4117C24.4117 12.703 24.4373 12.8363 24.4884 12.9452C24.5395 13.0541 24.6114 13.1422 24.7039 13.2094C24.7989 13.2766 24.911 13.3252 25.04 13.3553C25.1715 13.3855 25.3152 13.4005 25.4711 13.4005C25.6611 13.4005 25.8169 13.375 25.9387 13.3241C26.0629 13.2731 26.1543 13.2024 26.2127 13.112C26.2736 13.0217 26.304 12.9197 26.304 12.8061Z" fill="white"></path>
  <rect x="12" y="25" width="16" height="1" fill="white"></rect>
  <rect x="12" y="29" width="10" height="1" fill="white"></rect>
  <path d="M25 30C25 28.8954 25.8954 28 27 28H32L28.5 31.5L25 35V30Z" fill="#F0B5FF"></path>
  </svg>