<svg width="32" height="32" viewBox="0 0 32 32" fill="none" xmlns="http://www.w3.org/2000/svg">
<path fill-rule="evenodd" clip-rule="evenodd" d="M14.6667 0H17.3333V4.07324C20.7448 4.45036 23.7253 6.25755 25.662 8.88206L29.1897 6.8453L30.5231 9.1547L26.9973 11.1903C27.6422 12.6628 28 14.2896 28 16C28 17.7104 27.6422 19.3372 26.9973 20.8097L30.5231 22.8453L29.1897 25.1547L25.662 23.1179C23.7253 25.7424 20.7448 27.5496 17.3333 27.9268V32H14.6667V27.9268C11.2552 27.5496 8.27473 25.7424 6.33803 23.1179L2.81026 25.1547L1.47693 22.8453L5.00274 20.8097C4.35784 19.3372 4 17.7104 4 16C4 14.2896 4.35784 12.6628 5.00274 11.1903L1.47693 9.1547L2.81026 6.8453L6.33803 8.88206C8.27473 6.25755 11.2552 4.45036 14.6667 4.07324V0ZM25.3333 16C25.3333 17.2245 25.0975 18.3939 24.6688 19.4654L19.9333 16.7313C19.9771 16.4942 20 16.2498 20 16C20 15.7502 19.9771 15.5058 19.9333 15.2687L24.6688 12.5346C25.0975 13.6061 25.3333 14.7755 25.3333 16ZM18.5994 12.9596L23.3337 10.2263C21.8847 8.38831 19.7595 7.10822 17.3333 6.76119V12.2276C17.8015 12.3931 18.2296 12.6432 18.5994 12.9596ZM14.6667 12.2276V6.76119C12.2405 7.10822 10.1153 8.38831 8.66633 10.2263L13.4006 12.9596C13.7704 12.6432 14.1985 12.3931 14.6667 12.2276ZM12.0667 15.2687L7.33116 12.5346C6.90248 13.6061 6.66667 14.7755 6.66667 16C6.66667 17.2245 6.90248 18.3939 7.33116 19.4654L12.0667 16.7313C12.0229 16.4942 12 16.2498 12 16C12 15.7502 12.0229 15.5058 12.0667 15.2687ZM13.4006 19.0404C13.7704 19.3568 14.1985 19.6069 14.6667 19.7724V25.2388C12.2405 24.8918 10.1153 23.6117 8.66633 21.7737L13.4006 19.0404ZM17.3333 19.7724C17.8015 19.6069 18.2296 19.3568 18.5994 19.0404L23.3337 21.7737C21.8847 23.6117 19.7595 24.8918 17.3333 25.2388V19.7724Z" fill="#4485FF"/>
</svg>
