<svg width="24" height="24" viewBox="0 0 24 24" fill="none" xmlns="http://www.w3.org/2000/svg">
<path fill-rule="evenodd" clip-rule="evenodd" d="M1.53895 7.1687C2.19006 4.91429 3.4602 3.11291 5.33145 1.79855C5.78849 1.47752 6.42367 1.58159 6.75016 2.03099C7.07665 2.48039 6.97081 3.10494 6.51377 3.42597C5.02222 4.47363 4.02213 5.892 3.4956 7.71507C3.34216 8.24635 2.77976 8.55472 2.23944 8.40385C1.69913 8.25297 1.3855 7.69998 1.53895 7.1687ZM22.4611 7.1687C21.8099 4.91429 20.5398 3.11291 18.6686 1.79855C18.2115 1.47752 17.5763 1.58159 17.2498 2.03099C16.9233 2.48039 17.0292 3.10494 17.4862 3.42597C18.9778 4.47363 19.9779 5.892 20.5044 7.71507C20.6578 8.24635 21.2202 8.55472 21.7606 8.40385C22.3009 8.25297 22.6145 7.69998 22.4611 7.1687Z" fill="#757575"/>
<path fill-rule="evenodd" clip-rule="evenodd" d="M14.0248 3.5C14.0248 3.5964 14.0179 3.6912 14.0048 3.78396C16.9065 4.63808 19.0248 7.32167 19.0248 10.5V16.5H20C20.5523 16.5 21 16.9477 21 17.5C21 18.0523 20.5523 18.5 20 18.5H19.0248H5.02477H4C3.44772 18.5 3 18.0523 3 17.5C3 16.9477 3.44772 16.5 4 16.5H5.02477V10.5L5.02882 10.2593C5.13262 7.18684 7.21654 4.61644 10.0448 3.78396C10.0316 3.6912 10.0248 3.5964 10.0248 3.5C10.0248 2.39543 10.9202 1.5 12.0248 1.5C13.1293 1.5 14.0248 2.39543 14.0248 3.5ZM7.02854 10.2931C7.11846 7.63999 9.32758 5.5 12.0248 5.5C14.7862 5.5 17.0248 7.73858 17.0248 10.5V16.5H7.02477V10.5L7.02854 10.2931ZM12.0248 22.5C10.3679 22.5 9.02477 21.1569 9.02477 19.5H15.0248C15.0248 21.1569 13.6816 22.5 12.0248 22.5Z" fill="#757575"/>
</svg>
