<svg width="24" height="24" viewBox="0 0 24 24" fill="none" xmlns="http://www.w3.org/2000/svg">
<path fill-rule="evenodd" clip-rule="evenodd" d="M10.6712 2.50518C11.429 1.83161 12.5709 1.83161 13.3287 2.50518L22.3287 10.5052C22.9493 11.0568 23.1645 11.9346 22.8694 12.7108C22.5743 13.4869 21.8303 14 21 14H20V20C20 21.1046 19.1045 22 18 22H13V20V16H11V20V22H5.99996C4.89539 22 3.99996 21.1046 3.99996 20V14H2.99996C2.1696 14 1.42561 13.4869 1.13052 12.7108C0.835427 11.9346 1.05062 11.0568 1.67124 10.5052L10.6712 2.50518ZM8.99997 20V14H9.99997H11H13H15V16V20H18V12H21L12 4L2.99996 12H5.99996V20H8.99997Z" fill="#757575"/>
</svg>
