<svg width="24" height="24" viewBox="0 0 24 24" fill="none" xmlns="http://www.w3.org/2000/svg">
<rect width="24" height="24" rx="4" fill="#979797"/>
<path fill-rule="evenodd" clip-rule="evenodd" d="M15 17.2623L12 19.3334V17.994C8.68629 17.994 6 15.2954 6 11.9666C6 10.7627 6.35134 9.64129 6.95663 8.70012L8.0252 9.50903C7.58647 10.2236 7.33333 11.0654 7.33333 11.9666C7.33333 14.5557 9.42267 16.6546 12 16.6546V15.3151L15 17.2623ZM9 6.61388L12 8.68501V7.27862C14.5773 7.27862 16.6667 9.3775 16.6667 11.9666C16.6667 12.8864 16.403 13.7443 15.9474 14.4682L17.0152 15.2765C17.6377 14.3265 18 13.189 18 11.9666C18 8.63776 15.3137 5.9392 12 5.9392V4.66675L9 6.61388Z" fill="white"/>
</svg>
