<svg class="SVGInline-svg" style="width: 60px;height: 60px;" xmlns="http://www.w3.org/2000/svg" width="32" height="32" viewBox="0 0 32 32">
  <defs>
      <linearGradient id="7z30x599ja" x1="49.997%" x2="49.997%" y1="-19.516%" y2="129.625%">
          <stop offset="0%" stop-color="#0994DC"></stop>
          <stop offset="35.001%" stop-color="#66CEF5"></stop>
          <stop offset="35.001%" stop-color="#66CEF5"></stop>
          <stop offset="84.616%" stop-color="#127BCA"></stop>
          <stop offset="84.616%" stop-color="#127BCA"></stop>
          <stop offset="100%" stop-color="#127BCA"></stop>
      </linearGradient>
      <linearGradient id="sozp7ge7rb" x1="50.001%" x2="50.001%" y1="-19.516%" y2="129.624%">
          <stop offset="0%" stop-color="#0E76BC"></stop>
          <stop offset="36%" stop-color="#36AEE8"></stop>
          <stop offset="36%" stop-color="#36AEE8"></stop>
          <stop offset="84.616%" stop-color="#00ADEF"></stop>
          <stop offset="84.616%" stop-color="#00ADEF"></stop>
          <stop offset="100%" stop-color="#00ADEF"></stop>
      </linearGradient>
      <linearGradient id="075duc8fvc" x1="49.999%" x2="49.999%" y1="110.922%" y2="-6.214%">
          <stop offset="0%" stop-color="#1C63B7"></stop>
          <stop offset="50%" stop-color="#33BDF2"></stop>
          <stop offset="100%" stop-color="#33BDF2" stop-opacity=".42"></stop>
      </linearGradient>
      <linearGradient id="wflkqwimtd" x1="50.001%" x2="50.001%" y1="-19.515%" y2="129.627%">
          <stop offset="0%" stop-color="#166AB8"></stop>
          <stop offset="39.999%" stop-color="#36AEE8"></stop>
          <stop offset="39.999%" stop-color="#36AEE8"></stop>
          <stop offset="84.616%" stop-color="#0798DD"></stop>
          <stop offset="84.616%" stop-color="#0798DD"></stop>
          <stop offset="100%" stop-color="#0798DD"></stop>
      </linearGradient>
      <linearGradient id="4lw61ooybe" x1="49.999%" x2="49.999%" y1="-19.521%" y2="129.627%">
          <stop offset="0%" stop-color="#124379"></stop>
          <stop offset="39%" stop-color="#1487CB"></stop>
          <stop offset="39%" stop-color="#1487CB"></stop>
          <stop offset="78.023%" stop-color="#165197"></stop>
          <stop offset="78.023%" stop-color="#165197"></stop>
          <stop offset="100%" stop-color="#165197"></stop>
      </linearGradient>
      <linearGradient id="yu30yw6jcf" x1="0%" x2="100%" y1="50.001%" y2="50.001%">
          <stop offset="0%" stop-color="#33BDF2" stop-opacity=".698"></stop>
          <stop offset="100%" stop-color="#1DACD8"></stop>
      </linearGradient>
      <linearGradient id="bsygfe9h6g" x1="50.01%" x2="50.01%" y1="94.686%" y2="-3.025%">
          <stop offset="0%" stop-color="#136AB4"></stop>
          <stop offset="60%" stop-color="#59CAF5" stop-opacity=".549"></stop>
          <stop offset="100%" stop-color="#59CAF5" stop-opacity=".235"></stop>
      </linearGradient>
      <linearGradient id="obcpur5trh" x1="-.001%" x2="99.999%" y1="50%" y2="50%">
          <stop offset="0%" stop-color="#05A1E6" stop-opacity=".247"></stop>
          <stop offset="100%" stop-color="#05A1E6"></stop>
      </linearGradient>
      <linearGradient id="7lfh1c99wi" x1="49.998%" x2="49.998%" y1="124.314%" y2="-9.421%">
          <stop offset="0%" stop-color="#318ED5"></stop>
          <stop offset="100%" stop-color="#38A7E4"></stop>
      </linearGradient>
      <linearGradient id="o3vl8mvguj" x1="49.999%" x2="49.999%" y1="91.2%" y2="-76.785%">
          <stop offset="0%" stop-color="#05A1E6"></stop>
          <stop offset="100%" stop-color="#05A1E6" stop-opacity=".549"></stop>
      </linearGradient>
      <linearGradient id="f2c2xtxy9k" x1="50%" x2="50%" y1="100.01%" y2=".01%">
          <stop offset="0%" stop-color="#1959A6"></stop>
          <stop offset="50%" stop-color="#05A1E6"></stop>
          <stop offset="50%" stop-color="#05A1E6"></stop>
          <stop offset="91.759%" stop-color="#7EC5EA"></stop>
          <stop offset="100%" stop-color="#7EC5EA"></stop>
      </linearGradient>
      <linearGradient id="nvyfaz7k9l" x1="55.283%" x2="43.787%" y1="94.568%" y2="5.755%">
          <stop offset="0%" stop-color="#165096"></stop>
          <stop offset="100%" stop-color="#0D82CA"></stop>
      </linearGradient>
      <linearGradient id="qf8w5qldqm" x1="49.995%" x2="49.995%" y1="76.998%" y2="-3.299%">
          <stop offset="0%" stop-color="#05A1E6"></stop>
          <stop offset="87.363%" stop-color="#0495D6"></stop>
          <stop offset="100%" stop-color="#0495D6"></stop>
      </linearGradient>
      <linearGradient id="4a02io5san" x1="55.975%" x2="43.839%" y1="-4.161%" y2="105.844%">
          <stop offset="0%" stop-color="#38A7E4" stop-opacity=".329"></stop>
          <stop offset="96.153%" stop-color="#0E88D3"></stop>
          <stop offset="96.153%" stop-color="#0E88D3"></stop>
          <stop offset="100%" stop-color="#0E88D3"></stop>
      </linearGradient>
      <linearGradient id="xdgxha9w6o" x1="50.017%" x2="50.017%" y1="-.296%" y2="101.882%">
          <stop offset="0%" stop-color="#168CD4"></stop>
          <stop offset="50%" stop-color="#1C87CC"></stop>
          <stop offset="100%" stop-color="#154B8D"></stop>
      </linearGradient>
      <linearGradient id="8rbm2r4gnp" x1="16.674%" x2="87.813%" y1="52.666%" y2="48.803%">
          <stop offset="0%" stop-color="#97D6EE"></stop>
          <stop offset="70.329%" stop-color="#55C1EA"></stop>
          <stop offset="100%" stop-color="#55C1EA"></stop>
      </linearGradient>
      <linearGradient id="lfjifz7tfq" x1="6.89%" x2="75.783%" y1="46.507%" y2="55.337%">
          <stop offset="0%" stop-color="#7ACCEC"></stop>
          <stop offset="100%" stop-color="#3FB7ED"></stop>
      </linearGradient>
      <linearGradient id="ecea6js4cr" x1="49.997%" x2="49.997%" y1="6.363%" y2="127.961%">
          <stop offset="0%" stop-color="#1DA7E7"></stop>
          <stop offset="100%" stop-color="#37ABE7" stop-opacity="0"></stop>
      </linearGradient>
  </defs>
  <g fill="none" fill-rule="evenodd">
      <g>
          <g>
              <g>
                  <g>
                      <path d="M0 0L32 0 32 32 0 32z" transform="translate(-1573 -383) translate(1413 216) translate(16 16) translate(144 151)"></path>
                      <g>
                          <path fill="url(#7z30x599ja)" d="M11.106 2.596c1.15 3.517 1.586 9.791 4.949 9.791.256 0 .514-.025.774-.074-3.057-.713-3.42-6.919-5.285-10.133-.146.133-.291.272-.438.416" transform="translate(-1573 -383) translate(1413 216) translate(16 16) translate(144 151) translate(0 9.6)"></path>
                          <path fill="url(#sozp7ge7rb)" d="M11.544 2.18c1.866 3.214 2.228 9.42 5.285 10.133.24-.044.481-.111.722-.195-2.744-1.345-3.502-7.371-5.621-10.272-.128.107-.257.219-.386.334" transform="translate(-1573 -383) translate(1413 216) translate(16 16) translate(144 151) translate(0 9.6)"></path>
                          <path fill="#14559A" d="M14.232.27c-.256 0-.515.024-.775.074-.68.128-1.372.421-2.069.864.19.188.372.403.542.638.709-.588 1.413-1.023 2.115-1.284.263-.098.525-.171.788-.22-.19-.048-.39-.073-.601-.073" transform="translate(-1573 -383) translate(1413 216) translate(16 16) translate(144 151) translate(0 9.6)"></path>
                          <path fill="url(#075duc8fvc)" d="M19.693 10.878c.281-.223.562-.47.844-.74-1.169-3.5-1.587-9.864-4.973-9.864-.243 0-.487.023-.73.068 3.084.767 3.48 7.48 4.86 10.536" transform="translate(-1573 -383) translate(1413 216) translate(16 16) translate(144 151) translate(0 9.6)"></path>
                          <path fill="#3092C4" d="M14.833.342c-.19-.048-.39-.073-.601-.073l1.332.005c-.243 0-.487.022-.73.068" transform="translate(-1573 -383) translate(1413 216) translate(16 16) translate(144 151) translate(0 9.6)"></path>
                          <path fill="#1969BC" d="M19.634 11.622c-.132-.126-.258-.265-.382-.413-.57.404-1.137.71-1.7.909.2.098.41.17.633.216.173.035.352.053.54.053.634 0 1.134-.075 1.56-.279-.235-.127-.45-.291-.65-.486" transform="translate(-1573 -383) translate(1413 216) translate(16 16) translate(144 151) translate(0 9.6)"></path>
                          <path fill="url(#wflkqwimtd)" d="M14.044.562c2.764 1.446 3.004 7.99 5.208 10.647.148-.104.295-.214.44-.33-1.38-3.058-1.774-9.77-4.858-10.537-.264.05-.526.122-.79.22" transform="translate(-1573 -383) translate(1413 216) translate(16 16) translate(144 151) translate(0 9.6)"></path>
                          <path fill="url(#4lw61ooybe)" d="M11.93 1.846c2.119 2.901 2.877 8.927 5.621 10.272.564-.2 1.132-.505 1.701-.909-2.204-2.657-2.444-9.201-5.208-10.647-.701.261-1.405.696-2.114 1.284" transform="translate(-1573 -383) translate(1413 216) translate(16 16) translate(144 151) translate(0 9.6)"></path>
                          <path fill="url(#yu30yw6jcf)" d="M9.75 2.512c-.332.75-.67 1.737-1.081 3.025.816-1.149 1.628-2.139 2.437-2.94-.112-.343-.231-.659-.36-.94-.33.253-.664.538-.996.855" transform="translate(-1573 -383) translate(1413 216) translate(16 16) translate(144 151) translate(0 9.6)"></path>
                          <path fill="#2B74B1" d="M11.04 1.44c-.097.07-.195.142-.294.217.13.281.248.597.36.94.146-.144.292-.284.438-.416-.157-.27-.323-.518-.504-.74" transform="translate(-1573 -383) translate(1413 216) translate(16 16) translate(144 151) translate(0 9.6)"></path>
                          <path fill="#125A9E" d="M11.388 1.208c-.116.074-.231.151-.348.232.181.223.347.471.504.741.13-.117.258-.229.386-.335-.17-.235-.351-.45-.542-.638" transform="translate(-1573 -383) translate(1413 216) translate(16 16) translate(144 151) translate(0 9.6)"></path>
                          <path fill="url(#bsygfe9h6g)" d="M30.235.001c-1.563 6.027-4.827 10.868-7.563 12.088h-.005c-.05.023-.1.043-.148.063-.007.004-.013.005-.018.007l-.042.016-.019.008c-.023.008-.046.015-.068.024l-.029.01-.033.011-.033.012c-.01.004-.02.005-.03.01-.02.005-.038.01-.058.017-.008 0-.016.005-.025.007l-.04.01c-.008.004-.016.006-.026.008l-.043.01-.052.012c.123.046.252.07.391.07 2.595 0 5.211-4.651 9.54-12.384h-1.7l.001.001z" transform="translate(-1573 -383) translate(1413 216) translate(16 16) translate(144 151) translate(0 9.6)"></path>
                          <path fill="url(#obcpur5trh)" d="M8.106.514L8.11.51c.002 0 .005 0 .006-.004h.004L8.162.49c.003 0 .005 0 .008-.004.004 0 .007-.004.01-.005.016-.005.032-.01.046-.016h.002c.035-.01.067-.023.1-.035.005 0 .01-.004.015-.004.014-.004.028-.01.042-.013.007-.004.014-.004.02-.006l.043-.013c.006 0 .012-.004.016-.004.048-.013.095-.026.143-.037.007 0 .012-.004.02-.005.013-.004.026-.006.041-.008.006-.004.014-.004.02-.006.015-.004.028-.004.043-.008h.01L8.827.31h.018c.014-.004.026-.004.04-.007C8.892.303 8.9.3 8.907.3c.013 0 .026-.004.039-.006.007 0 .013 0 .02-.004.031-.004.062-.005.094-.008-.09-.009-.182-.014-.276-.014C5.862.267 1.836 5.689.022 12.71h.35c.58-1.035 1.102-2.014 1.578-2.933C3.22 4.803 5.808 1.412 8.106.513" transform="translate(-1573 -383) translate(1413 216) translate(16 16) translate(144 151) translate(0 9.6)"></path>
                          <path fill="#0D82CA" d="M9.75 2.512c.332-.317.666-.602.996-.855-.075-.165-.153-.318-.237-.458-.267.324-.512.752-.759 1.313M9.99.555c.191.16.362.38.519.644.05-.06.099-.117.15-.169-.216-.203-.45-.369-.705-.494l.03.015.007.004" transform="translate(-1573 -383) translate(1413 216) translate(16 16) translate(144 151) translate(0 9.6)"></path>
                          <path fill="url(#7lfh1c99wi)" d="M1.95 9.778C4.615 4.643 5.877 1.393 8.106.514c-2.298.899-4.886 4.29-6.156 9.264" transform="translate(-1573 -383) translate(1413 216) translate(16 16) translate(144 151) translate(0 9.6)"></path>
                          <path fill="#127BCA" d="M10.66 1.03c-.052.053-.102.108-.151.169.083.14.161.292.237.458.099-.075.197-.147.294-.216-.12-.15-.248-.287-.38-.411" transform="translate(-1573 -383) translate(1413 216) translate(16 16) translate(144 151) translate(0 9.6)"></path>
                          <path fill="url(#o3vl8mvguj)" d="M3.16 12.688c-.017.004-.033.004-.048.006h-.01c-.014 0-.028.004-.04.004h-.007c-.034.004-.067.004-.098.006h-.01c2.696-.075 3.929-1.425 4.54-3.384.466-1.484.847-2.735 1.182-3.785-1.13 1.59-2.264 3.486-3.405 5.609-.55 1.023-1.387 1.45-2.104 1.542" transform="translate(-1573 -383) translate(1413 216) translate(16 16) translate(144 151) translate(0 9.6)"></path>
                          <path fill="url(#f2c2xtxy9k)" d="M3.16 12.687c.717-.091 1.554-.518 2.104-1.542 1.14-2.123 2.276-4.019 3.405-5.609.41-1.288.749-2.275 1.081-3.026-2.249 2.142-4.507 5.702-6.59 10.176" transform="translate(-1573 -383) translate(1413 216) translate(16 16) translate(144 151) translate(0 9.6)"></path>
                          <path fill="#05A1E6" d="M1.95 9.778c-.477.919-.998 1.898-1.579 2.933h1.017c.135-1.028.325-2.008.562-2.933" transform="translate(-1573 -383) translate(1413 216) translate(16 16) translate(144 151) translate(0 9.6)"></path>
                          <path fill="url(#nvyfaz7k9l)" d="M8.967.292c-.008 0-.015.004-.022.004C8.933.3 8.92.3 8.907.301c-.007 0-.015 0-.022.004-.014.004-.027.005-.04.007-.007 0-.013 0-.018.004L8.74.332h-.01c-.014.004-.028.006-.041.008-.008.004-.015.004-.021.006-.014.004-.028.005-.042.008-.007.004-.012.004-.019.004l-.143.037c-.005 0-.01.004-.016.005l-.043.013c-.006.004-.014.004-.02.006L8.343.43c-.006 0-.01.004-.016.004-.033.013-.065.025-.099.035l-.045.016c-.006.004-.012.005-.019.008l-.042.015c-.005.004-.01.005-.014.007-2.228.88-3.49 4.13-6.155 9.264-.237.925-.428 1.905-.562 2.933h.142c.402 0 .516-.004.978-.004h.448c.032-.004.065-.004.098-.007h.006c.014 0 .028-.004.041-.004h.01c.015 0 .032-.004.048-.006C5.245 8.218 7.504 4.658 9.753 2.517c.247-.56.491-.989.758-1.312C10.355.94 10.184.72 9.993.56c0 0-.005 0-.005-.004L9.956.54 9.924.525 9.894.51C9.88.506 9.87.5 9.858.495L9.83.482 9.77.458l-.025-.01-.044-.017C9.694.427 9.686.426 9.678.423L9.617.402H9.61c-.023-.008-.046-.014-.07-.02-.006-.004-.01-.004-.016-.005L9.465.36c-.005 0-.01-.004-.014-.004-.048-.013-.098-.023-.148-.032-.005 0-.01-.004-.015-.004-.022-.005-.043-.008-.065-.01-.005-.005-.008-.005-.012-.005l-.076-.01H9.12c-.02-.004-.04-.004-.058-.006C9.03.293 9 .295 8.969.297" transform="translate(-1573 -383) translate(1413 216) translate(16 16) translate(144 151) translate(0 9.6)"></path>
                          <path fill="url(#qf8w5qldqm)" d="M24.131 3.338c-.513 1.642-.928 2.997-1.29 4.112 1.408-1.936 2.793-4.371 4.113-7.182-1.54.484-2.36 1.59-2.823 3.07" transform="translate(-1573 -383) translate(1413 216) translate(16 16) translate(144 151) translate(0 9.6)"></path>
                          <path fill="url(#4a02io5san)" d="M22.887 11.986c-.072.037-.144.072-.215.103 2.736-1.22 6-6.061 7.563-12.088h-.316c-3.59 6.414-4.746 10.707-7.032 11.985" transform="translate(-1573 -383) translate(1413 216) translate(16 16) translate(144 151) translate(0 9.6)"></path>
                          <path fill="#079AE1" d="M21.1 11.448c.595-.727 1.08-1.962 1.742-3.998-.764 1.049-1.532 1.95-2.302 2.686 0 .004 0 .004-.004.006.168.503.352.947.562 1.305" transform="translate(-1573 -383) translate(1413 216) translate(16 16) translate(144 151) translate(0 9.6)"></path>
                          <path fill="#1969BC" d="M21.1 11.448c-.203.247-.418.435-.656.575-.053.03-.105.059-.16.085.253.136.528.227.836.263.045.005.09.009.136.012h.008c.021 0 .044 0 .066.004H21.553c.008 0 .017 0 .025-.004.016 0 .033 0 .049-.004h.024c.017 0 .036-.004.054-.006h.004c.005 0 .01-.004.016-.004.019-.004.039-.005.057-.008h.017l.064-.011h.01c.043-.008.086-.016.128-.027-.353-.13-.649-.434-.903-.868" transform="translate(-1573 -383) translate(1413 216) translate(16 16) translate(144 151) translate(0 9.6)"></path>
                          <path fill="#1E5CB3" d="M16.055 12.387c.256 0 .515-.025.774-.075.24-.043.481-.11.722-.194.201.098.411.17.634.216.173.035.353.053.541.053h-2.671z" transform="translate(-1573 -383) translate(1413 216) translate(16 16) translate(144 151) translate(0 9.6)"></path>
                          <path fill="#1E5CB3" d="M18.726 12.387c.632 0 1.133-.075 1.559-.279.252.136.527.227.835.263.045.005.09.009.136.012h.008c.021 0 .044 0 .066.004h.077-2.683.002z" transform="translate(-1573 -383) translate(1413 216) translate(16 16) translate(144 151) translate(0 9.6)"></path>
                          <path fill="#1D60B5" d="M21.408 12.387H21.554c.01 0 .018 0 .026-.004.016 0 .033 0 .05-.004h.024c.017 0 .035-.004.053-.006h.004c.006 0 .01-.004.016-.004.02-.004.039-.005.057-.008.006 0 .011 0 .018-.004l.064-.01h.01c.043-.009.085-.017.128-.028.124.046.253.07.392.07l-.987.003v-.005z" transform="translate(-1573 -383) translate(1413 216) translate(16 16) translate(144 151) translate(0 9.6)"></path>
                          <path fill="#175FAB" d="M20.538 10.142v-.004c-.282.27-.563.517-.844.74-.147.116-.293.227-.44.331.123.148.249.286.381.413.201.195.416.359.65.486.054-.027.108-.055.16-.086.239-.14.453-.328.656-.575-.21-.358-.394-.802-.562-1.305" transform="translate(-1573 -383) translate(1413 216) translate(16 16) translate(144 151) translate(0 9.6)"></path>
                          <path fill="url(#xdgxha9w6o)" d="M28.916.001H27.322c-.086.004-.17.007-.253.013-.039.083-.079.167-.117.251-1.32 2.81-2.705 5.246-4.112 7.182-.661 2.035-1.147 3.27-1.742 3.997.254.435.55.74.902.87.01-.005.019-.005.028-.007h.006c.006 0 .013-.004.02-.004l.044-.011c.009-.004.016-.005.026-.007.013-.005.027-.007.04-.01.007-.005.016-.006.024-.008l.058-.017c.01-.004.02-.008.03-.01.01-.004.022-.007.032-.012.012-.004.024-.006.034-.01l.028-.011.069-.024c.006 0 .012-.006.019-.007.014-.006.028-.01.042-.017.005-.004.011-.004.018-.006l.148-.063h.005c.07-.032.143-.067.214-.103 2.287-1.278 3.442-5.572 7.032-11.985h-1.002z" transform="translate(-1573 -383) translate(1413 216) translate(16 16) translate(144 151) translate(0 9.6)"></path>
                          <path fill="#7DCBEC" d="M9.06.283c.006 0 .011 0 .017.004.014 0 .027 0 .041.005h.014l.076.01c.005 0 .009 0 .013.004l.064.01c.005 0 .01.004.016.004.05.01.1.02.148.033.004 0 .009.004.013.004l.06.017c.006 0 .01.004.016.005.024.006.047.012.07.02.001 0 .003 0 .006.004l.061.021c.008.004.016.006.024.008l.044.018c.008 0 .016.006.025.009l.059.024c.01.005.019.01.028.013l.036.015.031.015.031.016c.255.125.49.292.706.494.08-.084.164-.16.25-.227C10.436.472 9.898.28 9.278.28c-.072 0-.144.004-.217.01" transform="translate(-1573 -383) translate(1413 216) translate(16 16) translate(144 151) translate(0 9.6)"></path>
                          <path fill="#5EC5ED" d="M10.66 1.03c.132.124.26.262.38.41.117-.08.232-.159.348-.231-.152-.152-.312-.289-.479-.406-.086.067-.17.143-.25.227" transform="translate(-1573 -383) translate(1413 216) translate(16 16) translate(144 151) translate(0 9.6)"></path>
                          <path fill="url(#8rbm2r4gnp)" d="M9.06.789c.073.006.145.008.217.008.62 0 1.158-.192 1.633-.528.5.395 1.106.534 1.947.534H8.784c.094 0 .186-.006.276-.014" transform="translate(-1573 -383) translate(1413 216) translate(16 16) translate(144 151) translate(0 9.6) matrix(1 0 0 -1 0 1.072)"></path>
                          <path fill="url(#lfjifz7tfq)" d="M12.857 1.208c-.84 0-1.446-.138-1.947-.533.166-.117.326-.254.478-.406.698.444 1.388.737 2.07.866.259.048.518.073.774.073h-1.375z" transform="translate(-1573 -383) translate(1413 216) translate(16 16) translate(144 151) translate(0 9.6) matrix(1 0 0 -1 0 1.478)"></path>
                          <path fill="url(#ecea6js4cr)" d="M22.842 7.45c.362-1.115.776-2.47 1.29-4.112.462-1.48 1.282-2.587 2.821-3.07.04-.082.08-.168.119-.251-2.51.15-3.682 1.426-4.272 3.317-1.032 3.3-1.657 5.439-2.26 6.802.77-.735 1.538-1.637 2.302-2.685" transform="translate(-1573 -383) translate(1413 216) translate(16 16) translate(144 151) translate(0 9.6)"></path>
                      </g>
                  </g>
              </g>
          </g>
      </g>
  </g>
</svg>