<svg class="SVGInline-svg" style="width: 60px;height: 60px;" xmlns="http://www.w3.org/2000/svg" width="32" height="32" viewBox="0 0 32 32">
  <g fill="none" fill-rule="evenodd">
      <g>
          <g>
              <g>
                  <g>
                      <path d="M0 0L32 0 32 32 0 32z" transform="translate(-1127 -668) translate(1075 501) translate(16 16) translate(36 151)"></path>
                      <path fill="#EA1B22" d="M20.107 8.8c3.911 0 7.093 3.223 7.093 7.2 0 3.976-3.182 7.2-7.093 7.2h-8.214C7.983 23.2 4.8 19.976 4.8 16c0-3.977 3.183-7.2 7.093-7.2h8.214zm0 2.653h-8.04c-2.533 0-4.654 1.973-4.654 4.547s2.321 4.547 4.854 4.547h7.84c2.533 0 4.48-1.973 4.48-4.547s-1.947-4.547-4.48-4.547z" transform="translate(-1127 -668) translate(1075 501) translate(16 16) translate(36 151)"></path>
                  </g>
              </g>
          </g>
      </g>
  </g>
</svg>