<svg class="SVGInline-svg" style="width: 20px;height: 20px;" width="24px" height="24px" viewBox="0 0 24 24" version="1.1" xmlns="http://www.w3.org/2000/svg" xmlns:xlink="http://www.w3.org/1999/xlink">
    <!-- Generator: Sketch 59.1 (86144) - https://sketch.com -->
    <!-- <title>ic-refresh</title> -->
    <desc>Created with Sketch.</desc>
    <g id="Icon-Set" stroke="none" stroke-width="1" fill="none" fill-rule="evenodd">
        <g id="WhaTap_Icon_Set" transform="translate(-647.000000, -2242.000000)" fill="#757575">
            <g id="time-icons" transform="translate(43.000000, 2197.000000)">
                <g id="ic-refresh" transform="translate(604.000000, 45.000000)">
                    <g transform="translate(2.000000, 1.000000)">
                        <path d="M10,22 L14.5,18.9074242 L10,16 L10,22 Z M10,6.1 L5.5,3.00742419 L10,0.1 L10,6.1 Z" id="Icon" fill-rule="evenodd"></path>
                        <path d="M2.4348001,6.12278618 L4.03790309,7.33024349 C3.3797377,8.39726316 3,9.65428534 3,11 C3,14.8659932 6.13400675,18 10,18 C10.5778764,18 11.1393978,17.9299759 11.6765419,17.7979499 L13.6026468,19.2499644 C12.4995167,19.7323666 11.2810129,20 10,20 C5.02943725,20 1,15.9705627 1,11 C1,9.20250181 1.52695096,7.52807961 2.4348001,6.12278618 Z M10,2 C14.9705627,2 19,6.02943725 19,11 C19,12.8253697 18.4565808,14.5238171 17.5226951,15.9423894 L15.9209886,14.7355823 C16.604425,13.6545887 17,12.3734901 17,11 C17,7.13400675 13.8659932,4 10,4 C9.38781217,4 8.79397916,4.07858635 8.22803877,4.22622127 L6.31545813,2.78633789 C7.4400574,2.28107859 8.68720399,2 10,2 Z" id="Combined-Shape" fill-rule="nonzero"></path>
                    </g>
                </g>
            </g>
        </g>
    </g>
</svg>