<svg class="SVGInline-svg" style="width: 60px;height: 60px;" xmlns="http://www.w3.org/2000/svg" width="32" height="32" viewBox="0 0 32 32">
  <g fill="none" fill-rule="evenodd">
      <g>
          <g>
              <g>
                  <g>
                      <path d="M0 0L32 0 32 32 0 32z" transform="translate(-1465 -383) translate(1413 216) translate(16 16) translate(36 151)"></path>
                      <g fill-rule="nonzero">
                          <path fill="#306998" d="M9.473 0h-.057C8.637.004 7.894.07 7.24.186 5.312.526 4.961 1.24 4.961 2.554V4.29h4.556v.58H3.251c-1.323 0-2.483.795-2.845 2.309-.21.867-.319 1.572-.321 2.286v.046c.002.7.107 1.411.32 2.298.325 1.349 1.098 2.31 2.422 2.31h1.566v-2.082c0-1.503 1.301-2.83 2.846-2.83h4.55c1.267 0 2.279-1.043 2.279-2.315V2.554c0-1.234-1.042-2.162-2.278-2.368C11.032.06 10.246 0 9.49 0h-.017zM6.098 2.267c0-.48.382-.87.855-.87.47 0 .854.39.854.87 0 .479-.384.866-.854.866-.473 0-.855-.387-.855-.866z" transform="translate(-1465 -383) translate(1413 216) translate(16 16) translate(36 151) translate(6.08 6.4)"></path>
                          <path fill="#FC0" d="M14.636 4.87v2.022c0 1.569-1.33 2.889-2.846 2.889H7.24c-1.247 0-2.279 1.066-2.279 2.315v4.338c0 1.234 1.074 1.961 2.278 2.315.744.219 1.472.345 2.239.347h.044c.708-.002 1.449-.11 2.268-.347 1.147-.332 2.278-1 2.278-2.315v-1.736h-4.55v-.58H16.345c1.324 0 1.817-.923 2.277-2.309.476-1.427.456-2.8 0-4.63-.327-1.318-.952-2.31-2.277-2.31h-1.71zm-3.414 11.85c0-.478.384-.865.854-.865.473 0 .855.387.855.866 0 .48-.382.87-.855.87-.47 0-.854-.39-.854-.87z" transform="translate(-1465 -383) translate(1413 216) translate(16 16) translate(36 151) translate(6.08 6.4)"></path>
                      </g>
                  </g>
              </g>
          </g>
      </g>
  </g>
</svg>