<svg width="32" height="32" viewBox="0 0 32 32" fill="none" xmlns="http://www.w3.org/2000/svg">
<path fill-rule="evenodd" clip-rule="evenodd" d="M29.3333 4.66669C29.3333 3.56212 28.4379 2.66669 27.3333 2.66669H4.66667C3.5621 2.66669 2.66667 3.56212 2.66667 4.66669V27.3334C2.66667 28.4379 3.5621 29.3334 4.66667 29.3334H27.3333C28.4379 29.3334 29.3333 28.4379 29.3333 27.3334V4.66669ZM21.3333 10.3432L19.4477 12.2288L23.219 16L19.4477 19.7713L21.3333 21.6569L25.1046 17.8856L26.9902 16L25.1046 14.1144L21.3333 10.3432ZM12.5523 12.2288L10.6667 10.3432L6.89544 14.1144L5.00982 16L6.89544 17.8856L10.6667 21.6569L12.5523 19.7713L8.78105 16L12.5523 12.2288ZM19.5331 10.1914L17.0272 9.27938L12.4669 21.8086L14.9728 22.7207L19.5331 10.1914Z" fill="#00B0E2"/>
</svg>
