<svg width="52" height="52" viewBox="0 0 52 52" fill="none" xmlns="http://www.w3.org/2000/svg">
<path fill-rule="evenodd" clip-rule="evenodd" d="M36.1715 16.9239C36.3976 17.523 36.699 18.122 36.6236 18.7211C36.6236 19.9941 36.1715 21.2671 36.3222 22.5402C36.4729 23.8881 36.7744 25.3108 36.3976 26.6587C36.3222 27.108 36.0207 27.5573 35.87 28.0066C35.87 28.0066 35.9454 28.1564 35.9454 28.2313C36.0961 28.0066 36.2468 27.782 36.3976 27.5573C37.8294 25.236 38.8845 22.6899 39.6381 20.069C40.0149 18.5713 40.3164 17.1486 40.3164 15.6509C40.3164 15.0518 40.3164 14.3779 39.8642 13.8537C39.0352 12.8053 37.9048 11.9067 36.6236 11.4574C34.815 10.7835 32.7048 10.7086 30.8208 11.1579C31.2729 11.4574 31.8005 11.6821 32.1019 12.0565C33.9106 13.2546 35.2671 14.977 36.1715 16.9239ZM34.4383 27.5571C33.4586 25.5353 32.1021 23.5883 31.6499 21.2677C31.4992 20.2934 31.5745 19.1702 32.4035 18.4962C33.3079 17.7474 34.589 17.8223 35.6441 17.8223C35.0412 15.9502 33.76 14.3028 32.2528 13.1046C30.3687 11.6819 27.8818 11.0079 25.5456 11.3074C24.1137 11.5328 22.7572 12.2817 21.8528 13.4049C20.7224 14.9767 20.1949 16.9237 20.0442 18.7958C21.2499 18.1967 22.5311 17.7474 23.8876 18.0469C24.7166 18.2723 25.3949 19.0212 25.5456 19.8441C25.9224 21.5665 26.1485 23.2888 25.7717 25.0118C25.4702 26.4339 24.6412 27.6327 24.3398 28.9799C24.7166 28.9799 25.0934 29.0548 25.3949 29.2045C26.0731 29.579 26.4499 30.3278 26.3746 31.0766C26.3746 32.9487 26.3746 34.8208 26.4499 36.6929C26.5253 37.4417 26.5253 38.2662 26.7514 39.015C26.9775 39.9128 27.6557 40.8871 28.6354 41.0361C29.6905 41.1859 30.8209 40.8871 31.7253 40.437C32.6296 39.9885 33.0818 38.9394 33.2325 37.9659C33.5339 35.944 33.76 33.9222 33.9861 31.9011C34.1368 31.1523 33.9861 30.4034 34.3629 29.7287C34.589 29.2802 34.9658 29.1304 35.418 28.9058C35.0412 28.4557 34.6644 28.0813 34.4383 27.5571ZM18.9891 24.4122C19.2152 23.1392 19.2152 21.9411 19.1398 20.6681C19.0645 18.8709 19.2905 17.0737 19.8181 15.4263C20.1949 14.1532 20.8731 13.03 21.7775 12.0565C19.7427 11.4574 17.6326 11.083 15.5224 11.4574C14.1659 11.757 12.9601 12.5058 12.2819 13.7039C11.3775 15.2016 11.3022 17.0737 11.4529 18.796C11.7543 21.1174 12.2819 23.3639 12.9601 25.5355C13.563 27.4076 14.1659 29.2796 15.221 30.9271C15.5978 31.5261 16.05 32.1252 16.7282 32.3499C17.3311 32.4996 17.7833 32.0503 18.1601 31.601C18.9891 30.6275 19.8181 29.7289 20.6471 28.7555C19.4413 27.6322 18.763 25.9848 18.9891 24.4122ZM33.6092 20.0692C33.3832 19.9943 33.1571 19.6947 33.3832 19.4701C33.8353 19.1706 34.4382 19.1706 34.8904 19.3203C34.8904 19.9194 34.1368 20.3687 33.6092 20.0692ZM33.0817 19.1706C32.5542 19.6947 32.5542 20.5185 32.6295 21.1924C33.0063 23.364 34.2875 25.1612 35.2672 27.1082C35.9455 25.6105 35.5686 23.9631 35.4179 22.4654C35.2672 21.1924 35.644 19.9943 35.7194 18.7961C34.8904 18.7213 33.8353 18.6464 33.0817 19.1706ZM22.4554 19.8443C22.4554 19.6945 22.6062 19.6196 22.7569 19.5448C23.2091 19.395 23.7366 19.4699 24.1134 19.7694C24.3395 19.9941 24.1134 20.2936 23.8873 20.4434C23.3598 20.8178 22.5308 20.4434 22.4554 19.8443ZM24.2641 26.434C25.2438 24.4122 25.0931 22.0908 24.5656 19.9941C24.4148 19.395 23.8873 18.9457 23.2844 18.9457C22.154 18.8708 21.0236 19.395 20.0439 19.9941C20.0439 21.0424 20.1192 22.0159 19.9685 23.1391C19.9685 24.0377 19.667 24.9363 19.8931 25.8349C20.1946 27.4082 21.6265 28.8303 23.3598 28.8303C23.5859 28.0066 23.8873 27.1828 24.2641 26.434ZM36.2469 29.9535C35.9455 29.7289 35.5686 29.9535 35.3426 30.1033C35.0411 30.4036 35.0411 30.8521 35.0411 31.2265C35.7194 31.5268 36.473 31.4512 37.2266 31.3763C38.357 31.2265 39.4121 30.8521 40.2411 30.1033C38.8846 30.2531 37.4527 30.6275 36.2469 29.9535ZM24.5658 29.9535C23.8875 30.4036 23.5861 31.2265 22.9078 31.601C22.1542 32.0503 21.2499 32.0503 20.4963 32.3498C22.0035 33.1735 24.189 32.874 25.2441 31.4512C25.847 30.927 25.2441 29.8786 24.5658 29.9535ZM40.9191 30.4779C39.3365 31.9755 36.9249 32.4248 34.8148 32.0504C34.5887 33.9974 34.3626 35.8694 34.0612 37.7415C33.9105 38.7899 33.5336 39.8383 32.7047 40.5871C31.951 41.1862 30.896 41.4857 29.9163 41.7103C28.9366 41.8601 27.7308 41.7103 26.9772 41.0364C26.1482 40.3624 25.6206 39.2392 25.5453 38.1159C25.3192 36.2439 25.3192 34.2969 25.3192 32.4248C24.4149 33.2485 23.2091 33.6229 22.0033 33.5481C21.1743 33.4732 20.1946 33.3234 19.5917 32.7243C19.2149 32.4248 19.2902 31.8258 19.667 31.5262C20.3453 31.002 21.2496 31.0769 22.0033 30.7774C22.5308 30.6276 22.8322 30.1034 23.2091 29.6541C22.6062 29.5793 21.9279 29.4295 21.325 29.13C20.4207 30.1034 19.5917 31.0769 18.6873 32.1253C18.1598 32.7243 17.4815 33.1737 16.6526 33.0988C15.7482 33.0239 15.07 32.2751 14.5424 31.6011C13.5627 30.1783 12.9598 28.5309 12.3569 26.8835C11.528 24.2625 10.8497 21.5667 10.4729 18.7961C10.3222 16.7742 10.4729 14.5277 11.6787 12.7305C12.583 11.3826 14.3163 10.5589 15.9743 10.4091C18.2352 10.1845 20.496 10.6338 22.6062 11.3826C24.3395 10.2594 26.6003 10.0347 28.6351 10.484C28.7858 10.484 29.0119 10.6338 29.1627 10.5589C31.4235 9.88497 33.9105 9.7352 36.096 10.0347C37.9046 10.5589 39.5626 11.6073 40.693 13.1049C41.1452 13.704 41.2206 14.5277 41.2959 15.2766C41.2959 16.6245 41.0698 17.9724 40.7684 19.2454C39.9394 22.69 38.4322 25.91 36.5481 28.9053C37.6032 29.4295 38.809 29.2048 39.8641 28.9802C40.3162 28.9053 40.9191 28.8304 41.2206 29.2048C41.5974 29.5793 41.2206 30.1783 40.9191 30.4779ZM42.5017 29.4295C42.351 28.6807 41.4467 28.1565 40.693 28.2314C39.8641 28.3062 39.1104 28.5309 38.2815 28.5309C40.0901 25.3858 41.4467 22.016 42.1249 18.4965C42.351 16.9989 42.5771 15.5012 42.1249 14.0035C41.8988 13.1798 41.2959 12.5059 40.693 11.9068C39.2612 10.5589 37.4525 9.58543 35.5684 9.2859C33.4583 8.91148 31.2728 9.13613 29.238 9.66032C27.8061 9.43567 26.2989 9.2859 24.7163 9.51055C23.8873 9.66032 23.1337 10.0347 22.3801 10.4091C20.0439 9.7352 17.4815 9.21102 14.9946 9.7352C13.2613 10.1096 11.6033 11.158 10.699 12.6556C9.49318 14.5277 9.34245 16.7742 9.49318 18.9458C9.79463 21.417 10.3975 23.7384 11.0758 26.0597C11.6787 28.0816 12.3569 30.1034 13.4874 31.9006C14.1656 32.8741 14.9946 33.9225 16.2004 34.222C17.1801 34.4467 18.1598 34.1471 18.9134 33.5481C19.2902 33.9225 19.7424 34.222 20.2699 34.3718C21.7018 34.896 23.2844 34.896 24.7163 34.2969C24.867 36.2439 24.7917 38.1908 25.4699 40.0629C25.7714 40.9615 26.2235 41.7852 27.0525 42.3094C27.9569 42.9085 29.0873 42.9834 30.067 42.8336C30.9713 42.6838 31.8757 42.4592 32.7047 41.935C33.5336 41.4108 34.1365 40.662 34.5887 39.7634C35.4931 37.7415 35.4931 35.5699 35.6438 33.3983C37.6786 33.4732 39.9394 33.0239 41.5974 31.6011C42.2003 31.0769 42.7278 30.2532 42.5017 29.4295Z" fill="#417BA2"/>
</svg>
