<svg width="52" height="52" viewBox="0 0 52 52" fill="none" xmlns="http://www.w3.org/2000/svg">
<path fill-rule="evenodd" clip-rule="evenodd" d="M18.047 19.8188C19.9159 25.534 20.6239 35.7292 26.0889 35.7292C26.5051 35.7292 26.9254 35.6885 27.3474 35.6083C22.3794 34.4499 21.7907 24.3655 18.7592 19.1432C18.5215 19.3593 18.2855 19.5844 18.047 19.8188Z" fill="url(#paint0_linear_2361_3649)"/>
<path fill-rule="evenodd" clip-rule="evenodd" d="M18.7592 19.1432C21.7906 24.3655 22.3794 34.4499 27.3473 35.6082C27.7376 35.5365 28.1288 35.4281 28.5207 35.2913C24.0615 33.1063 22.8289 23.3139 19.3863 18.5995C19.1778 18.773 18.9685 18.9548 18.7592 19.1432Z" fill="url(#paint1_linear_2361_3649)"/>
<path fill-rule="evenodd" clip-rule="evenodd" d="M23.127 16.0375C22.7116 16.0375 22.2905 16.0782 21.8677 16.1584C20.7618 16.3669 19.6385 16.8431 18.506 17.5636C18.8154 17.8689 19.1097 18.2183 19.3866 18.5994C20.5383 17.6437 21.6825 16.9373 22.8226 16.5128C23.2504 16.3544 23.6766 16.2352 24.1044 16.1568C23.7958 16.0783 23.4705 16.0375 23.127 16.0375Z" fill="#14559A"/>
<path fill-rule="evenodd" clip-rule="evenodd" d="M32.0017 33.2773C32.4578 32.9145 32.9149 32.5134 33.3727 32.0756C31.4738 26.3871 30.7941 16.0459 25.2907 16.0459C24.8971 16.0459 24.5001 16.0826 24.104 16.156C29.117 17.4028 29.7591 28.3094 32.0017 33.2773Z" fill="url(#paint2_linear_2361_3649)"/>
<path fill-rule="evenodd" clip-rule="evenodd" d="M24.1042 16.1564C23.7957 16.078 23.4704 16.0372 23.1268 16.0372L25.291 16.0451C24.8973 16.0451 24.5004 16.0818 24.1042 16.156" fill="#3092C4"/>
<path fill-rule="evenodd" clip-rule="evenodd" d="M31.9055 34.4857C31.6904 34.2805 31.4861 34.0554 31.2851 33.8152C30.3594 34.4707 29.437 34.9677 28.5205 35.2913C28.8466 35.4506 29.1885 35.5691 29.5513 35.6424C29.8323 35.6998 30.1234 35.7292 30.4294 35.7292C31.4577 35.7292 32.2708 35.6074 32.963 35.2755C32.5819 35.0695 32.2325 34.8026 31.9055 34.4857Z" fill="#1969BC"/>
<path fill-rule="evenodd" clip-rule="evenodd" d="M22.8223 16.5138C27.3123 18.8622 27.7026 29.4969 31.2853 33.8152C31.5255 33.6459 31.7632 33.4666 32.0009 33.2772C29.7584 28.3093 29.117 17.4019 24.1049 16.1559C23.6771 16.236 23.2501 16.3545 22.8223 16.5138Z" fill="url(#paint3_linear_2361_3649)"/>
<path fill-rule="evenodd" clip-rule="evenodd" d="M19.3864 18.5995C22.829 23.3139 24.0616 33.1064 28.5208 35.2913C29.4373 34.9678 30.3597 34.4707 31.2854 33.8152C27.7027 29.497 27.3124 18.8622 22.8223 16.5138C21.6823 16.9374 20.5381 17.6438 19.3864 18.5995Z" fill="url(#paint4_linear_2361_3649)"/>
<path fill-rule="evenodd" clip-rule="evenodd" d="M15.8443 19.6812C15.3047 20.9013 14.7535 22.505 14.0872 24.5982C15.4123 22.731 16.7333 21.1223 18.0468 19.8188C17.8659 19.2625 17.6716 18.7497 17.4622 18.2926C16.9252 18.7038 16.3839 19.1667 15.8443 19.6812Z" fill="url(#paint5_linear_2361_3649)"/>
<path fill-rule="evenodd" clip-rule="evenodd" d="M17.9407 17.9408C17.7823 18.0542 17.623 18.1702 17.4629 18.2927C17.6722 18.7497 17.8657 19.2627 18.0467 19.8189C18.2851 19.5854 18.522 19.3594 18.7588 19.1434C18.5045 18.7064 18.2343 18.3027 17.9407 17.9408Z" fill="#2B74B1"/>
<path fill-rule="evenodd" clip-rule="evenodd" d="M18.506 17.5637C18.3175 17.683 18.1299 17.8088 17.9406 17.9406C18.2341 18.3025 18.5043 18.7062 18.7595 19.1441C18.9689 18.9547 19.1781 18.7721 19.3867 18.5994C19.1098 18.2184 18.8154 17.8689 18.506 17.5637Z" fill="#125A9E"/>
<path fill-rule="evenodd" clip-rule="evenodd" d="M49.1322 15.6023C46.5927 25.3955 41.2887 33.2615 36.842 35.2446H36.8336C36.7527 35.2813 36.6726 35.3147 36.5934 35.3472C36.5825 35.3538 36.5726 35.3546 36.5642 35.3586C36.5408 35.368 36.5191 35.3753 36.4958 35.3846C36.4849 35.3912 36.475 35.3933 36.465 35.3973C36.4275 35.4107 36.3908 35.422 36.3541 35.4367C36.3382 35.4433 36.3232 35.4474 36.3082 35.4527C36.2915 35.4593 36.2723 35.4654 36.2531 35.4707C36.2364 35.4773 36.219 35.4821 36.1997 35.4894C36.1839 35.496 36.1672 35.4988 36.1522 35.5054C36.1197 35.5148 36.0897 35.5228 36.0572 35.5341C36.0438 35.5341 36.0313 35.5414 36.0171 35.5448C35.9971 35.5514 35.9746 35.5562 35.9529 35.5622C35.9379 35.5688 35.9254 35.5709 35.9095 35.5742C35.887 35.5808 35.8619 35.587 35.8395 35.5923C35.8094 35.5989 35.7828 35.605 35.7544 35.6109C35.9554 35.6852 36.1647 35.7227 36.3907 35.7227C40.6072 35.7227 44.8587 28.1662 51.8933 15.6H49.1312L49.1322 15.6023Z" fill="url(#paint6_linear_2361_3649)"/>
<path fill-rule="evenodd" clip-rule="evenodd" d="M13.1715 16.4349C13.1741 16.4349 13.1775 16.4283 13.1791 16.4283C13.1824 16.4283 13.1875 16.4283 13.1892 16.4217H13.1945C13.2178 16.4138 13.2395 16.4044 13.2628 16.3957C13.2688 16.3957 13.2719 16.3957 13.2762 16.3891C13.2822 16.3891 13.288 16.3825 13.2938 16.3817C13.3188 16.3737 13.3438 16.3643 13.3672 16.3556H13.3711C13.427 16.339 13.4787 16.3183 13.5329 16.2989C13.5405 16.2989 13.5479 16.2923 13.5571 16.2923C13.5796 16.2851 13.603 16.277 13.6263 16.2716C13.6372 16.265 13.648 16.265 13.658 16.2616C13.6821 16.2543 13.7056 16.2462 13.728 16.2409C13.7381 16.2409 13.7472 16.2343 13.7547 16.2336C13.8323 16.2123 13.909 16.1922 13.9866 16.1736C13.9975 16.1736 14.0066 16.167 14.0182 16.1663C14.0407 16.1597 14.0616 16.1562 14.0858 16.1529C14.0959 16.1463 14.1075 16.1463 14.1192 16.1428C14.1417 16.1362 14.1633 16.1356 14.1875 16.1301H14.2034C14.2501 16.1207 14.2977 16.1128 14.3444 16.1041H14.3727C14.3952 16.0975 14.4152 16.0968 14.4378 16.0927C14.4502 16.0927 14.4628 16.0861 14.4745 16.0861C14.4953 16.0861 14.5162 16.0795 14.537 16.0767C14.5479 16.0767 14.5586 16.0767 14.5712 16.0701C14.6204 16.0635 14.6713 16.0608 14.723 16.0567C14.577 16.0426 14.4269 16.0333 14.2743 16.0333C9.5257 16.0333 2.98324 24.8441 0.0360107 36.2544H0.603941C1.54716 34.5724 2.39446 32.9812 3.16922 31.4875C5.23328 23.4056 9.4373 17.8939 13.1718 16.4336" fill="url(#paint7_linear_2361_3649)"/>
<path fill-rule="evenodd" clip-rule="evenodd" d="M15.8444 19.6812C16.384 19.1667 16.9252 18.7038 17.4623 18.2927C17.3397 18.0241 17.2129 17.7756 17.077 17.5479C16.6425 18.075 16.2455 18.7705 15.8444 19.6812Z" fill="#0D82CA"/>
<path fill-rule="evenodd" clip-rule="evenodd" d="M16.2345 16.5017C16.5447 16.7619 16.8224 17.1197 17.0768 17.5484C17.1568 17.45 17.2378 17.359 17.322 17.274C16.9692 16.9446 16.5881 16.6744 16.1744 16.4709C16.1911 16.4801 16.2078 16.4876 16.2251 16.4949C16.2251 16.4949 16.2317 16.5015 16.2346 16.5015" fill="#0D82CA"/>
<path fill-rule="evenodd" clip-rule="evenodd" d="M3.16895 31.4885C7.49889 23.1446 9.55045 17.8639 13.1715 16.4345C9.43786 17.8957 5.23301 23.4073 3.16895 31.4885Z" fill="url(#paint8_linear_2361_3649)"/>
<path fill-rule="evenodd" clip-rule="evenodd" d="M17.3217 17.2737C17.2375 17.3597 17.1575 17.4497 17.0765 17.5482C17.2125 17.7758 17.3392 18.0235 17.4627 18.2929C17.6228 18.1703 17.7821 18.0543 17.9405 17.9409C17.7446 17.6991 17.5377 17.4748 17.3217 17.2737Z" fill="#127BCA"/>
<path fill-rule="evenodd" clip-rule="evenodd" d="M5.13468 36.2179C5.108 36.2245 5.08131 36.2245 5.05629 36.2273H5.04127C5.01872 36.2273 4.99537 36.2339 4.97456 36.2339H4.96369C4.90951 36.2405 4.85611 36.2405 4.8044 36.2447H4.78772C9.17021 36.122 11.1734 33.9278 12.1675 30.7454C12.923 28.3328 13.5435 26.3004 14.0873 24.595C12.2517 27.1786 10.4078 30.2584 8.55391 33.7085C7.6599 35.3715 6.30053 36.0661 5.13465 36.2146" fill="url(#paint9_linear_2361_3649)"/>
<path fill-rule="evenodd" clip-rule="evenodd" d="M5.13464 36.2162C6.30053 36.0677 7.65989 35.3739 8.5539 33.7101C10.4078 30.2609 12.2525 27.1802 14.0864 24.5966C14.7536 22.5024 15.304 20.8996 15.8444 19.6795C12.1892 23.1588 8.51971 28.9441 5.13464 36.2146" fill="url(#paint10_linear_2361_3649)"/>
<path fill-rule="evenodd" clip-rule="evenodd" d="M3.16879 31.4886C2.39407 32.9823 1.54676 34.5735 0.603516 36.2556H2.25563C2.47413 34.5851 2.78437 32.9923 3.16879 31.4894" fill="#05A1E6"/>
<path fill-rule="evenodd" clip-rule="evenodd" d="M14.571 16.0743C14.5576 16.0743 14.5476 16.0809 14.536 16.0809C14.5159 16.0875 14.4951 16.0875 14.4742 16.0897C14.4619 16.0897 14.4501 16.0897 14.4376 16.0963C14.415 16.1029 14.3942 16.1035 14.3725 16.1077C14.3624 16.1077 14.3525 16.1077 14.3442 16.1143C14.2966 16.1222 14.2499 16.131 14.2032 16.139H14.1873C14.1632 16.1456 14.1414 16.149 14.119 16.1523C14.1072 16.1589 14.0956 16.1589 14.0847 16.1616C14.0622 16.1682 14.0397 16.171 14.018 16.175C14.0063 16.1816 13.9972 16.1816 13.9863 16.1822C13.9088 16.2009 13.832 16.2209 13.7545 16.2423C13.7462 16.2423 13.7378 16.2489 13.7278 16.2502C13.7045 16.2568 13.6819 16.2636 13.6578 16.2709C13.6477 16.2775 13.6361 16.2775 13.626 16.2801C13.6027 16.2868 13.5793 16.2935 13.5568 16.3008C13.5477 16.3008 13.5402 16.3074 13.5318 16.3074C13.4784 16.3274 13.4259 16.3475 13.3709 16.3642C13.3475 16.3714 13.3225 16.3808 13.2975 16.3895C13.2874 16.3961 13.2783 16.3976 13.2667 16.4022C13.2433 16.4095 13.2199 16.4189 13.1983 16.4276C13.19 16.4342 13.1816 16.4348 13.1758 16.4383C9.5547 17.8677 7.50315 23.1484 3.1732 31.4923C2.78874 32.9951 2.47767 34.5879 2.26001 36.2583H2.49185C3.14485 36.2583 3.32915 36.2517 4.08056 36.2517H4.11892H4.23067H4.26903H4.2799H4.31826H4.33995H4.35496H4.38499H4.47839H4.57179H4.65019H4.671H4.80861C4.86031 36.2451 4.91369 36.2451 4.96789 36.241H4.97791C5.00046 36.241 5.02294 36.2344 5.04462 36.2344H5.06043C5.08458 36.2344 5.11214 36.2278 5.13882 36.225C8.52389 28.9545 12.1933 23.1692 15.8486 19.6899C16.2506 18.7792 16.6467 18.0837 17.0804 17.5575C16.8268 17.1288 16.5491 16.7702 16.2389 16.51C16.2389 16.51 16.2305 16.51 16.2298 16.5034C16.2123 16.4961 16.1957 16.4873 16.1781 16.4787C16.1606 16.4693 16.1456 16.462 16.1273 16.4527C16.1114 16.4461 16.0931 16.4373 16.0772 16.4286C16.0556 16.422 16.038 16.4126 16.0189 16.404C16.003 16.3973 15.9888 16.3906 15.973 16.3839C15.9404 16.3712 15.9079 16.3579 15.8771 16.3439C15.8629 16.3373 15.8496 16.3338 15.8362 16.3286C15.8137 16.3205 15.7878 16.3099 15.7644 16.2999C15.7527 16.2932 15.7394 16.2919 15.7261 16.2871C15.6919 16.2757 15.6585 16.2638 15.6268 16.2531H15.6186C15.5802 16.2404 15.5427 16.2311 15.5035 16.2204C15.4944 16.2138 15.4868 16.2138 15.4777 16.2125C15.4434 16.2031 15.4134 16.1938 15.3809 16.1851C15.3727 16.1851 15.3651 16.1785 15.3584 16.1785C15.28 16.1578 15.1991 16.1412 15.1174 16.1258C15.109 16.1258 15.1007 16.1192 15.0924 16.1192C15.0574 16.1126 15.0232 16.1065 14.9882 16.1025C14.9797 16.0959 14.9748 16.0959 14.9673 16.0959C14.9256 16.0893 14.8848 16.0845 14.8439 16.0799H14.8222C14.7889 16.0733 14.758 16.0726 14.7272 16.0692C14.6746 16.0758 14.6246 16.0786 14.5754 16.0832" fill="url(#paint11_linear_2361_3649)"/>
<path fill-rule="evenodd" clip-rule="evenodd" d="M39.213 21.0239C38.3798 23.6925 37.7051 25.8942 37.118 27.7056C39.4039 24.5599 41.6556 20.6027 43.7998 16.0359C41.2987 16.8215 39.9644 18.6196 39.213 21.0239Z" fill="url(#paint12_linear_2361_3649)"/>
<path fill-rule="evenodd" clip-rule="evenodd" d="M37.1906 35.0779C37.0739 35.1372 36.9571 35.1938 36.842 35.2447C41.2887 33.2615 46.5928 25.3955 49.1322 15.6023H48.6176C42.7832 26.0243 40.9068 33.0013 37.1906 35.0779Z" fill="url(#paint13_linear_2361_3649)"/>
<path fill-rule="evenodd" clip-rule="evenodd" d="M34.287 34.2022C35.2544 33.0213 36.0424 31.014 37.1183 27.7056C35.8773 29.4103 34.6281 30.8756 33.3779 32.0706C33.3779 32.0772 33.3779 32.0772 33.3713 32.0813C33.6441 32.8986 33.9434 33.62 34.2846 34.2021" fill="#079AE1"/>
<path fill-rule="evenodd" clip-rule="evenodd" d="M34.287 34.2022C33.9575 34.6042 33.609 34.9103 33.2212 35.1371C33.1361 35.1865 33.0503 35.233 32.9626 35.2756C33.3722 35.4965 33.8191 35.6442 34.3195 35.7034C34.3928 35.7106 34.4654 35.7174 34.5413 35.7227H34.5547C34.5887 35.7227 34.6248 35.7227 34.6615 35.7293H34.6762H34.7854H34.9031H34.9398H35.0232C35.0365 35.7293 35.0505 35.7293 35.0639 35.7227C35.0899 35.7227 35.1172 35.7227 35.1439 35.7161H35.1533H35.1833C35.2107 35.7161 35.2407 35.7095 35.2701 35.7067H35.2767C35.2854 35.7067 35.2947 35.7001 35.3034 35.7001C35.3341 35.6935 35.3661 35.6907 35.396 35.686H35.4233C35.4574 35.6794 35.4925 35.6753 35.5275 35.6687H35.5342H35.5442C35.6143 35.6553 35.6827 35.642 35.7519 35.6247C35.1781 35.4145 34.6977 34.9191 34.2841 34.2136" fill="#1969BC"/>
<path fill-rule="evenodd" clip-rule="evenodd" d="M26.089 35.7293C26.5052 35.7293 26.9255 35.6886 27.3475 35.6076C27.7378 35.5367 28.1289 35.4282 28.5208 35.2914C28.8469 35.4508 29.1889 35.5692 29.5508 35.6426C29.8318 35.7 30.1237 35.7293 30.4298 35.7293H26.089Z" fill="#1E5CB3"/>
<path fill-rule="evenodd" clip-rule="evenodd" d="M30.4298 35.7293C31.4573 35.7293 32.2712 35.6076 32.9626 35.2756C33.3721 35.4966 33.8191 35.6442 34.3194 35.7035C34.3928 35.7108 34.4654 35.7175 34.5413 35.7228H34.5547C34.5887 35.7228 34.6247 35.7228 34.6614 35.7294H34.6768H34.7861H30.4269L30.4298 35.7293Z" fill="#1E5CB3"/>
<path fill-rule="evenodd" clip-rule="evenodd" d="M34.7887 35.7293H34.9071H34.9438H35.0264C35.0405 35.7293 35.0538 35.7293 35.0671 35.7227C35.0931 35.7227 35.1205 35.7227 35.148 35.7161H35.1568H35.1875C35.2148 35.7161 35.2449 35.7095 35.2734 35.7069H35.2807C35.2894 35.7069 35.298 35.7003 35.3067 35.7003C35.3374 35.6936 35.3694 35.691 35.3993 35.6862C35.4093 35.6862 35.4173 35.6862 35.4279 35.6796C35.462 35.673 35.4972 35.6695 35.5322 35.6629H35.5388H35.5489C35.619 35.6495 35.6873 35.6362 35.7565 35.6189C35.9575 35.6931 36.1668 35.7306 36.3928 35.7306L34.7899 35.7373L34.7887 35.7293Z" fill="#1D60B5"/>
<path fill-rule="evenodd" clip-rule="evenodd" d="M33.374 32.0815V32.0749C32.9162 32.5127 32.4592 32.9139 32.003 33.2766C31.7644 33.4659 31.5268 33.6452 31.2866 33.8146C31.4876 34.0547 31.6919 34.2799 31.9071 34.4851C32.234 34.8019 32.5834 35.0688 32.9645 35.2748C33.0513 35.2321 33.138 35.1855 33.2222 35.1364C33.6108 34.9095 33.9594 34.6035 34.2889 34.2015C33.9478 33.6194 33.6484 32.898 33.3757 32.0807" fill="#175FAB"/>
<path fill-rule="evenodd" clip-rule="evenodd" d="M46.988 15.6023H44.8247H44.6096H44.4061H44.3981C44.258 15.6089 44.1221 15.6137 43.9878 15.6223C43.9245 15.7583 43.8594 15.8943 43.7968 16.031C41.6527 20.5977 39.401 24.555 37.1151 27.7007C36.0401 31.009 35.2512 33.0164 34.2838 34.1973C34.6975 34.9028 35.1787 35.399 35.7508 35.6091C35.7674 35.6025 35.7808 35.6025 35.7958 35.5991H35.805C35.8151 35.5991 35.8259 35.5924 35.8367 35.5924C35.8601 35.5858 35.8851 35.5817 35.9085 35.5744C35.9235 35.5678 35.936 35.5672 35.951 35.5624C35.9727 35.5558 35.9952 35.551 36.0152 35.5457C36.0286 35.5391 36.0419 35.5369 36.0552 35.5343C36.0886 35.5236 36.1186 35.5156 36.1503 35.5056C36.1654 35.499 36.1812 35.4935 36.1979 35.4896C36.2162 35.483 36.2346 35.4782 36.2513 35.4702C36.2705 35.4636 36.2896 35.4602 36.3063 35.4529C36.3213 35.4463 36.3371 35.4421 36.3513 35.4362C36.3888 35.4228 36.4256 35.4115 36.4631 35.3968C36.4732 35.3968 36.4831 35.3876 36.494 35.3854C36.5165 35.376 36.5398 35.3687 36.5624 35.3587C36.5706 35.3521 36.5807 35.3515 36.5915 35.348C36.6699 35.3153 36.7508 35.282 36.8317 35.2455H36.8401C36.9552 35.1948 37.072 35.1378 37.1879 35.0787C40.9049 33.0021 42.7813 26.0251 48.6157 15.6031H46.9862L46.988 15.6023Z" fill="url(#paint14_linear_2361_3649)"/>
<path fill-rule="evenodd" clip-rule="evenodd" d="M14.7229 16.0602C14.7322 16.0602 14.7404 16.0602 14.7496 16.0668C14.7721 16.0668 14.7946 16.0668 14.8171 16.0741H14.8397C14.8805 16.0807 14.9214 16.0842 14.9631 16.0901C14.9707 16.0901 14.9773 16.0901 14.9839 16.0967C15.0181 16.1033 15.0531 16.1088 15.0882 16.1141C15.0958 16.1141 15.1057 16.1207 15.114 16.1207C15.1941 16.1367 15.2758 16.1534 15.3542 16.1741C15.3617 16.1741 15.3693 16.1807 15.3759 16.1807C15.4093 16.1886 15.4393 16.1987 15.4727 16.208C15.4827 16.208 15.4901 16.2146 15.4994 16.2161C15.5386 16.2262 15.5752 16.2361 15.6136 16.2488C15.6153 16.2488 15.6176 16.2488 15.622 16.2554C15.6545 16.2653 15.6879 16.2781 15.7221 16.2894C15.7355 16.296 15.7479 16.2988 15.7605 16.3022C15.7838 16.3122 15.8097 16.3222 15.8322 16.3315C15.8456 16.3315 15.8589 16.3408 15.873 16.3456C15.9038 16.3596 15.9364 16.3722 15.9681 16.3856C15.9848 16.3922 15.9989 16.3996 16.0148 16.4056C16.0331 16.415 16.0523 16.4236 16.0723 16.4303C16.089 16.4382 16.1073 16.447 16.1231 16.4543C16.1407 16.4637 16.1573 16.471 16.174 16.4803C16.5877 16.6838 16.9688 16.9549 17.3216 17.2835C17.4517 17.1467 17.5876 17.0241 17.7286 16.914C16.9571 16.3669 16.0831 16.055 15.0749 16.055C14.9581 16.055 14.8414 16.0616 14.7229 16.0704" fill="#7DCBEC"/>
<path fill-rule="evenodd" clip-rule="evenodd" d="M17.3218 17.2737C17.5378 17.4747 17.7446 17.699 17.9406 17.9409C18.1299 17.8091 18.3175 17.6824 18.506 17.5639C18.2592 17.3171 17.999 17.0952 17.7279 16.9042C17.587 17.0135 17.4519 17.1369 17.3218 17.2737Z" fill="#5EC5ED"/>
<path fill-rule="evenodd" clip-rule="evenodd" d="M14.7227 16.0601C14.8411 16.0501 14.9579 16.0459 15.0747 16.0459C16.0829 16.0459 16.9569 16.3578 17.7283 16.9041C18.5423 16.2619 19.5264 16.0376 20.8932 16.0376H14.274C14.4267 16.0376 14.5759 16.0467 14.7227 16.0601Z" fill="url(#paint15_linear_2361_3649)"/>
<path fill-rule="evenodd" clip-rule="evenodd" d="M20.8933 16.0376C19.5264 16.0376 18.5423 16.2619 17.7284 16.9041C17.9986 17.095 18.2588 17.3169 18.5056 17.5637C19.639 16.8432 20.7615 16.3661 21.8682 16.1577C22.2902 16.0784 22.7113 16.0376 23.1267 16.0376H20.8933Z" fill="url(#paint16_linear_2361_3649)"/>
<path fill-rule="evenodd" clip-rule="evenodd" d="M37.118 27.7073C37.706 25.8942 38.379 23.6934 39.2138 21.0239C39.966 18.6187 41.2979 16.8207 43.7989 16.036C43.865 15.9017 43.9274 15.7632 43.9916 15.6273C39.9143 15.8716 38.0087 17.9457 37.0496 21.0172C35.3725 26.3796 34.3568 29.8556 33.3785 32.0706C34.6278 30.8763 35.8771 29.4102 37.118 27.7073Z" fill="url(#paint17_linear_2361_3649)"/>
<defs>
<linearGradient id="paint0_linear_2361_3649" x1="15.7616" y1="15.9063" x2="15.7616" y2="40.6428" gradientUnits="userSpaceOnUse">
<stop stop-color="#0994DC"/>
<stop offset="0.350006" stop-color="#66CEF5"/>
<stop offset="0.350006" stop-color="#66CEF5"/>
<stop offset="0.846161" stop-color="#127BCA"/>
<stop offset="0.846161" stop-color="#127BCA"/>
<stop offset="1" stop-color="#127BCA"/>
</linearGradient>
<linearGradient id="paint1_linear_2361_3649" x1="16.3608" y1="15.28" x2="16.3608" y2="40.6469" gradientUnits="userSpaceOnUse">
<stop stop-color="#0E76BC"/>
<stop offset="0.360001" stop-color="#36AEE8"/>
<stop offset="0.360001" stop-color="#36AEE8"/>
<stop offset="0.846161" stop-color="#00ADEF"/>
<stop offset="0.846161" stop-color="#00ADEF"/>
<stop offset="1" stop-color="#00ADEF"/>
</linearGradient>
<linearGradient id="paint2_linear_2361_3649" x1="34.1667" y1="35.1592" x2="34.1667" y2="14.9751" gradientUnits="userSpaceOnUse">
<stop stop-color="#1C63B7"/>
<stop offset="0.5" stop-color="#33BDF2"/>
<stop offset="1" stop-color="#33BDF2" stop-opacity="0.419608"/>
</linearGradient>
<linearGradient id="paint3_linear_2361_3649" x1="20.5671" y1="12.7097" x2="20.5671" y2="39.0472" gradientUnits="userSpaceOnUse">
<stop stop-color="#166AB8"/>
<stop offset="0.399994" stop-color="#36AEE8"/>
<stop offset="0.399994" stop-color="#36AEE8"/>
<stop offset="0.846161" stop-color="#0798DD"/>
<stop offset="0.846161" stop-color="#0798DD"/>
<stop offset="1" stop-color="#0798DD"/>
</linearGradient>
<linearGradient id="paint4_linear_2361_3649" x1="16.4621" y1="12.8482" x2="16.4621" y2="40.8546" gradientUnits="userSpaceOnUse">
<stop stop-color="#124379"/>
<stop offset="0.389999" stop-color="#1487CB"/>
<stop offset="0.389999" stop-color="#1487CB"/>
<stop offset="0.780228" stop-color="#165197"/>
<stop offset="0.780228" stop-color="#165197"/>
<stop offset="1" stop-color="#165197"/>
</linearGradient>
<linearGradient id="paint5_linear_2361_3649" x1="14.0872" y1="24.5983" x2="18.0468" y2="24.5983" gradientUnits="userSpaceOnUse">
<stop stop-color="#33BDF2" stop-opacity="0.698039"/>
<stop offset="1" stop-color="#1DACD8"/>
</linearGradient>
<linearGradient id="paint6_linear_2361_3649" x1="51.7101" y1="34.6535" x2="51.7101" y2="14.9913" gradientUnits="userSpaceOnUse">
<stop stop-color="#136AB4"/>
<stop offset="0.6" stop-color="#59CAF5" stop-opacity="0.54902"/>
<stop offset="1" stop-color="#59CAF5" stop-opacity="0.235294"/>
</linearGradient>
<linearGradient id="paint7_linear_2361_3649" x1="0.035899" y1="36.2544" x2="14.7229" y2="36.2544" gradientUnits="userSpaceOnUse">
<stop stop-color="#05A1E6" stop-opacity="0.247059"/>
<stop offset="1" stop-color="#05A1E6"/>
</linearGradient>
<linearGradient id="paint8_linear_2361_3649" x1="14.8585" y1="35.1486" x2="14.8585" y2="15.0162" gradientUnits="userSpaceOnUse">
<stop stop-color="#318ED5"/>
<stop offset="1" stop-color="#38A7E4"/>
</linearGradient>
<linearGradient id="paint9_linear_2361_3649" x1="17.2483" y1="35.2195" x2="17.2483" y2="15.6497" gradientUnits="userSpaceOnUse">
<stop stop-color="#05A1E6"/>
<stop offset="1" stop-color="#05A1E6" stop-opacity="0.54902"/>
</linearGradient>
<linearGradient id="paint10_linear_2361_3649" x1="15.8444" y1="36.218" x2="15.8444" y2="19.6812" gradientUnits="userSpaceOnUse">
<stop stop-color="#1959A6"/>
<stop offset="0.5" stop-color="#05A1E6"/>
<stop offset="0.5" stop-color="#05A1E6"/>
<stop offset="0.917587" stop-color="#7EC5EA"/>
<stop offset="1" stop-color="#7EC5EA"/>
</linearGradient>
<linearGradient id="paint11_linear_2361_3649" x1="17.7044" y1="33.0081" x2="12.0988" y2="15.8773" gradientUnits="userSpaceOnUse">
<stop stop-color="#165096"/>
<stop offset="1" stop-color="#0D82CA"/>
</linearGradient>
<linearGradient id="paint12_linear_2361_3649" x1="43.1412" y1="25.0214" x2="43.1412" y2="15.651" gradientUnits="userSpaceOnUse">
<stop stop-color="#05A1E6"/>
<stop offset="0.873627" stop-color="#0495D6"/>
<stop offset="1" stop-color="#0495D6"/>
</linearGradient>
<linearGradient id="paint13_linear_2361_3649" x1="38.1031" y1="11.7403" x2="29.3699" y2="31.1305" gradientUnits="userSpaceOnUse">
<stop stop-color="#38A7E4" stop-opacity="0.329412"/>
<stop offset="0.961533" stop-color="#0E88D3"/>
<stop offset="0.961533" stop-color="#0E88D3"/>
<stop offset="1" stop-color="#0E88D3"/>
</linearGradient>
<linearGradient id="paint14_linear_2361_3649" x1="34.1302" y1="15.5431" x2="34.1302" y2="35.9857" gradientUnits="userSpaceOnUse">
<stop stop-color="#168CD4"/>
<stop offset="0.5" stop-color="#1C87CC"/>
<stop offset="1" stop-color="#154B8D"/>
</linearGradient>
<linearGradient id="paint15_linear_2361_3649" x1="22.8376" y1="14.8146" x2="22.9262" y2="16.9586" gradientUnits="userSpaceOnUse">
<stop stop-color="#97D6EE"/>
<stop offset="0.703293" stop-color="#55C1EA"/>
<stop offset="1" stop-color="#55C1EA"/>
</linearGradient>
<linearGradient id="paint16_linear_2361_3649" x1="15.1186" y1="16.9419" x2="15.519" y2="14.6708" gradientUnits="userSpaceOnUse">
<stop stop-color="#7ACCEC"/>
<stop offset="1" stop-color="#3FB7ED"/>
</linearGradient>
<linearGradient id="paint17_linear_2361_3649" x1="32.2321" y1="16.6735" x2="32.2321" y2="36.6684" gradientUnits="userSpaceOnUse">
<stop stop-color="#1DA7E7"/>
<stop offset="1" stop-color="#37ABE7" stop-opacity="0.01"/>
</linearGradient>
</defs>
</svg>
