<svg width="18" height="18" viewBox="0 0 18 18" fill="none" xmlns="http://www.w3.org/2000/svg">
<path d="M4.28425 8.87345L8.12217 12.7114L14.4184 6.41512L13.3684 5.36608L8.12217 10.6123L5.3333 7.82341L4.28425 8.87345Z" fill="#098938"/>
<path fill-rule="evenodd" clip-rule="evenodd" d="M0 9.00012C0 4.03003 4.02991 0.00012207 9 0.00012207C13.9711 0.00012207 18 4.03003 18 9.00012C18 13.9702 13.9701 18.0001 9 18.0001C4.02991 18.0001 0 13.9702 0 9.00012ZM1.32219 9.00111C1.32219 13.2408 4.75929 16.6789 9 16.6789V16.6779C13.2397 16.6779 16.6778 13.2398 16.6778 9.00012C16.6778 4.7604 13.2397 1.32231 9 1.32231C4.76028 1.32231 1.32219 4.76139 1.32219 9.00111Z" fill="#098938"/>
</svg>
