<svg width="18" height="19" viewBox="0 0 18 19" fill="none" xmlns="http://www.w3.org/2000/svg">
<path d="M8.99992 15.0244C9.59623 15.0244 10.0796 14.541 10.0796 13.9447C10.0796 13.3484 9.59623 12.865 8.99992 12.865C8.4036 12.865 7.92019 13.3484 7.92019 13.9447C7.92019 14.541 8.4036 15.0244 8.99992 15.0244Z" fill="#FF9900"/>
<path d="M8.12415 4.1747H9.87586V11.7664H8.12415V4.1747Z" fill="#FF9900"/>
<path fill-rule="evenodd" clip-rule="evenodd" d="M4 0.5C1.79086 0.5 0 2.29086 0 4.5V14.5C0 16.7091 1.79086 18.5 4 18.5H14C16.2091 18.5 18 16.7091 18 14.5V4.5C18 2.29086 16.2091 0.5 14 0.5H4ZM14 2H4C2.61929 2 1.5 3.11929 1.5 4.5V14.5C1.5 15.8807 2.61929 17 4 17H14C15.3807 17 16.5 15.8807 16.5 14.5V4.5C16.5 3.11929 15.3807 2 14 2Z" fill="#FF9900"/>
</svg>
