<svg width="18" height="19" viewBox="0 0 18 19" fill="none" xmlns="http://www.w3.org/2000/svg">
<path d="M8.99992 15.0244C9.59623 15.0244 10.0796 14.541 10.0796 13.9447C10.0796 13.3484 9.59623 12.865 8.99992 12.865C8.4036 12.865 7.92019 13.3484 7.92019 13.9447C7.92019 14.541 8.4036 15.0244 8.99992 15.0244Z" fill="#296CF2"/>
<path d="M8.12415 4.1747H9.87586V11.7664H8.12415V4.1747Z" fill="#296CF2"/>
<path fill-rule="evenodd" clip-rule="evenodd" d="M9 0.5C4.02991 0.5 0 4.52991 0 9.5C0 14.4701 4.02991 18.5 9 18.5C13.9701 18.5 18 14.4701 18 9.5C18 4.52991 13.9711 0.5 9 0.5ZM9 17.1788C4.75929 17.1788 1.32219 13.7407 1.32219 9.50099C1.32219 5.26127 4.76028 1.82219 9 1.82219C13.2397 1.82219 16.6778 5.26028 16.6778 9.5C16.6778 13.7397 13.2397 17.1788 9 17.1788Z" fill="#296CF2"/>
</svg>
