<svg width="1200" height="242" viewBox="0 0 1200 242" fill="none" xmlns="http://www.w3.org/2000/svg"><g clip-path="url(#clip0_397_670)"><path fill="#fff" d="M0 0h1200v242H0z"/><path fill="#F4F6F9" d="M0 0h1920v242H0z"/><path fill-rule="evenodd" clip-rule="evenodd" d="M947 172c6.627 0 12-5.373 12-12s-5.373-12-12-12-12 5.373-12 12 5.373 12 12 12zm0-6a6 6 0 100-12 6 6 0 000 12z" fill="#00B0E2" fill-opacity=".1"/><path fill-rule="evenodd" clip-rule="evenodd" d="M1174 242c0-38.66-31.34-70-70-70s-70 31.34-70 70h140z" fill="#936CE7" fill-opacity=".1"/><circle cx="1154" cy="193" r="12" stroke="#00B0E2" stroke-opacity=".2" stroke-width="4"/><path fill-rule="evenodd" clip-rule="evenodd" d="M935 207.34c15.558 15.684 40.884 15.786 56.568.228 15.682-15.558 15.782-40.884.228-56.568l-18.459 18.311c5.445 5.489 5.41 14.353-.08 19.798-5.489 5.446-14.353 5.41-19.798-.079L935 207.34z" fill="#4485FF" fill-opacity=".15"/><rect x="774" y="39" width="16" height="16" rx="8" fill="#936CE7" fill-opacity=".1"/><circle cx="166" cy="83" r="11" fill="#936CE7" fill-opacity=".12"/><circle cx="86" cy="27" r="40" stroke="#4485FF" stroke-opacity=".1" stroke-width="40"/><path fill-rule="evenodd" clip-rule="evenodd" d="M0 212c22.091 0 40-17.909 40-40s-17.909-40-40-40v26c7.732 0 14 6.268 14 14s-6.268 14-14 14v26z" fill="#00B0E2" fill-opacity=".1"/><circle cx="255" cy="192" r="15" fill="#00B0E2" fill-opacity=".1"/><rect x="257.5" y="170.5" width="21" height="21" rx="10.5" stroke="#4485FF" stroke-opacity=".1" stroke-width="3"/></g><defs><clipPath id="clip0_397_670"><path fill="#fff" d="M0 0h1200v242H0z"/></clipPath></defs></svg>