<svg width="20" height="20" viewBox="0 0 20 20" fill="none" xmlns="http://www.w3.org/2000/svg">
<path fill-rule="evenodd" clip-rule="evenodd" d="M1.28246 5.97394C1.82505 4.09526 2.8835 2.59411 4.44287 1.49881C4.82374 1.23129 5.35306 1.31801 5.62513 1.69251C5.89721 2.06701 5.80901 2.58747 5.42814 2.855C4.18518 3.72805 3.35178 4.91002 2.913 6.42924C2.78513 6.87197 2.31647 7.12896 1.8662 7.00323C1.41594 6.8775 1.15459 6.41667 1.28246 5.97394ZM18.7175 5.97394C18.175 4.09526 17.1165 2.59411 15.5571 1.49881C15.1763 1.23129 14.6469 1.31801 14.3749 1.69251C14.1028 2.06701 14.191 2.58747 14.5719 2.855C15.8148 3.72805 16.6482 4.91002 17.087 6.42924C17.2149 6.87197 17.6835 7.12896 18.1338 7.00323C18.5841 6.8775 18.8454 6.41667 18.7175 5.97394Z" fill="#333333"/>
<path fill-rule="evenodd" clip-rule="evenodd" d="M11.6873 2.91667C11.6873 2.997 11.6816 3.076 11.6706 3.1533C14.0888 3.86507 15.854 6.10139 15.854 8.75V13.75H16.6667C17.1269 13.75 17.5 14.1231 17.5 14.5833C17.5 15.0436 17.1269 15.4167 16.6667 15.4167H15.854H4.1873H3.33333C2.8731 15.4167 2.5 15.0436 2.5 14.5833C2.5 14.1231 2.8731 13.75 3.33333 13.75H4.1873V8.75L4.19069 8.54946C4.27719 5.98903 6.01378 3.84703 8.37064 3.1533C8.35965 3.076 8.35397 2.997 8.35397 2.91667C8.35397 1.99619 9.10016 1.25 10.0206 1.25C10.9411 1.25 11.6873 1.99619 11.6873 2.91667ZM5.85712 8.57757C5.93205 6.36666 7.77298 4.58333 10.0206 4.58333C12.3218 4.58333 14.1873 6.44881 14.1873 8.75V13.75H5.85397V8.75L5.85712 8.57757ZM10.0206 18.75C8.63993 18.75 7.52064 17.6307 7.52064 16.25H12.5206C12.5206 17.6307 11.4014 18.75 10.0206 18.75Z" fill="#333333"/>
</svg>
