<svg width="20" height="20" viewBox="0 0 20 20" fill="none" xmlns="http://www.w3.org/2000/svg">
<path fill-rule="evenodd" clip-rule="evenodd" d="M15.825 6.66669C15.825 5.28335 14.7166 4.16669 13.3333 4.16669C11.95 4.16669 10.8333 5.28335 10.8333 6.66669C10.8333 8.05002 11.95 9.16669 13.3333 9.16669C14.7166 9.16669 15.825 8.05002 15.825 6.66669ZM9.15829 6.66669C9.15829 5.28335 8.04996 4.16669 6.66663 4.16669C5.28329 4.16669 4.16663 5.28335 4.16663 6.66669C4.16663 8.05002 5.28329 9.16669 6.66663 9.16669C8.04996 9.16669 9.15829 8.05002 9.15829 6.66669ZM1.66663 13.75V15.8334H11.6666V13.75C11.6666 11.8084 8.60829 10.8334 6.66663 10.8334C4.72496 10.8334 1.66663 11.8084 1.66663 13.75ZM11.6916 10.875C12.6583 11.575 13.3333 12.5167 13.3333 13.75V15.8334H18.3333V13.75C18.3333 11.8084 15.275 10.8334 13.3333 10.8334C13.0916 10.8334 11.9833 10.85 11.6916 10.875Z" fill="#333333"/>
</svg>
