<svg id="visual" viewBox="0 0 900 600" width="900" height="600" xmlns="http://www.w3.org/2000/svg" xmlns:xlink="http://www.w3.org/1999/xlink" version="1.1"><rect x="0" y="0" width="900" height="600" fill="#1e4564"></rect><path d="M0 423L21.5 430.8C43 438.7 86 454.3 128.8 469.5C171.7 484.7 214.3 499.3 257.2 493C300 486.7 343 459.3 385.8 450.7C428.7 442 471.3 452 514.2 442.8C557 433.7 600 405.3 642.8 409.2C685.7 413 728.3 449 771.2 454C814 459 857 433 878.5 420L900 407L900 601L878.5 601C857 601 814 601 771.2 601C728.3 601 685.7 601 642.8 601C600 601 557 601 514.2 601C471.3 601 428.7 601 385.8 601C343 601 300 601 257.2 601C214.3 601 171.7 601 128.8 601C86 601 43 601 21.5 601L0 601Z" fill="#4682B4" stroke-linecap="round" stroke-linejoin="miter"></path></svg>