<svg width="24" height="24" viewBox="0 0 24 24" fill="none" xmlns="http://www.w3.org/2000/svg">
<path d="M12 2C17.5228 2 22 6.47715 22 12C22 14.9798 20.6966 17.6553 18.6289 19.4873L17.3369 18.2021C18.6399 17.0799 19.5847 15.5537 19.9785 13.8184H17.9092V12H20.1816C20.1816 10.3015 19.6633 8.72457 18.7773 7.41699L17.1426 9.05176L15.8564 7.7666L17.5918 6.03027C16.3367 4.85413 14.7119 4.06845 12.9092 3.86914V6.5459H11.0908V3.86914C9.28787 4.06848 7.66242 4.85386 6.40723 6.03027L8.14258 7.7666L6.85742 9.05176L5.22168 7.41699C4.33593 8.72449 3.81836 10.3017 3.81836 12H6.09082V13.8184H4.02148C4.41864 15.5684 5.37622 17.1057 6.69629 18.2305L5.40723 19.5195C3.31845 17.6867 2 14.9973 2 12C2 6.47715 6.47715 2 12 2ZM14.1787 9.44434C14.5398 9.08329 15.135 9.08339 15.4961 9.44434C15.8448 9.79305 15.8447 10.3495 15.4961 10.6982L13.7539 12.4395C13.794 12.5895 13.8184 12.7465 13.8184 12.9092C13.8183 13.9133 13.0041 14.7275 12 14.7275C10.9959 14.7275 10.1817 13.9133 10.1816 12.9092C10.1816 11.905 10.9958 11.0908 12 11.0908C12.1622 11.0908 12.3191 11.1135 12.4688 11.1533L14.1787 9.44434Z" fill="#B443DD"/>
</svg>
