<svg width="40" height="40" viewBox="0 0 40 40" fill="none" xmlns="http://www.w3.org/2000/svg">
<circle cx="20" cy="20" r="20" fill="white"/>
<path fill-rule="evenodd" clip-rule="evenodd" d="M25.2438 5.15374C24.7745 5.43138 23.9944 6.21564 23.063 7.35317L23.9187 8.96829C24.5196 8.10945 25.1298 7.33659 25.7452 6.67666C25.7929 6.62382 25.8177 6.59896 25.8177 6.59896C25.7939 6.62486 25.7701 6.65076 25.7452 6.67666C25.5463 6.89629 24.9423 7.60077 24.0306 9.00144C24.9081 8.95793 26.257 8.77767 27.3572 8.59015C27.6846 6.75643 27.0361 5.91727 27.0361 5.91727C27.0361 5.91727 26.2104 4.5829 25.2438 5.15374Z" fill="url(#paint0_linear_13729_41077)"/>
<path fill-rule="evenodd" clip-rule="evenodd" d="M21.3953 13.1397C21.6553 12.6538 21.9185 12.1783 22.1847 11.7162C22.4613 11.2355 22.7411 10.7704 23.0229 10.3207C23.0394 10.2938 23.056 10.2669 23.0726 10.241C23.3523 9.7986 23.6341 9.37384 23.918 8.96772L23.0622 7.35156C22.998 7.4303 22.9327 7.51007 22.8675 7.59191C22.6209 7.89961 22.364 8.23009 22.1019 8.5813C21.8056 8.97705 21.501 9.3987 21.1922 9.84211C20.9063 10.2513 20.6173 10.6802 20.3272 11.1236C20.0806 11.5018 19.833 11.8903 19.5875 12.2891C19.5782 12.3036 19.5688 12.3192 19.5605 12.3337L20.6742 14.5331C20.9105 14.0607 21.1518 13.5955 21.3953 13.1397Z" fill="url(#paint1_linear_13729_41077)"/>
<path fill-rule="evenodd" clip-rule="evenodd" d="M16.3226 25.5348C16.1755 25.9398 16.0274 26.3522 15.8782 26.7738C15.8761 26.78 15.8741 26.7862 15.872 26.7925C15.8513 26.8515 15.8295 26.9116 15.8088 26.9707C15.7083 27.2545 15.6223 27.5104 15.4224 28.0916C15.7508 28.2418 16.0139 28.6355 16.2626 29.082C16.2356 28.6189 16.045 28.1849 15.6803 27.8482C17.2975 27.9207 18.6909 27.5125 19.411 26.3294C19.4752 26.2237 19.5343 26.1128 19.5871 25.9958C19.2597 26.4112 18.8536 26.5873 18.0901 26.5449C18.088 26.5459 18.087 26.5459 18.0849 26.5469C18.087 26.5459 18.088 26.5459 18.0901 26.5449C19.2152 26.0414 19.7798 25.5576 20.2781 24.7567C20.3962 24.5671 20.5112 24.3589 20.6283 24.1289C19.6451 25.139 18.5045 25.427 17.3037 25.2084L16.4035 25.3068C16.3786 25.3825 16.3506 25.4581 16.3226 25.5348Z" fill="url(#paint2_linear_13729_41077)"/>
<path fill-rule="evenodd" clip-rule="evenodd" d="M16.7433 23.5157C16.9381 23.0132 17.138 22.5035 17.3442 21.9907C17.541 21.4996 17.743 21.0044 17.9502 20.5071C18.1574 20.0098 18.3688 19.5115 18.5843 19.0132C18.8039 18.5056 19.0287 18 19.2566 17.4955C19.4825 16.9971 19.7125 16.5019 19.9466 16.0109C20.0305 15.8337 20.1155 15.6576 20.2015 15.4825C20.3486 15.179 20.4978 14.8775 20.648 14.5791C20.6563 14.5625 20.6645 14.547 20.6728 14.5315L19.5591 12.332C19.5405 12.3621 19.5229 12.3921 19.5042 12.4211C19.2442 12.8449 18.9862 13.2779 18.7334 13.7203C18.4776 14.1668 18.2258 14.6226 17.9803 15.0847C17.7731 15.4742 17.57 15.8679 17.3732 16.2647C17.3338 16.3455 17.2944 16.4253 17.2561 16.505C17.0137 17.0044 16.794 17.4872 16.5962 17.9503C16.3714 18.4755 16.1745 18.978 16.0005 19.4535C15.8865 19.7664 15.7829 20.0689 15.6886 20.359C15.6109 20.6076 15.5363 20.8552 15.4659 21.1028C15.3001 21.6861 15.1561 22.2673 15.0391 22.8464L16.1569 25.0572C16.3051 24.6625 16.4563 24.2616 16.6127 23.8555C16.6552 23.7425 16.6998 23.6296 16.7433 23.5157Z" fill="url(#paint3_linear_13729_41077)"/>
<path fill-rule="evenodd" clip-rule="evenodd" d="M15.0227 22.9264C14.8818 23.6329 14.7823 24.3374 14.7326 25.0378C14.7305 25.0626 14.7284 25.0865 14.7274 25.1113C14.3783 24.5519 13.4428 24.0049 13.4448 24.0111C14.1141 24.9818 14.6228 25.9453 14.6974 26.8912C14.3389 26.9647 13.8478 26.858 13.2801 26.6498C13.8717 27.1937 14.3161 27.3439 14.4891 27.3843C13.9452 27.4185 13.3796 27.7915 12.8098 28.2214C13.6437 27.8816 14.3171 27.7469 14.7999 27.8557C14.0343 30.0209 13.2677 32.412 12.5 34.9502C12.7352 34.8808 12.875 34.7233 12.9548 34.5089C13.0916 34.0489 13.9991 31.0321 15.4205 27.0683C15.4609 26.9554 15.5013 26.8425 15.5427 26.7275C15.5541 26.6964 15.5655 26.6643 15.5769 26.6322C15.7271 26.2167 15.8825 25.792 16.0442 25.3589C16.0804 25.2605 16.1177 25.1621 16.155 25.0626C16.156 25.0606 16.156 25.0585 16.1571 25.0564L15.0392 22.8477C15.0341 22.8746 15.0278 22.9005 15.0227 22.9264Z" fill="url(#paint4_linear_13729_41077)"/>
<path fill-rule="evenodd" clip-rule="evenodd" d="M20.846 14.7172C20.8139 14.7825 20.7818 14.8488 20.7497 14.9151C20.6533 15.114 20.5549 15.317 20.4565 15.5242C20.3498 15.749 20.242 15.979 20.1322 16.2132C20.0773 16.3313 20.0224 16.4504 19.9664 16.5716C19.7996 16.9342 19.6308 17.3082 19.4598 17.6936C19.2495 18.1681 19.0351 18.6612 18.8175 19.173C18.6103 19.661 18.4 20.1665 18.1866 20.6887C17.9846 21.1849 17.7794 21.6967 17.5722 22.2251C17.3878 22.6954 17.2003 23.1792 17.0128 23.6765C17.0035 23.7003 16.9942 23.7252 16.9859 23.749C16.7994 24.2422 16.6108 24.7498 16.4202 25.2699C16.4161 25.2813 16.4119 25.2937 16.4067 25.3051L17.307 25.2067C17.2894 25.2036 17.2708 25.2015 17.2532 25.1974C18.3296 25.0627 19.7613 24.2588 20.6865 23.2652C21.1123 22.8073 21.4997 22.2676 21.8571 21.6356C22.1234 21.1653 22.3731 20.6431 22.6113 20.0661C22.8196 19.5615 23.0195 19.0156 23.2122 18.423C22.9646 18.5535 22.6818 18.6488 22.3689 18.7151C22.314 18.7265 22.2581 18.7379 22.2021 18.7472C22.1451 18.7576 22.0882 18.7659 22.0302 18.7742V18.7742V18.7742C22.0312 18.7742 22.0312 18.7731 22.0322 18.7731C23.0361 18.3867 23.6691 17.6418 24.1291 16.7281C23.8649 16.9083 23.436 17.1435 22.9211 17.2575C22.8517 17.273 22.7792 17.2854 22.7067 17.2958C22.689 17.2989 22.6704 17.302 22.6528 17.3041V17.3041V17.3041C22.6538 17.3041 22.6538 17.3041 22.6538 17.303H22.6549V17.303C23.003 17.157 23.2972 16.9943 23.552 16.8016C23.6069 16.7602 23.6598 16.7177 23.7105 16.6742C23.7882 16.6068 23.8628 16.5364 23.9333 16.4618C23.9789 16.4142 24.0224 16.3655 24.0649 16.3147C24.1643 16.1956 24.2586 16.0671 24.3456 15.9283C24.3726 15.8858 24.3985 15.8423 24.4244 15.7977C24.4575 15.7335 24.4896 15.6703 24.5207 15.6081C24.6606 15.3264 24.7735 15.0746 24.8626 14.8539C24.9071 14.7441 24.9465 14.6416 24.9796 14.5462C24.9931 14.5079 25.0055 14.4717 25.018 14.4364C25.0532 14.3308 25.0822 14.2365 25.105 14.1536C25.1392 14.0293 25.1599 13.9309 25.1713 13.8594V13.8594V13.8594C25.1371 13.8863 25.0978 13.9132 25.0542 13.9391C24.7507 14.1204 24.2306 14.2852 23.8121 14.3618L24.6388 14.2707L23.8121 14.3618C23.8059 14.3629 23.7996 14.3639 23.7934 14.3649C23.752 14.3722 23.7095 14.3784 23.667 14.3857C23.6743 14.3826 23.6815 14.3784 23.6888 14.3753L20.8605 14.6851C20.8564 14.6965 20.8512 14.7068 20.846 14.7172Z" fill="url(#paint5_linear_13729_41077)"/>
<path fill-rule="evenodd" clip-rule="evenodd" d="M24.0295 9.00114C23.7777 9.38756 23.5032 9.82579 23.2069 10.322C23.1914 10.3479 23.1758 10.3749 23.1603 10.4008C22.9054 10.8307 22.634 11.3031 22.3491 11.8201C22.1025 12.2666 21.8466 12.7452 21.5793 13.2601C21.3473 13.7087 21.1069 14.1842 20.8604 14.6877L23.6886 14.378C24.5123 13.9988 24.8811 13.6559 25.2385 13.1596C25.3338 13.0229 25.4291 12.8799 25.5234 12.7318C25.8135 12.278 26.0994 11.7787 26.3532 11.2824C26.5988 10.8027 26.8163 10.3272 26.9821 9.89935C27.0878 9.62688 27.1727 9.37306 27.2318 9.15032C27.2836 8.95348 27.324 8.76804 27.355 8.58984C26.2569 8.77736 24.907 8.95762 24.0295 9.00114Z" fill="url(#paint6_linear_13729_41077)"/>
<defs>
<linearGradient id="paint0_linear_13729_41077" x1="24.746" y1="10.4023" x2="30.905" y2="8.33229" gradientUnits="userSpaceOnUse">
<stop stop-color="#F69923"/>
<stop offset="0.3123" stop-color="#F79A23"/>
<stop offset="0.8383" stop-color="#E97826"/>
</linearGradient>
<linearGradient id="paint1_linear_13729_41077" x1="18.3623" y1="46.1924" x2="39.516" y2="29.4912" gradientUnits="userSpaceOnUse">
<stop offset="0.3233" stop-color="#9E2064"/>
<stop offset="0.6302" stop-color="#C92037"/>
<stop offset="0.7514" stop-color="#CD2335"/>
<stop offset="1" stop-color="#E97826"/>
</linearGradient>
<linearGradient id="paint2_linear_13729_41077" x1="22.9112" y1="37.2792" x2="29.8982" y2="20.7265" gradientUnits="userSpaceOnUse">
<stop stop-color="#282662"/>
<stop offset="0.0954839" stop-color="#662E8D"/>
<stop offset="0.7882" stop-color="#9F2064"/>
<stop offset="0.9487" stop-color="#CD2032"/>
</linearGradient>
<linearGradient id="paint3_linear_13729_41077" x1="16.5806" y1="48.43" x2="37.1849" y2="39.769" gradientUnits="userSpaceOnUse">
<stop offset="0.3233" stop-color="#9E2064"/>
<stop offset="0.6302" stop-color="#C92037"/>
<stop offset="0.7514" stop-color="#CD2335"/>
<stop offset="1" stop-color="#E97826"/>
</linearGradient>
<linearGradient id="paint4_linear_13729_41077" x1="13.9988" y1="43.296" x2="23.1622" y2="41.5017" gradientUnits="userSpaceOnUse">
<stop stop-color="#282662"/>
<stop offset="0.0954839" stop-color="#662E8D"/>
<stop offset="0.7882" stop-color="#9F2064"/>
<stop offset="0.9487" stop-color="#CD2032"/>
</linearGradient>
<linearGradient id="paint5_linear_13729_41077" x1="23.8273" y1="43.6754" x2="42.0878" y2="20.7124" gradientUnits="userSpaceOnUse">
<stop offset="0.3233" stop-color="#9E2064"/>
<stop offset="0.6302" stop-color="#C92037"/>
<stop offset="0.7514" stop-color="#CD2335"/>
<stop offset="1" stop-color="#E97826"/>
</linearGradient>
<linearGradient id="paint6_linear_13729_41077" x1="26.9881" y1="42.968" x2="38.4466" y2="15.0923" gradientUnits="userSpaceOnUse">
<stop offset="0.3233" stop-color="#9E2064"/>
<stop offset="0.6302" stop-color="#C92037"/>
<stop offset="0.7514" stop-color="#CD2335"/>
<stop offset="1" stop-color="#E97826"/>
</linearGradient>
</defs>
</svg>
