<svg width="52" height="52" viewBox="0 0 52 52" fill="none" xmlns="http://www.w3.org/2000/svg">
<path fill-rule="evenodd" clip-rule="evenodd" d="M35.0806 22.3169C35.1644 23.5148 35.2081 24.7452 35.2081 26C35.2081 27.2549 35.1644 28.4855 35.0805 29.6836H44.0479C44.2898 28.4933 44.4168 27.2615 44.4168 26.0002C44.4168 24.7389 44.2898 23.5071 44.0479 22.3169H35.0806ZM31.3827 22.3169C31.4746 23.5032 31.5247 24.7344 31.5247 26C31.5247 27.2658 31.4746 28.4971 31.3826 29.6836H20.6165C20.5248 28.4971 20.4747 27.2658 20.4747 26C20.4747 24.7344 20.5248 23.5032 20.6165 22.3169H31.3827ZM34.6834 18.6336H42.8823C40.7742 13.8143 36.6608 10.069 31.5945 8.45281C32.9979 11.0334 34.0827 14.5599 34.6834 18.6336ZM26.0109 7.58358C27.6315 7.62075 29.8966 12.0884 30.9472 18.6336H21.051C22.0994 12.0874 24.3591 7.61915 25.9712 7.58356C25.9747 7.58356 25.9782 7.58356 25.9817 7.58356C25.9915 7.58356 26.0012 7.58356 26.0109 7.58358ZM17.3149 18.6336C17.9148 14.5562 18.9987 11.0272 20.4011 8.44592C15.3346 10.0583 11.2213 13.8074 9.11464 18.6336H17.3149ZM16.9186 22.3169C16.835 23.5148 16.7914 24.7452 16.7914 26C16.7914 27.2549 16.835 28.4855 16.9187 29.6836H7.95163C7.71022 28.4933 7.5835 27.2615 7.5835 26.0002C7.5835 24.7389 7.71022 23.5071 7.95163 22.3169H16.9186ZM17.315 33.3669H9.11464C11.2213 38.1931 15.3348 41.9423 20.4013 43.5546C18.9989 40.9734 17.915 37.4443 17.315 33.3669ZM31.5942 43.5477C36.6607 41.9316 40.7741 38.1862 42.8823 33.3669H34.6833C34.0826 37.4407 32.9977 40.9671 31.5942 43.5477ZM30.9472 33.3669H21.0511C22.1037 39.9391 24.3773 44.4167 25.9905 44.4167C27.6125 44.4167 29.8921 39.9392 30.9472 33.3669Z" fill="#45B96E"/>
</svg>
