<svg width="52" height="52" viewBox="0 0 52 52" fill="none" xmlns="http://www.w3.org/2000/svg">
<path fill-rule="evenodd" clip-rule="evenodd" d="M25.3459 47.8174C24.777 47.8174 24.21 47.6681 23.7124 47.3792L18.5109 44.2939C17.7345 43.8585 18.1139 43.704 18.3697 43.6145C19.4062 43.2541 19.6156 43.1708 20.7215 42.5422C20.8365 42.4773 20.9894 42.5015 21.1083 42.5719L25.1041 44.9503C25.2488 45.0305 25.4531 45.0305 25.5865 44.9503L41.165 35.9359C41.3097 35.853 41.4033 35.6857 41.4033 35.5133V17.4903C41.4033 17.3139 41.3097 17.149 41.1611 17.0594L25.5892 8.05321C25.4453 7.96877 25.2543 7.96877 25.1092 8.05321L9.54122 17.0622C9.38992 17.149 9.29399 17.3186 9.29399 17.4903V35.5133C9.29399 35.6857 9.38992 35.8491 9.53966 35.9308L13.8073 38.4026C16.1228 39.5633 17.5403 38.1966 17.5403 36.8229V19.0278C17.5403 18.7768 17.7423 18.5782 17.9934 18.5782H19.9685C20.2157 18.5782 20.4201 18.7768 20.4201 19.0278V36.8229C20.4201 39.921 18.737 41.6978 15.8073 41.6978C14.9069 41.6978 14.198 41.6978 12.219 40.7201L8.13389 38.3624C7.1247 37.7775 6.5 36.6841 6.5 35.5133V17.4903C6.5 16.319 7.1247 15.226 8.13389 14.6439L23.7124 5.61928C24.6978 5.06025 26.0084 5.06025 26.986 5.61928L42.5634 14.6439C43.5722 15.2287 44.2 16.319 44.2 17.4903V35.5133C44.2 36.6841 43.5722 37.7736 42.5634 38.3624L26.986 47.3792C26.4881 47.6681 25.923 47.8174 25.3459 47.8174ZM30.1579 35.4007C23.3411 35.4007 21.9128 32.2639 21.9128 29.6326C21.9128 29.382 22.1136 29.1826 22.3632 29.1826H24.3772C24.6022 29.1826 24.7898 29.3448 24.8249 29.5649C25.1287 31.6204 26.0353 32.658 30.1579 32.658C33.4401 32.658 34.8369 31.9136 34.8369 30.1681C34.8369 29.1619 34.4407 28.4148 29.3405 27.9144C25.0784 27.4918 22.4419 26.5473 22.4419 23.1287C22.4419 19.9778 25.0912 18.0986 29.5332 18.0986C34.5238 18.0986 36.9933 19.8351 37.3064 23.5606C37.3177 23.6893 37.2725 23.8124 37.1871 23.9086C37.1021 23.9977 36.9832 24.0524 36.8576 24.0524H34.8357C34.6259 24.0524 34.4407 23.9031 34.3982 23.6994C33.9135 21.5364 32.7335 20.8452 29.5332 20.8452C25.9499 20.8452 25.5334 22.097 25.5334 23.0341C25.5334 24.1701 26.0252 24.5008 30.8633 25.1431C35.6507 25.7772 37.9245 26.676 37.9245 30.0489C37.9245 33.4519 35.0943 35.4007 30.1579 35.4007Z" fill="#3F873F"/>
</svg>
