<svg width="52" height="52" viewBox="0 0 52 52" fill="none" xmlns="http://www.w3.org/2000/svg">
<path d="M45.4219 13.2344L27.5599 2.86044L8.05994 13.7804V35.6204L27.5599 46.5404L46.2799 35.6204V13.7804V12.8444L45.4219 13.2344Z" fill="#202A5A"/>
<path d="M8.05994 13.7804L27.5599 24.7004L46.2799 13.7804L27.5599 2.86044L8.05994 13.7804Z" fill="#2C448A"/>
<path d="M46.2801 12.844L40.0401 16.12L39.9621 17.524L27.5601 24.7V46.54L46.2801 35.62V12.844Z" fill="#283A79"/>
<path d="M8.05994 13.7799V35.6199L27.5599 46.5399V24.6999L8.05994 13.7799Z" fill="#202A5A"/>
<path d="M6.5 35.6198V28.5998L27.56 41.0798V48.0998L6.5 35.6198Z" fill="#3558A7"/>
<path d="M6.5 13.7799V17.6799L27.56 30.1599V26.2599L6.5 13.7799Z" fill="#3558A7"/>
<path d="M47.8401 35.6202V31.7202L30.7581 24.3102L27.5601 26.2602V30.0822L37.9341 34.6842L27.5601 41.0802V48.1002L47.8401 35.6202Z" fill="#416FB5"/>
<path d="M37.934 34.6835L36.686 34.2155L27.56 39.5195L8.06 28.5995V27.6635L6.5 28.5995L27.56 41.0795L37.934 34.6835Z" fill="#477FC1"/>
<path d="M15.704 15.34L27.56 8.31999L40.04 16.12L46.28 12.844L27.56 1.29999L6.5 13.78L27.56 26.26L30.758 24.31L15.704 15.34Z" fill="#477FC1"/>
<path d="M39.962 17.5237L40.04 16.1197L27.56 8.31967L15.704 15.3397L17.03 16.1197L27.56 9.87967L39.962 17.5237Z" fill="#202A5A"/>
</svg>
