<svg width="52" height="52" viewBox="0 0 52 52" fill="none" xmlns="http://www.w3.org/2000/svg">
<path d="M9.62 39V13L13.52 13.9177V38.084L9.62 39Z" fill="#F68536"/>
<path fill-rule="evenodd" clip-rule="evenodd" d="M26.0001 46.8L43.9522 38.1842V13.8158L26.0001 5.20001V46.8ZM25.8501 41.2261L19.1361 43.5846V8.42281L25.8501 10.7802V41.2261ZM19.079 39.6447L13.8451 41.0724V10.935L19.079 12.3609V39.6447Z" fill="#F68536"/>
<path fill-rule="evenodd" clip-rule="evenodd" d="M26 46.8V5.20001L22.3702 6.91773V45.0828L26 46.8ZM19.1897 43.5777V8.42227L16.3798 9.75171V42.2483L19.1897 43.5777ZM13.8807 10.9345V41.0656L11.6424 40.0058V11.9935L13.8807 10.9345ZM7.80005 38.1893V13.8112L9.62565 12.9475V39.0526L7.80005 38.1893Z" fill="#9D5025"/>
</svg>
