<svg width="52" height="52" viewBox="0 0 52 52" fill="none" xmlns="http://www.w3.org/2000/svg">
<path d="M43.9696 20.6124H39.01V25.5721H43.9696V20.6124Z" fill="#EAC82D"/>
<path d="M44.073 30.8622C44.073 30.8622 44.073 30.9449 44.073 30.9862V31.5648C44.073 35.1605 41.1592 38.095 37.5428 38.095H13.7779C10.1822 38.095 7.24777 35.1812 7.24777 31.5648V30.9862C7.24777 28.8783 8.1777 26.9565 9.70692 25.6753C10.9675 24.6007 12.6207 24.1047 14.2739 24.1047H15.6791V20.757C15.8444 15.384 20.1221 11.2717 25.495 11.1684C30.93 11.0857 35.3523 15.2394 35.6416 20.633H38.9894C38.7 13.5035 32.8518 7.82062 25.6604 7.82062C18.4276 7.82062 12.538 13.5655 12.3107 20.757C7.51642 21.6869 3.90002 25.9026 3.90002 30.9862V31.5648C3.90002 37.0204 8.32235 41.4427 13.7779 41.4427H37.5428C42.9984 41.4427 47.4207 37.0204 47.4207 31.5648V30.9862C47.4207 30.9862 47.4207 30.9035 47.4207 30.8622H44.073Z" fill="#1B2B55"/>
</svg>
