<svg width="53" height="53" viewBox="0 0 53 53" fill="none" xmlns="http://www.w3.org/2000/svg">
<path d="M26.8076 41.4943L26.0728 41.2186C26.0728 41.2186 26.1625 37.1042 24.8185 36.8089C23.9224 35.6672 24.9618 -11.6188 28.1875 36.6515C28.1875 36.6515 27.0765 37.2617 26.8793 38.3051C26.6642 39.3288 26.8076 41.4943 26.8076 41.4943V41.4943V41.4943Z" fill="white"/>
<path d="M26.9604 47.2685L25.9808 46.8861C25.9808 46.8861 26.1004 41.1793 24.3083 40.7698C23.1136 39.1861 24.4994 -26.4015 28.8004 40.5513C28.8004 40.5513 27.319 41.3977 27.0561 42.845C26.7693 44.2649 26.9604 47.2685 26.9604 47.2685V47.2685V47.2685Z" fill="#A6A385"/>
<path d="M27.0572 36.6742C27.0572 36.6742 34.5847 32.1973 32.8233 22.883C31.125 16.1109 27.12 13.8915 26.6797 13.0378C26.1975 12.4308 25.7361 11.3685 25.7361 11.3685L26.0508 30.2054C26.0508 30.2243 25.4006 35.9722 27.0572 36.6742" fill="white"/>
<path d="M35.7739 21.6568C33.3523 12.0896 29.1356 10.5742 28.5079 9.3681C27.8203 8.51058 27.0342 6.81998 27.0342 6.81998V33.4016C27.0342 33.4284 25.1902 40.1483 27.5522 41.14C27.5522 41.14 38.2853 34.8153 35.7739 21.6568Z" fill="#499D4A"/>
<path d="M26.1238 37.8792C26.1238 37.8792 19.215 33.3658 19.6251 25.4186C20.0145 17.4713 24.8937 13.5664 25.8367 12.8599C26.4518 12.232 26.4723 11.9964 26.5134 11.3685C26.9438 12.2516 26.8619 24.5748 26.9233 26.0269C27.1078 31.6194 26.5953 36.8196 26.1238 37.8792V37.8792V37.8792Z" fill="white"/>
<path d="M17.7924 25.0824C18.3115 14.059 24.8172 8.64275 26.0745 7.66283C26.8946 6.7919 26.922 6.46518 26.9767 5.59425C27.5506 6.81915 27.4414 23.912 27.5233 25.9261C27.7693 33.6832 27.0859 40.8961 26.4573 42.3657C26.4573 42.3657 17.2456 36.1055 17.7924 25.0824Z" fill="#58AA50"/>
</svg>
