<svg width="52" height="52" viewBox="0 0 52 52" fill="none" xmlns="http://www.w3.org/2000/svg">
<path d="M7.42698 42.738L16.2054 26.565L7.42698 9.09476L5.19995 10.1975V41.6353L7.42698 42.738ZM28.7459 17.2029L14.1945 14.7596L17.481 10.1326L32.1837 16.6623L28.7459 17.2029ZM28.9189 34.565L11.6648 37.3975L15.2756 42.3704L32.1837 35.0623L28.9189 34.565Z" fill="#9D5125"/>
<path d="M12.6162 10.2839V41.5272L7.427 42.738V9.09476L12.6162 10.2839Z" fill="#F58534"/>
<path d="M12.6162 45.3324L9.89185 43.9703V7.86216L12.6162 6.5L17.7405 28.1L12.6162 45.3324ZM32.1837 16.6622L28.7243 17.2027V34.5216L32.1837 35.0622L35.3405 26.2622L32.1837 16.6622Z" fill="#9D5125"/>
<path d="M17.9134 8.01351V43.8405L12.6161 45.3324V6.5L17.9134 8.01351Z" fill="#F58534"/>
<path d="M35.7945 38.7811V34.3919L12.6161 38.6946V45.3324L35.7945 38.7811ZM35.8377 13.0946V17.3541L12.6161 12.9432V6.5L35.8377 13.0946Z" fill="#F58534"/>
<path d="M32.1837 39.7976V12.0571L35.9026 13.0733V38.7814L32.1837 39.7976Z" fill="#F58534"/>
<path d="M43.3837 14.6299L46.7999 22.5218L36.8323 22.9975L33.308 22.7596L43.3837 14.6299Z" fill="#6B3B19"/>
<path d="M33.308 16.2732V22.7596L43.3837 22.1759V14.6299L33.308 16.2732Z" fill="#9D5125"/>
<path d="M28.6378 22.4348L23.8162 22.1105L34.0432 11.8186L39.2324 21.7645L28.6378 22.4348Z" fill="#6B3B19"/>
<path d="M23.8162 14.197V22.1105L34.0432 21.2456V11.8186L23.8162 14.197ZM33.3081 35.7105V29.224L46.7999 29.4402L43.3837 37.3321L33.3081 35.7105Z" fill="#9D5125"/>
<path d="M23.8162 37.7649V29.8514L39.2324 30.1974L34.0432 40.1433L23.8162 37.7649Z" fill="#9D5125"/>
<path d="M28.6378 29.5271L23.8162 29.8515L34.0432 30.7163L39.2324 30.1974L28.6378 29.5271ZM43.3837 29.7866L46.7999 29.4407L36.8324 28.9866L33.3081 29.2244L43.3837 29.7866Z" fill="#FCBF92"/>
<path d="M43.3836 14.6294V22.1754L46.7998 22.5213V15.6456L43.3836 14.6294ZM39.2323 13.3754V21.7645L34.0431 21.2456V11.8186L39.2323 13.3754ZM43.3836 37.3321V29.7862L46.7998 29.4402V36.3159L43.3836 37.3321ZM39.2323 38.5862V30.197L34.0431 30.7159V40.1429L39.2323 38.5862Z" fill="#F58534"/>
</svg>
