<svg width="52" height="52" viewBox="0 0 52 52" fill="none" xmlns="http://www.w3.org/2000/svg">
<path fill-rule="evenodd" clip-rule="evenodd" d="M47.6063 29.3366H39.7154C37.3796 29.3366 35.0439 29.3338 32.7081 29.3394C32.4723 29.3423 32.3615 29.3139 32.3615 29.0269C32.37 24.0741 32.3671 19.1213 32.37 14.1684C32.37 14.1343 32.3728 14.1002 32.37 14.1628C37.4251 19.1951 42.52 24.273 47.6063 29.3366Z" fill="#F39D18"/>
<path fill-rule="evenodd" clip-rule="evenodd" d="M38.8416 30.5506C33.6955 35.6795 28.6035 40.7574 23.5086 45.8381C23.4233 45.7812 23.4716 45.6846 23.4716 45.6051C23.4688 40.6835 23.4688 35.7619 23.4631 30.8432C23.4631 30.6358 23.4745 30.5335 23.7359 30.5335C28.6972 30.542 33.6586 30.5392 38.6199 30.5392C38.6711 30.5392 38.7222 30.5449 38.8416 30.5506Z" fill="#38AD37"/>
<path fill-rule="evenodd" clip-rule="evenodd" d="M23.47 17.8386C23.47 16.6395 23.4757 15.4403 23.4672 14.2384C23.4643 14.0281 23.5126 13.9542 23.7371 13.957C26.1183 13.9656 28.4995 13.9627 30.8779 13.957C31.091 13.957 31.1592 14.0082 31.1592 14.2327C31.1507 16.6224 31.1507 19.0093 31.1592 21.3962C31.1592 21.5951 31.1109 21.6633 30.9006 21.6633C28.5081 21.6548 26.1183 21.6548 23.7286 21.6633C23.4814 21.6662 23.4672 21.5639 23.4672 21.3706C23.4728 20.1942 23.47 19.015 23.47 17.8386Z" fill="#E84619"/>
<path fill-rule="evenodd" clip-rule="evenodd" d="M22.2279 29.2506C22.1142 29.2364 22.0687 29.1511 22.0091 29.0915C19.5938 26.6818 17.1841 24.2665 14.766 21.8569C14.6125 21.7035 14.5756 21.621 14.7518 21.4449C17.1898 19.0267 19.6165 16.5972 22.046 14.1705C22.0943 14.1251 22.1426 14.0796 22.2279 14.0029V29.2506Z" fill="#AB2989"/>
<mask id="mask0_2361_3610" style="mask-type:luminance" maskUnits="userSpaceOnUse" x="5" y="21" width="16" height="9">
<path fill-rule="evenodd" clip-rule="evenodd" d="M5.19995 21.6555H20.4815V29.344H5.19995V21.6555Z" fill="white"/>
</mask>
<g mask="url(#mask0_2361_3610)">
<path fill-rule="evenodd" clip-rule="evenodd" d="M5.19971 21.6555C7.75141 21.6555 10.2236 21.6555 12.69 21.6555C12.8065 21.6555 12.9003 21.6782 12.9884 21.7663C15.4776 24.2612 17.9696 26.7504 20.4616 29.2424C20.473 29.2566 20.473 29.2822 20.4815 29.305C20.4048 29.3675 20.3139 29.3362 20.2315 29.3362C17.873 29.3362 15.5145 29.3362 13.156 29.3391C12.9855 29.3391 12.8463 29.322 12.7099 29.1828C10.269 26.7362 7.82245 24.2925 5.37872 21.8487C5.33326 21.8033 5.29348 21.7578 5.19971 21.6555Z" fill="#24337D"/>
</g>
<path fill-rule="evenodd" clip-rule="evenodd" d="M22.2572 38.161C19.7026 35.615 17.1765 33.1002 14.6418 30.5769C14.693 30.4888 14.7924 30.5428 14.8663 30.5428C17.2248 30.54 19.5833 30.54 21.9418 30.54C22.081 30.54 22.26 30.4718 22.26 30.7446C22.2543 33.2082 22.2572 35.6718 22.2572 38.161Z" fill="#407CBF"/>
<path fill-rule="evenodd" clip-rule="evenodd" d="M31.1549 5.20001C31.1805 5.23411 31.1492 5.32504 31.1492 5.40744C31.1521 7.75172 31.1521 10.096 31.1521 12.4374C31.1521 12.5966 31.2061 12.7557 30.9191 12.7557C28.4952 12.7443 26.0714 12.7472 23.6476 12.7472C23.6191 12.7472 23.5879 12.7358 23.5936 12.7358C26.1083 10.2295 28.6345 7.71194 31.1549 5.20001Z" fill="#E62132"/>
</svg>
