<svg width="52" height="52" viewBox="0 0 52 52" fill="none" xmlns="http://www.w3.org/2000/svg">
<path fill-rule="evenodd" clip-rule="evenodd" d="M7.80005 40.2426C7.89006 40.2466 7.92936 40.1653 7.98514 40.116C11.9595 36.5814 15.9339 33.0469 19.907 29.5111C24.1362 25.7486 28.3654 21.9861 32.5933 18.2236C35.9832 15.2077 39.3719 12.1918 42.7619 9.17731C42.7936 9.14931 42.8265 9.12531 42.8595 9.09998C42.9203 9.15197 42.8924 9.21464 42.8924 9.26797C42.895 19.5329 42.8937 29.7991 42.9001 40.0653C42.9001 40.2706 42.8367 40.2986 42.6642 40.2986C40.7829 40.292 38.9016 40.2893 37.0203 40.3C36.7921 40.3013 36.7578 40.2266 36.7578 40.0106C36.7629 34.1642 36.7616 28.3178 36.7616 22.4714V22.1914C36.5854 22.3461 36.4371 22.4741 36.2913 22.6034C31.0809 27.2539 25.8717 31.9043 20.6626 36.5535C19.32 37.7521 17.9788 38.952 16.6388 40.152C16.5411 40.2386 16.4473 40.2986 16.3066 40.2986C13.5341 40.2933 10.7602 40.2946 7.98767 40.2933C7.92556 40.2933 7.86344 40.2893 7.80005 40.2866V40.2426Z" fill="#004086"/>
</svg>
