<svg width="52" height="52" viewBox="0 0 52 52" fill="none" xmlns="http://www.w3.org/2000/svg">
<path fill-rule="evenodd" clip-rule="evenodd" d="M40.1493 11.7337H27.3163V24.567H40.1493V11.7337ZM24.1742 25.9189L22.6738 24.4269H12.112V19.565L5.67102 25.9189L12.112 32.3813V27.4107H22.6738L24.1742 25.9189Z" fill="#932279"/>
<path fill-rule="evenodd" clip-rule="evenodd" d="M25.9645 24.1742L27.4562 22.6738V12.112H32.3181L25.9645 5.67102L19.5018 12.112H24.4727V22.6738L25.9645 24.1742ZM40.1492 27.3166H27.3163V40.1499H40.1492V27.3166Z" fill="#EFA724"/>
<path fill-rule="evenodd" clip-rule="evenodd" d="M27.7087 25.9645L29.2094 27.4562H39.7708V32.3181L46.2121 25.9645L39.7708 19.5018V24.4727H29.2094L27.7087 25.9645ZM24.5665 27.3166H11.7335V40.1499H24.5665V27.3166Z" fill="#262577"/>
<path fill-rule="evenodd" clip-rule="evenodd" d="M24.5665 11.7337H11.7335V24.567H24.5665V11.7337ZM25.9183 27.709L24.4266 29.2097V39.7714H19.565L25.9183 46.2124L32.381 39.7714H27.4104V29.2097L25.9183 27.709Z" fill="#9CCD2A"/>
<path fill-rule="evenodd" clip-rule="evenodd" d="M26.8582 11.2753H40.608V25.0251H26.8582V11.2753ZM25.0249 11.2754H11.2752V25.0251H25.0249V11.2754ZM24.1081 24.1085H12.1917V12.1921H24.1081V24.1085ZM39.6912 24.1085H27.7747V12.1921H39.6912V24.1085ZM26.8582 26.8582H40.608V40.6083H26.8582V26.8582ZM39.6912 39.6913H27.7747V27.7748H39.6912V39.6913ZM11.2751 26.8582H25.0249V40.6083H11.2751V26.8582ZM24.1081 39.6913H12.1917V27.7748H24.1081V39.6913Z" fill="white"/>
<path fill-rule="evenodd" clip-rule="evenodd" d="M25.9415 24.6454L16.2189 14.9228L25.9415 5.20001L35.664 14.9228L25.9415 24.6454ZM5.19995 25.9414L14.9228 35.6642L24.6453 25.9414L14.9225 16.2189L5.19995 25.9414ZM14.9227 34.3679L6.49638 25.9415L14.9225 17.5154L23.3488 25.9415L14.9227 34.3679ZM25.9414 23.3488L17.5154 14.9227L25.9414 6.49636L34.3678 14.9227L25.9414 23.3488ZM36.9604 35.6642L27.2379 25.9414L36.9604 16.2189L46.6829 25.9414L36.9604 35.6642ZM36.9604 34.3679L28.5341 25.9415L36.9604 17.5154L45.3865 25.9415L36.9604 34.3679ZM25.9415 46.683L16.2189 36.9605L25.9415 27.238L35.664 36.9605L25.9415 46.683ZM25.9414 45.3865L17.5154 36.9604L25.9414 28.5343L34.3678 36.9604L25.9414 45.3865Z" fill="white"/>
</svg>
