<svg width="52" height="52" viewBox="0 0 52 52" fill="none" xmlns="http://www.w3.org/2000/svg">
<path fill-rule="evenodd" clip-rule="evenodd" d="M47.1169 11.7007C46.4546 11.7219 46.6641 11.9128 45.2329 12.2648C43.7877 12.6204 42.0223 12.5115 40.466 13.1643C35.8202 15.1124 34.8878 21.772 30.6646 24.1574C27.5076 25.9406 24.3225 26.0827 21.4589 26.98C19.5771 27.5701 17.5183 28.7804 15.8133 30.2497C14.4898 31.3906 14.4553 32.3938 13.0725 33.8247C11.5934 35.3553 7.19397 33.8507 5.20007 36.1933C5.84238 36.8425 6.12385 37.0246 7.38988 36.8561C7.12771 37.3528 5.58284 37.7715 5.88528 38.502C6.20346 39.2709 9.93814 39.7921 13.3332 37.7424C14.9143 36.7879 16.1737 35.4118 18.6361 35.0833C21.8226 34.6586 25.4934 35.3558 29.1824 35.8877C28.6354 37.5186 27.5371 38.6033 26.6575 39.9022C26.385 40.1958 27.2047 40.2285 28.1397 40.0512C29.8216 39.6353 31.0337 39.3004 32.3031 38.5616C33.8625 37.654 34.0987 35.3264 36.012 34.8228C37.0781 36.4614 39.9774 36.8484 41.7768 35.5378C40.1981 35.091 39.7617 31.7305 40.2947 30.2497C40.7994 28.8481 41.298 26.6061 41.8066 24.7533C42.3524 22.7634 42.5538 20.2554 43.2142 19.2418C44.2079 17.7167 45.3061 17.1931 46.2594 16.3332C47.2128 15.4733 48.0853 14.636 48.0567 12.6686C48.0474 12.0346 47.7197 11.6814 47.1169 11.7007Z" fill="#002B64"/>
<path fill-rule="evenodd" clip-rule="evenodd" d="M6.57137 38.3619C8.98903 38.708 10.4593 38.3619 12.4008 37.5199C14.0527 36.8034 15.6481 35.3265 17.5988 34.7004C20.4638 33.7809 23.6055 34.7016 26.6681 34.8848C27.4139 34.9299 28.1548 34.9304 28.8863 34.8508C30.0272 34.1493 30.0036 31.5265 31.114 31.2865C31.0813 34.9664 29.5727 37.1712 27.9949 39.3062C31.3201 38.7189 33.31 36.7956 34.654 34.2266C35.0617 33.4479 35.4099 32.6097 35.7179 31.7317C36.1938 32.0971 35.924 33.2086 36.1633 33.8107C38.4537 32.5351 39.7653 29.6234 40.6337 26.6786C41.6385 23.2704 42.0499 19.8193 42.6979 18.8109C43.3305 17.8264 44.3148 17.2198 45.2133 16.5894C46.2343 15.8732 47.145 15.1265 47.3023 13.7614C46.2255 13.6617 45.9765 13.4124 45.8172 12.87C45.2781 13.1736 44.7824 13.2387 44.2223 13.2556C43.7364 13.2704 43.2025 13.2485 42.5504 13.3157C37.1576 13.8693 36.4724 19.8134 33.0159 23.1829C32.7644 23.4279 32.4925 23.6565 32.2051 23.871C30.9946 24.7728 29.5095 25.4175 28.1439 25.9395C25.9333 26.7844 23.8317 26.8444 21.7577 27.5733C20.2353 28.1086 18.6882 28.8846 17.4377 29.7404C17.125 29.9544 16.8304 30.1735 16.5594 30.3949C15.8256 30.9955 15.3439 31.6616 14.878 32.3468C14.3975 33.053 13.9335 33.7792 13.2261 34.4735C12.0802 35.5984 7.79831 34.8017 6.29086 35.8449C6.12283 35.9612 5.98936 36.1006 5.89856 36.2679C6.72105 36.6414 7.27041 36.4121 8.21659 36.517C8.34076 37.4145 6.2644 37.9484 6.57137 38.3619Z" fill="#C49A6C"/>
<path fill-rule="evenodd" clip-rule="evenodd" d="M39.2431 31.8934C39.3075 32.9235 39.9054 34.9672 40.4333 35.4639C39.3994 35.7153 37.6184 35.2999 37.1615 34.5706C37.3963 33.5176 38.618 32.555 39.2431 31.8934Z" fill="#C49A6C"/>
<path fill-rule="evenodd" clip-rule="evenodd" d="M40.7577 15.5457C41.5211 16.2085 43.1229 15.6766 42.8367 14.3579C41.6505 14.2597 40.9634 14.6622 40.7577 15.5457ZM46.0799 14.0047C45.8769 14.4306 45.4881 14.9797 45.4881 16.0639C45.4865 16.25 45.3468 16.3775 45.3444 16.0906C45.3549 15.0309 45.6354 14.5729 45.9333 13.9708C46.0718 13.7242 46.1552 13.8259 46.0799 14.0047ZM45.8753 13.8443C45.6358 14.2507 45.059 14.9919 44.9637 16.072C44.9461 16.2572 44.7954 16.3719 44.8183 16.0856C44.9222 15.0312 45.3832 14.3713 45.733 13.7976C45.8918 13.5643 45.9664 13.673 45.8753 13.8443ZM45.689 13.6317C45.4161 14.0164 44.5283 14.9066 44.3427 15.975C44.3093 16.1578 44.1496 16.2598 44.1966 15.9764C44.3887 14.9342 45.154 14.115 45.5508 13.5733C45.7286 13.3538 45.7936 13.4684 45.689 13.6317ZM45.5226 13.3945C45.1985 13.737 44.14 14.8722 43.8064 15.9037C43.7473 16.0801 43.575 16.1587 43.6615 15.8846C43.998 14.8798 44.9249 13.7976 45.3939 13.3171C45.601 13.1247 45.6492 13.2475 45.5226 13.3945Z" fill="#002B64"/>
</svg>
