<svg class="SVGInline-svg" style="width: 60px;height: 60px;" width="40" height="40" viewBox="0 0 40 40" fill="none" xmlns="http://www.w3.org/2000/svg">
<path fill-rule="evenodd" clip-rule="evenodd" d="M29.9754 20.0245C30.5222 20.155 31.0908 20.2202 31.6595 20.2202C32.2172 20.2202 32.7311 20.1441 33.2232 19.9919C33.6935 19.8505 34.0981 19.6548 34.4371 19.383C34.7761 19.1221 35.0385 18.7959 35.2354 18.4262C35.4213 18.0566 35.5197 17.6325 35.5197 17.165C35.5197 16.5996 35.3557 16.0886 35.0167 15.6428C34.6777 15.1971 34.109 14.8492 33.3217 14.5991L31.7688 14.1098C31.1892 13.925 30.7846 13.7184 30.5659 13.5118C30.3472 13.3053 30.2378 13.0443 30.2378 12.7399C30.2378 12.2941 30.4128 11.9788 30.7518 11.7722C31.0908 11.5656 31.5829 11.4678 32.2062 11.4678C32.9827 11.4678 33.6825 11.6091 34.3059 11.8918C34.4918 11.9788 34.6339 12.0223 34.7214 12.0223C34.8854 12.0223 34.9729 11.9027 34.9729 11.6744V11.1634C34.9729 11.0111 34.9401 10.8915 34.8745 10.8046C34.8089 10.7067 34.6995 10.6197 34.5464 10.5328C34.4371 10.4675 34.284 10.4023 34.0872 10.337C33.8903 10.2718 33.6825 10.2175 33.4638 10.1631C33.2342 10.1196 33.0045 10.0761 32.753 10.0435C32.5124 10.0109 32.2609 10 32.0203 10C31.5392 10 31.0799 10.0544 30.6425 10.1848C30.205 10.3153 29.8332 10.5001 29.5052 10.7502C29.1771 10.9894 28.9146 11.2938 28.7178 11.6418C28.521 11.9897 28.4225 12.392 28.4225 12.8486C28.4225 13.414 28.6084 13.9467 28.9693 14.4251C29.3302 14.9144 29.9207 15.2841 30.719 15.5341L32.3047 16.0234C32.8405 16.1973 33.2123 16.3822 33.4092 16.5888C33.606 16.7953 33.7044 17.0454 33.7044 17.3498C33.7044 17.7956 33.5076 18.1435 33.1358 18.3827C32.764 18.6219 32.2281 18.7415 31.5392 18.7415C31.1018 18.7415 30.6753 18.698 30.2378 18.6111C29.8114 18.5241 29.4067 18.3936 29.0349 18.2305C28.9962 18.2151 28.9588 18.1997 28.9238 18.1853C28.86 18.1589 28.8039 18.1358 28.7615 18.1218C28.6959 18.1 28.6303 18.0892 28.5647 18.0892C28.4007 18.0892 28.3132 18.1979 28.3132 18.4262V18.9807C28.3132 19.0786 28.3351 19.1873 28.3788 19.2851C28.4225 19.383 28.5428 19.4917 28.7178 19.5896C29.0021 19.7527 29.4286 19.894 29.9754 20.0245ZM13.3862 18.0672C13.3097 17.828 13.2659 17.5018 13.2659 17.0996H13.2441V13.5769C13.2441 12.3809 12.9379 11.4893 12.3364 10.9022C11.724 10.3151 10.7726 10.0215 9.47129 10.0215C8.86984 10.0215 8.30119 10.0868 7.76535 10.2281C7.22951 10.3586 6.77021 10.5217 6.38747 10.7174C6.23437 10.7935 6.13595 10.8696 6.08127 10.9457C6.0266 11.0218 6.00472 11.1523 6.00472 11.3262V11.859C6.00472 12.0873 6.08127 12.196 6.23437 12.196C6.27811 12.196 6.33279 12.1852 6.40934 12.1634C6.48589 12.1417 6.61712 12.0982 6.79208 12.0221C7.17483 11.8699 7.56851 11.7503 7.97312 11.6524C8.37774 11.5546 8.77142 11.5111 9.15416 11.5111C9.9962 11.5111 10.5867 11.6742 10.9367 12.0112C11.2757 12.3483 11.4506 12.9245 11.4506 13.7508V14.5445C11.0132 14.4467 10.5977 14.3597 10.193 14.3053C9.78842 14.2509 9.40568 14.2183 9.03387 14.2183C7.90751 14.2183 7.02173 14.501 6.35466 15.0664C5.68759 15.6318 5.35953 16.382 5.35953 17.3061C5.35953 18.1759 5.63292 18.8718 6.16876 19.3937C6.7046 19.9155 7.43728 20.1765 8.35587 20.1765C9.64626 20.1765 10.7179 19.6763 11.5709 18.6761C11.6912 18.9261 11.8006 19.1327 11.9099 19.3176C12.0193 19.4915 12.1505 19.6655 12.3036 19.8286C12.413 19.9264 12.5223 19.9808 12.6317 19.9808C12.7191 19.9808 12.8176 19.9482 12.916 19.8829L13.6049 19.4263C13.7471 19.3176 13.8127 19.2088 13.8127 19.1001C13.8127 19.024 13.7908 18.937 13.7362 18.85C13.5831 18.5673 13.4737 18.3064 13.3862 18.0672ZM9.95244 18.5566C9.55876 18.687 9.18695 18.7523 8.82608 18.7523C8.32304 18.7523 7.9403 18.6218 7.67784 18.35C7.40446 18.089 7.27323 17.7085 7.27323 17.1975C7.27323 16.6539 7.4482 16.2407 7.80907 15.9472C8.16994 15.6536 8.70579 15.5123 9.43847 15.5123C9.77747 15.5123 10.1165 15.534 10.4664 15.5775C10.8163 15.621 11.1553 15.6862 11.4725 15.7623V16.219C11.4725 16.5886 11.4287 16.9039 11.3631 17.1649C11.2975 17.4258 11.1663 17.6541 10.9913 17.8607C10.6961 18.1869 10.3461 18.4261 9.95244 18.5566ZM17.6074 19.9263C17.4105 19.9263 17.2793 19.8937 17.1918 19.8176C17.1043 19.7524 17.0278 19.6002 16.9622 19.3936L14.3923 10.9891C14.3267 10.7717 14.2939 10.6303 14.2939 10.5542C14.2939 10.3802 14.3814 10.2824 14.5563 10.2824H15.628C15.8358 10.2824 15.978 10.315 16.0545 10.3911C16.142 10.4564 16.2076 10.6086 16.2732 10.8151L18.1104 18.0128L19.8163 10.8151C19.871 10.5977 19.9366 10.4564 20.0241 10.3911C20.1116 10.3259 20.2647 10.2824 20.4615 10.2824H21.3364C21.5441 10.2824 21.6863 10.315 21.7738 10.3911C21.8613 10.4564 21.9378 10.6086 21.9816 10.8151L23.7094 18.0997L25.6012 10.8151C25.6668 10.5977 25.7434 10.4564 25.8199 10.3911C25.9074 10.3259 26.0496 10.2824 26.2464 10.2824H27.2634C27.4384 10.2824 27.5368 10.3694 27.5368 10.5542C27.5368 10.6006 27.5289 10.6471 27.5197 10.7003L27.515 10.7282C27.504 10.7934 27.4821 10.8804 27.4384 11L24.8029 19.4045C24.7373 19.6219 24.6608 19.7632 24.5733 19.8285C24.4858 19.8937 24.3436 19.9372 24.1577 19.9372H23.2173C23.0095 19.9372 22.8673 19.9046 22.7799 19.8285C22.6924 19.7524 22.6158 19.611 22.5721 19.3936L20.8771 12.3808L19.193 19.3827C19.1383 19.6002 19.0727 19.7415 18.9852 19.8176C18.8977 19.8937 18.7446 19.9263 18.5478 19.9263H17.6074Z" fill="#252F3E"></path>
<path fill-rule="evenodd" clip-rule="evenodd" d="M33.7263 25.5044C30.1285 28.1465 24.9013 29.549 20.4068 29.549C14.1079 29.549 8.4324 27.2332 4.14566 23.3843C3.80666 23.0799 4.11286 22.6667 4.51747 22.9059C9.15414 25.5806 14.8734 27.2006 20.7896 27.2006C24.781 27.2006 29.1662 26.3743 33.2014 24.6781C33.8029 24.4063 34.3168 25.0695 33.7263 25.5044Z" fill="#FF9900"></path>
<path fill-rule="evenodd" clip-rule="evenodd" d="M35.2245 23.8079C34.7652 23.2207 32.1844 23.5252 31.0143 23.6665C30.6644 23.71 30.6097 23.4056 30.9269 23.1773C32.9827 21.7421 36.3618 22.1552 36.7555 22.6336C37.1492 23.1229 36.6461 26.4825 34.7215 28.0916C34.4262 28.3417 34.1419 28.2112 34.2731 27.8851C34.7106 26.8087 35.6838 24.3841 35.2245 23.8079Z" fill="#FF9900"></path>
</svg>