<svg width="52" height="52" viewBox="0 0 52 52" fill="none" xmlns="http://www.w3.org/2000/svg">
<mask id="mask0_2361_3740" style="mask-type:luminance" maskUnits="userSpaceOnUse" x="9" y="9" width="35" height="35">
<path fill-rule="evenodd" clip-rule="evenodd" d="M9.09998 9.10004H43.0721V43.601H9.09998V9.10004Z" fill="white"/>
</mask>
<g mask="url(#mask0_2361_3740)">
<path fill-rule="evenodd" clip-rule="evenodd" d="M39.4288 30.294L32.9256 31.7892C32.5145 31.9013 32.1034 31.6397 31.9913 31.2285L29.2255 19.1924C29.1134 18.7812 29.375 18.37 29.7862 18.2579L36.2893 16.7627C36.7004 16.6506 37.1116 16.9122 37.2237 17.3235L39.9894 29.3595C40.1015 29.8081 39.8399 30.2193 39.4288 30.294ZM38.5692 31.864L30.6831 39.1903C30.3841 39.4893 30.2346 39.3771 30.3467 38.966L31.9913 33.6581C32.1034 33.247 32.5518 32.8358 32.963 32.761L38.3823 31.5275C38.7934 31.4154 38.8682 31.6023 38.5692 31.864ZM28.1043 40.4612L16.2939 36.8353C15.8827 36.7232 15.6585 36.2747 15.7706 35.8635L17.7515 29.509C17.8636 29.0979 18.3121 28.8736 18.7232 28.9858L30.5336 32.6115C30.9448 32.7236 31.169 33.1722 31.0569 33.5834L29.076 39.9379C28.9265 40.349 28.5154 40.5733 28.1043 40.4612ZM14.8736 34.331L12.4817 23.8274C12.3695 23.4162 12.5564 23.3415 12.818 23.6405L16.5929 27.7149C16.8919 28.0139 17.004 28.612 16.8919 29.0231L15.2474 34.331C15.1352 34.7422 14.9484 34.7422 14.8736 34.331ZM12.6685 20.9866L21.7132 12.5763C22.0122 12.2773 22.498 12.3146 22.7971 12.6137L27.3194 17.5103C27.6184 17.8094 27.581 18.2953 27.282 18.5943L18.2374 27.0047C17.9383 27.3037 17.4525 27.2663 17.1535 26.9673L12.6312 22.0706C12.3321 21.7342 12.3695 21.2482 12.6685 20.9866ZM31.0195 31.079C31.1316 31.4902 30.87 31.7144 30.4589 31.6023L19.3212 28.1634C18.9101 28.0513 18.8353 27.7149 19.1344 27.4158L27.6558 19.4914C27.9548 19.1924 28.2912 19.3045 28.4033 19.7157L31.0195 31.079ZM24.591 12.5763L34.9065 15.7535C35.3176 15.8656 35.3176 16.0526 34.9065 16.1647L29.4871 17.3982C29.076 17.5103 28.5154 17.3235 28.2164 17.0244L24.4415 12.9501C24.1052 12.6137 24.1799 12.4642 24.591 12.5763ZM43.0168 29.9202L39.7278 15.604C39.5409 14.819 38.8308 14.0341 38.0459 13.8098L23.0213 9.1748C22.8344 9.10004 22.6102 9.10004 22.3859 9.10004C21.7506 9.10004 21.0778 9.36168 20.6293 9.7355L9.8654 19.7531C9.26744 20.2764 8.96841 21.323 9.15529 22.0706L12.6685 37.3961C12.8554 38.181 13.5655 38.966 14.3504 39.1903L28.4033 43.5263C28.5901 43.601 28.8144 43.601 29.0387 43.601C29.674 43.601 30.3467 43.3394 30.7952 42.9656L42.3066 32.2751C42.9047 31.7144 43.2036 30.7052 43.0168 29.9202Z" fill="#22ADF6"/>
</g>
</svg>
