<svg width="52" height="52" viewBox="0 0 52 52" fill="none" xmlns="http://www.w3.org/2000/svg">
<path d="M27.0885 31.7221H24.819C18.5734 31.7221 13.5079 26.6385 13.5079 20.4111C13.5079 14.1836 18.5734 9.10001 24.819 9.10001H27.0885C28.1234 9.10001 28.9767 9.93517 28.9767 10.9882C28.9767 12.0412 28.1415 12.8764 27.0885 12.8764H24.819C20.6613 12.8764 17.2843 16.2534 17.2843 20.4111C17.2843 24.5688 20.6613 27.9457 24.819 27.9457H27.0885C28.1234 27.9457 28.9767 28.7809 28.9767 29.8339C28.9767 30.887 28.1415 31.7221 27.0885 31.7221Z" fill="#344D90"/>
<path d="M13.6713 18.5228H13.1266C6.88102 18.5228 1.81555 23.6064 1.81555 29.8338C1.81555 36.0613 6.88102 41.1449 13.1266 41.1449H15.3961C16.431 41.1449 17.2843 40.3097 17.2843 39.2567C17.2843 38.2037 16.4491 37.3685 15.3961 37.3685H13.1266C8.96894 37.3685 5.59196 33.9915 5.59196 29.8338C5.59196 25.6762 8.96894 22.2992 13.1266 22.2992H13.6713C13.5624 21.6819 13.5079 21.0646 13.5079 20.411C13.5079 19.7574 13.5624 19.1401 13.6713 18.5228Z" fill="#E29F23"/>
<path d="M38.7627 41.145H27.0703C26.0355 41.145 25.1821 40.3098 25.1821 39.2568C25.1821 38.2037 26.0173 37.3686 27.0703 37.3686H38.7627C42.9204 37.3686 46.2973 33.9916 46.2973 29.8339C46.2973 25.6762 42.9204 22.2993 38.7627 22.2993H36.4932C35.4583 22.2993 34.605 21.4641 34.605 20.411C34.605 18.7589 34.0785 17.1975 33.0981 15.8903C32.7531 15.4182 32.3355 15.0006 31.8816 14.6193C31.0828 13.9476 30.9738 12.7675 31.6456 11.9686C32.3174 11.1697 33.4975 11.0608 34.2963 11.7326C34.9681 12.2954 35.5854 12.9309 36.1119 13.6389C37.2013 15.1096 37.9275 16.7617 38.218 18.541H38.7445C44.9901 18.541 50.0556 23.6246 50.0556 29.8521C50.0556 36.0795 44.972 41.1631 38.7445 41.1631" fill="#344D90"/>
<path d="M17.2843 20.411C17.2843 19.3761 16.4492 18.5228 15.3961 18.5228H13.6713C13.5624 19.1401 13.5079 19.7574 13.5079 20.411C13.5079 21.0646 13.5624 21.6819 13.6713 22.2992H15.3961C16.431 22.2992 17.2843 21.464 17.2843 20.411Z" fill="#CC5599"/>
</svg>
