<svg width="52" height="52" viewBox="0 0 52 52" fill="none" xmlns="http://www.w3.org/2000/svg">
<path fill-rule="evenodd" clip-rule="evenodd" d="M25.5173 6.50035C25.5558 6.5 25.5942 6.5 25.6326 6.5H25.6676C27.2089 6.50069 28.8101 6.62189 30.3545 6.87918C32.874 7.29887 34.9967 9.18955 34.9967 11.7056V20.5465C34.9967 23.1391 32.9357 25.2645 30.3545 25.2645H21.0808C17.9321 25.2645 15.2806 27.9676 15.2806 31.0322V35.2741H12.0883C9.39005 35.2741 7.81378 33.3155 7.15343 30.5668C6.71781 28.7599 6.5045 27.3083 6.5 25.883V25.7902C6.50485 24.3348 6.72751 22.8988 7.15343 21.1307C7.89274 18.0453 10.2557 16.4237 12.954 16.4237H16.4382H25.723V15.2439H16.4382V11.7056C16.4382 9.02611 17.1519 7.57312 21.0808 6.87918C22.4143 6.64301 23.93 6.50762 25.5173 6.50035ZM20.4963 9.34625C19.534 9.34625 18.7541 10.1427 18.7541 11.1213C18.7541 12.0964 19.534 12.8849 20.4963 12.8849C21.4551 12.8849 22.2384 12.0964 22.2384 11.1213C22.2384 10.1427 21.4551 9.34625 20.4963 9.34625Z" fill="#306998"/>
<path fill-rule="evenodd" clip-rule="evenodd" d="M36.1547 20.5466V16.4238H39.6393C42.341 16.4238 43.6146 18.4447 44.2812 21.1307C45.2096 24.8616 45.2508 27.6588 44.2812 30.5669C43.3428 33.3922 42.3375 35.2742 39.6393 35.2742H34.9967H25.723V36.4536H34.9967V39.9922C34.9967 42.6711 32.6919 44.0333 30.3545 44.7103C28.6858 45.1947 27.1746 45.4139 25.7331 45.4184H25.643C24.0796 45.4136 22.5961 45.1563 21.0808 44.7103C18.626 43.989 16.4382 42.5083 16.4382 39.9922V31.1514C16.4382 28.6073 18.5405 26.4333 21.0808 26.4333H30.3545C33.4444 26.4333 36.1547 23.7431 36.1547 20.5466ZM30.9387 38.813C29.9799 38.813 29.1966 39.6015 29.1966 40.577C29.1966 41.5556 29.9799 42.3517 30.9387 42.3517C31.9014 42.3517 32.6808 41.5556 32.6808 40.577C32.6808 39.6015 31.9014 38.813 30.9387 38.813Z" fill="#FFCC00"/>
</svg>
