<svg width="52" height="52" viewBox="0 0 52 52" fill="none" xmlns="http://www.w3.org/2000/svg">
<path fill-rule="evenodd" clip-rule="evenodd" d="M30.6928 22.9662L30.6928 22.9663C30.1143 23.1244 29.5276 23.2848 28.8487 23.4651L28.8079 23.4764C28.4761 23.5681 28.4415 23.5777 28.1328 23.211C27.7625 22.779 27.491 22.4995 26.9726 22.2453C25.4174 21.4576 23.9116 21.6863 22.5046 22.6265C20.826 23.7447 19.962 25.3965 19.9867 27.4549C20.0114 29.4879 21.3691 31.1651 23.3192 31.4446C24.9978 31.6733 26.4048 31.0634 27.5157 29.7674C27.6804 29.5601 27.8316 29.3388 27.9995 29.0931C28.0579 29.0076 28.1184 28.9191 28.1822 28.8272H23.4179C22.8996 28.8272 22.7761 28.4968 22.9489 28.0648C23.2698 27.277 23.8623 25.9556 24.2079 25.2948C24.2819 25.1424 24.4547 24.8882 24.825 24.8882H32.7688C33.1256 23.7245 33.7045 22.6249 34.4767 21.5845C36.2787 19.1449 38.451 17.8743 41.3885 17.3406C43.9064 16.8832 46.2761 17.1373 48.4237 18.6366C50.3739 20.0089 51.5834 21.864 51.9043 24.3036C52.324 27.7343 51.3612 30.5296 49.0655 32.9184C47.4363 34.621 45.4368 35.6883 43.1411 36.1712C42.7032 36.2547 42.2653 36.2943 41.8344 36.3332C41.6094 36.3536 41.3864 36.3737 41.1663 36.3999C38.92 36.3491 36.8711 35.6883 35.1432 34.1636C33.928 33.0822 33.0908 31.7531 32.6748 30.2059C32.3861 30.806 32.041 31.3807 31.6381 31.9275C29.8607 34.3416 27.5403 35.841 24.6028 36.2476C22.1837 36.5779 19.9374 36.0951 17.9625 34.5704C16.1359 33.1473 15.0991 31.2667 14.8275 28.9288C14.5066 26.1589 15.2966 23.6684 16.9258 21.483C18.6784 19.1196 20.9988 17.6203 23.8376 17.0866C26.158 16.6546 28.3796 16.9342 30.3791 18.3318C31.6874 19.2213 32.6255 20.4411 33.2426 21.915C33.3907 22.1437 33.292 22.2708 32.9957 22.347C32.1306 22.5732 31.4182 22.7679 30.6928 22.9662ZM5.12615 22.8045C5.02741 22.8045 5.00273 22.7537 5.0521 22.6775L5.57048 21.9914C5.61985 21.9151 5.74328 21.8643 5.84202 21.8643H14.6546C14.7533 21.8643 14.778 21.9405 14.7286 22.0168L14.309 22.6775C14.2596 22.7537 14.1362 22.83 14.0621 22.83L5.12615 22.8045ZM1.39879 25.1421C1.30005 25.1421 1.27536 25.0912 1.32473 25.015L1.84312 24.3289C1.89249 24.2526 2.01591 24.2018 2.11465 24.2018H13.371C13.4698 24.2018 13.5191 24.278 13.4945 24.3543L13.297 24.9642C13.2723 25.0658 13.1735 25.1167 13.0748 25.1167L1.39879 25.1421ZM7.29857 27.3276C7.2492 27.4039 7.27389 27.4801 7.37263 27.4801L12.754 27.5055C12.828 27.5055 12.9268 27.4293 12.9268 27.3276L12.9761 26.7177C12.9761 26.6161 12.9268 26.5398 12.828 26.5398H7.89101C7.79227 26.5398 7.69353 26.6161 7.64416 26.6923L7.29857 27.3276ZM47.0242 25.8615C47.0291 25.9469 47.0342 26.0368 47.0414 26.1333C46.9179 28.3187 45.8565 29.9451 43.9064 30.987C42.5981 31.6732 41.2404 31.7494 39.8827 31.1395C38.1054 30.3263 37.1674 28.3187 37.6117 26.3366C38.1548 23.9478 39.6359 22.4485 41.9316 21.9148C44.2766 21.3557 46.523 22.7788 46.9673 25.2947C47.0023 25.4746 47.0125 25.6545 47.0242 25.8615Z" fill="#00ACD7"/>
</svg>
