<svg width="52" height="52" viewBox="0 0 52 52" fill="none" xmlns="http://www.w3.org/2000/svg">
<path fill-rule="evenodd" clip-rule="evenodd" d="M16.5363 10.145C17.3553 9.5696 18.6833 8.90554 20.3933 8.20822C21.6459 7.69954 23.5799 7.00156 23.7418 7.00159C23.7436 7.00159 23.7453 7.00167 23.7467 7.00185V7.00183H23.7468V7.00196C23.8076 7.00747 23.8186 7.02959 23.9127 7.40588C24.0843 8.02568 24.3942 8.88883 24.7206 9.6359C25.1412 10.5988 25.8606 12.0265 26.5135 13.1775L26.6407 13.4044L27.2718 13.504C27.28 13.504 27.2868 13.5054 27.2937 13.5067C27.3006 13.5081 27.3076 13.5095 27.3159 13.5095L27.266 13.9245L22.4629 13.1L18.2628 12.3474L16.4976 11.783L15.756 11.0802C15.756 11.0138 15.7672 10.9474 15.7893 10.8921C15.8501 10.7427 16.232 10.3609 16.5363 10.145ZM19.2921 9.61383C21.1237 9.86837 23.6526 10.3056 24.217 10.4605C24.2307 10.4646 24.2436 10.4686 24.2558 10.4724C24.3041 10.4874 24.34 10.4986 24.3639 10.4986C24.4329 10.4986 24.4015 10.4054 24.2793 10.0432C24.2701 10.016 24.2604 9.98724 24.2502 9.9569C23.9792 9.14894 23.8075 8.402 23.7135 7.62717C23.6913 7.44466 23.6691 7.28962 23.6637 7.28416H23.658C23.5032 7.31179 21.4225 8.18059 20.6644 8.52927C20.0723 8.80588 18.7276 9.50871 18.7498 9.53085C18.7498 9.53637 18.9988 9.57506 19.2921 9.61383ZM21.1957 12.5189L21.417 12.5522C21.4756 12.5602 21.5329 12.5695 21.5791 12.577C21.6288 12.585 21.6656 12.591 21.6771 12.591C21.6991 12.591 21.8597 12.5024 22.0367 12.3917C22.6343 12.0209 23.4976 11.5395 24.2833 11.1466C24.4826 11.0526 24.6375 10.9696 24.6319 10.9641C24.63 10.9641 24.609 10.962 24.5744 10.9585C24.5122 10.9522 24.4063 10.9415 24.2889 10.9308C22.6619 10.798 19.7126 10.2336 18.5395 9.83506L18.3236 9.76322L18.6115 10.0232C18.9047 10.3 19.6684 11.0304 20.6424 11.9766L21.1957 12.5189ZM17.062 11.6502C17.4328 11.7664 17.6818 11.8328 18.2849 11.9712C18.8501 12.0991 19.898 12.3041 19.9937 12.3041C19.9973 12.3041 19.9996 12.3038 20.0004 12.3032C20.0053 12.2983 19.9454 12.2244 19.8667 12.1272C19.8562 12.1143 19.8454 12.1009 19.8344 12.0873C19.8173 12.0662 19.7891 12.0316 19.7517 11.9858C19.5836 11.7798 19.2312 11.348 18.8826 10.9087L18.1023 9.93473L18.0304 9.98461C17.2336 10.549 16.7631 11.1023 16.7577 11.473V11.5506L17.062 11.6502ZM22.6288 12.7459C22.6288 12.757 23.2321 12.8565 25.1079 13.1609C25.1859 13.1736 25.2554 13.185 25.3171 13.1951C25.5991 13.2414 25.7209 13.2614 25.7672 13.2614C25.8024 13.2614 25.7941 13.2499 25.7793 13.2295C25.7752 13.2239 25.7706 13.2176 25.7664 13.2106C25.6226 12.9949 25.0359 11.877 24.8478 11.462C24.7814 11.3126 24.7538 11.2628 24.7316 11.2628C24.7261 11.2573 24.715 11.2628 24.7095 11.2739C24.6983 11.2823 24.6632 11.3118 24.6147 11.3526C24.5672 11.3925 24.5069 11.4432 24.4439 11.4953C23.9237 11.9325 23.3372 12.342 22.7561 12.6628C22.6842 12.7016 22.6288 12.7404 22.6288 12.7459ZM17.6043 29.2693L23.9735 26.4583L31.2945 24.0677V24.0679L31.477 24.4994C30.575 24.7596 30.5086 24.7817 30.4866 24.7983C30.4754 24.8038 30.4811 24.909 30.5032 25.0252C30.6414 25.8165 30.73 26.6244 30.7798 27.6204C30.813 28.2292 30.7965 30.0277 30.7576 30.5644C30.6083 32.4846 30.3814 34.106 30.0937 35.3233C29.6123 37.332 28.727 39.6838 27.4985 42.1906C27.1387 42.9266 26.8288 43.5186 26.7845 43.5464C26.7624 43.563 26.22 43.563 25.8162 43.5464C23.8186 43.4688 20.1884 42.9542 18.3126 42.4783C17.1837 42.1961 15.6841 41.6926 14.7931 41.2996C13.0445 40.5304 11.5449 39.4016 10.7923 38.2949C10.2058 37.4261 10.0563 36.4854 10.3606 35.5557C10.5322 35.041 10.9306 34.3714 11.4342 33.7406C11.7717 33.3201 12.4358 32.6561 12.884 32.3019C13.288 31.981 13.8137 31.5383 14.3781 31.0513C14.8928 30.6087 15.3686 30.1714 15.8224 29.7398L17.6043 29.2693ZM31.2945 24.0677L31.2946 24.0677V24.0677H31.2945ZM26.5634 26.0931C26.7293 26.2259 27.7807 26.9232 28.3341 27.2719C28.9704 27.6703 29.8613 28.1959 29.9056 28.1959C29.9166 28.1959 29.9222 28.0465 29.9111 27.8196C29.8668 26.746 29.6898 25.0472 29.6234 25.0472C29.5626 25.0472 27.7364 25.6338 26.9672 25.8939C26.5134 26.0489 26.5079 26.0544 26.5634 26.0931ZM25.8384 26.8401C25.8273 27.9579 25.6169 29.3524 25.2461 30.7304C25.2019 30.8964 25.1688 31.0346 25.1799 31.0346C25.1854 31.0346 25.4122 30.9406 25.6833 30.8189C27.2217 30.1382 28.4779 29.4631 29.4851 28.777C29.7711 28.5817 29.875 28.5175 29.8664 28.4773C29.8609 28.4514 29.8087 28.4354 29.7285 28.4007C29.0645 28.1129 27.515 27.2496 26.3751 26.5358C26.0707 26.3476 25.9435 26.2757 25.8937 26.2757C25.8881 26.2757 25.8826 26.2757 25.8937 26.2702C25.8865 26.2726 25.8804 26.2746 25.8752 26.278C25.8438 26.2981 25.8431 26.3661 25.8384 26.8401ZM22.4075 28.4892C22.6565 28.9761 22.994 29.4741 23.4257 29.9722C23.6701 30.2547 24.4054 30.9746 24.4531 30.9745C24.454 30.9745 24.4546 30.9743 24.455 30.9738C24.466 30.9628 24.5214 30.7911 24.5823 30.5865C24.8368 29.7398 24.9917 28.9872 25.0913 28.1793C25.1356 27.8417 25.1577 26.6021 25.1246 26.569C25.1024 26.5469 22.1861 27.6757 22.0976 27.7366C22.081 27.7532 22.2802 28.2401 22.4075 28.4892ZM21.085 28.6994C20.5315 30.105 19.5466 32.0916 18.8991 33.1043C18.7767 33.2973 18.7464 33.3461 18.7709 33.3461C18.7751 33.3461 18.7811 33.3446 18.7885 33.3422C19.0999 33.2398 19.4116 33.1383 19.7236 33.0378C21.0296 32.6172 22.1696 32.2188 23.2153 31.8204C23.9753 31.5313 24.0871 31.4898 24.0836 31.464C24.0829 31.4592 24.0783 31.4549 24.073 31.4497C24.0564 31.433 23.9348 31.3279 23.8019 31.2172C23.3925 30.8686 22.9 30.3374 22.5237 29.8394C22.1805 29.3856 21.7821 28.6773 21.6051 28.1959C21.5719 28.0963 21.5331 28.0077 21.5221 27.9966C21.5165 27.9911 21.511 27.9911 21.5055 27.9911C21.4894 27.9911 21.4522 28.0017 21.4145 28.0123L21.4114 28.0132C21.3395 28.052 21.3119 28.0796 21.2897 28.1571C21.2731 28.2124 21.1792 28.4555 21.0852 28.6988L21.085 28.6994ZM17.1173 31.9311C17.2003 32.3682 17.3553 32.8442 17.5434 33.215C17.606 33.3362 17.6299 33.3773 17.6483 33.3773C17.6559 33.3773 17.6626 33.3702 17.6707 33.3588C17.6873 33.3367 17.8146 33.1374 17.9473 32.9217C18.7331 31.6711 19.3197 30.6417 19.8565 29.5959C20.1332 29.0536 20.4154 28.4615 20.3988 28.4504C20.3767 28.4283 18.0857 29.5019 17.3774 29.8615C17.3157 29.8924 17.2776 29.9111 17.2505 29.9399C17.2048 29.9887 17.1901 30.0666 17.145 30.2821C17.0509 30.7469 17.0343 31.4994 17.1173 31.9311ZM26.6573 32.4403C27.4708 32.8884 28.3728 33.2702 29.2028 33.5304C29.391 33.5858 29.5514 33.63 29.5514 33.63C29.5569 33.6244 29.5846 33.4474 29.6178 33.2316C29.8116 31.9975 29.9444 30.3042 29.9444 29.0702V28.8378L29.8558 28.9042C29.745 29.0039 29.236 29.369 28.8984 29.5959C27.9964 30.1991 26.9562 30.8078 25.8714 31.3722C25.7861 31.4175 25.7046 31.4606 25.6328 31.4986C25.4765 31.5812 25.3662 31.6396 25.3624 31.6433C25.3403 31.6655 26.1205 32.147 26.6573 32.4403ZM12.8895 32.7002C12.0263 33.5967 11.4065 34.6592 11.2792 35.4725C11.2664 35.5455 11.2669 35.5652 11.2857 35.5652C11.2912 35.5652 11.2982 35.5636 11.3069 35.5611C11.3184 35.5583 11.4039 35.5347 11.5311 35.4996C11.65 35.4668 11.8053 35.424 11.971 35.3785C13.122 35.0632 16.7852 33.9896 16.824 33.9563C16.8296 33.9509 16.741 33.7627 16.6304 33.5358C16.232 32.7169 16.0991 32.1192 16.1434 31.3112C16.1544 31.1287 16.182 30.8631 16.2042 30.7192C16.2374 30.5199 16.2429 30.4757 16.2208 30.4757C16.2153 30.4757 16.2098 30.4757 16.2097 30.4813C16.1433 30.5034 15.2746 30.9848 14.7101 31.3057C13.9244 31.754 13.4651 32.1026 12.8895 32.7002ZM23.0327 36.192C22.9055 36.4299 22.8058 36.6236 22.8058 36.6292C22.8058 36.6299 22.8068 36.6302 22.8087 36.6302C22.8215 36.6302 22.8752 36.6145 22.9331 36.5904C22.9996 36.5628 23.3537 36.4299 23.7135 36.2972C26.1869 35.373 28.6052 34.3659 29.3411 33.9564L29.5182 33.8569L29.3909 33.8292C27.9854 33.5027 26.3364 32.8663 25.1521 32.1801C24.9917 32.0861 24.8589 32.0141 24.8534 32.0196C24.8511 32.0219 24.8451 32.0389 24.8358 32.0655C24.8224 32.1039 24.802 32.1622 24.7758 32.2243C24.4217 33.32 23.7244 34.8971 23.0327 36.192ZM18.3126 34.4047C18.9932 35.2624 20.0334 36.1478 21.2067 36.8672C21.4058 36.9889 21.5719 37.0886 21.5773 37.0886C21.583 37.0886 21.7545 36.7952 21.9592 36.43C22.7671 35.0023 23.3981 33.7295 23.8794 32.5619C23.9348 32.4291 23.9792 32.313 23.9735 32.3074C23.968 32.3074 23.7909 32.3794 23.575 32.468C22.0532 33.1209 20.5205 33.6521 18.7164 34.1446L18.2129 34.2829L18.3126 34.4047ZM23.4423 37.9849C24.8257 38.5383 26.2977 38.9533 27.9412 39.2522C27.9744 39.2632 28.0076 39.2687 28.0131 39.2687C28.0187 39.2687 28.1348 38.9202 28.2676 38.4995C28.5719 37.5422 28.738 36.9999 28.9316 36.3082C29.1641 35.4837 29.4463 34.3438 29.4408 34.2165C29.4242 34.2165 29.3411 34.2497 29.236 34.3161C28.3396 34.8528 25.7277 36.1034 23.2099 37.2046C22.7894 37.3872 22.4573 37.5421 22.4683 37.5533C22.5015 37.5809 23.0549 37.8299 23.4423 37.9849ZM12.2366 38.1454C12.4635 38.4332 12.9725 38.9533 13.2658 39.1968L13.5148 39.4071L13.7473 39.0474C13.8746 38.8482 14.1015 38.5162 14.2509 38.3058C14.3009 38.2355 14.3788 38.1255 14.4732 37.9921C14.6608 37.7271 14.9135 37.3701 15.1418 37.0497C16.1268 35.6719 16.8296 34.6592 16.8185 34.6482C16.813 34.6482 16.5528 34.709 16.2318 34.7865C15.9109 34.864 15.02 35.0743 14.2508 35.2513C12.8674 35.5723 11.3898 35.921 11.3068 35.9431C11.2516 35.9596 11.2516 36.0925 11.3124 36.3581C11.4398 36.9281 11.7607 37.5534 12.2366 38.1454ZM13.7916 39.6229L13.8911 39.6948C13.9465 39.7336 13.9964 39.7667 14.0019 39.7667C14.0073 39.7667 14.7323 39.5177 15.6121 39.2079C17.1781 38.6655 20.5593 37.4648 20.5979 37.4372C20.6091 37.4316 20.4763 37.3431 20.2992 37.2434C19.3142 36.6681 18.5007 36.0094 17.7038 35.1185L17.5268 34.9193L16.5474 36.098C15.1252 37.8134 14.4722 38.6379 13.952 39.3905L13.7916 39.6229ZM19.3584 41.6095C19.1979 41.7977 19.0651 41.9692 19.0651 41.9802C19.0651 42.0002 19.2137 42.0427 19.2834 42.0427C19.291 42.0427 19.2977 42.0422 19.3031 42.0411C19.3252 42.0356 19.7015 41.9305 20.1387 41.8032C22.5071 41.1225 25.4122 40.2648 26.3641 39.9661C26.9618 39.7779 27.7751 39.5068 27.8139 39.4846C27.8361 39.468 27.7697 39.4569 27.6479 39.4458C26.8455 39.3795 25.4842 39.1471 24.5435 38.9091C23.7798 38.7154 23.2099 38.5439 22.4904 38.2728C22.1916 38.162 21.9482 38.0735 21.9427 38.079C21.9427 38.082 21.8979 38.149 21.828 38.2533C21.768 38.343 21.6895 38.4602 21.6051 38.5882C20.9466 39.5953 20.1552 40.6577 19.3584 41.6095ZM16.575 41.1612C16.9457 41.3106 18.3457 41.8031 18.545 41.8585L18.628 41.8807L18.7885 41.5984C18.8122 41.5593 18.8406 41.5123 18.8715 41.4612C18.9629 41.31 19.0765 41.122 19.1592 40.9897C19.1993 40.9267 19.2644 40.8235 19.3446 40.6964C19.4968 40.4553 19.7032 40.1284 19.8953 39.8276C20.5814 38.743 20.9742 38.1122 20.9687 38.1067C20.9632 38.1011 20.8249 38.1399 20.6644 38.1897C19.7844 38.4663 18.4398 38.8481 16.016 39.5067C15.6983 39.5933 15.3994 39.6746 15.1441 39.744C14.6658 39.8741 14.341 39.9624 14.3338 39.966C14.2896 39.977 14.8429 40.3312 15.2856 40.5692C15.6397 40.7573 16.1156 40.9786 16.575 41.1612ZM24.3387 42.9652C25.1301 43.0814 26.4304 43.2641 26.5245 43.2695C26.5266 43.2698 26.5287 43.27 26.5308 43.27C26.5665 43.27 26.5948 43.2212 26.6628 43.0537C26.9894 42.268 27.8858 39.7779 27.8637 39.7225H27.8581C27.8194 39.728 27.6755 39.7888 27.504 39.8664C26.4139 40.3754 25.3348 40.7905 24.2446 41.1225C23.3814 41.3881 22.5292 41.6038 20.7584 42.0023L19.934 42.1906L20.0667 42.2182C20.6477 42.3509 22.9609 42.7549 24.3387 42.9652Z" fill="#909CA8"/>
<path fill-rule="evenodd" clip-rule="evenodd" d="M15.8224 11.2961C15.8944 11.4731 16.1047 11.6889 16.3426 11.9103C16.3426 11.9103 18.8051 14.3118 19.1039 14.655C20.4651 16.2265 21.0573 17.776 21.1126 19.912C21.1458 21.2844 20.8856 22.4907 20.2382 23.8907C19.0872 26.403 16.6579 29.1754 12.9116 32.2521L13.4596 32.0695C13.8137 31.8038 14.2951 31.5217 15.424 30.9019C18.0303 29.4741 20.9632 28.1627 24.5601 26.8125C29.7395 24.8646 38.2559 22.5847 43.1033 21.8432L43.6069 21.7657L43.5294 21.6439C43.0868 20.9578 42.7823 20.5317 42.4171 20.078C41.3547 18.7609 40.0654 17.693 38.4883 16.8076C36.319 15.5957 33.5134 14.6495 29.9609 13.9467C29.2913 13.8138 27.8193 13.5593 26.6241 13.3767C24.0896 12.9839 22.4517 12.7127 20.6477 12.4028C20.0003 12.2921 19.0319 12.1261 18.39 11.9878C18.058 11.9158 17.4216 11.7664 16.9236 11.5949C16.5252 11.4399 15.9496 11.2849 15.8279 10.8146C15.8279 10.8146 15.7062 11.0083 15.8224 11.2961ZM20.3822 15.6399C19.7347 14.5 18.711 13.3434 17.5268 12.4138C17.3719 12.3032 17.2557 12.2036 17.2557 12.198C17.2611 12.1926 17.3496 12.2257 17.4659 12.2645C17.6762 12.3363 17.9473 12.4194 18.2684 12.5079C18.5112 12.5748 18.7547 12.6393 18.9988 12.7016C19.3308 12.7846 19.6075 12.8621 19.613 12.8621C19.6518 12.9008 20.2107 14.688 20.3988 15.3742C20.4706 15.6344 20.5261 15.8557 20.5206 15.8557C20.5204 15.8558 20.5202 15.8559 20.52 15.8559C20.5114 15.8559 20.4521 15.7636 20.3822 15.6399ZM19.9782 12.9506C20.0059 12.9506 20.1276 12.9672 20.277 13.0004C21.2177 13.2107 22.9055 13.5316 23.9845 13.7143C24.1672 13.7419 24.3111 13.7752 24.3111 13.7862C24.3111 13.7973 24.2446 13.8359 24.1616 13.8803C23.9791 13.9743 23.243 14.4114 22.9996 14.5775C22.3853 14.987 21.832 15.4296 21.4336 15.828C21.2731 15.9886 21.1347 16.1214 21.1347 16.1214C21.1347 16.1214 21.1016 16.0273 21.0738 15.911C20.8747 15.1418 20.4596 14.0019 20.0833 13.1996C20.0287 13.0854 19.9829 12.9801 19.9741 12.9517C19.975 12.9513 19.9763 12.9506 19.9782 12.9506ZM24.8976 17.4495C24.3055 17.2613 23.3427 16.9791 22.5182 16.7467C22.0478 16.6194 21.6661 16.5032 21.6661 16.4922C21.6661 16.4589 22.3523 15.7728 22.6455 15.5127C23.2043 15.0201 24.7205 13.847 24.7703 13.8637C24.8035 13.8747 24.8589 14.0629 24.9695 14.4779C25.1743 15.2803 25.2684 16.1767 25.2352 17.0123C25.2241 17.2447 25.2131 17.4605 25.2019 17.4883L25.1854 17.5435L24.8976 17.4495ZM25.8163 17.1064C25.8163 16.055 25.606 14.9925 25.2185 14.0961C25.1798 14.0075 25.1466 13.9245 25.1522 13.919C25.1688 13.9024 27.4431 14.2952 28.4779 14.4945C29.2472 14.6439 30.3649 14.8763 30.4313 14.904C30.4645 14.915 30.3483 14.9814 29.9775 15.1474C28.5167 15.806 27.432 16.398 26.353 17.1175C26.0708 17.3056 25.8328 17.4605 25.8273 17.4605C25.8218 17.4605 25.8163 17.3001 25.8163 17.1064ZM28.9538 19.2091C28.3119 18.8329 27.5815 18.4787 26.7846 18.1467C26.5633 18.0526 26.3696 17.9751 26.3641 17.9641C26.3253 17.9309 28.1072 16.7522 29.0479 16.1878C29.7949 15.7341 31.0123 15.0589 31.0344 15.0811C31.0511 15.0977 30.9791 15.5459 30.9127 15.8115C30.7135 16.636 30.1768 17.8591 29.5183 19.01C29.402 19.2147 29.2969 19.3807 29.2858 19.3863C29.2854 19.3864 29.2849 19.3865 29.2843 19.3865C29.2654 19.3865 29.12 19.3056 28.9538 19.2091ZM30.3483 19.021C30.9404 17.7649 31.3222 16.4534 31.4162 15.3356C31.4218 15.2304 31.4383 15.1475 31.455 15.1475H31.455C31.5048 15.1475 32.512 15.4241 33.0376 15.5791C34.338 15.9665 35.8321 16.5143 36.806 16.957L37.2099 17.1396L36.9278 17.206C34.5484 17.7538 32.512 18.3847 30.5474 19.1816C30.387 19.2479 30.2431 19.3033 30.2322 19.3033C30.221 19.3033 30.2763 19.176 30.3483 19.021ZM21.5332 21.0795C21.6604 20.1498 21.6328 18.9546 21.4557 17.7427C21.4391 17.5877 21.4225 17.455 21.428 17.4495C21.4446 17.4329 22.2138 17.6155 22.6288 17.7316C23.2596 17.9088 24.5988 18.3569 24.5988 18.3902C24.5988 18.3957 24.4494 18.523 24.2724 18.678C23.5475 19.2811 22.8502 19.9174 22.0145 20.7254C21.7655 20.9634 21.5553 21.1571 21.5443 21.1571C21.5332 21.1571 21.5277 21.1238 21.5332 21.0795ZM33.0708 22.9887C32.451 22.059 31.7095 21.2455 30.8296 20.5151C30.6636 20.3767 30.4811 20.2273 30.4202 20.1831C30.3594 20.1388 30.3095 20.0946 30.3095 20.089C30.3095 20.0725 31.2501 19.6684 31.9641 19.3807C33.2147 18.8716 34.9189 18.2629 36.1973 17.87C36.8669 17.6598 37.5808 17.455 37.5919 17.4661C37.6028 17.4771 37.2376 18.0526 37.0053 18.3791C36.6733 18.855 36.1862 19.4859 35.085 20.8693C34.5041 21.5997 33.851 22.4243 33.6353 22.7009C33.4138 22.9776 33.2313 23.21 33.2257 23.21C33.2202 23.21 33.1483 23.1104 33.0708 22.9887ZM38.0179 17.5767C38.04 17.5712 38.1729 17.6376 38.3333 17.7316C39.6781 18.5008 40.995 19.4914 42.0354 20.5096C42.3287 20.7974 43.0536 21.55 43.0424 21.5555C43.0424 21.5555 42.7879 21.5776 42.4891 21.5997C40.1595 21.7768 37.1769 22.2692 34.3104 22.9609C34.1167 23.0052 33.9452 23.0439 33.9341 23.0439C33.9232 23.0439 34.1389 22.8281 34.4101 22.5681C36.0923 20.9467 36.8615 19.923 37.7689 18.0969C37.8962 17.8258 38.0069 17.5934 38.0179 17.5767C38.0124 17.5767 38.0124 17.5767 38.0179 17.5767ZM24.5103 22.0258C25.0083 21.1183 25.4067 20.0337 25.6337 18.9767C25.6557 18.8938 25.6779 18.8385 25.6944 18.8385C25.7719 18.855 26.4913 19.1927 27.0336 19.4638C27.5317 19.7127 28.2788 20.1112 28.3175 20.1443C28.3229 20.1498 28.0573 20.2882 27.7309 20.4487C26.6905 20.9689 25.7997 21.4613 24.8699 22.0258C24.6043 22.1863 24.383 22.3191 24.3775 22.3191C24.3553 22.3191 24.3609 22.2969 24.5103 22.0258ZM22.9664 22.7175C22.6067 22.3689 22.3134 22.1531 21.9372 21.9593C21.7877 21.8819 21.6715 21.8155 21.6715 21.8045C21.6715 21.7602 22.6178 20.9025 23.3427 20.2827C23.8628 19.8345 24.9585 18.9546 24.975 18.9712C24.9917 18.9879 24.8035 19.6684 24.6874 20.0392C24.4604 20.742 24.0786 21.6218 23.7079 22.2859C23.6193 22.4408 23.4865 22.6677 23.4146 22.7949L23.2763 23.0163L22.9664 22.7175ZM25.4621 25.3515C26.923 24.0069 28.2178 22.5238 29.1807 21.0795L29.3744 20.7808L29.6456 20.9578C30.2652 21.3618 30.9957 21.8985 31.5547 22.3689C31.87 22.6289 32.4787 23.1768 32.6005 23.3096L32.6668 23.3816L32.2187 23.5089C29.6842 24.2116 27.7253 24.8369 25.4399 25.6781C25.1854 25.7721 24.9695 25.8496 24.9529 25.8496C24.9497 25.8496 24.9466 25.8498 24.9441 25.8498C24.9199 25.8498 24.9462 25.8272 25.4621 25.3515ZM24.3 25.8606C24.3 25.191 24.1285 24.4771 23.8296 23.8685C23.7023 23.6139 23.6802 23.5531 23.708 23.5254C23.8131 23.4313 25.4233 22.5127 26.4415 21.9649C27.1277 21.5997 28.2011 21.0574 28.2179 21.0685C28.2289 21.0795 27.4708 22.1475 27.017 22.7507C26.4747 23.4701 25.5118 24.6764 24.8478 25.4621C24.5712 25.7887 24.3333 26.0598 24.3221 26.0654C24.3216 26.0655 24.3211 26.0656 24.3206 26.0656C24.3052 26.0656 24.3 25.9839 24.3 25.8606ZM19.9063 25.501C20.2716 24.942 20.4541 24.6266 20.6478 24.2227C20.8193 23.8631 20.9909 23.4369 21.1126 23.0662C21.1568 22.9057 21.2122 22.784 21.2232 22.784C21.2399 22.784 21.3672 22.8503 21.511 22.9278C21.8652 23.1215 22.1806 23.3373 22.4628 23.5697C22.4738 23.5808 22.33 23.697 22.1419 23.8353C21.6162 24.2116 20.8193 24.8148 20.3546 25.1855C20.0152 25.4554 19.9043 25.5426 19.8869 25.5427C19.8794 25.5427 19.8895 25.5261 19.9063 25.501ZM18.3015 28.6386C18.3015 28.6331 18.473 28.5058 18.6833 28.3508C20.338 27.15 21.7711 25.833 22.8446 24.516C22.9609 24.3776 23.066 24.2503 23.077 24.2448L23.0882 24.2448C23.1157 24.2393 23.1491 24.2891 23.2984 24.5105C23.6138 24.9807 23.8573 25.6116 23.9183 26.1207L23.9292 26.2314L23.1712 26.5248C21.8153 27.0504 20.5648 27.5706 19.7181 27.9579C19.4802 28.0686 19.0651 28.2678 18.794 28.4007C18.5297 28.5355 18.3127 28.6388 18.3019 28.6388C18.3017 28.6388 18.3015 28.6387 18.3015 28.6386ZM18.0082 27.9524C18.3735 27.5595 18.6501 27.2275 18.9655 26.818C19.1758 26.5469 19.2146 26.5082 19.519 26.2923C20.3324 25.7057 22.2083 24.4329 22.2305 24.4551C22.2526 24.4773 21.6217 25.191 21.1901 25.6282C20.1221 26.7184 19.0652 27.5706 17.7537 28.4007C17.5877 28.5058 17.4383 28.5998 17.4217 28.6109C17.4176 28.6133 17.4144 28.6148 17.4128 28.6148C17.3995 28.6148 17.494 28.5111 18.0082 27.9524Z" fill="#A81C21"/>
</svg>
