<svg width="52" height="52" viewBox="0 0 52 52" fill="none" xmlns="http://www.w3.org/2000/svg">
<path fill-rule="evenodd" clip-rule="evenodd" d="M12.2196 15.601C12.224 15.6173 12.2279 15.6294 12.231 15.6389C12.236 15.654 12.2387 15.6625 12.2374 15.6702C12.1488 16.1901 12.0594 16.7098 11.9651 17.2573L11.964 17.2642H10.7409C10.3679 17.2642 10.3677 17.2654 10.3089 17.6221L10.3053 17.6438C10.0835 18.9815 9.85902 20.3187 9.63453 21.6559L9.44656 22.7759C9.44361 22.7935 9.43926 22.8109 9.43449 22.8299L9.43448 22.83C9.43199 22.8399 9.42939 22.8503 9.4268 22.8614H7.34308L8.27545 17.2672H6.72725C6.7511 17.1234 6.77504 16.9812 6.7988 16.8401C6.86129 16.4689 6.92247 16.1055 6.97714 15.7411C6.99895 15.596 7.08594 15.5982 7.17897 15.6006C7.19092 15.6009 7.20297 15.6012 7.21499 15.6012C8.68756 15.601 10.1601 15.601 11.6327 15.601H12.2196ZM16.6005 22.8593H18.3114C18.3159 22.8391 18.3207 22.8191 18.3255 22.7994L18.3255 22.7993C18.3359 22.7564 18.346 22.7143 18.352 22.6716C18.3821 22.4612 18.4124 22.2508 18.4428 22.0404L18.4428 22.04L18.4429 22.0398L18.4429 22.0396L18.4429 22.0395L18.4429 22.0393L18.4429 22.0391C18.5342 21.4057 18.6255 20.7722 18.7104 20.1379C18.7238 20.0377 18.7385 19.9374 18.7531 19.837L18.7531 19.837L18.7531 19.8369L18.7531 19.8369L18.7531 19.8369L18.7532 19.8368L18.7532 19.8368L18.7532 19.8368C18.805 19.4817 18.857 19.1256 18.8538 18.7708C18.8405 17.3614 17.5404 17.1353 16.7625 17.5783C16.6191 17.6599 16.4958 17.7771 16.369 17.8976L16.369 17.8976C16.3098 17.9539 16.2499 18.0108 16.1868 18.0653C15.9415 17.632 15.5875 17.3449 15.0453 17.3445C14.5416 17.3442 14.0871 17.4647 13.7014 17.8729L13.7172 17.5285H12.1921L11.425 22.8566H13.0956L13.2247 21.9723C13.3047 21.4241 13.3842 20.8794 13.4639 20.3346L13.4954 20.1189L13.4954 20.1184L13.4955 20.1183L13.4955 20.1182L13.4955 20.1181L13.4955 20.1181L13.4955 20.118C13.5409 19.8072 13.5862 19.4964 13.6336 19.1859C13.6744 18.9195 13.9261 18.7014 14.1663 18.7194C14.4048 18.737 14.5308 18.9193 14.524 19.2384L14.5234 19.2677C14.5226 19.3155 14.5218 19.3633 14.515 19.4103C14.4798 19.6477 14.4439 19.885 14.408 20.1223L14.4079 20.1229L14.4078 20.1236L14.4077 20.1243L14.4077 20.1244L14.4077 20.1244L14.4077 20.1245L14.4076 20.1246L14.4076 20.1246L14.4076 20.1247C14.3643 20.411 14.321 20.6973 14.2789 20.9838C14.2176 21.4015 14.1576 21.8193 14.0972 22.2402C14.0676 22.4459 14.038 22.6523 14.008 22.8599H15.6764C15.6789 22.8503 15.6814 22.8417 15.6837 22.8338L15.6837 22.8338L15.6837 22.8337L15.6837 22.8337C15.6883 22.8178 15.6921 22.8046 15.694 22.7911L15.8031 22.0402L15.8032 22.0398L15.8033 22.0394L15.8033 22.0389L15.8034 22.0385L15.8035 22.0381L15.8035 22.0376C15.9382 21.1115 16.0729 20.1854 16.2054 19.2589C16.2423 19.0007 16.4077 18.8539 16.6274 18.7609C16.8168 18.6808 17.0077 18.7605 17.0546 18.9574C17.0951 19.127 17.1075 19.3138 17.0839 19.4865C16.969 20.3275 16.8466 21.1676 16.7236 22.0121L16.7236 22.0126L16.7235 22.0128L16.7234 22.0135C16.6824 22.2949 16.6414 22.5767 16.6005 22.8593ZM19.8276 33.9637C20.7772 34.0652 21.2432 33.795 21.5469 32.9354C21.6819 32.5533 21.7704 32.1513 21.8414 31.7514C21.9168 31.3274 21.9425 30.8952 21.8071 30.473C21.6948 30.1227 21.4821 29.9303 21.1418 29.9343C20.9399 29.9366 20.7199 29.9794 20.5461 30.0742C20.4789 30.1108 20.4599 30.2469 20.4428 30.3697C20.4383 30.4018 20.4339 30.433 20.4288 30.4613C20.3022 31.1663 20.1802 31.8718 20.0591 32.5776C20.0061 32.8865 19.9549 33.1957 19.9031 33.5087C19.8781 33.6594 19.8531 33.8109 19.8276 33.9637ZM18.7064 25.3143H21.3021L21.0122 27.0254L20.8603 27.9215C20.9811 27.8911 21.1006 27.8571 21.2196 27.8232C21.4794 27.7493 21.7367 27.676 21.9991 27.6425C23.0147 27.5126 23.8348 27.9853 24.2652 28.9139C24.5582 29.546 24.6419 30.2156 24.597 30.906C24.5343 31.8737 24.3345 32.8104 23.919 33.6887C23.3684 34.8517 22.5275 35.7079 21.245 36.0308C20.8456 36.131 20.424 36.1757 20.0113 36.1851C19.2878 36.2012 18.5638 36.199 17.8399 36.1967C17.5583 36.1958 17.2768 36.1949 16.9952 36.1951C16.9678 36.1951 16.9403 36.1926 16.906 36.1894L16.906 36.1894C16.8878 36.1878 16.8678 36.1859 16.8449 36.1842L18.7064 25.3143ZM42.8161 33.0208L42.8162 33.0219C42.8291 33.1466 42.8436 33.2853 42.8644 33.423C42.877 33.5069 42.9088 33.5896 42.9413 33.6686C43.1373 34.1438 43.5699 34.2805 43.9588 33.9446C44.1792 33.7543 44.358 33.4926 44.4925 33.2308C44.7609 32.7084 44.8551 32.1298 44.9142 31.5504C44.9541 31.1581 44.9625 30.7623 44.815 30.3836C44.6269 29.9003 44.1503 29.7674 43.761 30.1127C43.5878 30.2663 43.4369 30.4625 43.3268 30.6665C42.962 31.3438 42.8603 32.0895 42.8015 32.8845C42.8064 32.9273 42.8111 32.973 42.8161 33.0208ZM44.6025 27.6231C45.3414 27.617 46.0332 27.759 46.6038 28.265C47.2278 28.8187 47.5374 29.5412 47.5879 30.3532C47.6798 31.8377 47.3655 33.2385 46.5529 34.4982C45.7556 35.7342 44.6079 36.387 43.1319 36.3998C42.2083 36.4079 41.3681 36.163 40.7676 35.3896C40.3763 34.8861 40.1771 34.299 40.1437 33.6756C40.0657 32.2185 40.3253 30.8246 41.1256 29.5809C41.7813 28.5622 42.6873 27.8714 43.9159 27.6711L43.942 27.6667C43.9758 27.6608 44.0096 27.655 44.0436 27.653C44.1717 27.6454 44.2997 27.6388 44.4278 27.6322L44.6025 27.6231ZM28.8415 31.0076L28.4615 31.0073C28.5373 30.4989 28.6767 30.0586 29.0374 29.7286C29.5291 29.2786 30.2112 29.501 30.3348 30.1531C30.3759 30.3704 30.3756 30.597 30.3753 30.8202L30.3753 30.8591C30.3751 30.9085 30.2939 31.0001 30.249 31.001C29.7845 31.0087 29.3199 31.0081 28.8417 31.0076H28.8415ZM28.2464 32.6151H32.9271C33.0218 31.8493 33.0094 31.1196 32.8959 30.3922C32.7721 29.6008 32.5071 28.8752 31.8742 28.339C31.3144 27.8649 30.6462 27.6887 29.9279 27.6341C28.5402 27.5284 27.422 28.0289 26.5937 29.1336C25.6313 30.4172 25.3739 31.88 25.6261 33.4383C25.7553 34.2361 26.1036 34.9421 26.7096 35.4952C27.4492 36.1702 28.3422 36.4177 29.3247 36.3906C30.3411 36.3627 31.2909 36.1028 32.1626 35.5696C32.2826 35.4965 32.3458 35.4106 32.3614 35.2671C32.3905 35.0011 32.4273 34.7359 32.4641 34.4707L32.4641 34.4707C32.4795 34.3596 32.495 34.2485 32.5098 34.1373C32.5305 33.9828 32.5509 33.8284 32.5723 33.6665L32.605 33.4191C32.5832 33.4273 32.5657 33.4333 32.5511 33.4384L32.551 33.4384C32.5263 33.4469 32.5101 33.4525 32.4956 33.4609C31.7601 33.8906 30.9693 34.1491 30.1207 34.2258C29.6243 34.2706 29.131 34.2893 28.674 34.03C28.4473 33.9016 28.2845 33.7128 28.254 33.4614C28.2311 33.2735 28.2363 33.0822 28.2416 32.8842V32.8841V32.8841V32.8841V32.8841V32.8841V32.8841V32.884V32.884C28.244 32.7958 28.2464 32.7063 28.2464 32.6151ZM6.04986 36.1816L7.49296 27.7467H5.19995L5.61476 25.3175H13.2797L13.2071 25.7503C13.154 26.0674 13.1013 26.3821 13.0476 26.6966C13.0312 26.7928 13.013 26.8888 12.9948 26.9848L12.9948 26.9849C12.9583 27.1778 12.9219 27.3707 12.8991 27.5652C12.8811 27.7192 12.8171 27.7488 12.6794 27.7476C12.1733 27.7432 11.6673 27.7441 11.1612 27.745H11.1611H11.1611H11.161H11.1609H11.1608H11.1608H11.1607L10.7176 27.7456C10.6895 27.7456 10.6612 27.7476 10.6267 27.7501C10.6097 27.7513 10.5911 27.7526 10.5703 27.7538L9.12685 36.1816H6.04986ZM35.0024 27.7461H37.5722L37.461 28.7056C37.5404 28.6343 37.6167 28.5638 37.6914 28.4946C37.8511 28.3468 38.0041 28.2052 38.1672 28.0765C38.7246 27.6369 39.3441 27.5039 40.026 27.749C40.0596 27.761 40.0934 27.7738 40.1261 27.788C40.515 27.9565 40.5331 28.0084 40.3522 28.3844C40.1472 28.8105 39.9431 29.2371 39.739 29.6637L39.7386 29.6644L39.7359 29.6701C39.613 29.9271 39.49 30.1841 39.3669 30.441C39.3503 30.4753 39.3326 30.5091 39.3131 30.5464L39.3129 30.5467L39.3128 30.5471L39.2839 30.6025C39.2392 30.5811 39.1955 30.5592 39.1524 30.5375C39.0593 30.4907 38.9685 30.4451 38.8743 30.4083C38.1559 30.1277 37.4892 30.3583 37.1881 31.0624C37.0051 31.4908 36.9107 31.964 36.8261 32.4261C36.6948 33.1443 36.574 33.8644 36.4532 34.5844C36.3724 35.0661 36.2916 35.5479 36.2076 36.0291C36.197 36.091 36.1142 36.1875 36.0641 36.1881C35.3597 36.1957 34.6554 36.1936 33.9511 36.1915L33.6286 36.1906C33.6206 36.1906 33.6126 36.1862 33.6001 36.1794C33.5924 36.1752 33.583 36.17 33.5708 36.1643L35.0024 27.7461ZM16.734 27.7686H14.0969L12.6578 36.1805H15.2943C15.775 33.3712 16.2532 30.5766 16.734 27.7686ZM20.9501 21.3138C20.9447 20.7643 21.3773 20.3424 21.9626 20.3459L21.9113 20.6731L21.9111 20.6739C21.875 20.9049 21.8396 21.1306 21.8033 21.3562C21.7682 21.5739 21.5072 21.7263 21.2178 21.7002C21.0216 21.6824 20.9526 21.5831 20.9501 21.3138ZM21.5557 18.6989C22.0841 18.6861 22.2461 18.8988 22.104 19.4282L22.0654 19.4321C22.0378 19.435 22.0135 19.4376 21.989 19.4388C21.3527 19.4737 20.7389 19.5989 20.1679 19.8942C19.3621 20.3112 18.9785 21.0432 19.0964 21.937C19.1691 22.4871 19.4576 22.8122 19.9949 22.9234C20.7143 23.0722 21.3509 22.9486 21.8254 22.3315C21.8347 22.3192 21.8471 22.3092 21.8615 22.2976L21.8615 22.2976C21.869 22.2916 21.8771 22.2851 21.8855 22.2776C22.0381 22.5659 22.2192 22.8047 22.5265 22.9051C22.8873 23.0228 23.2491 22.9926 23.604 22.88C23.6538 22.8641 23.7032 22.7867 23.7172 22.7291C23.7854 22.4503 23.8456 22.1698 23.9058 21.8892L23.9058 21.8891L23.9058 21.889L23.9279 21.7857C23.9416 21.7223 23.9516 21.6582 23.9622 21.5911L23.9622 21.5911L23.9622 21.591L23.9622 21.5909C23.9673 21.5589 23.9724 21.5262 23.9781 21.4925C23.6452 21.5592 23.5579 21.4954 23.5857 21.1906C23.6063 20.965 23.6347 20.7401 23.6631 20.5154L23.6631 20.5152L23.6631 20.5151C23.6886 20.3133 23.7141 20.1114 23.7339 19.909C23.7426 19.821 23.7518 19.7329 23.761 19.6448L23.761 19.6443L23.7611 19.6438C23.7996 19.2759 23.8381 18.9072 23.8358 18.5392C23.8324 17.96 23.4673 17.554 22.9041 17.4313C21.9716 17.2283 21.096 17.3944 20.2691 17.8531C20.2163 17.8824 20.1457 17.9287 20.1354 17.9779C20.0725 18.2795 20.0167 18.5826 19.9582 18.9002L19.958 18.9008C19.9395 19.0017 19.9206 19.1041 19.9012 19.2083C19.9376 19.1893 19.9703 19.1725 20.0006 19.1569L20.0006 19.1569C20.0599 19.1264 20.1095 19.1008 20.1584 19.0738C20.5933 18.8336 21.061 18.7107 21.5557 18.6989ZM29.5753 17.5127L29.2002 18.0826C28.9791 18.4185 28.7661 18.7421 28.5533 19.0658C28.5028 19.1427 28.4528 19.22 28.4027 19.2974L28.4024 19.2979L28.4024 19.298C28.2849 19.4796 28.1675 19.6612 28.0429 19.8377C27.9669 19.9453 27.9655 20.0328 28.0151 20.1514C28.2855 20.7971 28.5513 21.4449 28.8171 22.0926L29.0323 22.6167C29.0516 22.6636 29.0697 22.7111 29.0914 22.7682L29.0914 22.7683C29.1031 22.7987 29.1157 22.8319 29.1302 22.8693H28.6483C28.5349 22.8693 28.4213 22.8686 28.3078 22.8679H28.3077C28.0262 22.8662 27.7446 22.8645 27.4634 22.8732C27.3035 22.8784 27.2246 22.8355 27.1661 22.6787C27.027 22.3066 26.8779 21.9382 26.7243 21.5586L26.7242 21.5585C26.6648 21.4116 26.6046 21.2631 26.5441 21.112C26.5269 21.1367 26.5111 21.1584 26.4966 21.1784C26.4696 21.2157 26.447 21.2469 26.4274 21.2798L26.2636 21.5534L26.2634 21.5537C26.0304 21.9425 25.7975 22.3313 25.5703 22.7234C25.5088 22.8294 25.4429 22.8747 25.3172 22.8721C25.0104 22.8666 24.7034 22.8675 24.3825 22.8685H24.3824H24.3823C24.2556 22.8689 24.1267 22.8693 23.9948 22.8693L24.2662 22.4443L24.2669 22.443C24.4359 22.1783 24.5993 21.9223 24.7633 21.6667L24.9771 21.3331L24.9773 21.3328C25.2505 20.9062 25.5237 20.4796 25.8027 20.0569C25.8816 19.9373 25.8962 19.8408 25.8394 19.7053C25.6313 19.209 25.4297 18.7098 25.2282 18.2106L25.2281 18.2104C25.1639 18.0516 25.0998 17.8928 25.0355 17.7341C25.0184 17.6919 25.0027 17.6491 24.9846 17.5996L24.9846 17.5996L24.9844 17.599C24.9748 17.5727 24.9644 17.5445 24.9528 17.5135C25.0833 17.5135 25.2126 17.5132 25.3411 17.513C25.7997 17.5123 26.2473 17.5115 26.6947 17.5206C26.7507 17.5219 26.8269 17.6141 26.856 17.6807C26.9732 17.9477 27.0839 18.2176 27.202 18.5054C27.243 18.6053 27.2848 18.7073 27.3281 18.8121L27.4674 18.5951C27.52 18.5134 27.5692 18.4368 27.6183 18.3601C27.6725 18.2755 27.7212 18.1809 27.7699 18.0863C27.8806 17.8713 27.9913 17.6563 28.1673 17.5584C28.3444 17.4599 28.5871 17.4789 28.8296 17.4978C28.9347 17.5061 29.0398 17.5143 29.1395 17.5129C29.2238 17.5119 29.3082 17.5121 29.407 17.5124C29.4585 17.5126 29.514 17.5127 29.5753 17.5127ZM14.5479 25.8558C14.4607 26.5047 14.9095 27.0219 15.556 27.018C16.2391 27.0136 16.8932 26.4379 16.9857 25.7595C17.0997 24.9226 16.5367 24.3872 15.7048 24.5415C15.1213 24.6497 14.6355 25.2012 14.5479 25.8558Z" fill="black"/>
</svg>
