<svg width="52" height="52" viewBox="0 0 52 52" fill="none" xmlns="http://www.w3.org/2000/svg">
<path fill-rule="evenodd" clip-rule="evenodd" d="M47.4351 46.2089V46.2086C47.41 46.1478 47.3804 46.093 47.3579 46.0581L47.2676 45.914C46.9583 45.4202 46.6661 44.9538 46.2752 44.5188C45.8068 43.9971 45.4124 43.58 45.0348 43.2061C44.0642 42.2448 43.1237 41.5019 42.1597 40.9349C41.4353 40.5092 40.5559 39.9923 40.148 39.4536C40.4541 39.4288 41.0058 39.3233 42.0254 39.0788C42.1424 39.0506 42.2254 39.0307 42.258 39.0241C43.5569 38.7641 44.6454 38.5231 45.7356 38.1922C46.0702 38.0907 46.0676 37.8552 46.0656 37.6658L46.0653 37.6125C46.0653 37.5375 46.0356 37.4643 45.9835 37.411C45.6782 37.0991 45.3824 36.769 45.0962 36.4496C44.6059 35.9022 44.0988 35.3364 43.5203 34.8337C42.3223 33.7922 40.992 32.9142 39.849 32.1924C39.274 31.8292 38.6188 31.5461 37.9762 31.2682C37.5975 31.1048 37.206 30.9356 36.8486 30.7554C36.7191 30.69 36.5718 30.6407 36.4156 30.5888C36.2 30.5164 35.9316 30.4265 35.8457 30.317C35.5246 29.9076 35.3009 29.4199 35.0585 28.8912C34.949 28.6511 34.8351 28.4029 34.7097 28.1622C34.0395 26.8726 33.4526 25.5204 32.885 24.2125C32.4573 23.2267 32.0151 22.2074 31.5386 21.2187C30.6689 19.4136 29.5473 17.7043 28.1095 15.994C26.614 14.2146 24.7539 12.543 22.5813 11.0253C21.4576 10.2407 19.9475 9.26119 18.2294 8.64778C16.8643 8.16033 15.5117 8.0433 14.0137 7.95192C13.8122 7.85478 13.5847 7.65761 13.3619 7.4639C13.1795 7.30478 12.9906 7.14076 12.8033 7.02229C11.6797 6.31231 8.85905 4.7269 6.94617 5.33685C6.23014 5.56573 5.70782 6.06902 5.39448 6.83319C4.83382 8.20155 5.59194 9.53071 6.31489 10.5356C6.5504 10.863 6.80522 11.1818 7.05168 11.4909C7.38346 11.9065 7.72649 12.336 8.02166 12.7851C8.59991 13.6658 8.88298 14.5856 9.18248 15.5593L9.29605 15.928C9.65839 17.0877 10.1032 18.1882 10.582 19.1104C10.897 19.7177 11.2435 20.3542 11.6404 20.8953C11.731 21.0181 11.8385 21.1187 11.9423 21.2161C12.0426 21.3098 12.1371 21.3986 12.2129 21.5026C12.3216 21.6514 12.172 21.9927 12.0627 22.2417C12.0181 22.3446 11.9768 22.4389 11.9526 22.5161C11.8004 22.9984 11.665 23.4948 11.5502 23.9914C11.2236 25.4062 11.0734 26.6797 11.091 27.8849C11.1282 30.0993 11.6272 32.0393 12.5343 33.4947C13.5741 35.1626 14.6945 35.7671 15.8637 35.2911C16.9355 34.8544 17.0672 33.7752 17.1957 32.7259C17.2407 32.357 17.2874 31.9765 17.3739 31.6147C17.4088 31.6741 17.4474 31.7369 17.4883 31.8032C17.5373 31.8822 17.5803 31.9508 17.6031 31.9966C17.7512 32.2938 17.925 32.6383 18.111 32.9689C18.4116 33.5062 18.7745 34.0214 19.2528 34.5901C20.5586 36.1435 22.1561 37.4185 23.7006 38.6511L23.785 38.7188C23.89 38.803 24.1168 38.8964 24.2918 38.8419C24.3918 38.8111 24.4636 38.7373 24.4944 38.6346C24.563 38.4066 24.2947 38.1979 24.0987 38.0454C24.0669 38.0206 24.0393 37.9996 24.0208 37.9835C22.6398 36.7607 21.639 35.2548 20.7318 33.8176C20.0215 32.6911 19.4387 31.6372 18.9507 30.5954C18.7734 30.2181 18.6347 29.7915 18.4874 29.3398C18.2502 28.6111 18.0049 27.8578 17.58 27.2931C17.5296 27.2263 17.4586 27.1441 17.3554 27.1017C16.9478 26.9331 16.54 27.531 16.1892 28.1052C16.1566 28.1591 16.1292 28.204 16.1082 28.2357C15.768 28.7529 15.4947 29.3628 15.2961 30.0474C15.1462 30.5637 15.0361 31.1224 14.9491 31.8058C14.9436 31.8485 14.9373 31.9655 14.9292 32.1194C14.9159 32.3861 14.8816 33.0468 14.8286 33.2725C13.86 32.892 13.451 31.2284 13.2282 30.3222L13.2192 30.2858C12.8918 28.9555 12.8183 27.569 13.0007 26.1643C13.127 25.1903 13.4233 24.2318 13.7096 23.3051C13.8309 22.9128 13.952 22.5207 14.0615 22.1261C14.133 21.8678 14.1964 21.6139 14.1895 21.3493C14.1722 20.7425 13.6559 20.2444 13.3763 19.974C13.238 19.8402 13.1077 19.714 13.0108 19.5828C12.1452 18.4096 11.6194 17.0222 11.219 15.8199C11.1155 15.5092 11.0213 15.199 10.9279 14.8909C10.6105 13.8482 10.3113 12.8633 9.70393 11.9348C9.3661 11.4176 8.98675 10.9201 8.62037 10.439C8.21047 9.90112 7.78673 9.34478 7.42295 8.76394C7.20243 8.41169 7.02948 7.90638 7.1419 7.57142C7.19465 7.41317 7.30621 7.30334 7.48262 7.23618C7.88186 7.08427 8.4454 7.297 8.87865 7.46044C9.93858 7.86026 10.9065 8.46041 11.7137 8.99455C11.8474 9.08304 11.9887 9.20728 12.1397 9.33988C12.4444 9.60854 12.76 9.88642 13.1492 10.0011C13.1754 10.0089 13.2034 10.0133 13.2316 10.0133H13.7981C15.9851 10.0133 18.1208 10.7186 20.5188 12.2334C24.6907 14.8684 27.9037 18.714 30.0685 23.6634C30.214 23.9958 30.3573 24.3293 30.5006 24.6625C30.9226 25.6437 31.359 26.6587 31.8456 27.633C32.0338 28.0103 32.2131 28.3911 32.3924 28.7722C32.7968 29.6312 33.2148 30.5196 33.7351 31.3501C34.2185 32.1226 34.9559 32.3887 35.6532 32.6395C36.2268 32.9263 36.8336 33.1381 37.4205 33.3434C38.1036 33.5821 38.8105 33.8291 39.4579 34.1937C39.9891 34.4932 40.4919 34.8536 40.9784 35.2024C41.3794 35.49 41.7945 35.7878 42.2266 36.0521C42.5647 36.2582 43.0821 36.5742 43.3834 36.8624C43.3554 36.8621 43.3272 36.8621 43.2989 36.8621C41.3261 36.8621 39.5862 37.1562 37.9918 37.7575C37.517 37.9365 37.2331 38.2031 37.1484 38.5496C36.963 39.3063 37.7918 40.2333 38.34 40.8461C39.3616 41.9885 40.6792 42.7109 42.1701 43.4713C43.2067 43.9997 44.0392 44.4759 44.7898 44.9708C45.1611 45.2153 45.5139 45.5038 45.8549 45.7826C45.9837 45.8881 46.1126 45.9936 46.2432 46.097C46.7145 46.4709 47.0566 46.6589 47.2642 46.6589C47.3201 46.6589 47.3662 46.6453 47.4026 46.6179C47.5553 46.5032 47.4651 46.2815 47.4351 46.2089Z" fill="#00678E"/>
<path fill-rule="evenodd" clip-rule="evenodd" d="M7.48264 7.2362C7.30622 7.30336 7.19467 7.41319 7.14163 7.57144C7.0295 7.90611 7.20216 8.41171 7.42297 8.76396C7.78675 9.3448 8.21049 9.90085 8.62039 10.439C8.98677 10.9201 9.36583 11.4177 9.70395 11.9348C10.3113 12.8633 10.6105 13.8482 10.9276 14.8909C11.021 15.1987 11.1155 15.5092 11.219 15.8199C11.6194 17.0223 12.1452 18.4093 13.0108 19.5828C13.1077 19.714 13.238 19.8403 13.3761 19.974C13.656 20.2444 14.1722 20.7425 14.1895 21.3493C14.1964 21.6139 14.133 21.8679 14.0613 22.1261C13.9517 22.5208 13.8306 22.9125 13.7096 23.3051C13.4231 24.2319 13.127 25.1903 13.0008 26.1643C12.8183 27.5687 12.8918 28.9558 13.2193 30.2856L13.2279 30.3219C13.451 31.2285 13.86 32.892 14.8286 33.2725C14.8816 33.0468 14.9156 32.3858 14.9292 32.1195C14.9373 31.9655 14.9436 31.8485 14.9488 31.8058C15.0361 31.1224 15.1463 30.5634 15.2959 30.0472C15.4948 29.3628 15.7677 28.7529 16.1082 28.2358C16.1292 28.2041 16.1566 28.1591 16.1892 28.1055C16.54 27.531 16.9479 26.9328 17.3555 27.1015C17.4587 27.1441 17.5296 27.2263 17.5797 27.2932C18.0049 27.8579 18.2502 28.6111 18.4874 29.3398C18.6347 29.7915 18.7734 30.2181 18.9507 30.5954C19.4387 31.6372 20.0216 32.6911 20.7318 33.8176C21.639 35.2548 22.6401 36.7604 24.0208 37.9835C24.039 37.9996 24.067 38.0207 24.0984 38.0452C24.2382 38.1536 24.412 38.2908 24.4772 38.443C24.4772 38.443 33.2307 33.8787 35.6532 32.6395C34.9556 32.3884 34.2188 32.1226 33.7351 31.3501C33.2148 30.5196 32.7968 29.6312 32.3924 28.7719C32.2134 28.3911 32.0338 28.0103 31.8456 27.633C31.3593 26.6584 30.9226 25.6437 30.5006 24.6625C30.3573 24.329 30.2138 23.9958 30.0682 23.6634C27.9037 18.714 24.6905 14.8684 20.5188 12.2331C18.1208 10.7183 15.9854 10.013 13.7981 10.013H13.2314C13.2034 10.013 13.1754 10.0089 13.1489 10.0009C12.7601 9.88644 12.4447 9.60856 12.1394 9.3399C11.9887 9.2073 11.8474 9.08306 11.7137 8.99457C10.9066 8.46043 9.93859 7.85998 8.87867 7.46046C8.55006 7.33622 8.14621 7.18402 7.79626 7.18402C7.68499 7.18402 7.57892 7.19959 7.48264 7.2362Z" fill="url(#paint0_linear_2361_3689)"/>
<path fill-rule="evenodd" clip-rule="evenodd" d="M15.3552 12.4306C15.0813 12.2853 14.7556 12.2222 14.3904 12.2438L14.361 12.245C14.0952 12.2591 13.5423 12.2882 13.5216 12.616C13.5141 12.7344 13.5691 12.8313 13.6297 12.9181L13.8758 13.2683C14.35 13.9405 14.7977 14.5753 15.1488 15.3112C15.209 15.4374 15.3171 15.5135 15.431 15.5135C15.4419 15.5135 15.4529 15.513 15.4638 15.5115C15.5584 15.4991 15.6232 15.4369 15.6581 15.4034C15.9005 15.1717 16.1271 14.9376 16.2367 14.6294C16.4266 14.0947 16.3332 13.4822 15.987 12.9913C15.8207 12.7555 15.6022 12.5615 15.3552 12.4306Z" fill="#00678E"/>
<defs>
<linearGradient id="paint0_linear_2361_3689" x1="41.1885" y1="27.3098" x2="21.7245" y2="-1.96417" gradientUnits="userSpaceOnUse">
<stop stop-color="#FEFEFE"/>
<stop offset="1" stop-color="#FEFEFE" stop-opacity="0.01"/>
</linearGradient>
</defs>
</svg>
