<svg width="35" height="35" viewBox="0 0 35 35" fill="none" xmlns="http://www.w3.org/2000/svg">
<circle cx="17.5" cy="17.5" r="17.5" fill="#F9C12A"/>
<path d="M19.6719 22.5625V14.1406C19.6719 13.5573 19.5885 13.0885 19.4219 12.7344C19.2656 12.3802 19.0312 12.125 18.7188 11.9688C18.4167 11.8021 18.0365 11.7188 17.5781 11.7188C17.099 11.7188 16.6927 11.8177 16.3594 12.0156C16.0365 12.2135 15.7917 12.4844 15.625 12.8281C15.4583 13.1615 15.375 13.5469 15.375 13.9844H11.7344C11.7344 13.3073 11.8698 12.6562 12.1406 12.0312C12.4219 11.4062 12.8229 10.849 13.3438 10.3594C13.8646 9.86979 14.4948 9.48438 15.2344 9.20312C15.974 8.92188 16.7969 8.78125 17.7031 8.78125C18.7865 8.78125 19.75 8.96354 20.5938 9.32812C21.4375 9.68229 22.099 10.2604 22.5781 11.0625C23.0677 11.8542 23.3125 12.8958 23.3125 14.1875V22.0781C23.3125 22.8594 23.3594 23.5573 23.4531 24.1719C23.5573 24.776 23.6979 25.3021 23.875 25.75V26H20.1719C20.0052 25.5938 19.8802 25.0729 19.7969 24.4375C19.7135 23.8021 19.6719 23.1771 19.6719 22.5625ZM20.1562 15.7031L20.1719 18.0625H18.4219C17.901 18.0625 17.4323 18.1354 17.0156 18.2812C16.599 18.4167 16.2448 18.6146 15.9531 18.875C15.6719 19.125 15.4531 19.4323 15.2969 19.7969C15.151 20.1615 15.0781 20.5625 15.0781 21C15.0781 21.5312 15.151 21.9635 15.2969 22.2969C15.4531 22.6302 15.6771 22.8802 15.9688 23.0469C16.2708 23.2031 16.6354 23.2812 17.0625 23.2812C17.6458 23.2812 18.151 23.1562 18.5781 22.9062C19.0156 22.6458 19.349 22.3333 19.5781 21.9688C19.8177 21.6042 19.9115 21.2708 19.8594 20.9688L20.6875 22.4844C20.6042 22.8802 20.4479 23.2969 20.2188 23.7344C20 24.1719 19.7135 24.5885 19.3594 24.9844C19.0052 25.3802 18.5781 25.7031 18.0781 25.9531C17.5781 26.1927 17 26.3125 16.3438 26.3125C15.3958 26.3125 14.5521 26.1146 13.8125 25.7188C13.0729 25.3229 12.4896 24.7552 12.0625 24.0156C11.6458 23.2656 11.4375 22.3698 11.4375 21.3281C11.4375 20.4844 11.5781 19.7188 11.8594 19.0312C12.1406 18.3438 12.5573 17.7552 13.1094 17.2656C13.6615 16.7656 14.3542 16.3802 15.1875 16.1094C16.0312 15.8385 17.0156 15.7031 18.1406 15.7031H20.1562Z" fill="#333333"/>
</svg>
