<svg width="35" height="35" viewBox="0 0 35 35" fill="none" xmlns="http://www.w3.org/2000/svg">
<circle cx="17.5" cy="17.5" r="17.5" fill="#F9C12A"/>
<path d="M12.8438 5H16.4688V25.375L16.1875 29H12.8438V5ZM25.5781 19.8906V21.2188C25.5781 22.5729 25.4635 23.7552 25.2344 24.7656C25.0052 25.776 24.6615 26.6198 24.2031 27.2969C23.7448 27.974 23.1719 28.4792 22.4844 28.8125C21.7969 29.1458 20.9948 29.3125 20.0781 29.3125C19.224 29.3125 18.4844 29.125 17.8594 28.75C17.2448 28.3646 16.724 27.8281 16.2969 27.1406C15.8802 26.4427 15.5469 25.6146 15.2969 24.6562C15.0573 23.6979 14.8802 22.6406 14.7656 21.4844V19.625C14.8698 18.4688 15.0417 17.4115 15.2812 16.4531C15.5312 15.4844 15.8646 14.6562 16.2812 13.9688C16.6979 13.2708 17.2188 12.7344 17.8438 12.3594C18.4688 11.974 19.2083 11.7812 20.0625 11.7812C20.9896 11.7812 21.7969 11.9479 22.4844 12.2812C23.1719 12.6146 23.7448 13.1198 24.2031 13.7969C24.6615 14.4635 25.0052 15.3073 25.2344 16.3281C25.4635 17.3385 25.5781 18.526 25.5781 19.8906ZM21.9375 21.2188V19.8906C21.9375 19.0365 21.8906 18.2969 21.7969 17.6719C21.7135 17.0469 21.5625 16.5312 21.3438 16.125C21.1354 15.7083 20.8438 15.3958 20.4688 15.1875C20.0938 14.9792 19.6198 14.875 19.0469 14.875C18.5469 14.875 18.1146 14.974 17.75 15.1719C17.3958 15.3698 17.0938 15.651 16.8438 16.0156C16.5938 16.3698 16.3958 16.7812 16.25 17.25C16.1042 17.7083 16.0052 18.2031 15.9531 18.7344V22.375C16.026 23.0729 16.1719 23.7135 16.3906 24.2969C16.6198 24.8802 16.9479 25.3438 17.375 25.6875C17.8125 26.0312 18.3802 26.2031 19.0781 26.2031C19.6302 26.2031 20.0885 26.1094 20.4531 25.9219C20.8177 25.7344 21.1094 25.4375 21.3281 25.0312C21.5573 24.625 21.7135 24.1094 21.7969 23.4844C21.8906 22.849 21.9375 22.0938 21.9375 21.2188Z" fill="#333333"/>
</svg>
