<svg width="24" height="24" viewBox="0 0 24 24" fill="none" xmlns="http://www.w3.org/2000/svg">
<path fill-rule="evenodd" clip-rule="evenodd" d="M2 2H4H20H22V4V20V22H20H4H2V20V4V2ZM4 4H20V10.2666L17.2225 12.6881C16.7741 12.2617 16.1676 12 15.5 12C14.8864 12 14.3245 12.221 13.8894 12.5879L10.8638 10.316C10.9521 10.0603 11 9.78574 11 9.5C11 8.11929 9.88071 7 8.5 7C7.11929 7 6 8.11929 6 9.5C6 9.75826 6.03916 10.0074 6.11187 10.2417L4 12.0129V4ZM9.97113 11.5215C9.55835 11.8224 9.04991 12 8.5 12C7.92425 12 7.39395 11.8054 6.97132 11.4783L4 13.9703V20H20V12.2566L17.9573 14.0375C17.9853 14.1874 18 14.342 18 14.5C18 15.8807 16.8807 17 15.5 17C14.1193 17 13 15.8807 13 14.5C13 14.2781 13.0289 14.063 13.0831 13.8582L9.97113 11.5215ZM8.5 10.5C7.94772 10.5 7.5 10.0523 7.5 9.5C7.5 8.94772 7.94772 8.5 8.5 8.5C9.05228 8.5 9.5 8.94772 9.5 9.5C9.5 10.0523 9.05228 10.5 8.5 10.5ZM14.5 14.5C14.5 15.0523 14.9477 15.5 15.5 15.5C16.0523 15.5 16.5 15.0523 16.5 14.5C16.5 13.9477 16.0523 13.5 15.5 13.5C14.9477 13.5 14.5 13.9477 14.5 14.5Z" fill="#4485FF"/>
</svg>
