<svg width="24" height="24" viewBox="0 0 24 24" fill="none" xmlns="http://www.w3.org/2000/svg">
<path d="M24 12C24 18.6274 18.6274 24 12 24C5.37258 24 0 18.6274 0 12C0 5.37258 5.37258 0 12 0C18.6274 0 24 5.37258 24 12Z" fill="url(#paint0_linear_23609_20045)"/>
<path d="M15.4005 8.50024C17.3884 8.50046 18.9999 10.1119 19.0001 12.0999V13.9006C18.9998 15.8885 17.3884 17.5 15.4005 17.5002H8.59967C6.61176 17.5 5.00027 15.8885 5.00006 13.9006V12.0999C5.00027 10.1119 6.61176 8.50046 8.59967 8.50024H15.4005ZM8.00006 14.0002H9.75006V11.5002H8.00006V14.0002ZM13.2501 11.5002V14.0002H15.0001V11.5002H13.2501Z" fill="white"/>
<path d="M14.3116 9.24118L15.0396 6.52451L15.764 6.71863L15.0361 9.43529L14.3116 9.24118Z" fill="white"/>
<path d="M14.3116 9.24118L15.0396 6.52451L15.764 6.71863L15.0361 9.43529L14.3116 9.24118Z" stroke="white"/>
<circle cx="15.5802" cy="5.8108" r="0.4875" transform="rotate(15 15.5802 5.8108)" fill="white" stroke="white" stroke-width="0.9"/>
<path d="M9.71424 9.24142L8.98632 6.52476L8.26187 6.71887L8.9898 9.43554L9.71424 9.24142Z" fill="white"/>
<path d="M9.71424 9.24142L8.98632 6.52476L8.26187 6.71887L8.9898 9.43554L9.71424 9.24142Z" stroke="white"/>
<circle cx="0.9375" cy="0.9375" r="0.4875" transform="matrix(-0.965926 0.258819 0.258819 0.965926 9.10855 4.66284)" fill="white" stroke="white" stroke-width="0.9"/>
<path d="M15.5001 19.4998L14.0001 17.214L15.1251 15.4998L17.0001 16.6426L15.5001 19.4998Z" fill="white"/>
<defs>
<linearGradient id="paint0_linear_23609_20045" x1="3.5" y1="1.5" x2="13" y2="23" gradientUnits="userSpaceOnUse">
<stop stop-color="#296CF2"/>
</linearGradient>
</defs>
</svg>
