<svg width="49" height="24" viewBox="0 0 49 24" fill="none" xmlns="http://www.w3.org/2000/svg">
<path fill-rule="evenodd" clip-rule="evenodd" d="M14.75 11.3939V6.75H11.25V11.3939H8.91667L13 15.4917L17.0833 11.3939H14.75ZM7.75 16.6625V17.8333H18.25V16.6625H7.75V16.6625Z" fill="#ADADAD"/>
<path fill-rule="evenodd" clip-rule="evenodd" d="M26.31 11.089C26.2929 10.737 26.2523 10.4474 26.1881 10.22C26.1239 9.99271 26.0362 9.81305 25.925 9.68105C25.8138 9.54905 25.6833 9.45922 25.5336 9.41155C25.3839 9.36388 25.2149 9.34005 25.0267 9.34005C24.8042 9.34005 24.5946 9.38588 24.3978 9.47755C24.2011 9.56922 24.0321 9.71588 23.8909 9.91755C23.7498 10.1192 23.6385 10.385 23.5573 10.715C23.476 11.0451 23.4353 11.4447 23.4353 11.914C23.4353 12.3907 23.476 12.7922 23.5573 13.1185C23.6385 13.4449 23.7498 13.7089 23.8909 13.9105C24.0321 14.1122 24.2011 14.2589 24.3978 14.3505C24.5946 14.4422 24.8042 14.488 25.0267 14.488C25.2833 14.488 25.4908 14.4404 25.6491 14.345C25.8074 14.2497 25.9336 14.1232 26.0277 13.9655C26.1218 13.8079 26.1881 13.6282 26.2266 13.4265C26.2651 13.2249 26.2929 13.0177 26.31 12.805H28.312C28.312 13.2597 28.2371 13.6814 28.0874 14.07C27.9377 14.4587 27.7174 14.7997 27.4265 15.093C27.1356 15.3864 26.7763 15.6155 26.3485 15.7805C25.9207 15.9455 25.4288 16.028 24.8727 16.028C24.3508 16.028 23.8781 15.9437 23.4546 15.775C23.0311 15.6064 22.6696 15.3516 22.3702 15.0105C22.0707 14.6695 21.8397 14.2424 21.6772 13.729C21.5146 13.2157 21.4333 12.6107 21.4333 11.914C21.4333 11.2247 21.5146 10.6216 21.6772 10.1045C21.8397 9.58755 22.0707 9.15855 22.3702 8.81755C22.6696 8.47655 23.0311 8.22172 23.4546 8.05305C23.8781 7.88438 24.3508 7.80005 24.8727 7.80005C25.4459 7.80005 25.9485 7.88438 26.3806 8.05305C26.8126 8.22172 27.1741 8.45455 27.465 8.75155C27.7559 9.04855 27.9719 9.39688 28.1131 9.79655C28.2543 10.1962 28.3206 10.627 28.312 11.089H26.31ZM30.3824 13.388C30.3996 13.7841 30.4979 14.0774 30.6776 14.268C30.8573 14.4587 31.161 14.554 31.5888 14.554C31.9481 14.554 32.2219 14.4679 32.4101 14.2955C32.5983 14.1232 32.6924 13.8941 32.6924 13.608C32.6924 13.388 32.5919 13.212 32.3909 13.08C32.1898 12.948 31.9353 12.8325 31.6273 12.7335C31.3193 12.6345 30.9899 12.5337 30.6391 12.431C30.2883 12.3284 29.9589 12.1909 29.6509 12.0185C29.3429 11.8462 29.0884 11.6226 28.8874 11.3475C28.6863 11.0725 28.5858 10.7114 28.5858 10.264C28.5858 9.89005 28.6521 9.55088 28.7847 9.24655C28.9173 8.94221 29.1098 8.68188 29.3622 8.46555C29.6146 8.24921 29.9204 8.08422 30.2798 7.97055C30.6391 7.85688 31.0455 7.80005 31.4989 7.80005C32.3802 7.80005 33.0667 7.98155 33.5587 8.34455C34.0506 8.70755 34.3693 9.28138 34.5148 10.066H32.6154C32.5983 9.79471 32.4999 9.58022 32.3203 9.42255C32.1406 9.26488 31.8925 9.18605 31.5759 9.18605C31.2679 9.18605 31.0263 9.27038 30.8509 9.43905C30.6755 9.60772 30.5878 9.81305 30.5878 10.055C30.5878 10.2897 30.6883 10.4712 30.8894 10.5995C31.0904 10.7279 31.3449 10.8415 31.6529 10.9405C31.9609 11.0395 32.2903 11.1404 32.6411 11.243C32.9919 11.3457 33.3213 11.4905 33.6293 11.6775C33.9373 11.8645 34.1918 12.112 34.3929 12.42C34.5939 12.7281 34.6944 13.1314 34.6944 13.63C34.6944 14.0041 34.6153 14.3377 34.457 14.631C34.2988 14.9244 34.0806 15.1755 33.8025 15.3845C33.5245 15.5935 33.1929 15.753 32.8079 15.863C32.4229 15.973 32.0037 16.028 31.5503 16.028C30.4637 16.028 29.6723 15.7952 29.1761 15.3295C28.6799 14.8639 28.4318 14.2167 28.4318 13.388H30.3824ZM38.7027 15.896L41.2951 7.93205H39.4727L37.8814 13.41H37.8557L36.2901 7.93205H34.3907L36.9831 15.896H38.7027Z" fill="#ADADAD"/>
<rect x="0.5" y="0.5" width="48" height="23" rx="3.5" stroke="#979797"/>
</svg>
