<svg width="24" height="24" viewBox="0 0 24 24" fill="none" xmlns="http://www.w3.org/2000/svg">
<path fill-rule="evenodd" clip-rule="evenodd" d="M9 3L7.17 5.99053H2C2 5.99053 2 6.89036 2 7.99014V19.0004C2 20.1002 2 21 2 21H22C22 21 22 20.1002 22 19.0004V7.99014C22 6.89036 22 5.99053 22 5.99053H16.83L15 3H9ZM4 8H8.24086L10.0201 4.99182H14.0115L16.0978 8H20V19H4L4 8ZM12 17C9.792 17 8 15.208 8 13C8 10.792 9.792 9 12 9C14.208 9 16 10.792 16 13C16 15.208 14.208 17 12 17ZM12 15C13.1046 15 14 14.1046 14 13C14 11.8954 13.1046 11 12 11C10.8954 11 10 11.8954 10 13C10 14.1046 10.8954 15 12 15Z" fill="#757575"/>
</svg>
