<svg width="24" height="24" viewBox="0 0 24 24" fill="none" xmlns="http://www.w3.org/2000/svg">
<path fill-rule="evenodd" clip-rule="evenodd" d="M24 3V21H0V3H24ZM22 5H2V19H22V5ZM7.8755 10.22C7.9305 10.4473 7.96533 10.737 7.98 11.089H9.696C9.70333 10.627 9.6465 10.1962 9.5255 9.7965C9.4045 9.39683 9.21933 9.0485 8.97 8.7515C8.72067 8.4545 8.41084 8.22167 8.0405 8.053C7.67017 7.88433 7.23934 7.8 6.748 7.8C6.30066 7.8 5.8955 7.88433 5.5325 8.053C5.1695 8.22167 4.85967 8.4765 4.603 8.8175C4.34633 9.1585 4.14833 9.5875 4.009 10.1045C3.86967 10.6215 3.8 11.2247 3.8 11.914C3.8 12.6107 3.86967 13.2157 4.009 13.729C4.14833 14.2423 4.34633 14.6695 4.603 15.0105C4.85967 15.3515 5.1695 15.6063 5.5325 15.775C5.8955 15.9437 6.30066 16.028 6.748 16.028C7.22467 16.028 7.64633 15.9455 8.013 15.7805C8.37967 15.6155 8.68767 15.3863 8.937 15.093C9.18633 14.7997 9.37517 14.4587 9.5035 14.07C9.63183 13.6813 9.696 13.2597 9.696 12.805H7.98C7.96533 13.0177 7.9415 13.2248 7.9085 13.4265C7.8755 13.6282 7.81867 13.8078 7.738 13.9655C7.65733 14.1232 7.54917 14.2497 7.4135 14.345C7.27783 14.4403 7.1 14.488 6.88 14.488C6.68933 14.488 6.50967 14.4422 6.341 14.3505C6.17233 14.2588 6.0275 14.1122 5.9065 13.9105C5.7855 13.7088 5.69017 13.4448 5.6205 13.1185C5.55083 12.7922 5.516 12.3907 5.516 11.914C5.516 11.4447 5.55083 11.045 5.6205 10.715C5.69017 10.385 5.7855 10.1192 5.9065 9.9175C6.0275 9.71583 6.17233 9.56917 6.341 9.4775C6.50967 9.38583 6.68933 9.34 6.88 9.34C7.04133 9.34 7.18617 9.36383 7.3145 9.4115C7.44283 9.45917 7.55467 9.549 7.65 9.681C7.74533 9.813 7.8205 9.99267 7.8755 10.22ZM11.7237 14.268C11.5697 14.0773 11.4853 13.784 11.4707 13.388H9.79867C9.79867 14.2167 10.0113 14.8638 10.4367 15.3295C10.862 15.7952 11.5403 16.028 12.4717 16.028C12.8603 16.028 13.2197 15.973 13.5497 15.863C13.8797 15.753 14.1638 15.5935 14.4022 15.3845C14.6405 15.1755 14.8275 14.9243 14.9632 14.631C15.0988 14.3377 15.1667 14.004 15.1667 13.63C15.1667 13.1313 15.0805 12.728 14.9082 12.42C14.7358 12.112 14.5177 11.8645 14.2537 11.6775C13.9897 11.4905 13.7073 11.3457 13.4067 11.243C13.106 11.1403 12.8237 11.0395 12.5597 10.9405C12.2957 10.8415 12.0775 10.7278 11.9052 10.5995C11.7328 10.4712 11.6467 10.2897 11.6467 10.055C11.6467 9.813 11.7218 9.60767 11.8722 9.439C12.0225 9.27033 12.2297 9.186 12.4937 9.186C12.765 9.186 12.9777 9.26483 13.1317 9.4225C13.2857 9.58017 13.37 9.79467 13.3847 10.066H15.0127C14.888 9.28133 14.6148 8.7075 14.1932 8.3445C13.7715 7.9815 13.183 7.8 12.4277 7.8C12.039 7.8 11.6907 7.85683 11.3827 7.9705C11.0747 8.08417 10.8125 8.24917 10.5962 8.4655C10.3798 8.68183 10.2148 8.94217 10.1012 9.2465C9.9875 9.55084 9.93067 9.89 9.93067 10.264C9.93067 10.7113 10.0168 11.0725 10.1892 11.3475C10.3615 11.6225 10.5797 11.8462 10.8437 12.0185C11.1077 12.1908 11.39 12.3283 11.6907 12.431C11.9913 12.5337 12.2737 12.6345 12.5377 12.7335C12.8017 12.8325 13.0198 12.948 13.1922 13.08C13.3645 13.212 13.4507 13.388 13.4507 13.608C13.4507 13.894 13.37 14.1232 13.2087 14.2955C13.0473 14.4678 12.8127 14.554 12.5047 14.554C12.138 14.554 11.8777 14.4587 11.7237 14.268ZM20.8243 7.932L18.6023 15.896H17.1283L14.9063 7.932H16.5343L17.8763 13.41H17.8983L19.2623 7.932H20.8243Z" fill="#757575"/>
</svg>
