<svg width="24" height="24" viewBox="0 0 24 24" fill="none" xmlns="http://www.w3.org/2000/svg">
<path fill-rule="evenodd" clip-rule="evenodd" d="M21 6C21 3.23858 16.9706 1 12 1C7.02944 1 3 3.23858 3 6V6.55621C3.54369 8.787 7.27785 10.875 12 10.875C16.7222 10.875 20.4563 8.787 21 6.55621V6ZM21 9.3499C19.1627 11.2375 15.8195 12.5 12 12.5C8.18051 12.5 4.83735 11.2375 3 9.3499V10.5562C3.54369 12.787 7.27785 14.875 12 14.875C16.7222 14.875 20.4563 12.787 21 10.5562V9.3499ZM3 14.5562V13.3499C4.83735 15.2375 8.18051 16.5 12 16.5C15.8195 16.5 19.1627 15.2375 21 13.3499V14.5562C20.4563 16.787 16.7222 18.875 12 18.875C7.27785 18.875 3.54369 16.787 3 14.5562ZM3 17.3499V18C3 20.7614 7.02944 23 12 23C16.9706 23 21 20.7614 21 18V17.3499C19.1627 19.2375 15.8195 20.5 12 20.5C8.18051 20.5 4.83735 19.2375 3 17.3499Z" fill="#757575"/>
</svg>
