<svg width="24" height="24" viewBox="0 0 24 24" fill="none" xmlns="http://www.w3.org/2000/svg">
<path fill-rule="evenodd" clip-rule="evenodd" d="M14.1009 6L11.2141 1H4.4047L1 6.89711L3.88675 11.8971L1 16.8971L4.4047 22.7942H11.2141L14.1009 17.7942H19.7141L23.1188 11.8971L19.7141 6H14.1009ZM10.0594 10.7942L12.3094 6.89711L10.0594 3H5.5594L3.3094 6.89711L5.5594 10.7942H10.0594ZM10.0594 20.7942L12.3094 16.8971L10.0594 13H5.5594L3.3094 16.8971L5.5594 20.7942H10.0594ZM20.8094 11.8971L18.5594 15.7942H14.0594L11.8094 11.8971L14.0594 8H18.5594L20.8094 11.8971Z" fill="#757575"/>
</svg>
