<svg width="24" height="24" viewBox="0 0 24 24" fill="none" xmlns="http://www.w3.org/2000/svg">
<path fill-rule="evenodd" clip-rule="evenodd" d="M9.26429 4.48568C10.0215 4.21211 10.8157 4.05345 11.619 4.01643L11.5269 2.01855C10.6432 2.05928 9.77329 2.2174 8.93971 2.48386L8.58476 2.60466L9.26429 4.48568ZM7.79912 5.18925C7.1133 5.60862 6.49446 6.12846 5.9641 6.73333L4.4603 5.41478L4.71643 5.13372C5.32537 4.49069 6.01248 3.93748 6.75574 3.48298L7.79912 5.18925ZM4.16312 10.3014C4.26739 9.82772 4.41544 9.36137 4.60713 8.90619C4.7385 8.59664 4.87743 8.31513 5.033 8.04181L3.29485 7.05245C3.10366 7.38834 2.92989 7.73884 2.77519 8.10328C2.57778 8.56834 2.41828 9.03999 2.2953 9.51478L2.20989 9.8714L4.16312 10.3014ZM3.97876 11.8738C3.96536 12.6777 4.07429 13.4795 4.30027 14.2518L2.38076 14.8134L2.28235 14.4523C2.06836 13.6051 1.96426 12.727 1.97904 11.8404L3.97876 11.8738ZM6.34206 17.6898C5.77171 17.1231 5.29063 16.4728 4.91392 15.7619L3.1467 16.6983C3.55542 17.4696 4.06566 18.1896 4.66845 18.8361L4.93242 19.1086L6.34206 17.6898ZM9.79133 19.7064C9.47996 19.6173 9.17248 19.5089 8.86998 19.3812C8.41321 19.1873 7.99213 18.9631 7.59458 18.7034L6.50083 20.3778C6.99066 20.6978 7.51549 20.979 8.07293 21.2156C8.32995 21.3247 8.58899 21.4223 8.84945 21.5084L9.24115 21.6292L9.79133 19.7064ZM20.308 6.43265L21.9998 5.43022L17.563 4.21014L16.3742 8.76355L18.5037 7.50176C19.3709 8.78352 19.8778 10.3321 19.8778 11.9999C19.8778 16.4182 16.3203 19.9999 11.932 19.9999C11.787 19.9999 11.6429 19.996 11.4998 19.9883V21.9877C11.6655 21.9958 11.8322 21.9999 11.9998 21.9999C17.5227 21.9999 21.9998 17.5228 21.9998 11.9999C21.9998 9.93916 21.3765 8.02397 20.308 6.43265ZM12.7845 6.99999H10.939V12.9682L15.9755 16L16.8983 14.5318L12.7845 12.0729V6.99999Z" fill="#757575"/>
</svg>
