<svg width="37" height="32" viewBox="0 0 37 32" fill="none" xmlns="http://www.w3.org/2000/svg">
<path d="M33 0.5C34.933 0.5 36.5 2.067 36.5 4V28C36.5 29.933 34.933 31.5 33 31.5H0.5V0.5H33Z" fill="white"/>
<path d="M33 0.5C34.933 0.5 36.5 2.067 36.5 4V28C36.5 29.933 34.933 31.5 33 31.5H0.5V0.5H33Z" stroke="#ADADAD"/>
<path fill-rule="evenodd" clip-rule="evenodd" d="M23.8333 21.3333H13.1667V10.6667H18.5V9.33334H11.8333V22.6667H25.1667V16H23.8333V20.6667V21.3333ZM20.5846 10.6425H22.9345L16.5 17.077L17.423 18L23.8575 11.5655V13.9154H25.1667V9.33334H20.5846V10.6425Z" fill="#757575"/>
</svg>
