<svg width="24" height="24" viewBox="0 0 24 24" fill="none" xmlns="http://www.w3.org/2000/svg">
<path fill-rule="evenodd" clip-rule="evenodd" d="M5.56556 14.0502L9.10109 10.5146L7.75759 9.17112L4.22206 12.7067C2.27044 14.6583 2.27044 17.8261 4.22206 19.7777C6.17367 21.7293 9.34151 21.7293 11.2931 19.7777L14.8287 16.2422L13.4852 14.8987L9.94962 18.4342C8.74047 19.6434 6.77471 19.6434 5.56556 18.4342C4.35641 17.2251 4.35641 15.2593 5.56556 14.0502ZM9.1718 16.2422L16.2429 9.17112L14.8287 7.75691L7.75759 14.828L9.1718 16.2422V16.2422ZM9.1718 7.75691L10.5153 9.10041L14.0508 5.56488C15.26 4.35572 17.2258 4.35572 18.4349 5.56488C19.6441 6.77403 19.6441 8.73978 18.4349 9.94894L14.8994 13.4845L16.2429 14.828L19.7784 11.2924C21.73 9.34083 21.73 6.17299 19.7784 4.22137C17.8268 2.26976 14.659 2.26976 12.7073 4.22137L9.1718 7.75691Z" fill="#757575"/>
</svg>
