<svg width="24" height="24" viewBox="0 0 24 24" fill="none" xmlns="http://www.w3.org/2000/svg">
<path fill-rule="evenodd" clip-rule="evenodd" d="M16.9308 10C16.9763 10.6505 17 11.3186 17 12C17 12.6814 16.9763 13.3495 16.9308 14H21.7997C21.931 13.3537 22 12.6849 22 12C22 11.3151 21.931 10.6463 21.7997 10H16.9308ZM14.9229 10C14.9728 10.6442 15 11.3127 15 12C15 12.6872 14.9728 13.3558 14.9229 14H9.07699C9.02716 13.3558 9 12.6872 9 12C9 11.3127 9.02716 10.6442 9.07698 10H14.9229ZM16.7151 8H21.1668C20.0221 5.38328 17.7887 3.34965 15.0379 2.47206C15.7999 3.87329 16.3889 5.78806 16.7151 8ZM11.9998 2C12.8802 2.00885 14.1146 4.43774 14.6864 8H9.31291C9.88353 4.43715 11.115 2.00795 11.9907 2C11.9937 2 11.9968 2 11.9998 2ZM8.96012 2.46814C6.20894 3.34358 3.97531 5.37938 2.83139 8H7.28428C7.61005 5.78599 8.19862 3.86972 8.96012 2.46814ZM7.06908 10H2.19989C2.06881 10.6463 2 11.3151 2 12C2 12.6849 2.06881 13.3537 2.19989 14H7.06908C7.02365 13.3495 7 12.6814 7 12C7 11.3186 7.02365 10.6505 7.06908 10ZM7.28428 16H2.83139C3.97531 18.6206 6.20894 20.6564 8.96012 21.5319C8.19862 20.1303 7.61005 18.214 7.28428 16ZM15.0379 21.5279C17.7887 20.6504 20.0221 18.6167 21.1668 16H16.7151C16.3889 18.2119 15.7999 20.1267 15.0379 21.5279ZM14.6864 16H9.31292C9.88447 19.5687 11.119 22 11.995 22C12.8757 22 14.1135 19.5688 14.6864 16Z" fill="#757575"/>
</svg>
