<svg width="37" height="37" viewBox="0 0 37 37" fill="none" xmlns="http://www.w3.org/2000/svg">
<circle cx="18.1032" cy="18.1032" r="18.1032" fill="#F9C12A"/>
<path d="M13.4371 8.08008V28H9.15781V12.9473L4.53672 14.3555V11.0469L13.0133 8.08008H13.4371ZM31.6527 24.6777V28H17.8988V25.1836L24.3246 18.375C24.9262 17.6823 25.4047 17.0716 25.7602 16.543C26.1247 16.0143 26.3891 15.5358 26.5531 15.1074C26.7172 14.6699 26.7992 14.2689 26.7992 13.9043C26.7992 13.3118 26.7035 12.8105 26.5121 12.4004C26.3298 11.9902 26.0609 11.6758 25.7055 11.457C25.35 11.2383 24.9171 11.1289 24.4066 11.1289C23.8598 11.1289 23.3904 11.2702 22.9984 11.5527C22.6065 11.8353 22.3057 12.2272 22.0961 12.7285C21.8865 13.2207 21.7816 13.7812 21.7816 14.4102H17.4887C17.4887 13.1979 17.7803 12.0951 18.3637 11.1016C18.947 10.099 19.7628 9.30143 20.8109 8.70898C21.8591 8.10742 23.085 7.80664 24.4887 7.80664C25.9288 7.80664 27.1365 8.03451 28.1117 8.49023C29.087 8.94596 29.8253 9.59766 30.3266 10.4453C30.8279 11.293 31.0785 12.3138 31.0785 13.5078C31.0785 14.1823 30.9691 14.834 30.7504 15.4629C30.5408 16.0918 30.2354 16.7161 29.8344 17.3359C29.4333 17.9557 28.9503 18.5892 28.3852 19.2363C27.8201 19.8743 27.182 20.5488 26.4711 21.2598L23.4633 24.6777H31.6527Z" fill="black"/>
</svg>
