<svg width="24" height="24" viewBox="0 0 24 24" fill="none" xmlns="http://www.w3.org/2000/svg">
<path fill-rule="evenodd" clip-rule="evenodd" d="M16.5 19.8933L12 23V20.9909C7.02944 20.9909 3 16.943 3 11.9498C3 10.144 3.52701 8.46182 4.43494 7.05006L6.0378 8.26342C5.3797 9.33528 5 10.598 5 11.9498C5 15.8334 8.13401 18.9817 12 18.9817V16.9726L16.5 19.8933ZM7.5 3.9207L12 7.0274V4.91781C15.866 4.91781 19 8.06613 19 11.9498C19 13.3294 18.6045 14.6163 17.9211 15.7022L19.5228 16.9146C20.4566 15.4896 21 13.7834 21 11.9498C21 6.95651 16.9706 2.90868 12 2.90868V1L7.5 3.9207Z" fill="#757575"/>
</svg>
