<svg class="SVGInline-svg" style="width: 16px;height: 16px;" width="24px" height="24px" viewBox="0 0 24 24" version="1.1" xmlns="http://www.w3.org/2000/svg" xmlns:xlink="http://www.w3.org/1999/xlink">
    <!-- Generator: Sketch 59.1 (86144) - https://sketch.com -->
    <!-- <title>ic-speed-chart</title> -->
    <desc>Created with Sketch.</desc>
    <g id="Icon-Set" stroke="none" stroke-width="1" fill="none" fill-rule="evenodd">
        <g id="WhaTap_Icon_Set" transform="translate(-356.000000, -1704.000000)" fill="#757575">
            <g id="data-icons" transform="translate(40.000000, 1579.000000)">
                <g id="ic-speed-chart" transform="translate(316.000000, 125.000000)">
                    <g transform="translate(2.000000, 3.000000)" id="Combined-Shape">
                        <path d="M10,-4.08562073e-14 C15.5228475,-4.08562073e-14 20,4.4771525 20,10 C20,13.0025342 18.6767201,15.6959998 16.5815433,17.5290139 L15.1589714,16.1145564 C16.407001,15.0604963 17.327914,13.6312712 17.7477478,12.0008438 L16.5,12 L16.5,10 L18,10 L18,10 C18,8.40878395 17.5354376,6.92607227 16.7345448,5.68009713 L15.6568542,6.75735931 L14.2426407,5.34314575 L15.4460786,4.139901 C14.2480854,3.02604133 12.7080598,2.27509424 11.0009551,2.06201291 L11,4 L9,4 L9.00004872,2.06188768 C7.29254391,2.27479988 5.75214943,3.02582301 4.55392137,4.139901 L5.75735931,5.34314575 L4.34314575,6.75735931 L3.26545518,5.68009713 C2.46456245,6.92607227 2,8.40878395 2,10 L3.5,10 L3.5,12 L2.25229079,12.0009937 C2.67607154,13.6466164 3.61031733,15.0872605 4.87615209,16.1440499 L3.45714182,17.5626847 C1.33958168,15.729068 0,13.0209721 0,10 C0,4.4771525 4.4771525,-4.08562073e-14 10,-4.08562073e-14 Z M12.4142136,7.17157288 C12.8047379,6.78104858 13.4379028,6.78104858 13.8284271,7.17157288 C14.2189514,7.56209717 14.2189514,8.19526215 13.8284271,8.58578644 L13.8284271,8.58578644 L11.9325244,10.4829588 C11.9765379,10.6478854 12,10.8212028 12,11 C12,12.1045695 11.1045695,13 10,13 C8.8954305,13 8,12.1045695 8,11 C8,9.8954305 8.8954305,9 10,9 C10.1787972,9 10.3521146,9.02346212 10.5170412,9.06747557 Z"></path>
                    </g>
                </g>
            </g>
        </g>
    </g>
</svg>