<svg width="24" height="24" viewBox="0 0 24 24" fill="none" xmlns="http://www.w3.org/2000/svg">
<path fill-rule="evenodd" clip-rule="evenodd" d="M16.0513 14.6636C18.4479 11.5841 18.231 7.1297 15.4004 4.29915C12.3349 1.23362 7.36468 1.23362 4.29915 4.29915C1.23362 7.36468 1.23362 12.3349 4.29915 15.4004C7.1297 18.231 11.5841 18.4479 14.6636 16.0513L19.6123 21L21 19.6123L16.0513 14.6636ZM14.0128 14.0128C11.7136 16.3119 7.98595 16.3119 5.6868 14.0128C3.38766 11.7136 3.38766 7.98595 5.6868 5.6868C7.98595 3.38766 11.7136 3.38766 14.0128 5.68681C16.3119 7.98595 16.3119 11.7136 14.0128 14.0128Z" fill="#757575"/>
</svg>
