<svg width="24" height="24" viewBox="0 0 24 24" fill="none" xmlns="http://www.w3.org/2000/svg">
<path d="M16 3H2V7H4V5H8V19H5V21H13V19H10V5H14V7H16V3Z" fill="#757575"/>
<path d="M13.25 13.5C13.9404 13.5 14.5 12.9404 14.5 12.25C14.5 11.5596 13.9404 11 13.25 11C12.5596 11 12 11.5596 12 12.25C12 12.9404 12.5596 13.5 13.25 13.5Z" fill="#757575"/>
<path d="M17.25 13.5C17.9404 13.5 18.5 12.9404 18.5 12.25C18.5 11.5596 17.9404 11 17.25 11C16.5596 11 16 11.5596 16 12.25C16 12.9404 16.5596 13.5 17.25 13.5Z" fill="#757575"/>
<path d="M22.5 12.25C22.5 12.9404 21.9404 13.5 21.25 13.5C20.5596 13.5 20 12.9404 20 12.25C20 11.5596 20.5596 11 21.25 11C21.9404 11 22.5 11.5596 22.5 12.25Z" fill="#757575"/>
</svg>
