<svg width="44" height="38" viewBox="0 0 44 38" fill="none" xmlns="http://www.w3.org/2000/svg">
<rect x="18" y="11" width="8" height="22" fill="white"/>
<path d="M43.6052 33.7552L24.4274 1.39052C23.3288 -0.463853 20.6199 -0.463853 19.5234 1.39259L0.393681 33.7594C-0.715376 35.6365 0.650582 38 2.84572 38H41.1531C43.3503 38 44.7163 35.6344 43.6052 33.7573V33.7552ZM22.0005 32.0209C20.8956 32.0209 20.0017 31.1351 20.0017 30.0402C20.0017 28.9454 20.8956 28.0596 22.0005 28.0596C23.1053 28.0596 23.9993 28.9454 23.9993 30.0402C23.9993 31.1351 23.1053 32.0209 22.0005 32.0209ZM24.2875 14.5492L23.6964 24.2184C23.6421 25.1063 22.8986 25.7996 22.0005 25.7996C21.1024 25.7996 20.3588 25.1063 20.3045 24.2184L19.7134 14.5492C19.6341 13.2432 20.6805 12.1422 22.0005 12.1422C23.3205 12.1422 24.3669 13.2453 24.2875 14.5492Z" fill="#ED942E"/>
</svg>
