<svg class="SVGInline-svg" style="width: 16px;height: 16px;" width="24px" height="24px" viewBox="0 0 24 24" version="1.1" xmlns="http://www.w3.org/2000/svg" xmlns:xlink="http://www.w3.org/1999/xlink">
    <!-- Generator: Sketch 59.1 (86144) - https://sketch.com -->
    <!-- <title>ic-more-vertical</title> -->
    <desc>Created with Sketch.</desc>
    <g id="Icon-Set" stroke="none" stroke-width="1" fill="none" fill-rule="evenodd">
        <g id="WhaTap_Icon_Set" transform="translate(-164.000000, -2951.000000)" fill="#757575">
            <g id="application-icons" transform="translate(40.000000, 2346.000000)">
                <g id="ic-more-vertical" transform="translate(124.000000, 605.000000)">
                    <g transform="translate(10.000000, 3.000000)" id="Combined-Shape">
                        <path d="M2,14 C3.1045695,14 4,14.8954305 4,16 C4,17.1045695 3.1045695,18 2,18 C0.8954305,18 0,17.1045695 0,16 C0,14.8954305 0.8954305,14 2,14 Z M2,7 C3.1045695,7 4,7.8954305 4,9 C4,10.1045695 3.1045695,11 2,11 C0.8954305,11 0,10.1045695 0,9 C0,7.8954305 0.8954305,7 2,7 Z M2,0 C3.1045695,0 4,0.8954305 4,2 C4,3.1045695 3.1045695,4 2,4 C0.8954305,4 0,3.1045695 0,2 C0,0.8954305 0.8954305,0 2,0 Z"></path>
                    </g>
                </g>
            </g>
        </g>
    </g>
</svg>