<svg width="16" height="16" viewBox="0 0 16 16" fill="none" xmlns="http://www.w3.org/2000/svg">
<path d="M4.38354 1.36401C4.85972 1.23661 5.34966 1.5197 5.47729 1.99585C5.57541 2.36243 5.42949 2.73584 5.14038 2.94702L5.63354 4.78589H10.3923L10.8845 2.94702C10.5954 2.7358 10.4504 2.36242 10.5486 1.99585C10.6763 1.5198 11.1652 1.23664 11.6414 1.36401C12.1174 1.49172 12.4006 1.98162 12.2732 2.45776C12.1821 2.79758 11.906 3.0373 11.5828 3.10132L11.1316 4.78589H11.6667C13.3233 4.78606 14.6665 6.12934 14.6667 7.78589V10.3572C14.6667 11.7676 13.6924 12.9476 12.3806 13.2683L11.3337 15.2625L10.0828 13.3572H4.33276C2.6762 13.3569 1.33284 12.0138 1.33276 10.3572V7.78589C1.33299 6.12941 2.67629 4.78618 4.33276 4.78589H4.89429L4.44214 3.10132C4.11899 3.03724 3.84373 2.79748 3.75269 2.45776C3.62513 1.98154 3.90738 1.49171 4.38354 1.36401ZM4.19019 10.0232H5.85718V7.64233H4.19019V10.0232ZM9.19019 10.0232H10.8572V7.64233H9.19019V10.0232Z" fill="#296CF2"/>
</svg>
