<svg class="SVGInline-svg" style="width: 60px;height: 60px;" xmlns="http://www.w3.org/2000/svg" width="32" height="32" viewBox="0 0 32 32">
  <g fill="none" fill-rule="evenodd">
      <g>
          <g>
              <g>
                  <g>
                      <g>
                          <path d="M0 0L32 0 32 32 0 32z" transform="translate(-1343 -668) translate(1075 501) translate(16 16) translate(252 151)"></path>
                      </g>
                      <path fill="#004086" d="M6.4 24.768c.051.002.074-.044.105-.072l6.79-5.982 7.226-6.367 5.79-5.103.056-.044c.035.03.02.065.02.095 0 5.79 0 11.581.004 17.373 0 .115-.037.131-.135.131-1.071-.004-2.143-.005-3.214.001-.13 0-.15-.041-.15-.163.003-3.298.003-6.596.003-9.894v-.158l-.268.232-8.901 7.87c-.765.676-1.529 1.353-2.292 2.03-.056.048-.11.082-.19.082-1.578-.003-3.158-.002-4.737-.003-.036 0-.07-.002-.107-.004v-.024z" transform="translate(-1343 -668) translate(1075 501) translate(16 16) translate(252 151)"></path>
                  </g>
              </g>
          </g>
      </g>
  </g>
</svg>