<svg class="SVGInline-svg" style="width: 16px;height: 16px;" xmlns="http://www.w3.org/2000/svg" width="24" height="24" viewBox="0 0 24 24">
    <path fill="#757575" fill-rule="evenodd" d="M17.563 4.21L22 5.43l-1.78 1.056A10.002 10.002 0 0 1 21.863 12c0 5.523-4.446 10-9.932 10-.178 0-.356-.005-.532-.014l.077-1.999c.15.009.302.013.455.013 4.389 0 7.946-3.582 7.946-8a8.001 8.001 0 0 0-1.374-4.498l-2.13 1.262 1.19-4.554zM7.627 18.732a8.11 8.11 0 0 0 2.196 1.003l-.55 1.923-.391-.121a10.134 10.134 0 0 1-2.35-1.13zM4.946 15.79c.377.711.858 1.361 1.428 1.928l-1.41 1.419-.263-.273a10 10 0 0 1-1.522-2.137zM12.785 7v5.073l4.113 2.459L15.976 16l-5.037-3.032V7h1.846zM2.01 11.869l2 .033a7.994 7.994 0 0 0 .321 2.378l-1.92.562-.098-.361a9.986 9.986 0 0 1-.303-2.612zM3.327 7.08l1.738.99a8.207 8.207 0 0 0-.87 2.259L2.242 9.9l.085-.357a10.08 10.08 0 0 1 1-2.462zm3.46-3.57l1.044 1.707c-.686.419-1.304.939-1.835 1.544L4.492 5.443l.257-.28A9.974 9.974 0 0 1 6.788 3.51zm4.772-1.464l.092 1.998a8.02 8.02 0 0 0-2.355.469l-.68-1.881.356-.12a10.012 10.012 0 0 1 2.587-.466z"></path>
</svg>