<svg class="SVGInline-svg" style="width: 16px;height: 16px;" width="24px" height="24px" viewBox="0 0 24 24" version="1.1" xmlns="http://www.w3.org/2000/svg" xmlns:xlink="http://www.w3.org/1999/xlink">
    <!-- Generator: Sketch 59.1 (86144) - https://sketch.com -->
    <!-- <title>ic-folder-add</title> -->
    <desc>Created with Sketch.</desc>
    <g id="Icon-Set" stroke="none" stroke-width="1" fill="none" fill-rule="evenodd">
        <g id="WhaTap_Icon_Set" transform="translate(-932.000000, -2551.000000)" fill="#757575">
            <g id="application-icons" transform="translate(40.000000, 2346.000000)">
                <g id="ic-folder-add" transform="translate(892.000000, 205.000000)">
                    <g transform="translate(2.000000, 4.000000)" id="Combined-Shape">
                        <path d="M8,0 L10,2 L18,2 C19.05,2 19.9177686,2.82004132 19.9944872,3.85130541 L20,4 L20,6 L18,6 L18,4 L9.17,4 L7.17,2 L2,2 L2,14 L10,14 L10,16 L2,16 C0.95,16 0.082231405,15.1799587 0.00551277235,14.1486946 L0,14 L0.01,2 C0.01,0.95 0.820929752,0.082231405 1.85136551,0.00551277235 L2,0 L8,0 Z M17,8 L17,11 L20,11 L20,13 L17,13 L17,16 L15,16 L15,12.999 L12,13 L12,11 L15,10.999 L15,8 L17,8 Z"></path>
                    </g>
                </g>
            </g>
        </g>
    </g>
</svg>