<svg class="SVGInline-svg" style="width: 60px;height: 60px;" xmlns="http://www.w3.org/2000/svg" width="32" height="32" viewBox="0 0 32 32">
  <g fill="none" fill-rule="evenodd">
      <g>
          <g>
              <g>
                  <g>
                      <path d="M0 0L32 0 32 32 0 32z" transform="translate(-1271 -668) translate(1075 501) translate(16 16) translate(180 151)"></path>
                      <path fill="#000" d="M27.448 16.999c.454-.004.88.083 1.231.395.384.34.575.785.606 1.285.056.913-.137 1.776-.637 2.55-.49.761-1.197 1.163-2.105 1.17-.569.006-1.086-.145-1.455-.62-.241-.31-.364-.672-.384-1.056-.048-.896.112-1.754.604-2.52.404-.626.961-1.051 1.717-1.175.026-.004.052-.01.079-.01.114-.008.23-.013.344-.02zm-9.03.007c.441.033.852.142 1.197.433.39.33.552.777.629 1.264.07.448.077.897.019 1.368h-2.88c0 .182-.016.354.004.52.019.155.12.272.259.35.28.16.584.149.89.121.522-.047 1.009-.206 1.461-.47.014-.009.031-.013.068-.026l-.059.442c-.03.231-.066.463-.091.695-.01.088-.049.141-.123.186-.536.328-1.12.488-1.746.505-.605.017-1.154-.135-1.61-.55-.372-.341-.587-.776-.666-1.267-.155-.959.003-1.859.595-2.649.51-.68 1.198-.987 2.052-.922zm-5.309-1.428l-.272 1.604c.237-.06.465-.141.701-.171.625-.08 1.13.21 1.394.782.18.39.232.801.205 1.226-.039.596-.162 1.172-.418 1.713-.338.715-.856 1.242-1.645 1.44-.246.062-.505.09-.76.096-.618.014-1.237.005-1.855.006-.026 0-.052-.004-.093-.007l1.146-6.689h1.597zm11.522 1.498l.062.024c.24.104.25.136.14.367-.204.422-.405.844-.607 1.266l-.051.1c-.087-.042-.168-.087-.252-.12-.442-.173-.853-.03-1.038.402-.113.264-.17.555-.223.84-.135.737-.251 1.478-.38 2.217-.007.038-.058.097-.089.098-.5.005-.999.002-1.498.001-.008 0-.016-.007-.036-.016l.88-5.18h1.582l-.068.59c.153-.138.287-.27.435-.387.343-.27.724-.352 1.143-.202zM8.172 15.58l-.143.849c-.03.178-.07.355-.091.534-.011.095-.05.113-.135.112-.403-.003-.805-.001-1.208 0-.025 0-.051.002-.09.004l-.888 5.187H3.723l.888-5.191H3.2l.255-1.495h4.717zm2.126 1.508l-.886 5.177H7.789l.886-5.177h1.623zm16.632 1.443c-.107.094-.2.215-.267.34-.225.418-.287.876-.324 1.366.011.095.021.214.04.331.007.052.026.103.046.151.121.293.387.377.627.17.135-.117.245-.278.328-.44.165-.32.223-.677.26-1.033.024-.242.03-.485-.061-.718-.116-.298-.41-.38-.65-.167zm-13.92-.11c-.124.002-.26.028-.366.086-.052.029-.057.155-.072.238-.078.434-.153.868-.228 1.303-.048.281-.094.563-.142.853.584.062.87-.104 1.058-.633.083-.235.137-.483.18-.729.047-.26.063-.527-.02-.786-.07-.216-.2-.334-.41-.332zm4.86-.126c-.223.203-.309.474-.355.786h.738c.121 0 .241-.001.362-.003.027-.001.077-.057.077-.088 0-.145.002-.293-.024-.434-.076-.402-.496-.538-.799-.261zm-7.417-2.443c-.057.417-.46.772-.88.774-.398.003-.674-.315-.62-.715.054-.403.352-.742.712-.809.511-.094.858.235.788.75zm3.642-5.125c.346.075.571.325.573.682.002.28-.035.562-.062.843-.026.263-.068.525-.092.788-.017.188.037.227.242.186-.011.064-.019.123-.031.18-.042.195-.083.389-.13.581-.008.036-.039.083-.07.093-.218.07-.44.088-.662.015-.19-.061-.301-.208-.395-.386-.015.014-.028.022-.037.033-.292.38-.684.456-1.126.365-.331-.069-.509-.269-.553-.607-.073-.55.163-1 .66-1.257.35-.182.728-.26 1.12-.28l.07-.007c.088-.326-.012-.457-.337-.449-.304.007-.592.083-.86.23-.045.026-.092.049-.158.084.05-.267.093-.513.144-.758.006-.03.05-.058.082-.076.51-.283 1.048-.385 1.622-.26zm3.837.05h.268l-.629.956c-.104.158-.204.32-.314.475-.047.066-.047.12-.017.193.211.504.418 1.011.626 1.517l.06.155h-.296c-.243 0-.487-.005-.73.003-.098.003-.146-.023-.182-.12-.12-.318-.25-.63-.383-.964-.03.044-.053.072-.072.103-.177.296-.355.59-.527.889-.038.065-.079.093-.156.091-.264-.005-.527-.002-.814-.002l.473-.74c.212-.33.423-.662.64-.99.048-.074.057-.133.022-.217-.169-.402-.33-.808-.495-1.213-.016-.04-.03-.08-.05-.135h.719c.118 0 .235.002.353.004.034 0 .08.057.099.098.097.222.187.446.29.697l.179-.278c.11-.171.182-.407.338-.494.156-.087.395-.025.598-.028zM7.52 9.601c.007.026.012.034.01.042l-.168.981H6.61c-.234 0-.23 0-.268.234-.175 1.053-.352 2.105-.529 3.158-.002.016-.007.033-.012.053H4.52l.574-3.443H4.14c.053-.321.107-.63.154-.94.012-.08.057-.087.107-.086H7.52zm1.739 1.073c.333 0 .551.176.702.443.122-.105.225-.226.354-.3.48-.272 1.28-.133 1.287.734.003.28-.05.562-.088.842-.07.52-.146 1.04-.22 1.559-.006.038-.017.076-.025.115h-1.053c.1-.696.203-1.385.297-2.075.015-.107.007-.222-.018-.326-.029-.121-.146-.17-.263-.12-.135.056-.237.147-.26.306-.103.724-.209 1.449-.314 2.173-.002.013-.006.025-.011.043H8.62c.057-.39.11-.772.167-1.155.047-.323.097-.645.145-.968.005-.035.005-.07.006-.106.004-.196-.073-.309-.22-.32-.148-.01-.303.124-.328.288-.036.235-.07.47-.105.707l-.226 1.552H7.03l.472-3.28h.938l-.01.213c.238-.251.518-.326.828-.325zm4.256 1.847c-.36-.003-.626.257-.623.595.002.166.044.227.165.238.178.016.339-.078.36-.212l.098-.621z" transform="translate(-1271 -668) translate(1075 501) translate(16 16) translate(180 151)"></path>
                  </g>
              </g>
          </g>
      </g>
  </g>
</svg>