<svg class="SVGInline-svg" style="width: 20px;height: 20px;" width="24px" height="24px" viewBox="0 0 24 24" version="1.1" xmlns="http://www.w3.org/2000/svg" xmlns:xlink="http://www.w3.org/1999/xlink">
    <!-- Generator: Sketch 59.1 (86144) - https://sketch.com -->
    <!-- <title>ic-live-time</title> -->
    <desc>Created with Sketch.</desc>
    <g id="Icon-Set" stroke="none" stroke-width="1" fill="none" fill-rule="evenodd">
        <g id="WhaTap_Icon_Set" transform="translate(-263.000000, -2242.000000)" fill="#757575">
            <g id="time-icons" transform="translate(43.000000, 2197.000000)">
                <g id="ic-live-time" transform="translate(220.000000, 45.000000)">
                    <g transform="translate(2.000000, 2.000000)">
                        <path d="M10,0 C15.5228475,0 20,4.4771525 20,10 C20,15.5228475 15.5228475,20 10,20 C4.4771525,20 0,15.5228475 0,10 C0,4.4771525 4.4771525,0 10,0 Z M10,2 C5.581722,2 2,5.581722 2,10 C2,14.418278 5.581722,18 10,18 C14.418278,18 18,14.418278 18,10 C18,5.581722 14.418278,2 10,2 Z M8,6 L14,10 L8,14 L8,6 Z"></path>
                    </g>
                </g>
            </g>
        </g>
    </g>
</svg>