<svg width="36" height="18" viewBox="0 0 36 18" fill="none" xmlns="http://www.w3.org/2000/svg">
<path fill-rule="evenodd" clip-rule="evenodd" d="M26.8503 6.23886H25.401L24.6113 10.3164H25.8979C26.7506 10.3164 27.3859 10.1553 27.8033 9.83282C28.2208 9.51036 28.5023 8.9722 28.6485 8.21806C28.7886 7.494 28.7249 6.98304 28.4573 6.68538C28.1895 6.38773 27.6539 6.23886 26.8503 6.23886ZM10.3404 6.23886H8.89116L8.10137 10.3164H9.38796C10.2408 10.3164 10.876 10.1553 11.2935 9.83282C11.7109 9.51036 11.9925 8.9722 12.1387 8.21806C12.2787 7.494 12.215 6.98304 11.9474 6.68538C11.6797 6.38773 11.1441 6.23886 10.3404 6.23886ZM30.8348 8.36692C30.7427 8.84265 30.5868 9.27767 30.3674 9.67165C30.1478 10.066 29.861 10.4266 29.5066 10.7535C29.0842 11.1501 28.615 11.4327 28.0987 11.601C27.5824 11.7698 26.9247 11.8539 26.1253 11.8539H24.3134L23.8118 14.4441H21.6965L23.5837 4.70144H27.6513C28.875 4.70144 29.7675 5.02363 30.3286 5.66807C30.8898 6.31252 31.0586 7.21205 30.8348 8.36692ZM19.1711 11.8539L20.0059 7.54313C20.1009 7.05275 20.066 6.71827 19.901 6.53992C19.736 6.36158 19.385 6.27228 18.8481 6.27228H17.1708L16.0898 11.8539H13.9912L15.8785 2.11121H17.9771L17.4753 4.70144H19.3449C20.5211 4.70144 21.3326 4.90745 21.7792 5.31894C22.2257 5.73071 22.3595 6.39788 22.181 7.32013L21.3029 11.8539H19.1711ZM12.9967 10.7535C12.5743 11.1501 12.1051 11.4327 11.5888 11.601C11.0725 11.7698 10.4149 11.8539 9.61541 11.8539H7.80363L7.30191 14.4441H5.18667L7.07393 4.70144H11.1414C12.3651 4.70144 13.2577 5.02363 13.8188 5.66807C14.3799 6.31252 14.5488 7.21205 14.325 8.36692C14.2329 8.84265 14.077 9.27767 13.8576 9.67165C13.6379 10.066 13.3511 10.4266 12.9967 10.7535ZM18.0001 0C8.22475 0 0.299988 4.02952 0.299988 9C0.299988 13.9706 8.22475 18 18.0001 18C27.7753 18 35.7 13.9706 35.7 9C35.7 4.02952 27.7753 0 18.0001 0Z" fill="#777BB4"/>
</svg>
