<svg class="SVGInline-svg" style="width: 16px;height: 16px;" width="24px" height="24px" viewBox="0 0 24 24" version="1.1" xmlns="http://www.w3.org/2000/svg" xmlns:xlink="http://www.w3.org/1999/xlink">
  <!-- Generator: Sketch 59.1 (86144) - https://sketch.com -->
  <!-- <title>ic-list</title> -->
  <desc>Created with Sketch.</desc>
  <g id="Icon-Set" stroke="none" stroke-width="1" fill="none" fill-rule="evenodd">
      <g id="WhaTap_Icon_Set" transform="translate(-548.000000, -2471.000000)" fill="#757575">
          <g id="application-icons" transform="translate(40.000000, 2346.000000)">
              <g id="ic-list" transform="translate(508.000000, 125.000000)">
                  <g transform="translate(2.000000, 2.000000)" id="Combined-Shape">
                      <path d="M2,16 L2,18 L0,18 L0,16 L2,16 Z M20,16 L20,18 L4,18 L4,16 L20,16 Z M2,9 L2,11 L0,11 L0,9 L2,9 Z M20,9 L20,11 L4,11 L4,9 L20,9 Z M2,2 L2,4 L0,4 L0,2 L2,2 Z M20,2 L20,4 L4,4 L4,2 L20,2 Z"></path>
                  </g>
              </g>
          </g>
      </g>
  </g>
</svg>