<svg class="SVGInline-svg" style="width: 16px;height: 16px;" width="24px" height="24px" viewBox="0 0 24 24" version="1.1" xmlns="http://www.w3.org/2000/svg" xmlns:xlink="http://www.w3.org/1999/xlink">
    <!-- Generator: Sketch 59.1 (86144) - https://sketch.com -->
    <!-- <title>ic-edit</title> -->
    <desc>Created with Sketch.</desc>
    <g id="Icon-Set" stroke="none" stroke-width="1" fill="none" fill-rule="evenodd">
        <g id="WhaTap_Icon_Set" transform="translate(-68.000000, -1395.000000)" fill="#757575">
            <g id="editor-icons" transform="translate(40.000000, 1350.000000)">
                <g id="ic-edit" transform="translate(28.000000, 45.000000)">
                    <g transform="translate(2.000000, 1.000000)">
                        <path d="M20,18 L20,20 L0,20 L0,18 L20,18 Z M12.9393398,1 L17.9332108,6.00640778 L17.901,6.038 L17.9037085,6.04 L8.00421356,15.9394949 L8,15.935 L8,15.94 L3,15.94 L3,10.94 L3.005,10.94 L3,10.9355339 L12.8994949,1.03603897 L12.901,1.038 L12.9393398,1 Z M12.935,3.828 L5,11.763 L5,13.94 L7.175,13.94 L15.108,6.006 L12.935,3.828 Z"></path>
                    </g>
                </g>
            </g>
        </g>
    </g>
</svg>