<svg class="SVGInline-svg" style="width: 60px;height: 60px;" xmlns="http://www.w3.org/2000/svg" width="40" height="40" viewBox="0 0 40 40">
  <g fill="none" fill-rule="evenodd">
      <g>
          <g>
              <g>
                  <path d="M28 16H52V40H28z" transform="translate(-828.000000, -4721.000000) translate(808.000000, 4719.000000)"></path>
              </g>
              <g fill="#4485FF">
                  <path d="M17.333 0v4.073c3.412.377 6.393 2.185 8.33 4.81l3.527-2.038 1.333 2.31-3.526 2.035C27.642 12.663 28 14.29 28 16c0 1.71-.358 3.337-1.003 4.81l3.526 2.035-1.333 2.31-3.528-2.038c-1.936 2.625-4.917 4.433-8.328 4.81V32h-2.667v-4.073c-3.412-.377-6.393-2.185-8.33-4.81L2.81 25.155l-1.333-2.31 3.526-2.035C4.358 19.337 4 17.71 4 16c0-1.71.358-3.337 1.003-4.81L1.477 9.155l1.333-2.31 3.528 2.038c1.936-2.625 4.917-4.433 8.328-4.81V0h2.667zm-3.932 19.04l-4.734 2.734c1.449 1.838 3.573 3.118 6 3.465v-5.467c-.468-.165-.896-.415-1.266-.731zm5.198.001c-.37.316-.798.566-1.266.731v5.467c2.427-.347 4.551-1.627 6-3.465zM6.667 16c0 1.225.236 2.394.664 3.466l4.736-2.735C12.023 16.494 12 16.25 12 16s.023-.494.067-.732L7.33 12.534c-.428 1.072-.664 2.241-.664 3.466zm18.002-3.465l-4.736 2.733c.044.238.067.482.067.732s-.023.494-.067.73l4.736 2.735c.429-1.072.664-2.24.664-3.465 0-1.224-.235-2.393-.664-3.465zm-16.002-2.31L13.4 12.96c.37-.316.798-.566 1.266-.731V6.76c-2.427.347-4.551 1.627-6 3.465zm8.667-3.464v5.467c.467.165.895.415 1.265.731l4.734-2.733c-1.449-1.838-3.573-3.118-6-3.465z" transform="translate(-828.000000, -4721.000000) translate(808.000000, 4719.000000) translate(24.000000, 6.000000)"></path>
              </g>
          </g>
      </g>
  </g>
</svg>