<svg width="40" height="40" viewBox="0 0 40 40" fill="none" xmlns="http://www.w3.org/2000/svg">
<path d="M21.8718 20.3966C20.5938 21.6746 20.5938 23.7467 21.8718 25.0246C23.1499 26.3026 25.2222 26.3026 26.5003 25.0246C27.7784 23.7467 27.7784 21.6746 26.5003 20.3966C25.2222 19.1187 23.1499 19.1187 21.8718 20.3966ZM25.3318 23.8593C24.6988 24.4922 23.6733 24.4922 23.0404 23.8593C22.4074 23.2264 22.4074 22.201 23.0404 21.5681C23.6733 20.9352 24.6988 20.9352 25.3318 21.5681C25.9647 22.1979 25.9647 23.2264 25.3318 23.8593ZM26.4456 4.29439L24.4402 6.29956C24.0476 6.69207 24.0476 7.33714 24.4402 7.72965L32.27 15.5586C32.6625 15.9512 33.3077 15.9512 33.7002 15.5586L35.7056 13.5535C36.0981 13.161 36.0981 12.5159 35.7056 12.1234L27.8727 4.29439C27.4802 3.90187 26.8381 3.90187 26.4456 4.29439ZM12.3957 29.9174C12.7518 29.5614 12.7518 28.9802 12.3957 28.6242L11.3763 27.6049C11.0203 27.2489 10.4391 27.2489 10.083 27.6049L7.97723 29.7105L7.97418 29.7135L7.396 29.1354C7.07648 28.8159 6.55612 28.8159 6.23964 29.1354C5.92012 29.4549 5.92012 29.9752 6.23964 30.2916L9.70873 33.7604C10.0282 34.0799 10.5486 34.0799 10.8651 33.7604C11.1816 33.4409 11.1846 32.9206 10.8651 32.6041L10.2869 32.026L10.29 32.023L12.3957 29.9174Z" fill="#F5A800"/>
<path d="M23.0036 10.0509L18.5486 14.5055C18.153 14.901 18.153 15.5522 18.5486 15.9478L21.2995 18.6984C23.244 17.2987 25.9706 17.4722 27.7203 19.2218L29.9479 16.9945C30.3435 16.5989 30.3435 15.9478 29.9479 15.5522L24.446 10.0509C24.0504 9.6523 23.3992 9.6523 23.0036 10.0509ZM20.1431 19.8577L18.5181 18.2329C18.1377 17.8525 17.5139 17.8525 17.1335 18.2329L11.4035 23.9654C11.0231 24.3457 11.0231 24.9695 11.4035 25.3499L14.6504 28.5965C15.0308 28.9768 15.6546 28.9768 16.035 28.5965L19.7201 24.9056C18.9411 23.296 19.0811 21.3517 20.1431 19.8577Z" fill="#425CC7"/>
</svg>
