<svg width="40" height="40" viewBox="0 0 40 40" fill="none" xmlns="http://www.w3.org/2000/svg">
<path fill-rule="evenodd" clip-rule="evenodd" d="M18.6667 4H21.3333V8.07324C24.7448 8.45036 27.7253 10.2576 29.662 12.8821L33.1897 10.8453L34.5231 13.1547L30.9973 15.1903C31.6422 16.6628 32 18.2896 32 20C32 21.7104 31.6422 23.3372 30.9973 24.8097L34.5231 26.8453L33.1897 29.1547L29.662 27.1179C27.7253 29.7424 24.7448 31.5496 21.3333 31.9268V36H18.6667V31.9268C15.2552 31.5496 12.2747 29.7424 10.338 27.1179L6.81026 29.1547L5.47693 26.8453L9.00274 24.8097C8.35784 23.3372 8 21.7104 8 20C8 18.2896 8.35784 16.6628 9.00274 15.1903L5.47693 13.1547L6.81026 10.8453L10.338 12.8821C12.2747 10.2576 15.2552 8.45036 18.6667 8.07324V4ZM29.3333 20C29.3333 21.2245 29.0975 22.3939 28.6688 23.4654L23.9333 20.7313C23.9771 20.4942 24 20.2498 24 20C24 19.7502 23.9771 19.5058 23.9333 19.2687L28.6688 16.5346C29.0975 17.6061 29.3333 18.7755 29.3333 20ZM22.5994 16.9596L27.3337 14.2263C25.8847 12.3883 23.7595 11.1082 21.3333 10.7612V16.2276C21.8015 16.3931 22.2296 16.6432 22.5994 16.9596ZM18.6667 16.2276V10.7612C16.2405 11.1082 14.1153 12.3883 12.6663 14.2263L17.4006 16.9596C17.7704 16.6432 18.1985 16.3931 18.6667 16.2276ZM16.0667 19.2687L11.3312 16.5346C10.9025 17.6061 10.6667 18.7755 10.6667 20C10.6667 21.2245 10.9025 22.3939 11.3312 23.4654L16.0667 20.7313C16.0229 20.4942 16 20.2498 16 20C16 19.7502 16.0229 19.5058 16.0667 19.2687ZM17.4006 23.0404C17.7704 23.3568 18.1985 23.6069 18.6667 23.7724V29.2388C16.2405 28.8918 14.1153 27.6117 12.6663 25.7737L17.4006 23.0404ZM21.3333 23.7724C21.8015 23.6069 22.2296 23.3568 22.5994 23.0404L27.3337 25.7737C25.8847 27.6117 23.7595 28.8918 21.3333 29.2388V23.7724Z" fill="#4485FF"/>
</svg>
