<svg width="155" height="43" viewBox="0 0 155 43" fill="none" xmlns="http://www.w3.org/2000/svg">
<path d="M0.636719 5.9375H4.04688L6.85938 17L9.95312 5.9375H12.2617L15.3555 17L18.1562 5.9375H21.5664L16.6211 23H13.9609L11.1016 12.3477L8.21875 23H5.58203L0.636719 5.9375ZM25.5039 5.9375V11.5742C25.9414 10.9883 26.4414 10.5547 27.0039 10.2734C27.5742 9.99219 28.2227 9.85156 28.9492 9.85156C30.5586 9.85156 31.793 10.3477 32.6523 11.3398C33.5117 12.3242 33.9414 13.7461 33.9414 15.6055V23H30.9414V17.3164C30.9414 15.5508 30.7422 14.3555 30.3438 13.7305C29.9531 13.0977 29.2656 12.7812 28.2812 12.7812C27.2812 12.7812 26.5625 13.1367 26.125 13.8477C25.6875 14.5508 25.4688 15.7617 25.4688 17.4805V23H22.5742V5.9375H25.5039ZM38.8398 16.4492C38.8398 17.5352 39.1992 18.4453 39.918 19.1797C40.6445 19.9062 41.5273 20.2695 42.5664 20.2695C43.5117 20.2695 44.3438 19.9023 45.0625 19.168C45.7812 18.4336 46.1406 17.5742 46.1406 16.5898C46.1406 15.543 45.7773 14.6445 45.0508 13.8945C44.332 13.1367 43.4883 12.7578 42.5195 12.7578C41.5039 12.7578 40.6367 13.1172 39.918 13.8359C39.1992 14.5469 38.8398 15.418 38.8398 16.4492ZM46.4805 23V21.418C46.1211 22.0586 45.6133 22.5312 44.957 22.8359C44.3086 23.1406 43.4766 23.293 42.4609 23.293C40.5547 23.293 38.9609 22.6445 37.6797 21.3477C36.4062 20.043 35.7695 18.4258 35.7695 16.4961C35.7695 15.5898 35.9297 14.7305 36.25 13.918C36.5703 13.1055 37.0273 12.3906 37.6211 11.7734C38.2617 11.0938 38.9727 10.5938 39.7539 10.2734C40.5352 9.94531 41.4141 9.78125 42.3906 9.78125C43.3281 9.78125 44.1328 9.9375 44.8047 10.25C45.4844 10.5625 46.0312 11.0352 46.4453 11.668V10.1094H49.375V23H46.4805ZM60.6016 5.9375V8.9375H57.3789V23H54.0508V8.9375H50.8281V5.9375H60.6016ZM63.2852 16.4492C63.2852 17.5352 63.6445 18.4453 64.3633 19.1797C65.0898 19.9062 65.9727 20.2695 67.0117 20.2695C67.957 20.2695 68.7891 19.9023 69.5078 19.168C70.2266 18.4336 70.5859 17.5742 70.5859 16.5898C70.5859 15.543 70.2227 14.6445 69.4961 13.8945C68.7773 13.1367 67.9336 12.7578 66.9648 12.7578C65.9492 12.7578 65.082 13.1172 64.3633 13.8359C63.6445 14.5469 63.2852 15.418 63.2852 16.4492ZM70.9258 23V21.418C70.5664 22.0586 70.0586 22.5312 69.4023 22.8359C68.7539 23.1406 67.9219 23.293 66.9062 23.293C65 23.293 63.4062 22.6445 62.125 21.3477C60.8516 20.043 60.2148 18.4258 60.2148 16.4961C60.2148 15.5898 60.375 14.7305 60.6953 13.918C61.0156 13.1055 61.4727 12.3906 62.0664 11.7734C62.707 11.0938 63.418 10.5938 64.1992 10.2734C64.9805 9.94531 65.8594 9.78125 66.8359 9.78125C67.7734 9.78125 68.5781 9.9375 69.25 10.25C69.9297 10.5625 70.4766 11.0352 70.8906 11.668V10.1094H73.8203V23H70.9258ZM79.3281 16.4961C79.3281 17.5977 79.6836 18.5195 80.3945 19.2617C81.1055 19.9961 81.9844 20.3633 83.0312 20.3633C84.0625 20.3633 84.9414 19.9883 85.668 19.2383C86.4023 18.4883 86.7695 17.5898 86.7695 16.543C86.7695 15.457 86.4023 14.5547 85.668 13.8359C84.9336 13.1172 84.0078 12.7578 82.8906 12.7578C81.9062 12.7578 81.0664 13.1211 80.3711 13.8477C79.6758 14.5664 79.3281 15.4492 79.3281 16.4961ZM79.2109 21.9688V27.1719H76.2578V10.1094H79.2109V11.1875C79.8125 10.7109 80.4414 10.3594 81.0977 10.1328C81.7539 9.89844 82.4609 9.78125 83.2188 9.78125C84.0312 9.78125 84.7969 9.91016 85.5156 10.168C86.2344 10.418 86.8789 10.793 87.4492 11.293C88.2227 11.9648 88.8164 12.7578 89.2305 13.6719C89.6523 14.5859 89.8633 15.5586 89.8633 16.5898C89.8633 17.5508 89.6719 18.4688 89.2891 19.3438C88.9141 20.2188 88.3789 20.9727 87.6836 21.6055C87.0898 22.168 86.4102 22.5977 85.6445 22.8945C84.8867 23.1914 84.0859 23.3398 83.2422 23.3398C82.4219 23.3398 81.6836 23.2266 81.0273 23C80.3789 22.7812 79.7734 22.4375 79.2109 21.9688ZM104.594 20.0703C106.445 20.0703 107.809 19.6172 108.684 18.7109C109.559 17.8047 109.996 16.3867 109.996 14.457C109.996 12.6836 109.516 11.3047 108.555 10.3203C107.602 9.33594 106.266 8.84375 104.547 8.84375H102.367V20.0703H104.594ZM104.805 23H99.0039V5.9375H104.711C106.258 5.9375 107.496 6.09375 108.426 6.40625C109.355 6.71875 110.199 7.24219 110.957 7.97656C111.762 8.75781 112.371 9.70312 112.785 10.8125C113.199 11.9219 113.406 13.168 113.406 14.5508C113.406 16.0977 113.117 17.4844 112.539 18.7109C111.961 19.9297 111.121 20.9336 110.02 21.7227C109.395 22.1836 108.695 22.5117 107.922 22.707C107.148 22.9023 106.109 23 104.805 23ZM117.684 16.4727C117.684 17.668 118.012 18.6172 118.668 19.3203C119.324 20.0156 120.215 20.3633 121.34 20.3633C122.449 20.3633 123.332 20.0078 123.988 19.2969C124.652 18.5781 124.984 17.6133 124.984 16.4023C124.984 15.3164 124.637 14.4258 123.941 13.7305C123.254 13.0273 122.387 12.6758 121.34 12.6758C120.262 12.6758 119.383 13.0312 118.703 13.7422C118.023 14.4453 117.684 15.3555 117.684 16.4727ZM114.59 16.4961C114.59 15.5898 114.754 14.7305 115.082 13.918C115.418 13.0977 115.902 12.3711 116.535 11.7383C117.184 11.0898 117.914 10.5938 118.727 10.25C119.539 9.89844 120.383 9.72266 121.258 9.72266C122.188 9.72266 123.043 9.87891 123.824 10.1914C124.613 10.4961 125.336 10.957 125.992 11.5742C126.664 12.2227 127.184 12.9727 127.551 13.8242C127.918 14.668 128.102 15.5352 128.102 16.4258C128.102 17.4102 127.941 18.3086 127.621 19.1211C127.301 19.9336 126.82 20.668 126.18 21.3242C125.539 21.9883 124.809 22.4922 123.988 22.8359C123.168 23.1719 122.277 23.3398 121.316 23.3398C120.348 23.3398 119.465 23.168 118.668 22.8242C117.871 22.4805 117.145 21.9648 116.488 21.2773C115.863 20.6055 115.391 19.8672 115.07 19.0625C114.75 18.25 114.59 17.3945 114.59 16.4961ZM139.27 14.6914C138.91 14.0195 138.449 13.5156 137.887 13.1797C137.332 12.8438 136.672 12.6758 135.906 12.6758C134.891 12.6758 134.039 13.043 133.352 13.7773C132.672 14.5117 132.332 15.4336 132.332 16.543C132.332 17.6367 132.68 18.5469 133.375 19.2734C134.078 20 134.957 20.3633 136.012 20.3633C136.824 20.3633 137.5 20.1914 138.039 19.8477C138.578 19.4961 138.98 18.9727 139.246 18.2773H142.445C142.055 19.8555 141.293 21.0938 140.16 21.9922C139.027 22.8906 137.652 23.3398 136.035 23.3398C135.082 23.3398 134.199 23.1719 133.387 22.8359C132.574 22.4922 131.84 21.9883 131.184 21.3242C130.574 20.6992 130.098 19.9688 129.754 19.1328C129.41 18.2891 129.238 17.4336 129.238 16.5664C129.238 15.6602 129.395 14.8125 129.707 14.0234C130.02 13.2344 130.48 12.5234 131.09 11.8906C131.762 11.1797 132.52 10.6406 133.363 10.2734C134.207 9.90625 135.113 9.72266 136.082 9.72266C137.66 9.72266 139.027 10.1719 140.184 11.0703C141.34 11.9688 142.102 13.1758 142.469 14.6914H139.27ZM146.512 18.7227V18.8984C146.512 19.4688 146.656 19.9336 146.945 20.293C147.234 20.6445 147.609 20.8203 148.07 20.8203C148.508 20.8203 148.863 20.6875 149.137 20.4219C149.418 20.1562 149.559 19.8164 149.559 19.4023C149.559 19.0195 149.457 18.707 149.254 18.4648C149.051 18.2148 148.688 17.9648 148.164 17.7148C147.867 17.582 147.43 17.3984 146.852 17.1641C146.273 16.9297 145.902 16.7461 145.738 16.6133C145.262 16.2227 144.91 15.7891 144.684 15.3125C144.457 14.8281 144.344 14.2773 144.344 13.6602C144.344 12.5742 144.723 11.6562 145.48 10.9062C146.246 10.1562 147.172 9.78125 148.258 9.78125C149.406 9.78125 150.312 10.1133 150.977 10.7773C151.648 11.4414 152.016 12.3711 152.078 13.5664H149.383V13.4961C149.383 13.082 149.273 12.7578 149.055 12.5234C148.844 12.2891 148.547 12.1719 148.164 12.1719C147.828 12.1719 147.547 12.2891 147.32 12.5234C147.102 12.75 146.992 13.0352 146.992 13.3789C146.992 13.9414 147.57 14.4648 148.727 14.9492C149.031 15.0742 149.266 15.1719 149.43 15.2422C150.539 15.7422 151.297 16.2812 151.703 16.8594C152.109 17.4297 152.312 18.2031 152.312 19.1797C152.312 20.3828 151.906 21.3789 151.094 22.168C150.281 22.9492 149.258 23.3398 148.023 23.3398C146.781 23.3398 145.777 22.9258 145.012 22.0977C144.254 21.2695 143.84 20.1484 143.77 18.7344L146.512 18.7227Z" fill="black"/>
<path d="M3.04189 34.2381H3.35874C3.93879 34.2381 4.37801 34.1341 4.67642 33.9263C4.97817 33.715 5.12905 33.4083 5.12905 33.0059C5.12905 32.617 5.00332 32.3303 4.75186 32.1459C4.50039 31.9615 4.10811 31.8693 3.575 31.8693H3.04189V34.2381ZM3.04189 38H1.60854V30.6773H3.34868C3.9019 30.6773 4.31263 30.6975 4.58086 30.7377C4.85244 30.7746 5.08379 30.8366 5.2749 30.9238C5.69066 31.1182 6.0075 31.3898 6.22544 31.7385C6.44338 32.0872 6.55234 32.4963 6.55234 32.9657C6.55234 33.5323 6.39644 34.0134 6.08462 34.4091C5.7728 34.8014 5.34867 35.0512 4.81221 35.1584L6.64287 38H4.93291L3.04189 34.6002V38ZM11.2586 34.6203C11.1479 34.2515 10.9618 33.9715 10.7003 33.7804C10.4421 33.586 10.1152 33.4887 9.71959 33.4887C9.3776 33.4887 9.07081 33.5927 8.79923 33.8005C8.52765 34.0084 8.34492 34.2817 8.25104 34.6203H11.2586ZM8.20578 35.6413C8.24936 36.0403 8.40695 36.3554 8.67853 36.5868C8.95346 36.8148 9.30719 36.9288 9.73971 36.9288C10.0281 36.9288 10.2862 36.8684 10.5142 36.7477C10.7456 36.627 10.9283 36.4577 11.0624 36.2397H12.4505C12.2158 36.8433 11.8638 37.3127 11.3943 37.6479C10.9283 37.9799 10.3885 38.1458 9.77492 38.1458C9.36251 38.1458 8.98196 38.0738 8.63327 37.9296C8.28792 37.7821 7.97778 37.5658 7.70285 37.2808C7.44132 37.0092 7.23847 36.6957 7.0943 36.3403C6.95013 35.9816 6.87804 35.6144 6.87804 35.2389C6.87804 34.8533 6.94342 34.4912 7.07418 34.1526C7.2083 33.8106 7.40444 33.5038 7.66261 33.2322C7.94425 32.9338 8.26277 32.7042 8.61818 32.5432C8.97358 32.3823 9.34072 32.3018 9.71959 32.3018C10.1991 32.3018 10.6467 32.4108 11.0624 32.6287C11.4782 32.8466 11.8319 33.1534 12.1236 33.5491C12.3013 33.7871 12.4321 34.0537 12.5159 34.3487C12.6031 34.6438 12.6466 34.9824 12.6466 35.3646C12.6466 35.3948 12.645 35.4418 12.6416 35.5055C12.6383 35.5658 12.6366 35.6111 12.6366 35.6413H8.20578ZM14.3805 35.1886C14.3805 35.6547 14.5348 36.0453 14.8432 36.3604C15.1551 36.6723 15.5339 36.8282 15.9799 36.8282C16.3856 36.8282 16.7426 36.6706 17.0511 36.3554C17.3596 36.0403 17.5138 35.6714 17.5138 35.249C17.5138 34.7997 17.3579 34.4141 17.0461 34.0922C16.7376 33.767 16.3755 33.6044 15.9597 33.6044C15.5239 33.6044 15.1517 33.7586 14.8432 34.0671C14.5348 34.3722 14.3805 34.746 14.3805 35.1886ZM17.6596 38V37.321C17.5054 37.596 17.2875 37.7988 17.0058 37.9296C16.7276 38.0604 16.3705 38.1257 15.9346 38.1257C15.1165 38.1257 14.4325 37.8474 13.8826 37.2909C13.3361 36.7309 13.0629 36.0369 13.0629 35.2087C13.0629 34.8198 13.1316 34.451 13.2691 34.1023C13.4065 33.7536 13.6027 33.4468 13.8575 33.1819C14.1324 32.8902 14.4375 32.6757 14.7728 32.5382C15.1081 32.3974 15.4853 32.327 15.9044 32.327C16.3068 32.327 16.6521 32.394 16.9405 32.5281C17.2322 32.6622 17.4669 32.8651 17.6446 33.1367V32.4678H18.9019V38H17.6596ZM19.992 38V30.6773H21.2494V38H19.992ZM24.824 34.6404V35.8273H22.2289V34.6404H24.824ZM26.1958 38V33.6145H25.3508V32.4678H26.1958V30.6773H27.4833V32.4678H28.3332V33.6145H27.4833V38H26.1958ZM30.1677 31.9045H28.9104V30.6773H30.1677V31.9045ZM28.9104 38V32.4678H30.1677V38H28.9104ZM32.5303 32.4678V33.0964C32.718 32.845 32.9326 32.6589 33.174 32.5382C33.4188 32.4175 33.6971 32.3571 34.0089 32.3571C34.4548 32.3571 34.8354 32.4359 35.1505 32.5935C35.4691 32.7511 35.7423 32.9975 35.9703 33.3328C36.1882 33.0042 36.433 32.7595 36.7046 32.5985C36.9762 32.4376 37.2763 32.3571 37.6048 32.3571C38.2821 32.3571 38.8018 32.57 39.1639 32.9958C39.526 33.4217 39.7071 34.0319 39.7071 34.8265V38H38.4397V35.5507C38.4397 34.7997 38.3559 34.2901 38.1882 34.0218C38.0239 33.7502 37.7373 33.6145 37.3282 33.6145C36.9024 33.6145 36.5973 33.767 36.4129 34.0721C36.2318 34.3739 36.1413 34.8936 36.1413 35.6312V38H34.8639V35.5507C34.8639 34.803 34.7784 34.2934 34.6074 34.0218C34.4397 33.7502 34.1447 33.6145 33.7222 33.6145C33.293 33.6145 32.9846 33.767 32.7968 34.0721C32.6091 34.3739 32.5152 34.8936 32.5152 35.6312V38H31.2729V32.4678H32.5303ZM44.8358 34.6203C44.7251 34.2515 44.539 33.9715 44.2775 33.7804C44.0193 33.586 43.6924 33.4887 43.2968 33.4887C42.9548 33.4887 42.648 33.5927 42.3764 33.8005C42.1048 34.0084 41.9221 34.2817 41.8282 34.6203H44.8358ZM41.783 35.6413C41.8266 36.0403 41.9841 36.3554 42.2557 36.5868C42.5307 36.8148 42.8844 36.9288 43.3169 36.9288C43.6053 36.9288 43.8634 36.8684 44.0914 36.7477C44.3228 36.627 44.5055 36.4577 44.6396 36.2397H46.0277C45.793 36.8433 45.4409 37.3127 44.9715 37.6479C44.5055 37.9799 43.9657 38.1458 43.3521 38.1458C42.9397 38.1458 42.5592 38.0738 42.2105 37.9296C41.8651 37.7821 41.555 37.5658 41.28 37.2808C41.0185 37.0092 40.8157 36.6957 40.6715 36.3403C40.5273 35.9816 40.4552 35.6144 40.4552 35.2389C40.4552 34.8533 40.5206 34.4912 40.6514 34.1526C40.7855 33.8106 40.9816 33.5038 41.2398 33.2322C41.5214 32.9338 41.84 32.7042 42.1954 32.5432C42.5508 32.3823 42.9179 32.3018 43.2968 32.3018C43.7762 32.3018 44.2239 32.4108 44.6396 32.6287C45.0554 32.8466 45.4091 33.1534 45.7008 33.5491C45.8785 33.7871 46.0093 34.0537 46.0931 34.3487C46.1803 34.6438 46.2238 34.9824 46.2238 35.3646C46.2238 35.3948 46.2222 35.4418 46.2188 35.5055C46.2155 35.5658 46.2138 35.6111 46.2138 35.6413H41.783ZM51.1401 34.2733C51.1401 34.5885 51.192 34.8818 51.296 35.1534C51.3999 35.425 51.5542 35.6731 51.7587 35.8978C51.9833 36.1425 52.2381 36.3319 52.5231 36.4661C52.8081 36.5968 53.1032 36.6622 53.4083 36.6622C54.0487 36.6622 54.5851 36.4342 55.0177 35.9782C55.4535 35.5222 55.6715 34.9539 55.6715 34.2733C55.6715 33.6497 55.4519 33.1182 55.0126 32.679C54.5768 32.2364 54.052 32.0151 53.4385 32.0151C52.7981 32.0151 52.2549 32.2347 51.809 32.674C51.363 33.1132 51.1401 33.6463 51.1401 34.2733ZM49.6363 34.3236C49.6363 33.9212 49.69 33.5424 49.7973 33.187C49.9045 32.8282 50.0638 32.4929 50.275 32.1811C50.6371 31.6547 51.0915 31.249 51.638 30.964C52.1845 30.6757 52.7813 30.5315 53.4284 30.5315C53.9146 30.5315 54.3823 30.6254 54.8316 30.8131C55.2842 31.0009 55.6882 31.2708 56.0436 31.6229C56.4091 31.9883 56.6874 32.399 56.8785 32.855C57.0696 33.311 57.1652 33.7905 57.1652 34.2934C57.1652 34.8165 57.0746 35.3076 56.8936 35.767C56.7159 36.2263 56.4527 36.6337 56.104 36.9891C55.7519 37.3613 55.3412 37.6479 54.8718 37.8491C54.4058 38.0469 53.9179 38.1458 53.4083 38.1458C52.8618 38.1458 52.3588 38.0486 51.8995 37.8542C51.4402 37.6597 51.0328 37.3713 50.6774 36.9891C50.3354 36.627 50.0755 36.2213 49.8978 35.772C49.7235 35.3194 49.6363 34.8366 49.6363 34.3236ZM59.2059 35.259C59.2059 35.7083 59.3551 36.0889 59.6535 36.4007C59.9519 36.7125 60.3123 36.8684 60.7348 36.8684C61.2142 36.8684 61.6115 36.7142 61.9267 36.4057C62.2419 36.0939 62.3995 35.705 62.3995 35.2389C62.3995 34.793 62.2419 34.4091 61.9267 34.0872C61.6149 33.7653 61.2377 33.6044 60.7951 33.6044C60.3458 33.6044 59.9686 33.7637 59.6635 34.0822C59.3584 34.3973 59.2059 34.7896 59.2059 35.259ZM59.1556 32.9104C59.3936 32.7125 59.6518 32.5684 59.9301 32.4778C60.2084 32.384 60.5269 32.337 60.8856 32.337C61.2545 32.337 61.6015 32.399 61.9267 32.5231C62.2519 32.6472 62.5403 32.8282 62.7918 33.0663C63.0902 33.3412 63.3198 33.6664 63.4808 34.0419C63.6451 34.4141 63.7272 34.8064 63.7272 35.2188C63.7272 35.6614 63.6367 36.0805 63.4556 36.4761C63.2779 36.8684 63.0231 37.2087 62.6912 37.4971C62.4464 37.7083 62.1698 37.8692 61.8613 37.9799C61.5529 38.0905 61.2243 38.1458 60.8756 38.1458C60.547 38.1458 60.2419 38.0972 59.9603 38C59.6786 37.8994 59.4104 37.7485 59.1556 37.5474V38H57.8882V30.6773H59.1556V32.9104ZM65.4058 36.1643V36.2397C65.4058 36.4845 65.4678 36.684 65.5919 36.8382C65.7159 36.9891 65.8769 37.0646 66.0747 37.0646C66.2624 37.0646 66.415 37.0076 66.5323 36.8936C66.653 36.7796 66.7134 36.6337 66.7134 36.456C66.7134 36.2917 66.6698 36.1576 66.5826 36.0537C66.4955 35.9464 66.3396 35.8391 66.1149 35.7318C65.9875 35.6748 65.7997 35.596 65.5516 35.4954C65.3035 35.3948 65.1443 35.316 65.0738 35.259C64.8693 35.0914 64.7184 34.9053 64.6212 34.7008C64.524 34.4929 64.4754 34.2565 64.4754 33.9917C64.4754 33.5256 64.638 33.1316 64.9632 32.8098C65.2918 32.4879 65.6891 32.327 66.1551 32.327C66.648 32.327 67.0369 32.4694 67.3219 32.7544C67.6103 33.0394 67.7679 33.4384 67.7947 33.9514H66.638V33.9212C66.638 33.7435 66.591 33.6044 66.4971 33.5038C66.4066 33.4032 66.2792 33.3529 66.1149 33.3529C65.9707 33.3529 65.85 33.4032 65.7528 33.5038C65.6589 33.601 65.612 33.7234 65.612 33.8709C65.612 34.1124 65.8601 34.337 66.3563 34.5449C66.4871 34.5985 66.5877 34.6404 66.6581 34.6706C67.1342 34.8852 67.4594 35.1165 67.6338 35.3646C67.8081 35.6094 67.8953 35.9413 67.8953 36.3604C67.8953 36.8768 67.7209 37.3043 67.3722 37.6429C67.0235 37.9782 66.5843 38.1458 66.0546 38.1458C65.5215 38.1458 65.0906 37.9681 64.762 37.6127C64.4368 37.2573 64.2591 36.7762 64.2289 36.1693L65.4058 36.1643ZM72.7624 34.6203C72.6518 34.2515 72.4657 33.9715 72.2042 33.7804C71.946 33.586 71.6191 33.4887 71.2235 33.4887C70.8815 33.4887 70.5747 33.5927 70.3031 33.8005C70.0315 34.0084 69.8488 34.2817 69.7549 34.6203H72.7624ZM69.7097 35.6413C69.7532 36.0403 69.9108 36.3554 70.1824 36.5868C70.4573 36.8148 70.8111 36.9288 71.2436 36.9288C71.5319 36.9288 71.7901 36.8684 72.0181 36.7477C72.2494 36.627 72.4322 36.4577 72.5663 36.2397H73.9544C73.7197 36.8433 73.3676 37.3127 72.8982 37.6479C72.4322 37.9799 71.8924 38.1458 71.2788 38.1458C70.8664 38.1458 70.4858 38.0738 70.1371 37.9296C69.7918 37.7821 69.4817 37.5658 69.2067 37.2808C68.9452 37.0092 68.7424 36.6957 68.5982 36.3403C68.454 35.9816 68.3819 35.6144 68.3819 35.2389C68.3819 34.8533 68.4473 34.4912 68.5781 34.1526C68.7122 33.8106 68.9083 33.5038 69.1665 33.2322C69.4481 32.9338 69.7667 32.7042 70.1221 32.5432C70.4775 32.3823 70.8446 32.3018 71.2235 32.3018C71.7029 32.3018 72.1505 32.4108 72.5663 32.6287C72.982 32.8466 73.3358 33.1534 73.6275 33.5491C73.8052 33.7871 73.9359 34.0537 74.0198 34.3487C74.1069 34.6438 74.1505 34.9824 74.1505 35.3646C74.1505 35.3948 74.1488 35.4418 74.1455 35.5055C74.1421 35.5658 74.1405 35.6111 74.1405 35.6413H69.7097ZM77.4837 33.5893C76.9842 33.6295 76.6355 33.7603 76.4376 33.9816C76.2398 34.2029 76.1409 34.6019 76.1409 35.1786V38H74.8534V32.4678H76.0604V33.1065C76.2549 32.8584 76.4678 32.6773 76.6992 32.5633C76.9305 32.446 77.192 32.3873 77.4837 32.3873V33.5893ZM80.7365 38H79.7256L77.6233 32.4678H78.9963L80.2838 36.1442L81.6116 32.4678H82.9494L80.7365 38ZM84.2709 35.1886C84.2709 35.6547 84.4251 36.0453 84.7336 36.3604C85.0454 36.6723 85.4243 36.8282 85.8702 36.8282C86.2759 36.8282 86.633 36.6706 86.9414 36.3554C87.2499 36.0403 87.4041 35.6714 87.4041 35.249C87.4041 34.7997 87.2482 34.4141 86.9364 34.0922C86.6279 33.767 86.2658 33.6044 85.8501 33.6044C85.4142 33.6044 85.042 33.7586 84.7336 34.0671C84.4251 34.3722 84.2709 34.746 84.2709 35.1886ZM87.55 38V37.321C87.3957 37.596 87.1778 37.7988 86.8962 37.9296C86.6179 38.0604 86.2608 38.1257 85.8249 38.1257C85.0068 38.1257 84.3228 37.8474 83.773 37.2909C83.2265 36.7309 82.9532 36.0369 82.9532 35.2087C82.9532 34.8198 83.0219 34.451 83.1594 34.1023C83.2969 33.7536 83.493 33.4468 83.7478 33.1819C84.0228 32.8902 84.3279 32.6757 84.6632 32.5382C84.9984 32.3974 85.3756 32.327 85.7947 32.327C86.1971 32.327 86.5424 32.394 86.8308 32.5281C87.1225 32.6622 87.3572 32.8651 87.5349 33.1367V32.4678H88.7922V38H87.55ZM91.1045 35.259C91.1045 35.7083 91.2537 36.0889 91.5521 36.4007C91.8505 36.7125 92.2109 36.8684 92.6334 36.8684C93.1128 36.8684 93.5102 36.7142 93.8253 36.4057C94.1405 36.0939 94.2981 35.705 94.2981 35.2389C94.2981 34.793 94.1405 34.4091 93.8253 34.0872C93.5135 33.7653 93.1363 33.6044 92.6937 33.6044C92.2445 33.6044 91.8673 33.7637 91.5621 34.0822C91.257 34.3973 91.1045 34.7896 91.1045 35.259ZM91.0542 32.9104C91.2922 32.7125 91.5504 32.5684 91.8287 32.4778C92.107 32.384 92.4255 32.337 92.7843 32.337C93.1531 32.337 93.5001 32.399 93.8253 32.5231C94.1506 32.6472 94.4389 32.8282 94.6904 33.0663C94.9888 33.3412 95.2184 33.6664 95.3794 34.0419C95.5437 34.4141 95.6258 34.8064 95.6258 35.2188C95.6258 35.6614 95.5353 36.0805 95.3542 36.4761C95.1765 36.8684 94.9217 37.2087 94.5898 37.4971C94.345 37.7083 94.0684 37.8692 93.76 37.9799C93.4515 38.0905 93.1229 38.1458 92.7742 38.1458C92.4456 38.1458 92.1405 38.0972 91.8589 38C91.5772 37.8994 91.309 37.7485 91.0542 37.5474V38H89.7868V30.6773H91.0542V32.9104ZM97.7269 31.9045H96.4695V30.6773H97.7269V31.9045ZM96.4695 38V32.4678H97.7269V38H96.4695ZM98.8321 38V30.6773H100.089V38H98.8321ZM102.452 31.9045H101.195V30.6773H102.452V31.9045ZM101.195 38V32.4678H102.452V38H101.195ZM103.95 38V33.6145H103.105V32.4678H103.95V30.6773H105.237V32.4678H106.087V33.6145H105.237V38H103.95ZM105.97 32.4678H107.333L108.681 36.3303L110.165 32.4678H111.512L108.525 39.7904H107.197L107.972 37.8441L105.97 32.4678ZM116.303 33.9514H116.68C117.079 33.9514 117.384 33.8659 117.595 33.6949C117.81 33.5206 117.917 33.2725 117.917 32.9506C117.917 32.6187 117.813 32.3722 117.605 32.2113C117.401 32.047 117.089 31.9648 116.67 31.9648H116.303V33.9514ZM116.303 38H114.87V30.6773H116.69C117.153 30.6773 117.517 30.7025 117.781 30.7528C118.05 30.8031 118.266 30.8835 118.43 30.9942C118.732 31.1987 118.968 31.4686 119.139 31.8039C119.314 32.1392 119.401 32.4979 119.401 32.8802C119.401 33.5809 119.17 34.1409 118.707 34.56C118.244 34.9791 117.621 35.1886 116.836 35.1886H116.303V38ZM120.089 38V30.6773H121.346V38H120.089ZM123.427 35.1886C123.427 35.6547 123.581 36.0453 123.89 36.3604C124.201 36.6723 124.58 36.8282 125.026 36.8282C125.432 36.8282 125.789 36.6706 126.098 36.3554C126.406 36.0403 126.56 35.6714 126.56 35.249C126.56 34.7997 126.404 34.4141 126.092 34.0922C125.784 33.767 125.422 33.6044 125.006 33.6044C124.57 33.6044 124.198 33.7586 123.89 34.0671C123.581 34.3722 123.427 34.746 123.427 35.1886ZM126.706 38V37.321C126.552 37.596 126.334 37.7988 126.052 37.9296C125.774 38.0604 125.417 38.1257 124.981 38.1257C124.163 38.1257 123.479 37.8474 122.929 37.2909C122.383 36.7309 122.109 36.0369 122.109 35.2087C122.109 34.8198 122.178 34.451 122.315 34.1023C122.453 33.7536 122.649 33.4468 122.904 33.1819C123.179 32.8902 123.484 32.6757 123.819 32.5382C124.155 32.3974 124.532 32.327 124.951 32.327C125.353 32.327 125.699 32.394 125.987 32.5281C126.279 32.6622 126.513 32.8651 126.691 33.1367V32.4678H127.948V38H126.706ZM129.431 38V33.6145H128.586V32.4678H129.431V30.6773H130.718V32.4678H131.568V33.6145H130.718V38H129.431ZM134.564 32.4678V33.6145H133.639V38H132.392V33.6145H131.733V32.4678H132.352V32.3169C132.352 31.7335 132.512 31.2993 132.834 31.0143C133.156 30.726 133.644 30.5818 134.298 30.5818C134.325 30.5818 134.367 30.5835 134.424 30.5868C134.484 30.5902 134.531 30.5918 134.564 30.5918V31.7486H134.474C134.182 31.7486 133.973 31.7972 133.845 31.8944C133.721 31.9883 133.659 32.1459 133.659 32.3672V32.4678H134.564ZM136.127 35.1987C136.127 35.7117 136.268 36.119 136.55 36.4208C136.831 36.7192 137.214 36.8684 137.696 36.8684C138.173 36.8684 138.551 36.7159 138.833 36.4107C139.118 36.1023 139.261 35.6882 139.261 35.1685C139.261 34.7025 139.111 34.3202 138.813 34.0218C138.518 33.7201 138.146 33.5692 137.696 33.5692C137.234 33.5692 136.857 33.7217 136.565 34.0269C136.273 34.3286 136.127 34.7192 136.127 35.1987ZM134.8 35.2087C134.8 34.8198 134.87 34.451 135.011 34.1023C135.155 33.7502 135.363 33.4384 135.634 33.1668C135.913 32.8886 136.226 32.6757 136.575 32.5281C136.924 32.3772 137.286 32.3018 137.661 32.3018C138.06 32.3018 138.427 32.3689 138.763 32.503C139.101 32.6337 139.411 32.8316 139.693 33.0964C139.981 33.3747 140.204 33.6966 140.362 34.0621C140.52 34.4242 140.598 34.7963 140.598 35.1786C140.598 35.601 140.53 35.9866 140.392 36.3353C140.255 36.684 140.049 36.9992 139.774 37.2808C139.499 37.5658 139.185 37.7821 138.833 37.9296C138.481 38.0738 138.099 38.1458 137.686 38.1458C137.271 38.1458 136.892 38.0721 136.55 37.9246C136.208 37.777 135.896 37.5557 135.614 37.2607C135.346 36.9723 135.143 36.6555 135.006 36.3102C134.868 35.9615 134.8 35.5943 134.8 35.2087ZM143.942 33.5893C143.442 33.6295 143.093 33.7603 142.896 33.9816C142.698 34.2029 142.599 34.6019 142.599 35.1786V38H141.311V32.4678H142.518V33.1065C142.713 32.8584 142.926 32.6773 143.157 32.5633C143.388 32.446 143.65 32.3873 143.942 32.3873V33.5893ZM145.862 32.4678V33.0964C146.049 32.845 146.264 32.6589 146.505 32.5382C146.75 32.4175 147.028 32.3571 147.34 32.3571C147.786 32.3571 148.167 32.4359 148.482 32.5935C148.8 32.7511 149.074 32.9975 149.302 33.3328C149.52 33.0042 149.764 32.7595 150.036 32.5985C150.308 32.4376 150.608 32.3571 150.936 32.3571C151.613 32.3571 152.133 32.57 152.495 32.9958C152.857 33.4217 153.038 34.0319 153.038 34.8265V38H151.771V35.5507C151.771 34.7997 151.687 34.2901 151.52 34.0218C151.355 33.7502 151.069 33.6145 150.66 33.6145C150.234 33.6145 149.929 33.767 149.744 34.0721C149.563 34.3739 149.473 34.8936 149.473 35.6312V38H148.195V35.5507C148.195 34.803 148.11 34.2934 147.939 34.0218C147.771 33.7502 147.476 33.6145 147.054 33.6145C146.624 33.6145 146.316 33.767 146.128 34.0721C145.94 34.3739 145.847 34.8936 145.847 35.6312V38H144.604V32.4678H145.862Z" fill="#979797"/>
</svg>
