<svg width="35" height="35" viewBox="0 0 35 35" fill="none" xmlns="http://www.w3.org/2000/svg">
<circle cx="17.5" cy="17.5" r="17.5" fill="#F9C12A"/>
<path d="M18.2969 26.3125C17.2031 26.3125 16.2292 26.151 15.375 25.8281C14.5208 25.4948 13.7969 25.0052 13.2031 24.3594C12.6094 23.7031 12.1562 22.901 11.8438 21.9531C11.5312 20.9948 11.375 19.8854 11.375 18.625V17C11.375 15.5729 11.5365 14.3438 11.8594 13.3125C12.1927 12.2708 12.651 11.4167 13.2344 10.75C13.8177 10.0833 14.5052 9.58854 15.2969 9.26562C16.099 8.94271 16.9688 8.78125 17.9062 8.78125C18.9688 8.78125 19.8906 8.95312 20.6719 9.29688C21.4531 9.64062 22.0938 10.1562 22.5938 10.8438C23.1042 11.5312 23.4792 12.3802 23.7188 13.3906C23.9688 14.401 24.0938 15.5625 24.0938 16.875V18.7031H13.125V15.9531H20.5V15.5625C20.4792 14.7917 20.3854 14.1302 20.2188 13.5781C20.0521 13.0156 19.7812 12.5885 19.4062 12.2969C19.0417 11.9948 18.5365 11.8438 17.8906 11.8438C17.4219 11.8438 17.0052 11.9323 16.6406 12.1094C16.276 12.2865 15.974 12.5729 15.7344 12.9688C15.5052 13.3646 15.3281 13.8958 15.2031 14.5625C15.0781 15.2188 15.0156 16.0312 15.0156 17V18.625C15.0156 19.4688 15.0885 20.1823 15.2344 20.7656C15.3906 21.349 15.6198 21.8281 15.9219 22.2031C16.224 22.5677 16.5885 22.8385 17.0156 23.0156C17.4531 23.1823 17.9583 23.2656 18.5312 23.2656C19.375 23.2656 20.099 23.1094 20.7031 22.7969C21.3177 22.474 21.849 22.0573 22.2969 21.5469L23.9062 23.7812C23.6042 24.1875 23.1979 24.5885 22.6875 24.9844C22.1771 25.3698 21.5573 25.6875 20.8281 25.9375C20.1094 26.1875 19.2656 26.3125 18.2969 26.3125Z" fill="#333333"/>
</svg>
