<svg width="46" height="46" viewBox="0 0 46 46" fill="none" xmlns="http://www.w3.org/2000/svg">
<g filter="url(#filter0_d_2245_39899)">
<circle cx="23" cy="22" r="20" fill="white"/>
</g>
<line x1="23.5" y1="2" x2="23.5" y2="42" stroke="#E8E8E8"/>
<path d="M18.143 23C18.059 22.679 18 22.348 18 22C18 21.652 18.059 21.321 18.143 21H16V17L10 22L16 27V23H18.143Z" fill="#4C4C4C"/>
<path d="M23 20C24.104 20 25 20.896 25 22C25 23.104 24.104 24 23 24C21.896 24 21 23.104 21 22C21 20.896 21.896 20 23 20Z" fill="#4C4C4C"/>
<path d="M27.8574 21C27.9414 21.321 28.0004 21.652 28.0004 22C28.0004 22.348 27.9414 22.679 27.8574 23H30.0004V27L36.0004 22L30.0004 17V21H27.8574Z" fill="#4C4C4C"/>
<defs>
<filter id="filter0_d_2245_39899" x="0" y="0" width="46" height="46" filterUnits="userSpaceOnUse" color-interpolation-filters="sRGB">
<feFlood flood-opacity="0" result="BackgroundImageFix"/>
<feColorMatrix in="SourceAlpha" type="matrix" values="0 0 0 0 0 0 0 0 0 0 0 0 0 0 0 0 0 0 127 0" result="hardAlpha"/>
<feMorphology radius="1" operator="dilate" in="SourceAlpha" result="effect1_dropShadow_2245_39899"/>
<feOffset dy="1"/>
<feGaussianBlur stdDeviation="1"/>
<feComposite in2="hardAlpha" operator="out"/>
<feColorMatrix type="matrix" values="0 0 0 0 0 0 0 0 0 0 0 0 0 0 0 0 0 0 0.2 0"/>
<feBlend mode="normal" in2="BackgroundImageFix" result="effect1_dropShadow_2245_39899"/>
<feBlend mode="normal" in="SourceGraphic" in2="effect1_dropShadow_2245_39899" result="shape"/>
</filter>
</defs>
</svg>
