<svg width="24" height="24" viewBox="0 0 24 24" fill="none" xmlns="http://www.w3.org/2000/svg">
<path fill-rule="evenodd" clip-rule="evenodd" d="M14.8761 4.3689C13.99 4.11966 13.0318 3.98699 12 3.98699C7 3.98699 3.73 7.10239 2 11.5C2.54004 12.8728 3.23013 14.1206 4.07607 15.1877L7.04976 12.2088C7.01696 11.9773 7 11.7406 7 11.5C7 8.73521 9.24 6.49133 12 6.49133C12.2402 6.49133 12.4764 6.50832 12.7076 6.54117L14.8761 4.3689ZM18.5448 6.36056L16.1711 8.7383C16.6949 9.53017 17 10.4796 17 11.5C17 14.2648 14.76 16.5087 12 16.5087C10.9814 16.5087 10.0336 16.203 9.24308 15.6784L7.11728 17.8079C8.51074 18.5796 10.135 19.013 12 19.013C17 19.013 20.27 15.8976 22 11.5C21.1913 9.44422 20.046 7.66864 18.5448 6.36056ZM10.7058 14.2131C11.0974 14.4004 11.5362 14.5052 12 14.5052C13.66 14.5052 15 13.1629 15 11.5C15 11.0354 14.8954 10.5958 14.7084 10.2035L10.7058 14.2131ZM9.94952 9.30403C9.90074 9.34975 9.85348 9.39709 9.80784 9.44597L9.94952 9.30403ZM19.0711 3L20.4853 4.41667L4.92893 20L3.51472 18.5833L19.0711 3Z" fill="#757575"/>
</svg>
