<svg width="24" height="24" viewBox="0 0 24 24" fill="none" xmlns="http://www.w3.org/2000/svg">
<path fill-rule="evenodd" clip-rule="evenodd" d="M19 8H5V18C5 19.1046 5.89543 20 7 20H19V8ZM3 6V18C3 20.2091 4.79086 22 7 22H21V6H3Z" fill="#8B8B8B"/>
<path d="M3 8V5L5 8H3Z" fill="#8B8B8B"/>
<path d="M13 10H11V12H13V10Z" fill="#8B8B8B"/>
<path d="M13 13H11V18H13V13Z" fill="#8B8B8B"/>
<path d="M5.7 4H21V2H5.7C4.20883 2 3 3.34315 3 5C3 6.65685 4.20883 8 5.7 8H21V6H5.7C5.20294 6 4.8 5.55229 4.8 5C4.8 4.44772 5.20294 4 5.7 4Z" fill="#8B8B8B"/>
<path d="M20 4H19.7C19.2029 4 18.8 4.44772 18.8 5C18.8 5.55229 19.2029 6 19.7 6H20V8H19.7C18.2088 8 17 6.65685 17 5C17 3.34315 18.2088 2 19.7 2H20V4Z" fill="#8B8B8B"/>
</svg>
