<svg width="24" height="24" viewBox="0 0 24 24" fill="none" xmlns="http://www.w3.org/2000/svg">
<path fill-rule="evenodd" clip-rule="evenodd" d="M17 1H7V3H8.00633L8.00624 5H8V7H8.00616L8.00612 8H8V10H8.00603L8.006 10.788L0.944351 21.501L0.887897 21.5974C0.552179 22.2482 1.02082 23.0514 1.77926 23.0514H11.9983H12H22.2191C22.977 23.0514 23.4457 22.2491 23.1109 21.5983L23.0546 21.502L16.0101 10.788L16.0097 3H17V1ZM14.0096 3H10.0064V5H12V7H10.0064V8H12V10H10.0064V11.0885C10.0064 11.245 9.96963 11.3988 9.8998 11.5377L9.84127 11.6389L7.62534 15H16.3853L14.1741 11.638L14.1158 11.5369C14.0462 11.3982 14.0096 11.2447 14.0096 11.0885V3ZM12 21.0514H11.9983L3.636 21.051L6.30677 17H17.7007L20.3651 21.051L12 21.0514Z" fill="#757575"/>
</svg>
