<svg width="24" height="24" viewBox="0 0 24 24" fill="none" xmlns="http://www.w3.org/2000/svg">
<path fill-rule="evenodd" clip-rule="evenodd" d="M20.59 5.49148L17.74 8.58488C15.68 6.34915 12.83 5 9.61 5C6.72 5 4.07 6.11786 2 7.89103L3.42 9.25945C5.12 7.82357 7.27 6.92735 9.61 6.92735C12.35 6.92735 14.7 8.14159 16.38 10.0497L13.5 13.172L9.5 9.31727L2 16.5545L3.5 18L9.5 12.2083L13.5 16.063L17.55 11.6783C18.3 12.9792 18.8 14.4729 18.99 16.063H21C20.78 13.8466 20.05 11.8325 18.96 10.146L22 6.85026L20.59 5.49148Z" fill="#8B8B8B"/>
</svg>
