<svg width="37" height="37" viewBox="0 0 37 37" fill="none" xmlns="http://www.w3.org/2000/svg">
<circle cx="18.1032" cy="18.1032" r="18.1032" fill="#F9C12A"/>
<path d="M13.4371 8.08008V28H9.15781V12.9473L4.53672 14.3555V11.0469L13.0133 8.08008H13.4371ZM22.0141 16.2285H24.1879C24.8077 16.2285 25.3181 16.1191 25.7191 15.9004C26.1293 15.6816 26.4301 15.3717 26.6215 14.9707C26.822 14.5697 26.9223 14.1003 26.9223 13.5625C26.9223 13.0977 26.8311 12.6829 26.6488 12.3184C26.4665 11.9538 26.1885 11.6667 25.8148 11.457C25.4503 11.2383 24.9763 11.1289 24.393 11.1289C23.9737 11.1289 23.5727 11.2155 23.1898 11.3887C22.8161 11.5527 22.5108 11.7943 22.2738 12.1133C22.0368 12.4232 21.9184 12.7969 21.9184 13.2344H17.6391C17.6391 12.1224 17.9398 11.1608 18.5414 10.3496C19.1521 9.53841 19.9587 8.91406 20.9613 8.47656C21.973 8.02995 23.0759 7.80664 24.2699 7.80664C25.6462 7.80664 26.8539 8.02539 27.893 8.46289C28.9411 8.89128 29.7523 9.5293 30.3266 10.377C30.9099 11.2155 31.2016 12.2546 31.2016 13.4941C31.2016 14.1413 31.0466 14.7656 30.7367 15.3672C30.4359 15.9596 30.003 16.4883 29.4379 16.9531C28.8819 17.4089 28.2165 17.7734 27.4418 18.0469C26.6762 18.3112 25.824 18.4434 24.8852 18.4434H22.0141V16.2285ZM22.0141 19.4414V17.2676H24.8852C25.9242 17.2676 26.8539 17.3861 27.6742 17.623C28.4945 17.86 29.1918 18.2018 29.766 18.6484C30.3402 19.0951 30.7777 19.6374 31.0785 20.2754C31.3793 20.9134 31.5297 21.6243 31.5297 22.4082C31.5297 23.3379 31.3474 24.1673 30.9828 24.8965C30.6182 25.6257 30.1078 26.2409 29.4516 26.7422C28.7953 27.2435 28.0251 27.6263 27.141 27.8906C26.2569 28.1458 25.2999 28.2734 24.2699 28.2734C23.4405 28.2734 22.6156 28.1595 21.7953 27.9316C20.975 27.7038 20.2322 27.3574 19.5668 26.8926C18.9014 26.4186 18.3682 25.8216 17.9672 25.1016C17.5661 24.3724 17.3656 23.5065 17.3656 22.5039H21.6449C21.6449 22.9688 21.7634 23.388 22.0004 23.7617C22.2465 24.1263 22.5792 24.418 22.9984 24.6367C23.4268 24.8464 23.8917 24.9512 24.393 24.9512C24.9945 24.9512 25.5049 24.8418 25.9242 24.623C26.3526 24.3952 26.6762 24.0853 26.8949 23.6934C27.1228 23.3014 27.2367 22.8503 27.2367 22.3398C27.2367 21.6471 27.1137 21.0911 26.8676 20.6719C26.6306 20.2435 26.2842 19.9336 25.8285 19.7422C25.3728 19.5417 24.8259 19.4414 24.1879 19.4414H22.0141Z" fill="black"/>
</svg>
