<svg width="37" height="37" viewBox="0 0 37 37" fill="none" xmlns="http://www.w3.org/2000/svg">
<circle cx="18.1032" cy="18.1032" r="18.1032" fill="#F9C12A"/>
<path d="M26.3639 22.91C26.3639 24.2127 26.0571 25.3078 25.4435 26.1951C24.8299 27.0825 23.9897 27.748 22.923 28.1917C21.8657 28.6354 20.6574 28.8572 19.298 28.8572C17.9481 28.8572 16.735 28.6354 15.6589 28.1917C14.5921 27.748 13.7472 27.0825 13.1242 26.1951C12.5011 25.3078 12.1896 24.2127 12.1896 22.91C12.1896 22.0226 12.3643 21.2249 12.7135 20.5169C13.0723 19.8089 13.5679 19.2047 14.2004 18.7044C14.8423 18.2041 15.5928 17.8218 16.4518 17.5574C17.3203 17.2931 18.2596 17.1609 19.2697 17.1609C20.6291 17.1609 21.8421 17.397 22.9089 17.869C23.985 18.3315 24.8299 18.9923 25.4435 19.8514C26.0571 20.7104 26.3639 21.73 26.3639 22.91ZM21.9176 22.5843C21.9176 21.9801 21.8044 21.4704 21.5778 21.055C21.3607 20.6302 21.0539 20.3045 20.6574 20.0779C20.2609 19.8419 19.7983 19.7239 19.2697 19.7239C18.7411 19.7239 18.2785 19.8419 17.882 20.0779C17.4855 20.3045 17.174 20.6302 16.9474 21.055C16.7303 21.4704 16.6217 21.9801 16.6217 22.5843C16.6217 23.1696 16.735 23.6793 16.9616 24.1136C17.1882 24.5384 17.4997 24.8641 17.8962 25.0906C18.2926 25.3078 18.7599 25.4163 19.298 25.4163C19.8361 25.4163 20.2987 25.3078 20.6857 25.0906C21.0728 24.8641 21.3748 24.5384 21.592 24.1136C21.8091 23.6793 21.9176 23.1696 21.9176 22.5843ZM25.925 13.4368C25.925 14.5036 25.6418 15.4429 25.0754 16.2547C24.5184 17.0571 23.7396 17.6849 22.7389 18.138C21.7383 18.5817 20.5913 18.8035 19.298 18.8035C18.0047 18.8035 16.853 18.5817 15.8429 18.138C14.8423 17.6849 14.054 17.0571 13.4782 16.2547C12.9118 15.4429 12.6286 14.5036 12.6286 13.4368C12.6286 12.1907 12.9118 11.1382 13.4782 10.2791C14.054 9.42006 14.8423 8.7687 15.8429 8.32501C16.8436 7.88133 17.9858 7.65948 19.2697 7.65948C20.5724 7.65948 21.7241 7.88133 22.7248 8.32501C23.7254 8.7687 24.509 9.42006 25.0754 10.2791C25.6418 11.1382 25.925 12.1907 25.925 13.4368ZM21.507 13.6634C21.507 13.1442 21.4173 12.6958 21.238 12.3182C21.068 11.9311 20.8179 11.6338 20.4875 11.4261C20.1571 11.209 19.7511 11.1004 19.2697 11.1004C18.8071 11.1004 18.4106 11.2042 18.0802 11.4119C17.7498 11.6102 17.495 11.9028 17.3156 12.2899C17.1457 12.6675 17.0607 13.1253 17.0607 13.6634C17.0607 14.192 17.1457 14.6546 17.3156 15.0511C17.495 15.4381 17.7498 15.7449 18.0802 15.9715C18.4201 16.1886 18.826 16.2972 19.298 16.2972C19.7795 16.2972 20.1807 16.1886 20.5016 15.9715C20.832 15.7449 21.0822 15.4381 21.2521 15.0511C21.422 14.6546 21.507 14.192 21.507 13.6634Z" fill="black"/>
</svg>
