<svg class="SVGInline-svg" style="width: 20px;height: 20px;" xmlns="http://www.w3.org/2000/svg" width="24" height="24" viewBox="0 0 24 24">
    <g fill="none" fill-rule="evenodd">
        <g>
            
            <g>
                <g>
                    <path class="fill_empty" d="M28 16H52V40H28z" transform="translate(-356 -2136) translate(40 1851) translate(288 269)"></path>
                </g>
                <g fill="#757575">
                    <path d="M13 2v11H2V2h11zm-2 2H4v7h7V4z" transform="translate(-356 -2136) translate(40 1851) translate(316 285)"></path>
                    <path d="M13 11v11H2V11h11zm-2 2H4v7h7v-7z" transform="translate(-356 -2136) translate(40 1851) translate(316 285)"></path>
                    <path d="M22 2v11H11V2h11zm-2 2h-7v7h7V4z" transform="translate(-356 -2136) translate(40 1851) translate(316 285)"></path>
                </g>
            </g>
        </g>
    </g>
</svg>