<svg width="28" height="28" viewBox="0 0 28 28" fill="none" xmlns="http://www.w3.org/2000/svg">
<rect width="28" height="28" rx="4" fill="#296CF2"/>
<path fill-rule="evenodd" clip-rule="evenodd" d="M18.3202 16.906C20.7627 13.7676 20.5416 9.22787 17.6569 6.34315C14.5327 3.21895 9.46734 3.21895 6.34315 6.34315C3.21895 9.46734 3.21895 14.5327 6.34315 17.6569C9.22787 20.5416 13.7676 20.7627 16.906 18.3202L21.9494 23.3636L23.3636 21.9494L18.3202 16.906ZM16.2426 16.2426C13.8995 18.5858 10.1005 18.5858 7.75736 16.2426C5.41421 13.8995 5.41421 10.1005 7.75736 7.75736C10.1005 5.41421 13.8995 5.41421 16.2426 7.75736C18.5858 10.1005 18.5858 13.8995 16.2426 16.2426Z" fill="white"/>
</svg>
