<svg width="24" height="24" viewBox="0 0 24 24" fill="none" xmlns="http://www.w3.org/2000/svg">
<g clip-path="url(#clip0_523_14788)">
<path fill-rule="evenodd" clip-rule="evenodd" d="M4.50027 4.50026C7.59489 1.40565 12.6122 1.40565 15.7069 4.50026C18.5643 7.35772 18.7833 11.8545 16.3638 14.9632L22.0774 20.6768L20.6766 22.0777L14.963 16.364C11.8542 18.7833 7.35764 18.5642 4.50027 15.7069C1.40565 12.6122 1.40565 7.59488 4.50027 4.50026ZM14.2762 14.3359C11.9529 16.627 8.21226 16.6171 5.9013 14.3061C3.58033 11.9851 3.58033 8.2221 5.9013 5.90114C8.22226 3.58017 11.9853 3.58017 14.3062 5.90114C16.6172 8.2121 16.6272 11.9527 14.3361 14.276L14.2762 14.3359ZM13.0748 9.11298V11.094L11.094 11.094L11.094 13.0753H9.11289L9.11289 11.094L7.13156 11.094V9.11298H9.11289V7.13207L11.094 7.13207V9.11298L13.0748 9.11298Z" fill="#757575"/>
</g>
<defs>
<clipPath id="clip0_523_14788">
<rect width="24" height="24" fill="white"/>
</clipPath>
</defs>
</svg>
