<svg class="SVGInline-svg" style="width: 60px;height: 60px;" xmlns="http://www.w3.org/2000/svg" width="32" height="32" viewBox="0 0 32 32">
  <g fill="none" fill-rule="evenodd">
      <g>
          <g>
              <g>
                  <g>
                      <g>
                          <path d="M0 0L32 0 32 32 0 32z" transform="translate(-3032 -1312) translate(2198 1266) translate(646 14) translate(188 32)"></path>
                      </g>
                      <path fill="#D82C20" fill-rule="nonzero" d="M6.462 14.18c1.088.521 7.166 2.97 8.118 3.424.953.454 1.633.454 2.857-.159 1.202-.635 6.917-2.97 8.006-3.537.566-.295.816-.522.816-.726v-2.064c0-.204-.272-.385-.816-.59L17.619 7.49c-1.089-.408-1.52-.385-2.79.068-1.292.454-7.324 2.835-8.39 3.243-.522.204-.816.408-.816.612H5.6v2.064c0 .227.317.453.862.703zm9.887.295l-3.334-1.384 4.785-.725-1.451 2.109zm7.234-3.289l-2.835 1.112-.294.113-2.812-1.111 3.129-1.247 2.812 1.133zm-8.277-2.04l-.454-.862 1.429.567 1.36-.454-.362.885 1.383.521-1.791.182-.409.952-.635-1.043-2.063-.182 1.542-.567zm-3.56 1.201c1.405 0 2.562.454 2.562.998s-1.134.998-2.562.998c-1.406 0-2.563-.454-2.563-.998s1.157-.998 2.563-.998zm-5.284 7.37c1.088.522 7.166 2.971 8.118 3.425.953.453 1.633.453 2.857-.16 1.202-.634 6.917-2.97 8.006-3.537.566-.294.816-.521.816-.725v-2.064c0 .204-.272.408-.794.703-1.088.567-6.803 2.925-8.005 3.538-1.202.635-1.882.635-2.834.158-.953-.453-7.053-2.902-8.142-3.424-.544-.25-.861-.476-.861-.68v2.086c-.023.204.294.408.839.68zm0 3.402c1.088.522 7.166 2.97 8.118 3.424.953.454 1.633.454 2.857-.158 1.202-.635 6.917-2.971 8.006-3.538.566-.295.816-.522.816-.726v-2.063c0 .204-.272.408-.794.703-1.088.567-6.803 2.925-8.005 3.537-1.202.635-1.882.635-2.834.159-.953-.454-7.053-2.903-8.142-3.424-.544-.25-.861-.477-.861-.68v2.086c-.023.181.294.408.839.68z" transform="translate(-3032 -1312) translate(2198 1266) translate(646 14) translate(188 32)"></path>
                  </g>
              </g>
          </g>
      </g>
  </g>
</svg>