<svg class="SVGInline-svg" style="width: 60px;height: 60px;" xmlns="http://www.w3.org/2000/svg" width="32" height="32" viewBox="0 0 32 32">
  <defs>
      <linearGradient id="yyzrsxih9a" x1="66.726%" x2="16.758%" y1="94.341%" y2="-4.331%">
          <stop offset="100%" stop-color="#FEFEFE" stop-opacity="0"></stop>
          <stop offset="0%" stop-color="#FEFEFE"></stop>
      </linearGradient>
  </defs>
  <g fill="none" fill-rule="evenodd">
      <g>
          <g>
              <g>
                  <g>
                      <g>
                          <path d="M0 0L28 0 28 28 0 28z" transform="translate(-1091 -668) translate(1075 501) translate(16 16) translate(0 151) translate(2 2)"></path>
                          <g>
                              <path fill="#00678E" d="M19.943 19.364c-.012-.029-.026-.055-.037-.071l-.042-.068c-.146-.234-.284-.454-.469-.66-.221-.246-.407-.443-.586-.619-.458-.454-.902-.805-1.357-1.072-.342-.202-.757-.446-.95-.7.144-.012.405-.061.886-.177l.11-.026c.614-.123 1.128-.236 1.642-.393.158-.047.157-.159.156-.248v-.025c0-.036-.014-.07-.039-.095-.144-.148-.283-.304-.419-.454-.231-.259-.47-.526-.744-.763-.565-.492-1.194-.907-1.733-1.248-.272-.171-.581-.305-.885-.436-.178-.077-.363-.157-.532-.242-.061-.031-.13-.054-.204-.079-.102-.034-.229-.076-.27-.128-.151-.193-.257-.424-.371-.673-.052-.114-.106-.23-.165-.345-.316-.609-.594-1.247-.862-1.865-.201-.465-.41-.946-.635-1.413-.41-.853-.94-1.66-1.62-2.467-.706-.84-1.584-1.63-2.61-2.346-.53-.37-1.243-.833-2.055-1.123-.644-.23-1.283-.285-1.99-.329-.095-.045-.203-.139-.308-.23C3.768.994 3.679.916 3.59.86 3.06.525 1.728-.223.825.065.486.173.24.41.092.77c-.265.646.093 1.274.434 1.748.112.155.232.306.348.451.157.197.319.4.458.612.273.415.407.85.548 1.31l.054.174c.171.547.381 1.067.607 1.502.15.287.313.588.5.843.043.058.094.106.143.152.047.044.092.086.127.135.052.07-.019.231-.07.349-.022.048-.041.093-.052.13-.072.227-.136.462-.19.696-.155.668-.226 1.27-.217 1.839.017 1.045.253 1.961.681 2.648.491.788 1.02 1.073 1.572.849.506-.207.569-.716.63-1.212.02-.174.043-.354.083-.524l.054.089c.024.037.044.07.055.091.07.14.152.303.24.46.141.253.313.496.539.765.616.733 1.37 1.335 2.1 1.917l.04.032c.05.04.156.084.239.058.047-.014.081-.05.096-.098.032-.107-.095-.206-.187-.278-.015-.012-.028-.021-.037-.03-.652-.576-1.125-1.288-1.553-1.966-.335-.532-.61-1.03-.841-1.522-.084-.178-.15-.38-.219-.593-.112-.344-.228-.7-.428-.966-.024-.032-.058-.07-.106-.09-.193-.08-.385.202-.551.473l-.038.062c-.16.244-.29.532-.384.856-.07.243-.123.507-.164.83l-.009.148c-.006.126-.022.438-.048.544-.457-.18-.65-.965-.755-1.393l-.004-.017c-.155-.628-.19-1.283-.104-1.946.06-.46.2-.912.335-1.35.057-.185.115-.37.166-.557.034-.122.064-.242.06-.367-.007-.286-.251-.521-.383-.649-.066-.063-.127-.123-.173-.185-.409-.554-.657-1.209-.846-1.776-.049-.147-.093-.294-.137-.44-.15-.491-.292-.957-.578-1.395-.16-.244-.339-.479-.512-.706-.193-.254-.394-.517-.565-.791-.104-.166-.186-.405-.133-.563.025-.075.078-.127.16-.159.19-.071.455.03.66.106.5.19.958.473 1.339.725.063.042.13.1.2.163.145.127.294.258.478.312.012.004.025.006.038.006h.268c1.033 0 2.041.333 3.173 1.048 1.97 1.244 3.487 3.06 4.51 5.397l.204.472c.199.463.405.942.635 1.403.089.178.173.358.258.537.19.406.388.826.634 1.218.228.364.576.49.906.609.27.135.557.235.834.332.323.113.656.23.962.401.251.142.488.312.718.477.19.136.385.276.59.4.16.098.403.247.546.384h-.04c-.932 0-1.753.138-2.506.422-.224.085-.358.21-.398.374-.088.358.303.795.562 1.085.483.539 1.105.88 1.809 1.24.49.249.882.474 1.237.707.175.116.342.252.503.384.06.05.121.1.183.148.223.177.384.265.482.265.027 0 .048-.006.065-.019.073-.054.03-.159.016-.193" transform="translate(-1091 -668) translate(1075 501) translate(16 16) translate(0 151) translate(2 2) translate(4.71 4.9)"></path>
                              <path fill="url(#yyzrsxih9a)" d="M1.078.961c-.083.032-.136.084-.161.159-.053.158.028.397.133.563.171.274.372.537.565.79.173.228.352.463.512.707.287.439.428.904.578 1.396.044.145.088.292.137.439.19.567.437 1.222.846 1.776.046.062.107.122.173.185.132.128.376.363.384.65.003.124-.027.244-.06.366-.053.187-.11.372-.167.557-.135.438-.275.89-.335 1.35-.086.663-.051 1.318.104 1.946l.004.017c.105.428.298 1.214.756 1.393.025-.106.04-.418.047-.544.004-.073.007-.128.01-.148.04-.323.093-.587.163-.83.094-.324.223-.612.384-.856l.038-.061c.166-.272.358-.554.55-.474.05.02.083.059.107.09.2.267.316.622.428.966.07.214.135.415.219.593.23.492.506.99.84 1.522.43.678.902 1.39 1.554 1.967l.037.029c.066.051.148.116.178.188 0 0 4.134-2.155 5.278-2.74-.33-.119-.678-.244-.906-.61-.246-.391-.443-.81-.634-1.217-.085-.18-.17-.36-.258-.537-.23-.46-.436-.94-.635-1.403l-.205-.472C10.72 6.381 9.203 4.565 7.233 3.321c-1.132-.715-2.14-1.048-3.173-1.048h-.268c-.013 0-.026-.002-.039-.006-.183-.054-.332-.185-.476-.312-.071-.063-.138-.121-.201-.163-.381-.252-.838-.536-1.339-.725-.155-.058-.346-.13-.511-.13-.053 0-.103.007-.148.024" transform="translate(-1091 -668) translate(1075 501) translate(16 16) translate(0 151) translate(2 2) translate(4.71 4.9)"></path>
                              <path fill="#00678E" d="M4.795 3.414c-.13-.069-.283-.098-.455-.088h-.014c-.126.007-.387.02-.397.176-.003.056.023.101.051.142l.117.166c.224.317.435.617.6.964.03.06.08.096.134.096l.015-.001c.045-.006.076-.035.092-.051.115-.11.222-.22.273-.366.09-.252.046-.541-.117-.773-.079-.112-.182-.203-.299-.265" transform="translate(-1091 -668) translate(1075 501) translate(16 16) translate(0 151) translate(2 2) translate(4.71 4.9)"></path>
                          </g>
                      </g>
                  </g>
              </g>
          </g>
      </g>
  </g>
</svg>