<svg class="SVGInline-svg" style="width: 16px;height: 16px;" width="20px" height="20px" viewBox="0 0 20 20" version="1.1" xmlns="http://www.w3.org/2000/svg" xmlns:xlink="http://www.w3.org/1999/xlink">
    <!-- Generator: Sketch 59.1 (86144) - https://sketch.com -->
    <!-- <title>ic-s-logout</title> -->
    <desc>Created with Sketch.</desc>
    <g id="Icon-Set" stroke="none" stroke-width="1" fill="none" fill-rule="evenodd">
        <g id="WhaTap_Icon_Set" transform="translate(-934.000000, -555.000000)" fill="#757575">
            <g id="directional-icons-copy" transform="translate(40.000000, 428.000000)">
                <g id="ic-logout" transform="translate(894.000000, 127.000000)">
                    <g transform="translate(2.000000, 2.000000)" id="ic-login-copy">
                        <path d="M6.8,12 L10.8,8 L6.8,4 L5.672,5.128 L7.736,7.2 L-3.39284156e-13,7.2 L-3.39284156e-13,8.8 L7.736,8.8 L5.672,10.872 L6.8,12 Z M3.29869465e-12,3.94351218e-14 L3.753442e-12,4.8 L1.6,4.8 L1.6,1.6 L14.4,1.6 L14.4,14.4 L1.6,14.4 L1.6,11.2 L3.70792286e-12,11.2 L3.92397226e-12,16 L16,16 L16,2.66453526e-14 L3.29869465e-12,3.94351218e-14 Z"></path>
                    </g>
                </g>
            </g>
        </g>
    </g>
</svg>