<svg class="SVGInline-svg" style="width: 60px;height: 60px;" width="34" height="34" viewBox="0 0 34 34" fill="none" xmlns="http://www.w3.org/2000/svg">
  <path fill-rule="evenodd" clip-rule="evenodd" d="M23.9851 14.1668C24.0496 15.0883 24.0832 16.0348 24.0832 17C24.0832 17.9653 24.0496 18.912 23.9851 19.8335H30.883C31.0691 18.9179 31.1668 17.9704 31.1668 17.0002C31.1668 16.0299 31.0691 15.0824 30.883 14.1668H23.9851ZM21.1406 14.1668C21.2113 15.0794 21.2498 16.0265 21.2498 17C21.2498 17.9737 21.2113 18.9208 21.1405 19.8335H12.8589C12.7883 18.9208 12.7498 17.9737 12.7498 17C12.7498 16.0265 12.7883 15.0794 12.8589 14.1668H21.1406ZM23.6796 11.3335H29.9865C28.3648 7.62638 25.2007 4.74535 21.3035 3.50215C22.383 5.48726 23.2175 8.19988 23.6796 11.3335ZM17.0084 2.83351C18.255 2.86212 19.9974 6.29876 20.8056 11.3335H13.1931C13.9996 6.29797 15.7378 2.86089 16.9779 2.8335C16.9806 2.8335 16.9833 2.8335 16.986 2.8335C16.9935 2.8335 17.0009 2.8335 17.0084 2.83351ZM10.3192 11.3335C10.7807 8.19709 11.6144 5.48243 12.6932 3.49685C8.7959 4.73715 5.63178 7.6211 4.0113 11.3335H10.3192ZM10.0144 14.1668C9.95 15.0883 9.9165 16.0348 9.9165 17C9.9165 17.9653 9.95001 18.912 10.0144 19.8335H3.11668C2.93097 18.9179 2.8335 17.9704 2.8335 17.0002C2.8335 16.0299 2.93097 15.0824 3.11668 14.1668H10.0144ZM10.3193 22.6668H4.0113C5.63181 26.3793 8.79601 29.2633 12.6934 30.5035C11.6146 28.518 10.7808 25.8033 10.3193 22.6668ZM21.3033 30.4982C25.2006 29.2551 28.3647 26.374 29.9865 22.6668H23.6795C23.2174 25.8005 22.3829 28.5132 21.3033 30.4982ZM20.8055 22.6668H13.1932C14.0029 27.7224 15.7518 31.1667 16.9928 31.1667C18.2404 31.1667 19.9939 27.7225 20.8055 22.6668Z" fill="#3897ff"></path>
</svg>