<svg class="SVGInline-svg" style="width: 16px;height: 16px;" width="24px" height="24px" viewBox="0 0 24 24" version="1.1" xmlns="http://www.w3.org/2000/svg" xmlns:xlink="http://www.w3.org/1999/xlink">
    <!-- Generator: Sketch 59.1 (86144) - https://sketch.com -->
    <!-- <title>ic-pageview</title> -->
    <desc>Created with Sketch.</desc>
    <g id="Icon-Set" stroke="none" stroke-width="1" fill="none" fill-rule="evenodd">
        <g id="WhaTap_Icon_Set" transform="translate(-68.000000, -2711.000000)" fill="#296cf2">
            <g id="application-icons" transform="translate(40.000000, 2346.000000)">
                <g id="ic-pageview" transform="translate(28.000000, 365.000000)">
                    <g transform="translate(2.000000, 4.000000)" id="pageview">
                        <path d="M18,0 C19.0352941,0 19.8934256,0.797231834 19.9907999,1.80810096 L20,2 L19.999,5.333 L17.999,5.333 L18,2 L2,2 L2,14 L12,14 L12,16 L2,16 C0.964705882,16 0.106574394,15.2027682 0.00920008142,14.191899 L-5.32907052e-15,14 L-5.32907052e-15,2 C-5.32907052e-15,0.964705882 0.797231834,0.106574394 1.80810096,0.00920008142 L2,0 L18,0 Z M13.1666667,4 C15.6566667,4 17.6666667,6.01 17.6666667,8.5 C17.6666667,9.38 17.4066667,10.19 16.9666667,10.89 L19.8766667,13.79 L18.4566667,15.21 L15.5466667,12.3 C14.8566667,12.74 14.0366667,13 13.1566667,13 C10.6766667,13 8.66666667,10.99 8.66666667,8.5 C8.66666667,6.01 10.6766667,4 13.1666667,4 Z M13.1666667,6 C11.7866667,6 10.6666667,7.12 10.6666667,8.5 C10.6666667,9.88 11.7866667,11 13.1666667,11 C14.5466667,11 15.6666667,9.88 15.6666667,8.5 C15.6666667,7.12 14.5466667,6 13.1666667,6 Z"></path>
                    </g>
                </g>
            </g>
        </g>
    </g>
</svg>