<svg class="SVGInline-svg" style="width: 16px;height: 16px;" width="24px" height="24px" viewBox="0 0 24 24" version="1.1" xmlns="http://www.w3.org/2000/svg" xmlns:xlink="http://www.w3.org/1999/xlink">
    <!-- Generator: Sketch 59.1 (86144) - https://sketch.com -->
    <!-- <title>ic-arc-chart</title> -->
<g id="Icon-Set" stroke="none" stroke-width="1" fill="none" fill-rule="evenodd">
    <g id="WhaTap_Icon_Set" transform="translate(-740.000000, -1624.000000)" fill="#757575">
        <g id="data-icons" transform="translate(40.000000, 1579.000000)">
            <g id="ic-ark-chart" transform="translate(700.000000, 45.000000)">
                <g transform="translate(2.000000, 2.000000)" id="Combined-Shape">
                    <path d="M10,0 C15.5228475,0 20,4.4771525 20,10 C20,15.5228475 15.5228475,20 10,20 C4.4771525,20 0,15.5228475 0,10 C0,4.4771525 4.4771525,0 10,0 Z M7.14675606,12.803392 L3.62552509,14.8345678 C4.89620848,16.5073982 6.81029738,17.664787 8.99904492,17.9379871 L8.99923866,13.8737865 C8.28500787,13.6898054 7.64801295,13.3135065 7.14675606,12.803392 Z M10.9997565,13.8740452 L10.9999513,17.9381123 C13.1891174,17.6651408 15.1035973,16.507654 16.3744749,14.8345678 L12.8532439,12.803392 C12.351752,13.3137457 11.7143947,13.6901583 10.9997565,13.8740452 Z M17.3759801,6.89707901 L13.8553259,8.93015466 C13.9496163,9.27068394 14,9.62945809 14,10 C14,10.3705419 13.9496163,10.7293161 13.8553259,11.0698453 L17.3759801,13.102921 C17.7778598,12.1487646 18,11.1003241 18,10 C18,8.89967588 17.7778598,7.85123536 17.3759801,6.89707901 Z M2.62401992,6.89707901 C2.22214015,7.85123536 2,8.89967588 2,10 C2,11.1003241 2.22214015,12.1487646 2.62401992,13.102921 L6.14467413,11.0698453 C6.05038375,10.7293161 6,10.3705419 6,10 C6,9.62945809 6.05038375,9.27068394 6.14467413,8.93015466 Z M10,8 C8.8954305,8 8,8.8954305 8,10 C8,11.0962015 8.88191476,11.9864209 9.97493245,11.9998461 L10.025,11.999 L10.1492623,11.9945143 C11.1841222,11.9181651 12,11.0543618 12,10 C12,8.8954305 11.1045695,8 10,8 Z M8.99904492,2.06201291 C6.81029738,2.33521304 4.89620848,3.49260177 3.62552509,5.16543223 L7.14675606,7.19660799 C7.64801295,6.68649349 8.28500787,6.31019461 8.99923866,6.12621352 Z M10.9999513,2.06188768 L10.9997565,6.12595483 C11.7143947,6.30984173 12.351752,6.68625428 12.8532439,7.19660799 L16.3744749,5.16543223 C15.1035973,3.49234605 13.1891174,2.3348592 10.9999513,2.06188768 Z"></path>
                </g>
            </g>
        </g>
    </g>
</g>
</svg>