<svg class="SVGInline-svg" style="width: 60px;height: 60px;" xmlns="http://www.w3.org/2000/svg" width="32" height="32" viewBox="0 0 32 32">
  <g fill="none" fill-rule="evenodd">
      <g>
          <g>
              <g>
                  <g>
                      <path d="M0 0L32 0 32 32 0 32z" transform="translate(-1235 -668) translate(1075 501) translate(16 16) translate(144 151)"></path>
                      <path fill="#417BA2" d="M17.993 5.945c1.252-.323 2.597-.461 3.895-.23 1.16.184 2.273.783 3.154 1.612.37.369.742.784.881 1.29.278.922.14 1.844 0 2.765-.417 2.166-1.252 4.24-2.365 6.175.51 0 .974-.138 1.484-.184.464-.046 1.02.277 1.113.737.139.507-.186 1.014-.557 1.337-1.02.875-2.411 1.152-3.663 1.106-.093 1.336-.093 2.673-.65 3.917-.278.553-.649 1.014-1.16 1.336-.51.323-1.066.461-1.622.553-.603.092-1.299.046-1.855-.322-.51-.323-.789-.83-.974-1.383-.418-1.152-.371-2.35-.464-3.548-.881.368-1.855.368-2.736.046-.325-.092-.603-.277-.835-.507-.464.369-1.067.553-1.67.415-.742-.185-1.252-.83-1.67-1.429-.695-1.106-1.112-2.35-1.483-3.594-.418-1.429-.789-2.857-.974-4.378-.093-1.336 0-2.719.742-3.87.556-.923 1.577-1.568 2.643-1.798 1.53-.323 3.108 0 4.545.415.464-.23.928-.461 1.438-.553.974-.139 1.901-.046 2.783.092zm4.22.23c-1.345-.184-2.875-.092-4.267.323-.093.046-.232-.046-.324-.046-1.253-.277-2.644-.139-3.71.553-1.3-.461-2.69-.738-4.082-.6-1.02.093-2.087.6-2.643 1.43-.742 1.105-.835 2.488-.742 3.732.232 1.705.65 3.364 1.16 4.977.37 1.013.741 2.027 1.344 2.903.325.415.742.875 1.299.921.51.047.927-.23 1.252-.599.556-.645 1.067-1.244 1.623-1.843.371.184.788.277 1.16.323-.232.276-.418.599-.743.69-.463.185-1.02.14-1.437.462-.232.184-.278.553-.047.737.371.369.974.46 1.484.507.742.046 1.484-.184 2.041-.691 0 1.152 0 2.35.14 3.502.046.691.37 1.382.88 1.797.464.415 1.206.507 1.809.415.603-.138 1.252-.323 1.716-.691.51-.461.742-1.106.835-1.751.185-1.152.324-2.305.463-3.503 1.299.23 2.783-.046 3.757-.967.185-.185.417-.553.185-.784-.185-.23-.556-.184-.834-.138-.65.138-1.392.276-2.04-.046 1.159-1.843 2.086-3.825 2.596-5.945.186-.783.325-1.613.325-2.442-.047-.46-.093-.968-.371-1.336-.696-.922-1.716-1.567-2.83-1.89zm-6.493.783c1.438-.184 2.968.23 4.128 1.106.927.738 1.716 1.752 2.087 2.904-.65 0-1.438-.047-1.994.414-.51.415-.557 1.106-.464 1.706.278 1.428 1.113 2.626 1.716 3.87.139.323.37.553.603.83-.279.138-.51.23-.65.507-.231.415-.139.876-.231 1.336-.14 1.244-.279 2.488-.464 3.733-.093.599-.371 1.244-.928 1.52-.556.277-1.252.461-1.901.369-.603-.092-1.02-.691-1.16-1.244-.139-.46-.139-.968-.185-1.429-.047-1.152-.047-2.304-.047-3.456.047-.46-.185-.922-.602-1.152-.186-.092-.418-.138-.65-.138.186-.83.696-1.567.881-2.442.232-1.06.093-2.12-.139-3.18-.092-.507-.51-.967-1.02-1.106-.835-.185-1.623.092-2.365.46.093-1.151.417-2.35 1.113-3.317.556-.691 1.391-1.152 2.272-1.29zm-.603 11.475c.418-.046.789.599.418.922-.65.875-1.994 1.06-2.922.553.464-.185 1.02-.185 1.484-.461.417-.23.603-.737 1.02-1.014zM9.552 7.051c1.299-.23 2.597 0 3.85.368-.557.6-.974 1.29-1.206 2.074-.325 1.014-.464 2.12-.418 3.226.047.783.047 1.52-.092 2.304-.14.968.278 1.981 1.02 2.673-.51.599-1.02 1.152-1.53 1.75-.232.277-.51.554-.882.462-.417-.139-.695-.507-.927-.876-.65-1.014-1.02-2.166-1.392-3.318-.417-1.336-.742-2.719-.927-4.147-.093-1.06-.046-2.212.51-3.134.417-.737 1.16-1.198 1.994-1.382zM21.75 18.525c.14-.092.371-.23.557-.092.742.415 1.623.184 2.458.092-.51.46-1.16.691-1.855.784-.464.046-.928.092-1.345-.093 0-.23 0-.506.185-.69zm-7.629-6.87l.209.004c.37 0 .695.276.788.645.325 1.29.418 2.719-.185 3.963-.232.46-.418.968-.557 1.475-1.066 0-1.948-.875-2.133-1.844-.14-.553.046-1.106.046-1.659.093-.69.047-1.29.047-1.935.603-.369 1.298-.691 1.994-.645zm4.847-4.789c1.159-.276 2.458-.23 3.57.185.789.276 1.485.83 1.995 1.474.278.323.278.738.278 1.106 0 .922-.185 1.798-.417 2.72-.464 1.612-1.113 3.179-1.995 4.607l-.278.415c0-.046-.046-.138-.046-.138.093-.277.278-.553.324-.83.232-.83.047-1.705-.046-2.534-.093-.784.186-1.567.186-2.35.046-.369-.14-.738-.279-1.106-.556-1.198-1.391-2.258-2.504-2.996-.186-.23-.51-.368-.788-.553zm1.39 4.931c.465-.322 1.114-.276 1.624-.23-.046.737-.278 1.474-.185 2.258.092.922.324 1.935-.093 2.857-.603-1.198-1.391-2.304-1.623-3.64-.047-.415-.047-.922.278-1.245zm-5.518.369c-.232-.185-.557-.23-.835-.138-.093.046-.185.092-.185.184.046.369.556.599.88.369.14-.093.28-.277.14-.415zm6.632-.277c-.278-.092-.65-.092-.928.093-.139.138 0 .322.14.368.324.185.788-.092.788-.46z" transform="translate(-1235 -668) translate(1075 501) translate(16 16) translate(144 151)"></path>
                  </g>
              </g>
          </g>
      </g>
  </g>
</svg>