<svg class="SVGInline-svg" style="width: 60px;height: 60px;" xmlns="http://www.w3.org/2000/svg" width="54" height="54" viewBox="0 0 54 54" fill="none">
  <path d="M10.3022 41.9791L18.1943 27.439L10.3022 11.7325L8.3 12.7239V40.9877L10.3022 41.9791ZM29.4687 19.022L16.3865 16.8254L19.3412 12.6656L32.5595 18.536L29.4687 19.022ZM29.6242 34.6313L14.1122 37.1777L17.3584 41.6486L32.5595 35.0784L29.6242 34.6313Z" fill="#9D5125"></path>
  <path d="M14.9675 12.8016V40.8905L10.3022 41.9791V11.7325L14.9675 12.8016Z" fill="#F58534"></path>
  <path d="M14.9675 44.3118L12.5182 43.0872V10.6246L14.9675 9.39999L19.5744 28.8192L14.9675 44.3118ZM32.5594 18.5362L29.4493 19.0221V34.5925L32.5594 35.0785L35.3975 27.1669L32.5594 18.5362Z" fill="#9D5125"></path>
  <path d="M19.7299 10.7607V42.9706L14.9674 44.3118V9.39999L19.7299 10.7607Z" fill="#F58534"></path>
  <path d="M35.8057 38.4219V34.4759L14.9674 38.3442V44.3118L35.8057 38.4219ZM35.8446 15.3288V19.1582L14.9674 15.1927V9.39999L35.8446 15.3288Z" fill="#F58534"></path>
  <path d="M32.5594 39.3358V14.396L35.9029 15.3096V38.4221L32.5594 39.3358Z" fill="#F58534"></path>
  <path d="M42.6287 16.7088L45.7 23.8039L36.7388 24.2316L33.5703 24.0178L42.6287 16.7088Z" fill="#6B3B19"></path>
  <path d="M33.5703 18.1862V24.0178L42.6287 23.4929V16.7088L33.5703 18.1862Z" fill="#9D5125"></path>
  <path d="M29.3715 23.7262L25.0367 23.4346L34.2312 14.1818L38.8965 23.1236L29.3715 23.7262Z" fill="#6B3B19"></path>
  <path d="M25.0367 16.32V23.4346L34.2312 22.6571V14.1818L25.0367 16.32ZM33.5703 35.6615V29.8299L45.7 30.0243L42.6287 37.1194L33.5703 35.6615Z" fill="#9D5125"></path>
  <path d="M25.0367 37.5082V30.3937L38.8965 30.7047L34.2312 39.6465L25.0367 37.5082Z" fill="#9D5125"></path>
  <path d="M29.3715 30.1022L25.0367 30.3938L34.2312 31.1714L38.8965 30.7048L29.3715 30.1022ZM42.6287 30.3355L45.7 30.0245L36.7388 29.6163L33.5703 29.8301L42.6287 30.3355Z" fill="#FCBF92"></path>
  <path d="M42.6287 16.7088V23.4929L45.7 23.8039V17.6224L42.6287 16.7088ZM38.8964 15.5814V23.1236L34.2312 22.6571V14.1818L38.8964 15.5814ZM42.6287 37.1194V30.3353L45.7 30.0243V36.2058L42.6287 37.1194ZM38.8964 38.2469V30.7047L34.2312 31.1712V39.6464L38.8964 38.2469Z" fill="#F58534"></path>
</svg>