<svg class="SVGInline-svg" style="width: 16px;height: 16px;" width="24px" height="24px" viewBox="0 0 24 24" version="1.1" xmlns="http://www.w3.org/2000/svg" xmlns:xlink="http://www.w3.org/1999/xlink">
    <!-- Generator: Sketch 59.1 (86144) - https://sketch.com -->
    <!-- <title>ic-print</title> -->
    <desc>Created with Sketch.</desc>
    <g id="Icon-Set" stroke="none" stroke-width="1" fill="none" fill-rule="evenodd">
        <g id="WhaTap_Icon_Set" transform="translate(-644.000000, -2631.000000)" fill="#757575">
            <g id="application-icons" transform="translate(40.000000, 2346.000000)">
                <g id="ic-print" transform="translate(604.000000, 285.000000)">
                    <g transform="translate(2.000000, 2.000000)" id="Combined-Shape">
                        <path d="M16,0 L16,4 L20,4 L20,14 L16,14 L16,20 L4,20 L4,14 L0,14 L0,4 L4,4 L4,0 L16,0 Z M14,14 L6,14 L6,18 L14,18 L14,14 Z M18,6 L2,6 L2,12 L18,12 L18,6 Z M6,8 L6,10 L4,10 L4,8 L6,8 Z M14,2 L6,2 L6,4 L14,4 L14,2 Z"></path>
                    </g>
                </g>
            </g>
        </g>
    </g>
</svg>