<svg class="SVGInline-svg" style="width: 16px;height: 16px;" width="24px" height="24px" viewBox="0 0 24 24" version="1.1" xmlns="http://www.w3.org/2000/svg" xmlns:xlink="http://www.w3.org/1999/xlink">
  <!-- Generator: Sketch 59.1 (86144) - https://sketch.com -->
  <!-- <title>ic-link</title> -->
  <desc>Created with Sketch.</desc>
  <g id="Icon-Set" stroke="none" stroke-width="1" fill="none" fill-rule="evenodd">
      <g id="WhaTap_Icon_Set" transform="translate(-452.000000, -2951.000000)" fill="#757575">
          <g id="application-icons" transform="translate(40.000000, 2346.000000)">
              <g id="ic-link" transform="translate(412.000000, 605.000000)">
                  <g id="Icon">
                      <path d="M6,8.9 L11,8.9 L11,7 L6,7 C3.24,7 1,9.24 1,12 C1,14.76 3.24,17 6,17 L11,17 L11,15.1 L6,15.1 C4.29,15.1 2.9,13.71 2.9,12 C2.9,10.29 4.29,8.9 6,8.9 Z M7,13 L17,13 L17,11 L7,11 L7,13 L7,13 Z M13,7 L13,8.9 L18,8.9 C19.71,8.9 21.1,10.29 21.1,12 C21.1,13.71 19.71,15.1 18,15.1 L13,15.1 L13,17 L18,17 C20.76,17 23,14.76 23,12 C23,9.24 20.76,7 18,7 L13,7 Z" transform="translate(12.000000, 12.000000) rotate(-45.000000) translate(-12.000000, -12.000000) "></path>
                  </g>
              </g>
          </g>
      </g>
  </g>
</svg>