<svg class="SVGInline-svg" style="width: 60px;height: 60px;" width="40" height="40" viewBox="0 0 40 40" fill="none" xmlns="http://www.w3.org/2000/svg">
  <path fill-rule="evenodd" clip-rule="evenodd" d="M34.1666 5.8335H5.83331V9.37516V30.6252V34.1668H34.1666V30.6252V9.37516V5.8335ZM31.3333 12.9168V31.3335H8.66665V12.9168H31.3333ZM22.8333 20.0002C22.8333 21.5585 21.5583 22.8335 20 22.8335C18.4416 22.8335 17.1666 21.5585 17.1666 20.0002C17.1666 18.4418 18.4416 17.1668 20 17.1668C21.5583 17.1668 22.8333 18.4418 22.8333 20.0002ZM25.6666 28.5002V27.0835C25.6666 25.1993 21.8841 24.2502 20 24.2502C18.1158 24.2502 14.3333 25.1993 14.3333 27.0835V28.5002H25.6666ZM25.6666 8.66683H24.25V10.0835H25.6666V8.66683ZM27.0833 8.66683H28.5V10.0835H27.0833V8.66683ZM31.3333 8.66683H29.9166V10.0835H31.3333V8.66683Z" fill="#8BCD00"></path>
  </svg>