<svg class="SVGInline-svg" style="width: 20px;height: 20px;" width="24px" height="24px" viewBox="0 0 24 24" version="1.1" xmlns="http://www.w3.org/2000/svg" xmlns:xlink="http://www.w3.org/1999/xlink">
    <!-- Generator: Sketch 59.1 (86144) - https://sketch.com -->
    <!-- <title>ic-fullscreen</title> -->
    <desc>Created with Sketch.</desc>
    <g id="Icon-Set" stroke="none" stroke-width="1" fill="none" fill-rule="evenodd">
        <g id="WhaTap_Icon_Set" transform="translate(-164.000000, -324.000000)" fill="#757575">
            <g id="directional-icons" transform="translate(40.000000, 119.000000)">
                <g id="ic-fullscreen" transform="translate(124.000000, 205.000000)">
                    <g transform="translate(3.000000, 3.000000)" id="Icon">
                        <path d="M2,12 L2,16 L6,16 L6,18 L-1.58095759e-13,18 L-1.58095759e-13,12 L2,12 Z M18,12 L18,18 L12,18 L12,16 L16,16 L16,12 L18,12 Z M6,2.48689958e-14 L6,2 L2,2 L2,6 L-1.58095759e-13,6 L-1.58095759e-13,3.66096042e-14 L-1.58095759e-13,3.66096042e-14 L6,2.48689958e-14 Z M18,-3.19744231e-14 L18,6 L16,6 L16,2 L12,2 L12,-3.19744231e-14 L18,-3.19744231e-14 L18,-3.19744231e-14 Z"></path>
                    </g>
                </g>
            </g>
        </g>
    </g>
</svg>