<svg class="SVGInline-svg" style="width: 20px;height: 20px;" width="24px" height="24px" viewBox="0 0 24 24" version="1.1" xmlns="http://www.w3.org/2000/svg" xmlns:xlink="http://www.w3.org/1999/xlink">
  <!-- Generator: Sketch 59.1 (86144) - https://sketch.com -->
  <!-- <title>ic-csv-download</title> -->
  <desc>Created with Sketch.</desc>
  <g id="Icon-Set" stroke="none" stroke-width="1" fill="none" fill-rule="evenodd">
      <g id="WhaTap_Icon_Set" transform="translate(-259.000000, -3191.000000)" fill="#757575">
          <g id="application-icons" transform="translate(40.000000, 2346.000000)">
              <g id="ic-csv-download" transform="translate(219.000000, 845.000000)">
                  <g transform="translate(0.000000, 3.000000)" id="Combined-Shape">
                      <path d="M24,0 L24,18 L0,18 L0,0 L24,0 Z M22,2 L2,2 L2,16 L22,16 L22,2 Z M6.748,4.8 C7.23933579,4.8 7.67016482,4.88433249 8.0405,5.053 C8.41083519,5.22166751 8.72066542,5.45449852 8.97,5.7515 C9.21933458,6.04850149 9.4044994,6.39683134 9.5255,6.7965 C9.64650061,7.19616867 9.70333337,7.62699769 9.696,8.089 L7.98,8.089 C7.96533326,7.73699824 7.93050028,7.44733447 7.8755,7.22 C7.82049973,6.99266553 7.74533381,6.81300066 7.65,6.681 C7.55466619,6.54899934 7.44283398,6.45916691 7.3145,6.4115 C7.18616603,6.3638331 7.04133414,6.34 6.88,6.34 C6.68933238,6.34 6.50966751,6.38583288 6.341,6.4775 C6.17233249,6.56916713 6.02750061,6.71583233 5.9065,6.9175 C5.7854994,7.11916768 5.69016702,7.38499835 5.6205,7.715 C5.55083299,8.04500165 5.516,8.44466432 5.516,8.914 C5.516,9.39066905 5.55083299,9.79216504 5.6205,10.1185 C5.69016702,10.444835 5.7854994,10.7088323 5.9065,10.9105 C6.02750061,11.1121677 6.17233249,11.2588329 6.341,11.3505 C6.50966751,11.4421671 6.68933238,11.488 6.88,11.488 C7.1000011,11.488 7.27783266,11.4403338 7.4135,11.345 C7.54916735,11.2496662 7.65733293,11.1231675 7.738,10.9655 C7.81866707,10.8078325 7.87549984,10.6281677 7.9085,10.4265 C7.94150017,10.2248323 7.96533326,10.0176677 7.98,9.805 L9.696,9.805 C9.696,10.2596689 9.63183398,10.6813314 9.5035,11.07 C9.37516603,11.4586686 9.18633458,11.7996652 8.937,12.093 C8.68766542,12.3863348 8.3796685,12.6154992 8.013,12.7805 C7.6463315,12.9455008 7.22466905,13.028 6.748,13.028 C6.30066443,13.028 5.89550182,12.9436675 5.5325,12.775 C5.16949819,12.6063325 4.85966795,12.3515017 4.603,12.0105 C4.34633205,11.6694983 4.14833403,11.2423359 4.009,10.729 C3.86966597,10.2156641 3.8,9.61067015 3.8,8.914 C3.8,8.22466322 3.86966597,7.62150259 4.009,7.1045 C4.14833403,6.58749742 4.34633205,6.15850171 4.603,5.8175 C4.85966795,5.4764983 5.16949819,5.22166751 5.5325,5.053 C5.89550182,4.88433249 6.30066443,4.8 6.748,4.8 Z M12.4276667,4.8 C13.1830038,4.8 13.7714979,4.98149819 14.1931667,5.3445 C14.6148354,5.70750182 14.8879994,6.28132941 15.0126667,7.066 L13.3846667,7.066 C13.3699999,6.79466531 13.2856674,6.58016746 13.1316667,6.4225 C12.9776659,6.26483255 12.7650014,6.186 12.4936667,6.186 C12.2296653,6.186 12.0225008,6.27033249 11.8721667,6.439 C11.7218326,6.60766751 11.6466667,6.81299879 11.6466667,7.055 C11.6466667,7.28966784 11.7328325,7.47116603 11.9051667,7.5995 C12.0775009,7.72783398 12.2956653,7.84149951 12.5596667,7.9405 C12.823668,8.0395005 13.1059985,8.14033282 13.4066667,8.243 C13.7073348,8.34566718 13.9896653,8.49049907 14.2536667,8.6775 C14.517668,8.86450094 14.7358325,9.11199846 14.9081667,9.42 C15.0805009,9.72800154 15.1666667,10.1313308 15.1666667,10.63 C15.1666667,11.0040019 15.098834,11.3376652 14.9631667,11.631 C14.8274993,11.9243348 14.6405012,12.175499 14.4021667,12.3845 C14.1638321,12.593501 13.8796683,12.7529995 13.5496667,12.863 C13.219665,12.9730006 12.8603353,13.028 12.4716667,13.028 C11.5403287,13.028 10.8620021,12.795169 10.4366667,12.3295 C10.0113312,11.863831 9.79866667,11.2166708 9.79866667,10.388 L11.4706667,10.388 C11.4853334,10.784002 11.5696659,11.0773324 11.7236667,11.268 C11.8776674,11.4586676 12.1379982,11.554 12.5046667,11.554 C12.8126682,11.554 13.0473325,11.4678342 13.2086667,11.2955 C13.3700008,11.1231658 13.4506667,10.8940014 13.4506667,10.608 C13.4506667,10.3879989 13.3645009,10.2120007 13.1921667,10.08 C13.0198325,9.94799934 12.801668,9.8325005 12.5376667,9.7335 C12.2736653,9.63449951 11.9913348,9.53366718 11.6906667,9.431 C11.3899985,9.32833282 11.107668,9.1908342 10.8436667,9.0185 C10.5796653,8.84616581 10.3615009,8.62250138 10.1891667,8.3475 C10.0168325,8.07249863 9.93066667,7.71133557 9.93066667,7.264 C9.93066667,6.88999813 9.98749943,6.55083486 10.1011667,6.2465 C10.2148339,5.94216515 10.3798323,5.68183442 10.5961667,5.4655 C10.8125011,5.24916559 11.0746651,5.08416724 11.3826667,4.9705 C11.6906682,4.85683277 12.0389981,4.8 12.4276667,4.8 Z M16.5343333,4.932 L17.8763333,10.41 L17.8983333,10.41 L19.2623333,4.932 L20.8243333,4.932 L18.6023333,12.896 L17.1283333,12.896 L14.9063333,4.932 L16.5343333,4.932 Z"></path>
                  </g>
              </g>
          </g>
      </g>
  </g>
</svg>