<svg class="SVGInline-svg" style="width: 60px;height: 60px;" xmlns="http://www.w3.org/2000/svg" xmlns:xlink="http://www.w3.org/1999/xlink" width="32" height="32" viewBox="0 0 32 32">
  <defs>
      <path id="fzrtp3s36a" d="M0 0.774L8.502 0.774 8.502 5.051 0 5.051z"></path>
  </defs>
  <g fill="none" fill-rule="evenodd">
      <g>
          <g>
              <g>
                  <g>
                      <g>
                          <g>
                              <path fill="#F39D18" d="M23.593 13.429h-4.39c-1.3 0-2.6-.002-3.899.001-.13.002-.193-.014-.193-.174.005-2.755.004-5.51.005-8.266 0-.02.002-.038 0-.003l8.477 8.442" transform="translate(-1307 -668) translate(1075 501) translate(16 16) translate(216 151) translate(4 4.4) translate(.118)"></path>
                              <path fill="#38AD37" d="M18.717 14.104c-2.863 2.853-5.696 5.679-8.53 8.505-.048-.031-.021-.085-.021-.13-.002-2.738-.002-5.476-.005-8.212 0-.116.006-.173.152-.173 2.76.005 5.52.004 8.28.004.029 0 .057.003.124.006" transform="translate(-1307 -668) translate(1075 501) translate(16 16) translate(216 151) translate(4 4.4) translate(.118)"></path>
                              <path fill="#E84619" d="M10.165 7.032c0-.668.003-1.335-.002-2.003-.002-.117.025-.159.15-.157 1.325.005 2.65.003 3.973 0 .119 0 .157.029.157.153-.005 1.33-.005 2.658 0 3.986 0 .11-.027.149-.144.149-1.331-.005-2.661-.005-3.99 0-.138.001-.146-.056-.146-.163.003-.655.002-1.31.002-1.965" transform="translate(-1307 -668) translate(1075 501) translate(16 16) translate(216 151) translate(4 4.4) translate(.118)"></path>
                              <path fill="#AB2989" d="M9.474 13.38c-.064-.007-.089-.055-.122-.088-1.344-1.34-2.685-2.684-4.03-4.025-.085-.085-.106-.131-.008-.23 1.357-1.344 2.707-2.696 4.058-4.046.027-.026.054-.05.102-.093v8.483z" transform="translate(-1307 -668) translate(1075 501) translate(16 16) translate(216 151) translate(4 4.4) translate(.118)"></path>
                              <g transform="translate(-1307 -668) translate(1075 501) translate(16 16) translate(216 151) translate(4 4.4) translate(.118) translate(0 8.382)">
                                  <mask id="wse5fgo2hb" fill="#fff">
                                      <use xlink:href="#fzrtp3s36a"></use>
                                  </mask>
                                  <path fill="#24337D" d="M0 .774h4.167c.065 0 .117.012.166.061 1.385 1.388 2.771 2.773 4.158 4.16.006.007.006.022.011.034-.043.035-.093.018-.14.018l-3.936.001c-.094 0-.172-.01-.248-.087C2.82 3.601 1.46 2.241.1.881.074.856.052.831 0 .774" mask="url(#wse5fgo2hb)"></path>
                              </g>
                              <path fill="#407CBF" d="M9.49 18.338l-4.237-4.22c.029-.048.084-.018.125-.018 1.312-.002 2.624-.002 3.936-.002.078 0 .177-.038.177.114-.003 1.37-.001 2.741-.001 4.126" transform="translate(-1307 -668) translate(1075 501) translate(16 16) translate(216 151) translate(4 4.4) translate(.118)"></path>
                              <path fill="#E62132" d="M14.44 0c.014.019-.003.07-.003.115.002 1.305.002 2.609.002 3.912 0 .088.03.177-.13.177-1.349-.007-2.697-.005-4.046-.005-.015 0-.033-.006-.03-.006L14.44 0" transform="translate(-1307 -668) translate(1075 501) translate(16 16) translate(216 151) translate(4 4.4) translate(.118)"></path>
                          </g>
                      </g>
                  </g>
              </g>
          </g>
      </g>
  </g>
</svg>