<svg class="SVGInline-svg" style="width: 16px;height: 16px;" width="24px" height="24px" viewBox="0 0 24 24" version="1.1" xmlns="http://www.w3.org/2000/svg" xmlns:xlink="http://www.w3.org/1999/xlink">
    <!-- Generator: Sketch 59.1 (86144) - https://sketch.com -->
    <!-- <title>ic-analysis</title> -->
    <desc>Created with Sketch.</desc>
    <g id="Icon-Set" stroke="none" stroke-width="1" fill="none" fill-rule="evenodd">
        <g id="WhaTap_Icon_Set" transform="translate(-932.000000, -1704.000000)" fill="#757575">
            <g id="data-icons" transform="translate(40.000000, 1579.000000)">
                <g id="ic-analysis" transform="translate(892.000000, 125.000000)">
                    <g transform="translate(2.000000, 2.000000)" id="Combined-Shape">
                        <path d="M20,0 L20,20 L0,20 L0,0 L20,0 Z M4.97173802,9.47864007 L2,11.969 L2,18 L18,18 L18,10.256 L15.9572907,12.0374311 C15.9755347,12.1349528 15.9881167,12.2344686 15.9946823,12.3356243 L16,12.5 C16,13.8807119 14.8807119,15 13.5,15 C12.1192881,15 11,13.8807119 11,12.5 C11,12.2779888 11.0289391,12.0627368 11.0832509,11.8578103 L7.97059723,9.521935 C7.55791755,9.82260205 7.04967553,10 6.5,10 C5.92443713,10 5.39430235,9.80549924 4.97173802,9.47864007 Z M13.5,11.5 C12.9477153,11.5 12.5,11.9477153 12.5,12.5 C12.5,13.0522847 12.9477153,13.5 13.5,13.5 C14.0522847,13.5 14.5,13.0522847 14.5,12.5 C14.5,11.9477153 14.0522847,11.5 13.5,11.5 Z M18,2 L2,2 L2,10.012 L4.11152591,8.24062332 C4.05456369,8.05671771 4.01825713,7.86373136 4.00531768,7.66437569 L4,7.5 C4,6.11928813 5.11928813,5 6.5,5 C7.88071187,5 9,6.11928813 9,7.5 C9,7.78553497 8.952131,8.05988954 8.86398029,8.3154764 L11.8890548,10.5881601 C12.3241443,10.2211709 12.8862436,10 13.5,10 C14.1678085,10 14.7744605,10.2618422 15.2228904,10.6884611 L18,8.266 L18,2 Z M6.5,6.5 C5.94771525,6.5 5.5,6.94771525 5.5,7.5 C5.5,8.05228475 5.94771525,8.5 6.5,8.5 C7.05228475,8.5 7.5,8.05228475 7.5,7.5 C7.5,6.94771525 7.05228475,6.5 6.5,6.5 Z"></path>
                    </g>
                </g>
            </g>
        </g>
    </g>
</svg>