<svg width="29" height="33" viewBox="0 0 29 33" fill="none" xmlns="http://www.w3.org/2000/svg">
<path fill-rule="evenodd" clip-rule="evenodd" d="M14.4969 32.7826C14.0592 32.7826 13.6231 32.6677 13.2403 32.4455L9.23912 30.0723C8.6419 29.7373 8.93376 29.6185 9.13054 29.5496C9.92783 29.2724 10.0889 29.2083 10.9396 28.7248C11.0281 28.6748 11.1457 28.6935 11.2372 28.7476L14.3109 30.5772C14.4222 30.6388 14.5793 30.6388 14.6819 30.5772L26.6654 23.643C26.7767 23.5792 26.8487 23.4505 26.8487 23.3179V9.45403C26.8487 9.31841 26.7767 9.19151 26.6624 9.12264L14.684 2.19477C14.5733 2.12981 14.4264 2.12981 14.3148 2.19477L2.3394 9.12475C2.22302 9.19151 2.14923 9.32202 2.14923 9.45403V23.3179C2.14923 23.4505 2.22302 23.5762 2.3382 23.6391L5.62098 25.5405C7.40216 26.4333 8.49252 25.382 8.49252 24.3253V10.6367C8.49252 10.4437 8.6479 10.2909 8.84107 10.2909H10.3604C10.5506 10.2909 10.7077 10.4437 10.7077 10.6367V24.3253C10.7077 26.7085 9.4131 28.0752 7.15949 28.0752C6.46688 28.0752 5.92154 28.0752 4.39924 27.3231L1.25684 25.5095C0.480539 25.0596 0 24.2185 0 23.3179V9.45403C0 8.55309 0.480539 7.71229 1.25684 7.26452L13.2403 0.322517C13.9983 -0.107506 15.0065 -0.107506 15.7585 0.322517L27.7411 7.26452C28.5171 7.71439 29 8.55309 29 9.45403V23.3179C29 24.2185 28.5171 25.0566 27.7411 25.5095L15.7585 32.4455C15.3754 32.6677 14.9408 32.7826 14.4969 32.7826ZM18.1984 23.2313C12.9547 23.2313 11.856 20.8184 11.856 18.7943C11.856 18.6015 12.0105 18.4481 12.2024 18.4481H13.7517C13.9248 18.4481 14.0691 18.5729 14.0961 18.7422C14.3298 20.3234 15.0272 21.1215 18.1984 21.1215C20.7231 21.1215 21.7976 20.5489 21.7976 19.2063C21.7976 18.4322 21.4928 17.8575 17.5696 17.4726C14.2911 17.1476 12.263 16.421 12.263 13.7913C12.263 11.3675 14.301 9.92197 17.7178 9.92197C21.5567 9.92197 23.4564 11.2577 23.6973 14.1236C23.706 14.2225 23.6712 14.3172 23.6055 14.3912C23.5401 14.4598 23.4486 14.5019 23.352 14.5019H21.7967C21.6353 14.5019 21.4928 14.387 21.4601 14.2303C21.0873 12.5665 20.1796 12.0348 17.7178 12.0348C14.9615 12.0348 14.6411 12.9977 14.6411 13.7185C14.6411 14.5924 15.0194 14.8468 18.741 15.3409C22.4236 15.8286 24.1727 16.52 24.1727 19.1145C24.1727 21.7323 21.9956 23.2313 18.1984 23.2313Z" fill="#3F873F"/>
</svg>
