<svg class="SVGInline-svg" style="width: 16px;height: 16px;" width="24px" height="24px" viewBox="0 0 24 24" version="1.1" xmlns="http://www.w3.org/2000/svg" xmlns:xlink="http://www.w3.org/1999/xlink">
  <!-- Generator: Sketch 59.1 (86144) - https://sketch.com -->
  <!-- <title>ic-info-circle</title> -->
  <desc>Created with Sketch.</desc>
  <g id="Icon-Set" stroke="none" stroke-width="1" fill="none" fill-rule="evenodd">
      <g id="WhaTap_Icon_Set" transform="translate(-644.000000, -782.000000)" fill="#757575">
          <g id="suggested-icons" transform="translate(40.000000, 737.000000)">
              <g id="ic-info-circle" transform="translate(604.000000, 45.000000)">
                  <g transform="translate(2.000000, 2.000000)">
                      <path d="M10,0 C15.5228475,0 20,4.4771525 20,10 C20,15.5228475 15.5228475,20 10,20 C4.4771525,20 0,15.5228475 0,10 C0,4.4771525 4.4771525,0 10,0 Z M10,2 C5.581722,2 2,5.581722 2,10 C2,14.418278 5.581722,18 10,18 C14.418278,18 18,14.418278 18,10 C18,5.581722 14.418278,2 10,2 Z M11,9 L11,15 L9,15 L9,9 L11,9 Z M11,5 L11,7 L9,7 L9,5 L11,5 Z"></path>
                  </g>
              </g>
          </g>
      </g>
  </g>
</svg>