<svg class="SVGInline-svg" style="width: 16px;height: 16px;" width="24" height="24" viewBox="0 0 24 24" fill="none" xmlns="http://www.w3.org/2000/svg">
<path fill-rule="evenodd" clip-rule="evenodd" d="M20 6H12L10 4H4C2.9 4 2.01 4.9 2.01 6L2 18C2 19.1 2.9 20 4 20H12V18H4V6H9.17L11.17 8H20V10H22V8C22 6.9 21.1 6 20 6ZM21.5355 18.1213L20.1213 19.5355L18 17.4142L15.8787 19.5355L14.4645 18.1213L16.5858 16L14.4645 13.8787L15.8787 12.4645L18 14.5858L20.1213 12.4645L21.5355 13.8787L19.4142 16L21.5355 18.1213Z" fill="#757575"></path>
</svg>