<svg class="SVGInline-svg" style="width: 60px;height: 60px;" width="40" height="40" viewBox="0 0 40 40" fill="none" xmlns="http://www.w3.org/2000/svg">
  <path fill-rule="evenodd" clip-rule="evenodd" d="M25.3813 17.19C24.7158 17.364 24.1678 17.5138 23.6098 17.6663C23.1648 17.788 22.7135 17.9113 22.1912 18.0501L22.1599 18.0587C21.9046 18.1293 21.878 18.1367 21.6406 17.8546C21.3557 17.5223 21.1469 17.3073 20.7481 17.1118C19.5518 16.5058 18.3935 16.6817 17.3112 17.405C16.02 18.2651 15.3554 19.5357 15.3744 21.1191C15.3934 22.683 16.4377 23.9731 17.9378 24.1882C19.229 24.3641 20.3114 23.8949 21.1659 22.898C21.2926 22.7385 21.4089 22.5683 21.538 22.3793L21.538 22.3793L21.5382 22.3791C21.5831 22.3134 21.6295 22.2453 21.6785 22.1747H18.0138C17.615 22.1747 17.5201 21.9206 17.653 21.5883C17.8998 20.9823 18.3556 19.9658 18.6214 19.4575C18.6784 19.3403 18.8113 19.1448 19.0961 19.1448H25.2067C25.4812 18.2496 25.9265 17.4038 26.5205 16.6034C27.9067 14.7268 29.5776 13.7494 31.8373 13.3389C33.7741 12.987 35.597 13.1825 37.249 14.3358C38.7491 15.3914 39.6795 16.8184 39.9264 18.695C40.2492 21.334 39.5086 23.4843 37.7427 25.3218C36.4894 26.6315 34.9514 27.4525 33.1854 27.824C32.8486 27.8882 32.5117 27.9186 32.1802 27.9486C32.0072 27.9643 31.8357 27.9798 31.6664 27.9999C29.9384 27.9608 28.3624 27.4525 27.0332 26.2797C26.0984 25.4478 25.4545 24.4255 25.1344 23.2353C24.9124 23.6969 24.6469 24.139 24.3369 24.5596C22.9698 26.4166 21.1848 27.57 18.9252 27.8827C17.0643 28.1369 15.3364 27.7654 13.8173 26.5926C12.4122 25.4979 11.6146 24.0513 11.4058 22.2529C11.1589 20.1222 11.7666 18.2065 13.0198 16.5253C14.368 14.7074 16.1529 13.5541 18.3366 13.1435C20.1215 12.8112 21.8305 13.0263 23.3685 14.1014C24.3749 14.7856 25.0965 15.7239 25.5712 16.8577C25.6851 17.0336 25.6092 17.1313 25.3813 17.19ZM3.94316 17.5419C3.8672 17.5419 3.84821 17.5028 3.88619 17.4442L4.28495 16.9164C4.32293 16.8578 4.41787 16.8187 4.49382 16.8187H11.2727C11.3487 16.8187 11.3677 16.8773 11.3297 16.936L11.0069 17.4442C10.9689 17.5028 10.874 17.5615 10.817 17.5615L3.94316 17.5419ZM1.07595 19.34C1 19.34 0.981011 19.3009 1.01899 19.2423L1.41775 18.7145C1.45572 18.6559 1.55067 18.6168 1.62662 18.6168H10.2854C10.3613 18.6168 10.3993 18.6754 10.3803 18.734L10.2284 19.2032C10.2094 19.2814 10.1335 19.3205 10.0575 19.3205L1.07595 19.34ZM5.61425 21.0212C5.57627 21.0799 5.59526 21.1385 5.67121 21.1385L9.81071 21.1581C9.86767 21.1581 9.94362 21.0994 9.94362 21.0212L9.9816 20.5521C9.9816 20.4739 9.94362 20.4152 9.86767 20.4152H6.06997C5.99402 20.4152 5.91807 20.4739 5.88009 20.5325L5.61425 21.0212ZM36.1724 19.8934C36.1762 19.9591 36.1801 20.0283 36.1856 20.1025C36.0907 21.7836 35.2742 23.0347 33.7741 23.8362C32.7677 24.364 31.7233 24.4226 30.679 23.9535C29.3118 23.3279 28.5902 21.7836 28.932 20.2589C29.3498 18.4214 30.4891 17.268 32.255 16.8575C34.0589 16.4275 35.7869 17.5222 36.1287 19.4574C36.1556 19.5958 36.1634 19.7342 36.1724 19.8934Z" fill="#00ACD7"></path>
  </svg>