<svg width="824" height="520" viewBox="0 0 824 520" fill="none" xmlns="http://www.w3.org/2000/svg">
<rect width="824" height="520" fill="white"/>
<rect x="38" y="71" width="744" height="164" rx="4" fill="#F0F0F0"/>
<rect opacity="0.1" x="38" y="316" width="744" height="164" rx="4" fill="#296CF2"/>
<path d="M215 398L205 392.226V403.774L215 398ZM169 399H206V397H169V399Z" fill="#757575"/>
<path d="M215 153L205 147.226V158.774L215 153ZM169 154H206V152H169V154Z" fill="#757575"/>
<path d="M360 153L350 147.226V158.774L360 153ZM314 154H351V152H314V154Z" fill="#757575"/>
<path d="M505 153L495 147.226V158.774L505 153ZM459 154H496V152H459V154Z" fill="#757575"/>
<path d="M650 153L640 147.226V158.774L650 153ZM604 154H641V152H604V154Z" fill="#757575"/>
<path d="M44.02 32.8C41.2 32.8 39.08 34.56 39.08 37.04C39.08 39.5 41.2 41.26 44.02 41.26C46.84 41.26 48.96 39.5 48.96 37.04C48.96 34.56 46.84 32.8 44.02 32.8ZM44.02 34.96C45.38 34.96 46.38 35.72 46.38 37.04C46.38 38.36 45.38 39.12 44.02 39.12C42.66 39.12 41.64 38.36 41.64 37.04C41.64 35.72 42.66 34.96 44.02 34.96ZM51.52 32.26V41.52H54.2V32.26H51.52ZM41.84 42.28V44.34H51.56V45.44H41.88V49.6H44.48V47.36H54.2V42.28H41.84ZM41.88 48.52V50.58H54.66V48.52H41.88ZM68.7184 32.28V45.9H71.3784V32.28H68.7184ZM70.6184 37.48V39.66H73.8384V37.48H70.6184ZM59.4384 48.34V50.46H72.0384V48.34H59.4384ZM59.4384 44.52V48.8H62.0984V44.52H59.4384ZM57.3384 33.58V42.98H66.2384V33.58H63.5984V36.24H59.9784V33.58H57.3384ZM59.9784 38.26H63.5984V40.9H59.9784V38.26ZM79.0769 34.1V35.28C79.0769 37.6 77.7569 40.04 74.6969 41.04L76.0369 43.14C79.5969 41.98 81.2369 38.76 81.2369 35.28V34.1H79.0769ZM79.6369 34.1V35.28C79.6369 38.56 81.2169 41.64 84.6569 42.78L85.9569 40.7C83.0369 39.72 81.7769 37.44 81.7769 35.28V34.1H79.6369ZM84.8769 36.68V38.84H88.3969V36.68H84.8769ZM75.4169 33.28V35.38H85.3769V33.28H75.4169ZM77.6769 44.12V46.24H87.6369V50.78H90.2969V44.12H77.6769ZM87.6369 32.26V43.28H90.2969V32.26H87.6369ZM105.515 32.28V45.58H108.195V32.28H105.515ZM95.8553 48.34V50.46H108.655V48.34H95.8553ZM95.8553 44.24V49.2H98.5153V44.24H95.8553ZM98.1153 33.44C95.2753 33.44 93.0753 35.4 93.0753 38.14C93.0753 40.86 95.2753 42.84 98.1153 42.84C100.955 42.84 103.135 40.86 103.135 38.14C103.135 35.4 100.955 33.44 98.1153 33.44ZM98.1153 35.74C99.4753 35.74 100.535 36.62 100.535 38.14C100.535 39.64 99.4753 40.52 98.1153 40.52C96.7353 40.52 95.6753 39.64 95.6753 38.14C95.6753 36.62 96.7353 35.74 98.1153 35.74ZM115.609 46.58V48.74H132.369V46.58H115.609ZM122.629 43.08V47.46H125.289V43.08H122.629ZM117.489 33.46V35.56H127.849V37.54H117.529V42.74H120.169V39.62H130.489V33.46H117.489ZM117.529 41.68V43.82H130.909V41.68H117.529ZM135.307 33.96V36.06H147.047V33.96H135.307ZM133.607 46.2V48.36H150.347V46.2H133.607ZM145.647 33.96V36.16C145.647 38.66 145.647 41.3 144.967 44.86L147.627 45.08C148.287 41.28 148.287 38.76 148.287 36.16V33.96H145.647ZM156.361 41.8V43.88H173.121V41.8H156.361ZM163.401 39.82V42.56H166.061V39.82H163.401ZM158.441 38.66V40.68H171.341V38.66H158.441ZM158.441 32.72V39.8H161.081V34.74H171.201V32.72H158.441ZM160.341 35.72V37.66H170.781V35.72H160.341ZM164.721 44.7C160.641 44.7 158.281 45.78 158.281 47.74C158.281 49.72 160.641 50.78 164.721 50.78C168.781 50.78 171.141 49.72 171.141 47.74C171.141 45.78 168.781 44.7 164.721 44.7ZM164.721 46.66C167.281 46.66 168.461 46.98 168.461 47.74C168.461 48.52 167.281 48.84 164.721 48.84C162.141 48.84 160.961 48.52 160.961 47.74C160.961 46.98 162.141 46.66 164.721 46.66ZM186.3 32.26V43.1H188.96V32.26H186.3ZM187.9 36.7V38.9H191.42V36.7H187.9ZM176.92 43.82V50.58H188.96V43.82H186.32V45.22H179.54V43.82H176.92ZM179.54 47.22H186.32V48.5H179.54V47.22ZM174.38 33.86V35.96H185.28V33.86H174.38ZM179.84 36.46C177.14 36.46 175.28 37.78 175.28 39.74C175.28 41.7 177.14 43.02 179.84 43.02C182.52 43.02 184.38 41.7 184.38 39.74C184.38 37.78 182.52 36.46 179.84 36.46ZM179.84 38.4C181.02 38.4 181.84 38.88 181.84 39.74C181.84 40.62 181.02 41.08 179.84 41.08C178.64 41.08 177.84 40.62 177.84 39.74C177.84 38.88 178.64 38.4 179.84 38.4ZM178.5 32.12V35.04H181.16V32.12H178.5ZM206.513 38.04V40.18H211.393V38.04H206.513ZM201.473 33.68V36.36C201.473 39.88 200.073 43.46 196.913 44.92L198.573 47.06C202.053 45.32 203.633 41.02 203.633 36.36V33.68H201.473ZM202.033 33.68V36.36C202.033 40.98 203.493 45.06 206.973 46.74L208.553 44.62C205.493 43.26 204.153 39.88 204.153 36.36V33.68H202.033ZM210.073 32.24V50.82H212.713V32.24H210.073ZM227.872 32.24V50.82H230.552V32.24H227.872ZM216.092 33.72V46.5H225.192V33.72H222.552V38.22H218.732V33.72H216.092ZM218.732 40.28H222.552V44.36H218.732V40.28ZM240.05 33.32V34.66C240.05 37.32 237.75 40.26 233.57 40.98L234.71 43.18C239.51 42.24 242.37 38.68 242.37 34.66V33.32H240.05ZM240.59 33.32V34.66C240.59 38.74 243.43 42.24 248.23 43.18L249.37 40.98C245.17 40.26 242.89 37.38 242.89 34.66V33.32H240.59ZM233.19 46.36V48.52H249.95V46.36H233.19Z" fill="#757575"/>
<path d="M42.96 286.64V291.02H45.62V286.64H42.96ZM44.26 278.34C41.38 278.34 39.22 280.24 39.22 282.9C39.22 285.56 41.38 287.46 44.26 287.46C47.12 287.46 49.3 285.56 49.3 282.9C49.3 280.24 47.12 278.34 44.26 278.34ZM44.26 280.6C45.66 280.6 46.7 281.44 46.7 282.9C46.7 284.34 45.66 285.2 44.26 285.2C42.86 285.2 41.82 284.34 41.82 282.9C41.82 281.44 42.86 280.6 44.26 280.6ZM50.76 277.26V295.78H53.42V277.26H50.76ZM52.6 284.5V286.72H55.86V284.5H52.6ZM38.92 292.1C42.04 292.12 46.16 292.12 50 291.4L49.8 289.46C46.12 289.96 41.8 289.94 38.6 289.96L38.92 292.1ZM57.4184 285.04V287.16H58.6984C61.4584 287.16 63.2584 287.1 65.3784 286.76L65.1384 284.62C63.0984 284.98 61.3784 285.04 58.6984 285.04H57.4184ZM57.4184 278.28V286.6H59.9784V280.38H64.7184V278.28H57.4184ZM59.2184 281.68V283.7H64.5184V281.68H59.2184ZM70.0584 277.28V287.78H72.5784V277.28H70.0584ZM67.8984 281.42V283.56H70.8384V281.42H67.8984ZM66.0984 277.62V287.66H68.5784V277.62H66.0984ZM60.0184 288.42V295.58H72.5784V288.42H69.9784V289.94H62.6384V288.42H60.0184ZM62.6384 291.96H69.9784V293.46H62.6384V291.96ZM79.6122 291.58V293.74H96.3722V291.58H79.6122ZM86.6322 288.08V292.46H89.2922V288.08H86.6322ZM81.4922 278.46V280.56H91.8522V282.54H81.5322V287.74H84.1722V284.62H94.4922V278.46H81.4922ZM81.5322 286.68V288.82H94.9122V286.68H81.5322ZM99.3106 278.96V281.06H111.051V278.96H99.3106ZM97.6106 291.2V293.36H114.351V291.2H97.6106ZM109.651 278.96V281.16C109.651 283.66 109.651 286.3 108.971 289.86L111.631 290.08C112.291 286.28 112.291 283.76 112.291 281.16V278.96H109.651ZM120.404 291.48V293.64H137.164V291.48H120.404ZM127.424 287.38V291.98H130.084V287.38H127.424ZM122.144 278.62V287.72H135.324V278.62H122.144ZM132.724 280.74V285.62H124.764V280.74H132.724ZM151.203 277.26V295.78H153.863V277.26H151.203ZM139.363 279.02V290.52H142.003V279.02H139.363ZM139.363 288.96V291.22H141.003C143.823 291.22 146.883 291.02 150.063 290.36L149.763 288.16C146.703 288.76 143.703 288.96 141.003 288.96H139.363ZM169.281 277.24V295.82H171.921V277.24H169.281ZM166.101 283.76V285.92H169.581V283.76H166.101ZM157.221 289.48V291.64H158.701C161.821 291.64 164.221 291.56 166.901 291.14L166.661 289.02C164.041 289.44 161.761 289.48 158.701 289.48H157.221ZM157.221 278.8V290.16H159.861V280.96H165.801V278.8H157.221ZM159.261 283.96V286.04H165.161V283.96H159.261ZM187.1 277.28V288.5H189.78V277.28H187.1ZM175.34 285.62V287.76H176.96C180.66 287.76 183.12 287.7 185.88 287.22L185.58 285.1C182.9 285.54 180.56 285.62 176.96 285.62H175.34ZM175.32 278.36V280.48H181.22V282.02H175.34V286.82H177.96V284H183.84V278.36H175.32ZM183.54 288.84C179.62 288.84 177.22 290.1 177.22 292.32C177.22 294.52 179.62 295.8 183.54 295.8C187.46 295.8 189.9 294.52 189.9 292.32C189.9 290.1 187.46 288.84 183.54 288.84ZM183.54 290.9C185.98 290.9 187.24 291.34 187.24 292.32C187.24 293.28 185.98 293.74 183.54 293.74C181.12 293.74 179.86 293.28 179.86 292.32C179.86 291.34 181.12 290.9 183.54 290.9ZM206.513 283.04V285.18H211.393V283.04H206.513ZM201.473 278.68V281.36C201.473 284.88 200.073 288.46 196.913 289.92L198.573 292.06C202.053 290.32 203.633 286.02 203.633 281.36V278.68H201.473ZM202.033 278.68V281.36C202.033 285.98 203.493 290.06 206.973 291.74L208.553 289.62C205.493 288.26 204.153 284.88 204.153 281.36V278.68H202.033ZM210.073 277.24V295.82H212.713V277.24H210.073ZM227.872 277.24V295.82H230.552V277.24H227.872ZM216.092 278.72V291.5H225.192V278.72H222.552V283.22H218.732V278.72H216.092ZM218.732 285.28H222.552V289.36H218.732V285.28ZM240.05 278.32V279.66C240.05 282.32 237.75 285.26 233.57 285.98L234.71 288.18C239.51 287.24 242.37 283.68 242.37 279.66V278.32H240.05ZM240.59 278.32V279.66C240.59 283.74 243.43 287.24 248.23 288.18L249.37 285.98C245.17 285.26 242.89 282.38 242.89 279.66V278.32H240.59ZM233.19 291.36V293.52H249.95V291.36H233.19Z" fill="#296CF2"/>
<path fill-rule="evenodd" clip-rule="evenodd" d="M124.5 152.75H108H107.25C106.145 152.75 105.25 153.645 105.25 154.75V183.25C105.25 184.355 106.145 185.25 107.25 185.25H108H130.75C131.855 185.25 132.75 184.355 132.75 183.25V154.75C132.75 153.645 131.855 152.75 130.75 152.75H124.5ZM129.577 173.334H108.423V175.5H129.577V173.334ZM110.538 157.083L110.538 163.583H114.769V165.75H108.423V163.583H108.423L108.423 157.083H110.538ZM117.942 159.25H120.058V161.417H117.942V163.583H120.058V165.75H117.942V165.75H115.827L115.827 159.25H117.942ZM127.462 161.417H125.346V163.583H127.462V161.417ZM129.577 159.25H125.346H123.231V165.75H125.346V165.75H127.462V167.916H123.231V170.083H127.462V170.083H129.577V161.417V160.333V159.25ZM122.173 165.75V159.25H120.058L120.058 165.75H122.173ZM120.058 178.75H108.423V180.917H120.058V178.75Z" fill="#D75EF5"/>
<path fill-rule="evenodd" clip-rule="evenodd" d="M124.5 397.75H108H107.25C106.145 397.75 105.25 398.645 105.25 399.75V428.25C105.25 429.355 106.145 430.25 107.25 430.25H108H130.75C131.855 430.25 132.75 429.355 132.75 428.25V399.75C132.75 398.645 131.855 397.75 130.75 397.75H124.5ZM129.577 418.333H108.423V420.5H129.577V418.333ZM110.538 402.083L110.538 408.583H114.769V410.75H108.423V408.583H108.423L108.423 402.083H110.538ZM117.942 404.25H120.058V406.417H117.942V408.583H120.058V410.75H117.942V410.75H115.827L115.827 404.25H117.942ZM127.462 406.417H125.346V408.583H127.462V406.417ZM129.577 404.25H125.346H123.231V410.75H125.346V410.75H127.462V412.916H123.231V415.083H127.462V415.083H129.577V406.417V405.333V404.25ZM122.173 410.75V404.25H120.058L120.058 410.75H122.173ZM120.058 423.75H108.423V425.917H120.058V423.75Z" fill="#D75EF5"/>
<path fill-rule="evenodd" clip-rule="evenodd" d="M553.815 178.167C553.815 174.832 558.441 172.333 564 172.333C569.559 172.333 574.185 174.832 574.185 178.167C574.185 181.502 569.559 184 564 184C558.441 184 553.815 181.502 553.815 178.167ZM572.333 178.167C572.333 175.979 568.669 174 564 174C559.331 174 555.667 175.979 555.667 178.167C555.667 180.355 559.331 182.333 564 182.333C568.669 182.333 572.333 180.355 572.333 178.167Z" fill="#F0F0F0"/>
<ellipse cx="564" cy="183.167" rx="9.25926" ry="5" fill="#757575"/>
<path fill-rule="evenodd" clip-rule="evenodd" d="M553.815 183.167C553.815 179.832 558.441 177.333 564 177.333C569.559 177.333 574.185 179.832 574.185 183.167C574.185 186.502 569.559 189 564 189C558.441 189 553.815 186.502 553.815 183.167ZM572.333 183.167C572.333 180.979 568.669 179 564 179C559.331 179 555.667 180.979 555.667 183.167C555.667 185.355 559.331 187.333 564 187.333C568.669 187.333 572.333 185.355 572.333 183.167Z" fill="#F0F0F0"/>
<path fill-rule="evenodd" clip-rule="evenodd" d="M553.815 173.167C553.815 169.832 558.441 167.333 564 167.333C569.559 167.333 574.185 169.832 574.185 173.167C574.185 176.502 569.559 179 564 179C558.441 179 553.815 176.502 553.815 173.167ZM572.333 173.167C572.333 170.979 568.669 169 564 169C559.331 169 555.667 170.979 555.667 173.167C555.667 175.355 559.331 177.333 564 177.333C568.669 177.333 572.333 175.355 572.333 173.167Z" fill="#F0F0F0"/>
<ellipse cx="564" cy="178.167" rx="9.25926" ry="5" fill="#757575"/>
<path fill-rule="evenodd" clip-rule="evenodd" d="M553.815 178.167C553.815 174.832 558.441 172.333 564 172.333C569.559 172.333 574.185 174.832 574.185 178.167C574.185 181.502 569.559 184 564 184C558.441 184 553.815 181.502 553.815 178.167ZM572.333 178.167C572.333 175.979 568.669 174 564 174C559.331 174 555.667 175.979 555.667 178.167C555.667 180.355 559.331 182.333 564 182.333C568.669 182.333 572.333 180.355 572.333 178.167Z" fill="#F0F0F0"/>
<ellipse cx="564" cy="173.167" rx="9.25926" ry="5" fill="#757575"/>
<path fill-rule="evenodd" clip-rule="evenodd" d="M553.815 173.167C553.815 169.832 558.441 167.333 564 167.333C569.559 167.333 574.185 169.832 574.185 173.167C574.185 176.502 569.559 179 564 179C558.441 179 553.815 176.502 553.815 173.167ZM572.333 173.167C572.333 170.979 568.669 169 564 169C559.331 169 555.667 170.979 555.667 173.167C555.667 175.355 559.331 177.333 564 177.333C568.669 177.333 572.333 175.355 572.333 173.167Z" fill="#F0F0F0"/>
<path fill-rule="evenodd" clip-rule="evenodd" d="M533.815 178.167C533.815 174.832 538.441 172.333 544 172.333C549.559 172.333 554.185 174.832 554.185 178.167C554.185 181.502 549.559 184 544 184C538.441 184 533.815 181.502 533.815 178.167ZM552.333 178.167C552.333 175.979 548.669 174 544 174C539.331 174 535.667 175.979 535.667 178.167C535.667 180.355 539.331 182.333 544 182.333C548.669 182.333 552.333 180.355 552.333 178.167Z" fill="#F0F0F0"/>
<ellipse cx="544" cy="183.167" rx="9.25926" ry="5" fill="#757575"/>
<path fill-rule="evenodd" clip-rule="evenodd" d="M533.815 183.167C533.815 179.832 538.441 177.333 544 177.333C549.559 177.333 554.185 179.832 554.185 183.167C554.185 186.502 549.559 189 544 189C538.441 189 533.815 186.502 533.815 183.167ZM552.333 183.167C552.333 180.979 548.669 179 544 179C539.331 179 535.667 180.979 535.667 183.167C535.667 185.355 539.331 187.333 544 187.333C548.669 187.333 552.333 185.355 552.333 183.167Z" fill="#F0F0F0"/>
<path fill-rule="evenodd" clip-rule="evenodd" d="M533.815 173.167C533.815 169.832 538.441 167.333 544 167.333C549.559 167.333 554.185 169.832 554.185 173.167C554.185 176.502 549.559 179 544 179C538.441 179 533.815 176.502 533.815 173.167ZM552.333 173.167C552.333 170.979 548.669 169 544 169C539.331 169 535.667 170.979 535.667 173.167C535.667 175.355 539.331 177.333 544 177.333C548.669 177.333 552.333 175.355 552.333 173.167Z" fill="#F0F0F0"/>
<ellipse cx="544" cy="178.167" rx="9.25926" ry="5" fill="#757575"/>
<path fill-rule="evenodd" clip-rule="evenodd" d="M533.815 178.167C533.815 174.832 538.441 172.333 544 172.333C549.559 172.333 554.185 174.832 554.185 178.167C554.185 181.502 549.559 184 544 184C538.441 184 533.815 181.502 533.815 178.167ZM552.333 178.167C552.333 175.979 548.669 174 544 174C539.331 174 535.667 175.979 535.667 178.167C535.667 180.355 539.331 182.333 544 182.333C548.669 182.333 552.333 180.355 552.333 178.167Z" fill="#F0F0F0"/>
<ellipse cx="544" cy="173.167" rx="9.25926" ry="5" fill="#757575"/>
<path fill-rule="evenodd" clip-rule="evenodd" d="M533.815 173.167C533.815 169.832 538.441 167.333 544 167.333C549.559 167.333 554.185 169.832 554.185 173.167C554.185 176.502 549.559 179 544 179C538.441 179 533.815 176.502 533.815 173.167ZM552.333 173.167C552.333 170.979 548.669 169 544 169C539.331 169 535.667 170.979 535.667 173.167C535.667 175.355 539.331 177.333 544 177.333C548.669 177.333 552.333 175.355 552.333 173.167Z" fill="#F0F0F0"/>
<path fill-rule="evenodd" clip-rule="evenodd" d="M543.815 159.833C543.815 156.498 548.441 154 554 154C559.559 154 564.185 156.498 564.185 159.833C564.185 163.168 559.559 165.667 554 165.667C548.441 165.667 543.815 163.168 543.815 159.833ZM562.333 159.833C562.333 157.645 558.669 155.667 554 155.667C549.331 155.667 545.667 157.645 545.667 159.833C545.667 162.021 549.331 164 554 164C558.669 164 562.333 162.021 562.333 159.833Z" fill="#F0F0F0"/>
<ellipse cx="554" cy="164.833" rx="9.25926" ry="5" fill="#757575"/>
<path fill-rule="evenodd" clip-rule="evenodd" d="M543.815 164.833C543.815 161.498 548.441 159 554 159C559.559 159 564.185 161.498 564.185 164.833C564.185 168.168 559.559 170.667 554 170.667C548.441 170.667 543.815 168.168 543.815 164.833ZM562.333 164.833C562.333 162.645 558.669 160.667 554 160.667C549.331 160.667 545.667 162.645 545.667 164.833C545.667 167.021 549.331 169 554 169C558.669 169 562.333 167.021 562.333 164.833Z" fill="#F0F0F0"/>
<path fill-rule="evenodd" clip-rule="evenodd" d="M543.815 154.833C543.815 151.498 548.441 149 554 149C559.559 149 564.185 151.498 564.185 154.833C564.185 158.168 559.559 160.667 554 160.667C548.441 160.667 543.815 158.168 543.815 154.833ZM562.333 154.833C562.333 152.645 558.669 150.667 554 150.667C549.331 150.667 545.667 152.645 545.667 154.833C545.667 157.021 549.331 159 554 159C558.669 159 562.333 157.021 562.333 154.833Z" fill="#F0F0F0"/>
<ellipse cx="554" cy="159.833" rx="9.25926" ry="5" fill="#757575"/>
<path fill-rule="evenodd" clip-rule="evenodd" d="M543.815 159.833C543.815 156.498 548.441 154 554 154C559.559 154 564.185 156.498 564.185 159.833C564.185 163.168 559.559 165.667 554 165.667C548.441 165.667 543.815 163.168 543.815 159.833ZM562.333 159.833C562.333 157.645 558.669 155.667 554 155.667C549.331 155.667 545.667 157.645 545.667 159.833C545.667 162.021 549.331 164 554 164C558.669 164 562.333 162.021 562.333 159.833Z" fill="#F0F0F0"/>
<ellipse cx="554" cy="154.833" rx="9.25926" ry="5" fill="#757575"/>
<path fill-rule="evenodd" clip-rule="evenodd" d="M543.815 154.833C543.815 151.498 548.441 149 554 149C559.559 149 564.185 151.498 564.185 154.833C564.185 158.168 559.559 160.667 554 160.667C548.441 160.667 543.815 158.168 543.815 154.833ZM562.333 154.833C562.333 152.645 558.669 150.667 554 150.667C549.331 150.667 545.667 152.645 545.667 154.833C545.667 157.021 549.331 159 554 159C558.669 159 562.333 157.021 562.333 154.833Z" fill="#F0F0F0"/>
<path fill-rule="evenodd" clip-rule="evenodd" d="M411.856 166.541C413.127 163.263 412.421 159.416 409.738 156.708C406.914 153.858 402.677 153.288 399.288 154.855L405.36 160.983L401.124 165.258L394.91 159.131C393.215 162.551 393.921 166.826 396.746 169.676C399.429 172.384 403.242 173.096 406.49 171.814L418.226 183.572C418.791 184.143 419.638 184.143 420.203 183.572L423.451 180.295C424.157 179.725 424.157 178.727 423.593 178.3L411.856 166.541Z" fill="#757575"/>
<path d="M277.733 182.333V152.333H254.4V182.333H251.067V185.667H281.067V182.333H277.733ZM271.067 155.667H274.4V159H271.067V155.667ZM271.067 162.333H274.4V165.667H271.067V162.333ZM271.067 169H274.4V172.333H271.067V169ZM264.4 155.667H267.733V159H264.4V155.667ZM264.4 162.333H267.733V165.667H264.4V162.333ZM264.4 169H267.733V172.333H264.4V169ZM257.733 155.667H261.067V159H257.733V155.667ZM257.733 162.333H261.067V165.667H257.733V162.333ZM257.733 169H261.067V172.333H257.733V169ZM262.733 182.333V175.667H269.4V182.333H262.733Z" fill="#757575"/>
<path fill-rule="evenodd" clip-rule="evenodd" d="M264.833 427.333H260.667V395.667H264.833V427.333ZM256.5 427.333H252.333V407.333H256.5V427.333ZM244 427.333H248.167V419H244V427.333ZM280.667 395.667H269V415.185C269.123 415.225 269.245 415.279 269.362 415.346L270.766 416.148C270.931 416.047 271.099 415.95 271.27 415.859L271.27 414.278C271.27 413.217 272.12 412.354 273.176 412.334V399.893H280.667V395.667ZM273.564 415.667L273.564 418.106C272.95 418.321 272.379 418.628 271.868 419.01L271.569 419.249L269.436 418.029L267.333 421.638L269.465 422.857C269.396 423.227 269.36 423.61 269.36 424C269.36 424.39 269.396 424.773 269.465 425.143L267.333 426.362L269.436 429.971L271.569 428.751C272.152 429.245 272.827 429.636 273.564 429.894L273.564 432.333H277.769L277.769 429.894C278.384 429.679 278.955 429.372 279.465 428.99L279.764 428.751L281.898 429.971L284 426.362L281.868 425.143C281.937 424.773 281.973 424.39 281.973 424C281.973 423.74 281.957 423.483 281.926 423.231L281.868 422.857L284 421.638L281.898 418.029L279.764 419.249C279.278 418.837 278.729 418.497 278.132 418.246L277.769 418.106L277.769 415.667H273.564ZM279 424C279 425.841 277.508 427.333 275.667 427.333C273.826 427.333 272.333 425.841 272.333 424C272.333 422.159 273.826 420.667 275.667 420.667C277.508 420.667 279 422.159 279 424Z" fill="#296CF2"/>
<rect x="674" y="153" width="16.7568" height="31" rx="2" fill="#757575"/>
<rect x="693.27" y="153" width="34.3514" height="14.2432" rx="2" fill="#757575"/>
<rect x="711.703" y="169.757" width="15.9189" height="14.2432" rx="2" fill="#757575"/>
<rect x="693.27" y="169.757" width="15.9189" height="14.2432" rx="2" fill="#757575"/>
<path d="M108.318 129V119.004H110.432V127.25H114.492V129H108.318ZM122.73 125.164C122.73 125.799 122.642 126.363 122.464 126.858C122.296 127.353 122.049 127.773 121.722 128.118C121.405 128.454 121.018 128.711 120.56 128.888C120.103 129.056 119.585 129.14 119.006 129.14C118.474 129.14 117.98 129.056 117.522 128.888C117.074 128.711 116.687 128.454 116.36 128.118C116.034 127.773 115.777 127.353 115.59 126.858C115.413 126.363 115.324 125.799 115.324 125.164C115.324 124.315 115.474 123.601 115.772 123.022C116.071 122.434 116.5 121.986 117.06 121.678C117.62 121.37 118.283 121.216 119.048 121.216C119.767 121.216 120.402 121.37 120.952 121.678C121.503 121.986 121.937 122.434 122.254 123.022C122.572 123.601 122.73 124.315 122.73 125.164ZM117.452 125.164C117.452 125.668 117.504 126.093 117.606 126.438C117.718 126.774 117.891 127.031 118.124 127.208C118.358 127.376 118.661 127.46 119.034 127.46C119.408 127.46 119.706 127.376 119.93 127.208C120.164 127.031 120.332 126.774 120.434 126.438C120.546 126.093 120.602 125.668 120.602 125.164C120.602 124.66 120.546 124.24 120.434 123.904C120.332 123.568 120.164 123.316 119.93 123.148C119.697 122.98 119.394 122.896 119.02 122.896C118.47 122.896 118.068 123.087 117.816 123.47C117.574 123.843 117.452 124.408 117.452 125.164ZM126.652 121.216C127.119 121.216 127.539 121.309 127.912 121.496C128.286 121.683 128.603 121.963 128.864 122.336H128.92L129.088 121.356H130.852V129.014C130.852 129.742 130.708 130.353 130.418 130.848C130.138 131.343 129.714 131.716 129.144 131.968C128.575 132.229 127.87 132.36 127.03 132.36C126.489 132.36 125.985 132.327 125.518 132.262C125.061 132.197 124.613 132.08 124.174 131.912V130.246C124.492 130.377 124.809 130.484 125.126 130.568C125.453 130.661 125.784 130.727 126.12 130.764C126.466 130.811 126.811 130.834 127.156 130.834C127.698 130.834 128.099 130.689 128.36 130.4C128.631 130.111 128.766 129.677 128.766 129.098V128.944C128.766 128.785 128.771 128.622 128.78 128.454C128.799 128.286 128.813 128.137 128.822 128.006H128.766C128.505 128.407 128.192 128.697 127.828 128.874C127.464 129.051 127.054 129.14 126.596 129.14C125.691 129.14 124.982 128.795 124.468 128.104C123.964 127.404 123.712 126.433 123.712 125.192C123.712 124.352 123.829 123.638 124.062 123.05C124.296 122.453 124.632 122 125.07 121.692C125.518 121.375 126.046 121.216 126.652 121.216ZM127.31 122.91C126.984 122.91 126.708 122.999 126.484 123.176C126.27 123.344 126.106 123.601 125.994 123.946C125.892 124.282 125.84 124.707 125.84 125.22C125.84 125.985 125.962 126.559 126.204 126.942C126.447 127.315 126.825 127.502 127.338 127.502C127.609 127.502 127.842 127.469 128.038 127.404C128.234 127.329 128.393 127.213 128.514 127.054C128.645 126.886 128.743 126.671 128.808 126.41C128.874 126.149 128.906 125.831 128.906 125.458V125.206C128.906 124.655 128.85 124.212 128.738 123.876C128.626 123.54 128.454 123.297 128.22 123.148C127.987 122.989 127.684 122.91 127.31 122.91Z" fill="#757575"/>
<path d="M108.318 378V368.004H110.432V376.25H114.492V378H108.318ZM122.73 374.164C122.73 374.799 122.642 375.363 122.464 375.858C122.296 376.353 122.049 376.773 121.722 377.118C121.405 377.454 121.018 377.711 120.56 377.888C120.103 378.056 119.585 378.14 119.006 378.14C118.474 378.14 117.98 378.056 117.522 377.888C117.074 377.711 116.687 377.454 116.36 377.118C116.034 376.773 115.777 376.353 115.59 375.858C115.413 375.363 115.324 374.799 115.324 374.164C115.324 373.315 115.474 372.601 115.772 372.022C116.071 371.434 116.5 370.986 117.06 370.678C117.62 370.37 118.283 370.216 119.048 370.216C119.767 370.216 120.402 370.37 120.952 370.678C121.503 370.986 121.937 371.434 122.254 372.022C122.572 372.601 122.73 373.315 122.73 374.164ZM117.452 374.164C117.452 374.668 117.504 375.093 117.606 375.438C117.718 375.774 117.891 376.031 118.124 376.208C118.358 376.376 118.661 376.46 119.034 376.46C119.408 376.46 119.706 376.376 119.93 376.208C120.164 376.031 120.332 375.774 120.434 375.438C120.546 375.093 120.602 374.668 120.602 374.164C120.602 373.66 120.546 373.24 120.434 372.904C120.332 372.568 120.164 372.316 119.93 372.148C119.697 371.98 119.394 371.896 119.02 371.896C118.47 371.896 118.068 372.087 117.816 372.47C117.574 372.843 117.452 373.408 117.452 374.164ZM126.652 370.216C127.119 370.216 127.539 370.309 127.912 370.496C128.286 370.683 128.603 370.963 128.864 371.336H128.92L129.088 370.356H130.852V378.014C130.852 378.742 130.708 379.353 130.418 379.848C130.138 380.343 129.714 380.716 129.144 380.968C128.575 381.229 127.87 381.36 127.03 381.36C126.489 381.36 125.985 381.327 125.518 381.262C125.061 381.197 124.613 381.08 124.174 380.912V379.246C124.492 379.377 124.809 379.484 125.126 379.568C125.453 379.661 125.784 379.727 126.12 379.764C126.466 379.811 126.811 379.834 127.156 379.834C127.698 379.834 128.099 379.689 128.36 379.4C128.631 379.111 128.766 378.677 128.766 378.098V377.944C128.766 377.785 128.771 377.622 128.78 377.454C128.799 377.286 128.813 377.137 128.822 377.006H128.766C128.505 377.407 128.192 377.697 127.828 377.874C127.464 378.051 127.054 378.14 126.596 378.14C125.691 378.14 124.982 377.795 124.468 377.104C123.964 376.404 123.712 375.433 123.712 374.192C123.712 373.352 123.829 372.638 124.062 372.05C124.296 371.453 124.632 371 125.07 370.692C125.518 370.375 126.046 370.216 126.652 370.216ZM127.31 371.91C126.984 371.91 126.708 371.999 126.484 372.176C126.27 372.344 126.106 372.601 125.994 372.946C125.892 373.282 125.84 373.707 125.84 374.22C125.84 374.985 125.962 375.559 126.204 375.942C126.447 376.315 126.825 376.502 127.338 376.502C127.609 376.502 127.842 376.469 128.038 376.404C128.234 376.329 128.393 376.213 128.514 376.054C128.645 375.886 128.743 375.671 128.808 375.41C128.874 375.149 128.906 374.831 128.906 374.458V374.206C128.906 373.655 128.85 373.212 128.738 372.876C128.626 372.54 128.454 372.297 128.22 372.148C127.987 371.989 127.684 371.91 127.31 371.91Z" fill="#757575"/>
<path d="M250.908 117.66V118.262C250.908 119.788 249.438 121.482 246.456 121.874L247.184 123.372C250.586 122.868 252.546 120.754 252.546 118.262V117.66H250.908ZM251.258 117.66V118.262C251.258 120.754 253.218 122.868 256.62 123.372L257.334 121.874C254.366 121.482 252.882 119.774 252.882 118.262V117.66H251.258ZM250.922 125.5V130.246H252.77V125.5H250.922ZM246.036 124.324V125.836H257.754V124.324H246.036ZM261.771 118.402V119.2C261.771 120.726 260.833 122.294 258.663 122.924L259.601 124.38C262.093 123.624 263.297 121.524 263.297 119.2V118.402H261.771ZM262.149 118.402V119.2C262.149 121.44 263.353 123.442 265.803 124.156L266.713 122.714C264.613 122.112 263.675 120.642 263.675 119.2V118.402H262.149ZM259.167 117.982V119.452H266.223V117.982H259.167ZM267.525 117.282V124.31H269.401V117.282H267.525ZM260.777 124.87V130.106H269.401V124.87H267.553V126.046H262.611V124.87H260.777ZM262.611 127.488H267.553V128.622H262.611V127.488ZM280.151 117.282V130.246H282.027V117.282H280.151ZM276.329 118.626V118.962C276.329 122.434 274.985 124.786 271.261 126.578L272.227 128.062C276.833 125.836 278.177 122.588 278.177 118.626H276.329ZM271.947 118.626V120.096H277.211V118.626H271.947Z" fill="#757575"/>
<path d="M229.857 372.848V375.914H231.719V372.848H229.857ZM230.767 367.038C228.751 367.038 227.239 368.368 227.239 370.23C227.239 372.092 228.751 373.422 230.767 373.422C232.769 373.422 234.295 372.092 234.295 370.23C234.295 368.368 232.769 367.038 230.767 367.038ZM230.767 368.62C231.747 368.62 232.475 369.208 232.475 370.23C232.475 371.238 231.747 371.84 230.767 371.84C229.787 371.84 229.059 371.238 229.059 370.23C229.059 369.208 229.787 368.62 230.767 368.62ZM235.317 366.282V379.246H237.179V366.282H235.317ZM236.605 371.35V372.904H238.887V371.35H236.605ZM227.029 376.67C229.213 376.684 232.097 376.684 234.785 376.18L234.645 374.822C232.069 375.172 229.045 375.158 226.805 375.172L227.029 376.67ZM239.978 371.728V373.212H240.874C242.806 373.212 244.066 373.17 245.55 372.932L245.382 371.434C243.954 371.686 242.75 371.728 240.874 371.728H239.978ZM239.978 366.996V372.82H241.77V368.466H245.088V366.996H239.978ZM241.238 369.376V370.79H244.948V369.376H241.238ZM248.826 366.296V373.646H250.59V366.296H248.826ZM247.314 369.194V370.692H249.372V369.194H247.314ZM246.054 366.534V373.562H247.79V366.534H246.054ZM241.798 374.094V379.106H250.59V374.094H248.77V375.158H243.632V374.094H241.798ZM243.632 376.572H248.77V377.622H243.632V376.572ZM260.679 371.056V372.554H262.807V371.056H260.679ZM264.865 366.282V379.246H266.643V366.282H264.865ZM262.219 366.478V378.658H263.969V366.478H262.219ZM258.411 367.192C256.703 367.192 255.611 368.97 255.611 371.896C255.611 374.836 256.703 376.614 258.411 376.614C260.133 376.614 261.239 374.836 261.239 371.896C261.239 368.97 260.133 367.192 258.411 367.192ZM258.411 368.942C259.139 368.942 259.545 369.922 259.545 371.896C259.545 373.884 259.139 374.85 258.411 374.85C257.711 374.85 257.305 373.884 257.305 371.896C257.305 369.922 257.711 368.942 258.411 368.942ZM276.988 366.268V379.274H278.864V366.268H276.988ZM271.878 367.178C269.918 367.178 268.476 368.97 268.476 371.798C268.476 374.654 269.918 376.446 271.878 376.446C273.838 376.446 275.28 374.654 275.28 371.798C275.28 368.97 273.838 367.178 271.878 367.178ZM271.878 368.872C272.844 368.872 273.488 369.894 273.488 371.798C273.488 373.73 272.844 374.766 271.878 374.766C270.912 374.766 270.254 373.73 270.254 371.798C270.254 369.894 270.912 368.872 271.878 368.872ZM287.641 369.628V371.126H290.665V369.628H287.641ZM289.685 366.296V375.746H291.547V366.296H289.685ZM282.993 377.538V379.022H291.841V377.538H282.993ZM282.993 374.948V378.42H284.855V374.948H282.993ZM283.693 367.99V368.802C283.693 370.44 282.769 372.134 280.627 372.834L281.565 374.318C284.057 373.492 285.205 371.238 285.205 368.802V367.99H283.693ZM284.085 367.99V368.802C284.085 371.112 285.191 373.268 287.599 374.066L288.509 372.61C286.465 371.924 285.583 370.314 285.583 368.802V367.99H284.085ZM281.131 367.164V368.634H288.103V367.164H281.131ZM294.682 372.96V374.416H303.796V372.96H294.682ZM293.31 376.25V377.762H305.042V376.25H293.31ZM294.682 367.22V373.366H296.572V368.718H303.684V367.22H294.682ZM295.998 370.076V371.518H303.39V370.076H295.998Z" fill="#296CF2"/>
<path d="M400.038 117.268V130.274H401.9V117.268H400.038ZM397.756 122.252V123.75H400.458V122.252H397.756ZM394.018 120.642V121.314C394.018 123.26 393.052 125.458 390.952 126.424L391.946 127.852C394.298 126.802 395.474 124.044 395.474 121.314V120.642H394.018ZM394.424 120.642V121.314C394.424 123.96 395.6 126.62 397.98 127.628L398.96 126.214C396.86 125.276 395.866 123.176 395.866 121.314V120.642H394.424ZM391.386 119.396V120.866H398.456V119.396H391.386ZM394.018 117.576V120.152H395.88V117.576H394.018ZM412.553 117.268V130.274H414.415V117.268H412.553ZM404.321 125.738V127.25H405.469C407.835 127.25 409.739 127.18 411.839 126.802L411.657 125.304C409.599 125.654 407.765 125.738 405.469 125.738H404.321ZM404.307 118.374V119.858H408.521V121.916H404.321V126.298H406.211V123.386H410.425V118.374H404.307ZM425.151 117.282V130.246H427.027V117.282H425.151ZM421.329 118.626V118.962C421.329 122.434 419.985 124.786 416.261 126.578L417.227 128.062C421.833 125.836 423.177 122.588 423.177 118.626H421.329ZM416.947 118.626V120.096H422.211V118.626H416.947Z" fill="#757575"/>
<path d="M545.038 117.268V130.274H546.9V117.268H545.038ZM542.77 121.804V123.302H545.472V121.804H542.77ZM539.018 119.326V120.474C539.018 122.882 537.996 125.36 535.826 126.382L536.918 127.852C539.34 126.662 540.488 123.638 540.488 120.474V119.326H539.018ZM539.452 119.326V120.474C539.452 123.54 540.572 126.438 543.008 127.586L544.086 126.13C541.916 125.15 540.908 122.756 540.908 120.474V119.326H539.452ZM536.358 118.528V120.026H543.568V118.528H536.358ZM551.505 118.724V119.536C551.505 121.188 550.595 122.882 548.439 123.596L549.363 125.066C551.869 124.24 553.031 122.014 553.031 119.536V118.724H551.505ZM551.883 118.724V119.536C551.883 121.846 553.003 123.876 555.467 124.618L556.349 123.162C554.263 122.532 553.395 121.048 553.395 119.536V118.724H551.883ZM548.929 118.15V119.634H555.929V118.15H548.929ZM556.965 117.282V124.968H558.827V117.282H556.965ZM558.309 120.264V121.79H560.549V120.264H558.309ZM554.599 125.206C551.897 125.206 550.203 126.144 550.203 127.726C550.203 129.308 551.897 130.246 554.599 130.246C557.287 130.246 558.981 129.308 558.981 127.726C558.981 126.144 557.287 125.206 554.599 125.206ZM554.599 126.662C556.251 126.662 557.133 126.998 557.133 127.726C557.133 128.454 556.251 128.818 554.599 128.818C552.947 128.818 552.051 128.454 552.051 127.726C552.051 126.998 552.947 126.662 554.599 126.662ZM561.233 127.208V128.734H572.965V127.208H561.233ZM566.105 124.324V127.614H567.953V124.324H566.105ZM566.035 117.996V118.934C566.035 120.726 564.453 122.714 561.499 123.19L562.269 124.744C565.657 124.128 567.659 121.692 567.659 118.934V117.996H566.035ZM566.399 117.996V118.934C566.399 121.734 568.401 124.114 571.803 124.744L572.573 123.19C569.605 122.714 568.023 120.768 568.023 118.934V117.996H566.399Z" fill="#757575"/>
<path d="M686.745 125.472C686.745 126.163 686.591 126.788 686.283 127.348C685.984 127.899 685.527 128.337 684.911 128.664C684.304 128.981 683.534 129.14 682.601 129.14C681.276 129.14 680.268 128.804 679.577 128.132C678.886 127.451 678.541 126.555 678.541 125.444V119.004H680.655V125.122C680.655 125.943 680.823 126.522 681.159 126.858C681.495 127.194 681.994 127.362 682.657 127.362C683.124 127.362 683.502 127.283 683.791 127.124C684.08 126.965 684.29 126.718 684.421 126.382C684.561 126.046 684.631 125.621 684.631 125.108V119.004H686.745V125.472ZM692.651 129H688.101V127.796L689.319 127.236V120.768L688.101 120.208V119.004H692.651V120.208L691.433 120.768V127.236L692.651 127.796V129ZM696.745 127.236V128.748H708.477V127.236H696.745ZM701.659 124.366V127.586H703.521V124.366H701.659ZM697.963 118.234V124.604H707.189V118.234H697.963ZM705.369 119.718V123.134H699.797V119.718H705.369ZM712.284 122.84V125.332H714.132V122.84H712.284ZM716.372 122.84V125.332H718.22V122.84H716.372ZM710.786 120.194V121.664H719.69V120.194H710.786ZM710.786 117.674V120.992H712.634V119.144H719.578V117.674H710.786ZM709.33 122.336V123.806H721.048V122.336H709.33ZM710.674 124.674V126.046H717.8V126.718H710.688V129.14H712.522V128.006H719.634V124.674H710.674ZM710.688 128.762V130.162H719.97V128.762H710.688Z" fill="#757575"/>
<rect x="307" y="390" width="447" height="42" rx="4" fill="#296CF2"/>
<path d="M323.74 409.056V410.554H325.868V409.056H323.74ZM327.926 404.282V417.246H329.704V404.282H327.926ZM325.28 404.478V416.658H327.03V404.478H325.28ZM321.472 405.192C319.764 405.192 318.672 406.97 318.672 409.896C318.672 412.836 319.764 414.614 321.472 414.614C323.194 414.614 324.3 412.836 324.3 409.896C324.3 406.97 323.194 405.192 321.472 405.192ZM321.472 406.942C322.2 406.942 322.606 407.922 322.606 409.896C322.606 411.884 322.2 412.85 321.472 412.85C320.772 412.85 320.366 411.884 320.366 409.896C320.366 407.922 320.772 406.942 321.472 406.942ZM340.049 404.268V417.274H341.925V404.268H340.049ZM334.939 405.178C332.979 405.178 331.537 406.97 331.537 409.798C331.537 412.654 332.979 414.446 334.939 414.446C336.899 414.446 338.341 412.654 338.341 409.798C338.341 406.97 336.899 405.178 334.939 405.178ZM334.939 406.872C335.905 406.872 336.549 407.894 336.549 409.798C336.549 411.73 335.905 412.766 334.939 412.766C333.973 412.766 333.315 411.73 333.315 409.798C333.315 407.894 333.973 406.872 334.939 406.872ZM350.702 407.628V409.126H353.726V407.628H350.702ZM352.746 404.296V413.746H354.608V404.296H352.746ZM346.054 415.538V417.022H354.902V415.538H346.054ZM346.054 412.948V416.42H347.916V412.948H346.054ZM346.754 405.99V406.802C346.754 408.44 345.83 410.134 343.688 410.834L344.626 412.318C347.118 411.492 348.266 409.238 348.266 406.802V405.99H346.754ZM347.146 405.99V406.802C347.146 409.112 348.252 411.268 350.66 412.066L351.57 410.61C349.526 409.924 348.644 408.314 348.644 406.802V405.99H347.146ZM344.192 405.164V406.634H351.164V405.164H344.192ZM357.743 410.96V412.416H366.857V410.96H357.743ZM356.371 414.25V415.762H368.103V414.25H356.371ZM357.743 405.22V411.366H359.633V406.718H366.745V405.22H357.743ZM359.059 408.076V409.518H366.451V408.076H359.059ZM378.178 404.422C375.308 404.422 373.488 405.332 373.488 406.872C373.488 408.412 375.308 409.322 378.178 409.322C381.048 409.322 382.868 408.412 382.868 406.872C382.868 405.332 381.048 404.422 378.178 404.422ZM378.178 405.808C379.956 405.808 380.95 406.158 380.95 406.872C380.95 407.558 379.956 407.922 378.178 407.922C376.386 407.922 375.406 407.558 375.406 406.872C375.406 406.158 376.386 405.808 378.178 405.808ZM373.684 412.192V417.106H382.63V412.192H380.782V413.2H375.518V412.192H373.684ZM375.518 414.586H380.782V415.636H375.518V414.586ZM372.312 410.134V411.618H384.03V410.134H372.312ZM377.226 408.874V410.778H379.074V408.874H377.226ZM391.757 405.962V407.46H394.333V405.962H391.757ZM391.757 408.468V409.952H394.333V408.468H391.757ZM387.879 405.024V406.508C387.879 408.398 386.983 410.218 384.841 410.974L385.835 412.43C388.285 411.52 389.377 409.196 389.377 406.508V405.024H387.879ZM388.271 405.024V406.508C388.271 409.084 389.335 411.366 391.631 412.276L392.653 410.834C390.609 410.064 389.769 408.286 389.769 406.508V405.024H388.271ZM393.899 404.296V413.886H395.761V404.296H393.899ZM387.179 415.538V417.022H396.041V415.538H387.179ZM387.179 413.004V416.476H389.055V413.004H387.179ZM407.489 406.172V407.656H410.681V406.172H407.489ZM409.855 404.282V410.862H411.717V404.282H409.855ZM403.149 411.408V412.836H409.869V413.55H403.177V416.518H405.011V414.894H411.717V411.408H403.149ZM403.177 415.664V417.106H412.081V415.664H403.177ZM403.835 404.702V405.626C403.835 407.278 402.925 408.86 400.769 409.504L401.721 410.974C404.199 410.19 405.347 408.076 405.347 405.626V404.702H403.835ZM404.199 404.702V405.626C404.199 407.95 405.305 409.952 407.671 410.722L408.623 409.28C406.579 408.664 405.711 407.166 405.711 405.626V404.702H404.199ZM420.494 407.418V408.93H422.958V407.418H420.494ZM422.454 404.282V411.982H424.316V404.282H422.454ZM419.92 412.262C417.176 412.262 415.482 413.2 415.482 414.768C415.482 416.35 417.176 417.26 419.92 417.26C422.664 417.26 424.358 416.35 424.358 414.768C424.358 413.2 422.664 412.262 419.92 412.262ZM419.92 413.676C421.614 413.676 422.51 414.026 422.51 414.768C422.51 415.496 421.614 415.846 419.92 415.846C418.24 415.846 417.344 415.496 417.344 414.768C417.344 414.026 418.24 413.676 419.92 413.676ZM416.462 405.584V406.396C416.462 408.062 415.538 409.784 413.396 410.512L414.348 411.982C416.826 411.142 417.974 408.874 417.974 406.396V405.584H416.462ZM416.854 405.584V406.396C416.854 408.706 417.96 410.862 420.368 411.66L421.278 410.19C419.234 409.504 418.352 407.922 418.352 406.396V405.584H416.854ZM413.9 405.066V406.55H420.872V405.066H413.9ZM432.585 405.276V407.166C432.585 409.686 431.521 412.178 429.267 413.158L430.373 414.698C432.949 413.508 434.097 410.498 434.097 407.166V405.276H432.585ZM432.949 405.276V407.166C432.949 410.358 434.097 413.242 436.603 414.39L437.695 412.892C435.483 411.94 434.461 409.56 434.461 407.166V405.276H432.949ZM438.311 404.268V417.274H440.187V404.268H438.311ZM445.377 412.164C445.377 411.399 445.447 410.652 445.587 409.924C445.736 409.196 445.965 408.501 446.273 407.838C446.581 407.175 446.968 406.564 447.435 406.004H449.143C448.723 406.583 448.368 407.208 448.079 407.88C447.79 408.552 447.57 409.247 447.421 409.966C447.272 410.685 447.197 411.413 447.197 412.15C447.197 412.869 447.272 413.587 447.421 414.306C447.57 415.015 447.785 415.697 448.065 416.35C448.354 417.013 448.709 417.633 449.129 418.212H447.435C446.968 417.661 446.581 417.059 446.273 416.406C445.965 415.762 445.736 415.081 445.587 414.362C445.447 413.643 445.377 412.911 445.377 412.164ZM452.459 416H450.373V405.36H452.459V416ZM461.303 412.164C461.303 412.799 461.214 413.363 461.037 413.858C460.869 414.353 460.621 414.773 460.295 415.118C459.977 415.454 459.59 415.711 459.133 415.888C458.675 416.056 458.157 416.14 457.579 416.14C457.047 416.14 456.552 416.056 456.095 415.888C455.647 415.711 455.259 415.454 454.933 415.118C454.606 414.773 454.349 414.353 454.163 413.858C453.985 413.363 453.897 412.799 453.897 412.164C453.897 411.315 454.046 410.601 454.345 410.022C454.643 409.434 455.073 408.986 455.633 408.678C456.193 408.37 456.855 408.216 457.621 408.216C458.339 408.216 458.974 408.37 459.525 408.678C460.075 408.986 460.509 409.434 460.827 410.022C461.144 410.601 461.303 411.315 461.303 412.164ZM456.025 412.164C456.025 412.668 456.076 413.093 456.179 413.438C456.291 413.774 456.463 414.031 456.697 414.208C456.93 414.376 457.233 414.46 457.607 414.46C457.98 414.46 458.279 414.376 458.503 414.208C458.736 414.031 458.904 413.774 459.007 413.438C459.119 413.093 459.175 412.668 459.175 412.164C459.175 411.66 459.119 411.24 459.007 410.904C458.904 410.568 458.736 410.316 458.503 410.148C458.269 409.98 457.966 409.896 457.593 409.896C457.042 409.896 456.641 410.087 456.389 410.47C456.146 410.843 456.025 411.408 456.025 412.164ZM465.225 408.216C465.691 408.216 466.111 408.309 466.485 408.496C466.858 408.683 467.175 408.963 467.437 409.336H467.493L467.661 408.356H469.425V416.014C469.425 416.742 469.28 417.353 468.991 417.848C468.711 418.343 468.286 418.716 467.717 418.968C467.147 419.229 466.443 419.36 465.603 419.36C465.061 419.36 464.557 419.327 464.091 419.262C463.633 419.197 463.185 419.08 462.747 418.912V417.246C463.064 417.377 463.381 417.484 463.699 417.568C464.025 417.661 464.357 417.727 464.693 417.764C465.038 417.811 465.383 417.834 465.729 417.834C466.27 417.834 466.671 417.689 466.933 417.4C467.203 417.111 467.339 416.677 467.339 416.098V415.944C467.339 415.785 467.343 415.622 467.353 415.454C467.371 415.286 467.385 415.137 467.395 415.006H467.339C467.077 415.407 466.765 415.697 466.401 415.874C466.037 416.051 465.626 416.14 465.169 416.14C464.263 416.14 463.554 415.795 463.041 415.104C462.537 414.404 462.285 413.433 462.285 412.192C462.285 411.352 462.401 410.638 462.635 410.05C462.868 409.453 463.204 409 463.643 408.692C464.091 408.375 464.618 408.216 465.225 408.216ZM465.883 409.91C465.556 409.91 465.281 409.999 465.057 410.176C464.842 410.344 464.679 410.601 464.567 410.946C464.464 411.282 464.413 411.707 464.413 412.22C464.413 412.985 464.534 413.559 464.777 413.942C465.019 414.315 465.397 414.502 465.911 414.502C466.181 414.502 466.415 414.469 466.611 414.404C466.807 414.329 466.965 414.213 467.087 414.054C467.217 413.886 467.315 413.671 467.381 413.41C467.446 413.149 467.479 412.831 467.479 412.458V412.206C467.479 411.655 467.423 411.212 467.311 410.876C467.199 410.54 467.026 410.297 466.793 410.148C466.559 409.989 466.256 409.91 465.883 409.91ZM476.66 413.732C476.66 414.245 476.539 414.684 476.296 415.048C476.053 415.403 475.689 415.673 475.204 415.86C474.719 416.047 474.117 416.14 473.398 416.14C472.866 416.14 472.409 416.103 472.026 416.028C471.643 415.963 471.261 415.851 470.878 415.692V413.97C471.289 414.157 471.732 414.311 472.208 414.432C472.684 414.553 473.104 414.614 473.468 414.614C473.879 414.614 474.168 414.553 474.336 414.432C474.513 414.311 474.602 414.152 474.602 413.956C474.602 413.825 474.565 413.709 474.49 413.606C474.425 413.503 474.275 413.387 474.042 413.256C473.809 413.125 473.445 412.957 472.95 412.752C472.474 412.547 472.082 412.346 471.774 412.15C471.466 411.945 471.237 411.702 471.088 411.422C470.939 411.133 470.864 410.773 470.864 410.344C470.864 409.635 471.139 409.103 471.69 408.748C472.241 408.393 472.973 408.216 473.888 408.216C474.364 408.216 474.817 408.263 475.246 408.356C475.675 408.449 476.119 408.603 476.576 408.818L475.946 410.316C475.694 410.204 475.451 410.106 475.218 410.022C474.985 409.938 474.756 409.873 474.532 409.826C474.317 409.779 474.093 409.756 473.86 409.756C473.552 409.756 473.319 409.798 473.16 409.882C473.011 409.966 472.936 410.092 472.936 410.26C472.936 410.381 472.973 410.493 473.048 410.596C473.132 410.689 473.286 410.792 473.51 410.904C473.743 411.016 474.084 411.165 474.532 411.352C474.971 411.529 475.349 411.716 475.666 411.912C475.983 412.099 476.226 412.337 476.394 412.626C476.571 412.906 476.66 413.275 476.66 413.732ZM480.091 408.356V416H478.005V408.356H480.091ZM479.055 405.36C479.363 405.36 479.629 405.435 479.853 405.584C480.077 405.724 480.189 405.99 480.189 406.382C480.189 406.765 480.077 407.031 479.853 407.18C479.629 407.329 479.363 407.404 479.055 407.404C478.738 407.404 478.467 407.329 478.243 407.18C478.028 407.031 477.921 406.765 477.921 406.382C477.921 405.99 478.028 405.724 478.243 405.584C478.467 405.435 478.738 405.36 479.055 405.36ZM486.331 408.216C487.152 408.216 487.81 408.44 488.305 408.888C488.799 409.327 489.047 410.036 489.047 411.016V416H486.961V411.534C486.961 410.983 486.863 410.573 486.667 410.302C486.471 410.022 486.158 409.882 485.729 409.882C485.094 409.882 484.66 410.101 484.427 410.54C484.193 410.969 484.077 411.59 484.077 412.402V416H481.991V408.356H483.587L483.867 409.336H483.979C484.147 409.075 484.352 408.865 484.595 408.706C484.837 408.538 485.108 408.417 485.407 408.342C485.705 408.258 486.013 408.216 486.331 408.216ZM492.998 410.12C492.998 410.409 492.984 410.699 492.956 410.988C492.937 411.268 492.914 411.553 492.886 411.842H492.914C493.007 411.711 493.101 411.581 493.194 411.45C493.297 411.319 493.399 411.189 493.502 411.058C493.605 410.927 493.712 410.801 493.824 410.68L495.966 408.356H498.318L495.28 411.674L498.5 416H496.092L493.894 412.906L492.998 413.62V416H490.912V405.36H492.998V410.12ZM504.004 418.212H498.194V417.26H504.004V418.212ZM507.939 408.216C508.649 408.216 509.255 408.351 509.759 408.622C510.273 408.893 510.669 409.285 510.949 409.798C511.229 410.311 511.369 410.941 511.369 411.688V412.696H506.441C506.46 413.284 506.633 413.746 506.959 414.082C507.295 414.418 507.757 414.586 508.345 414.586C508.84 414.586 509.288 414.539 509.689 414.446C510.091 414.343 510.506 414.189 510.935 413.984V415.594C510.562 415.781 510.165 415.916 509.745 416C509.335 416.093 508.835 416.14 508.247 416.14C507.482 416.14 506.805 416 506.217 415.72C505.629 415.431 505.167 414.997 504.831 414.418C504.495 413.839 504.327 413.111 504.327 412.234C504.327 411.338 504.477 410.596 504.775 410.008C505.083 409.411 505.508 408.963 506.049 408.664C506.591 408.365 507.221 408.216 507.939 408.216ZM507.953 409.7C507.552 409.7 507.216 409.831 506.945 410.092C506.684 410.353 506.53 410.759 506.483 411.31H509.409C509.409 411.002 509.353 410.727 509.241 410.484C509.139 410.241 508.98 410.05 508.765 409.91C508.551 409.77 508.28 409.7 507.953 409.7ZM517.121 408.216C517.942 408.216 518.6 408.44 519.095 408.888C519.59 409.327 519.837 410.036 519.837 411.016V416H517.751V411.534C517.751 410.983 517.653 410.573 517.457 410.302C517.261 410.022 516.948 409.882 516.519 409.882C515.884 409.882 515.45 410.101 515.217 410.54C514.984 410.969 514.867 411.59 514.867 412.402V416H512.781V408.356H514.377L514.657 409.336H514.769C514.937 409.075 515.142 408.865 515.385 408.706C515.628 408.538 515.898 408.417 516.197 408.342C516.496 408.258 516.804 408.216 517.121 408.216ZM524.838 408.202C525.865 408.202 526.649 408.426 527.19 408.874C527.741 409.313 528.016 409.989 528.016 410.904V416H526.56L526.154 414.964H526.098C525.883 415.235 525.659 415.459 525.426 415.636C525.202 415.813 524.941 415.939 524.642 416.014C524.353 416.098 523.993 416.14 523.564 416.14C523.116 416.14 522.71 416.056 522.346 415.888C521.991 415.711 521.711 415.445 521.506 415.09C521.301 414.726 521.198 414.269 521.198 413.718C521.198 412.906 521.483 412.309 522.052 411.926C522.621 411.534 523.475 411.319 524.614 411.282L525.944 411.24V410.904C525.944 410.503 525.837 410.209 525.622 410.022C525.417 409.835 525.127 409.742 524.754 409.742C524.381 409.742 524.017 409.798 523.662 409.91C523.307 410.013 522.953 410.143 522.598 410.302L521.912 408.888C522.323 408.673 522.775 408.505 523.27 408.384C523.774 408.263 524.297 408.202 524.838 408.202ZM525.132 412.486C524.46 412.505 523.993 412.626 523.732 412.85C523.471 413.074 523.34 413.368 523.34 413.732C523.34 414.049 523.433 414.278 523.62 414.418C523.807 414.549 524.049 414.614 524.348 414.614C524.796 414.614 525.174 414.483 525.482 414.222C525.79 413.951 525.944 413.573 525.944 413.088V412.458L525.132 412.486ZM531.957 407.838C531.957 408.127 531.948 408.412 531.929 408.692C531.911 408.972 531.892 409.191 531.873 409.35H531.957C532.163 409.033 532.438 408.767 532.783 408.552C533.129 408.328 533.577 408.216 534.127 408.216C534.986 408.216 535.681 408.552 536.213 409.224C536.745 409.887 537.011 410.867 537.011 412.164C537.011 413.032 536.885 413.765 536.633 414.362C536.391 414.95 536.05 415.393 535.611 415.692C535.173 415.991 534.659 416.14 534.071 416.14C533.511 416.14 533.068 416.042 532.741 415.846C532.424 415.641 532.163 415.412 531.957 415.16H531.817L531.467 416H529.871V405.36H531.957V407.838ZM533.455 409.882C533.091 409.882 532.802 409.957 532.587 410.106C532.373 410.255 532.214 410.484 532.111 410.792C532.018 411.091 531.967 411.469 531.957 411.926V412.15C531.957 412.887 532.065 413.457 532.279 413.858C532.503 414.25 532.905 414.446 533.483 414.446C533.913 414.446 534.253 414.25 534.505 413.858C534.757 413.457 534.883 412.883 534.883 412.136C534.883 411.389 534.753 410.829 534.491 410.456C534.239 410.073 533.894 409.882 533.455 409.882ZM540.537 416H538.451V405.36H540.537V416ZM545.586 408.216C546.296 408.216 546.902 408.351 547.406 408.622C547.92 408.893 548.316 409.285 548.596 409.798C548.876 410.311 549.016 410.941 549.016 411.688V412.696H544.088C544.107 413.284 544.28 413.746 544.606 414.082C544.942 414.418 545.404 414.586 545.992 414.586C546.487 414.586 546.935 414.539 547.336 414.446C547.738 414.343 548.153 414.189 548.582 413.984V415.594C548.209 415.781 547.812 415.916 547.392 416C546.982 416.093 546.482 416.14 545.894 416.14C545.129 416.14 544.452 416 543.864 415.72C543.276 415.431 542.814 414.997 542.478 414.418C542.142 413.839 541.974 413.111 541.974 412.234C541.974 411.338 542.124 410.596 542.422 410.008C542.73 409.411 543.155 408.963 543.696 408.664C544.238 408.365 544.868 408.216 545.586 408.216ZM545.6 409.7C545.199 409.7 544.863 409.831 544.592 410.092C544.331 410.353 544.177 410.759 544.13 411.31H547.056C547.056 411.002 547 410.727 546.888 410.484C546.786 410.241 546.627 410.05 546.412 409.91C546.198 409.77 545.927 409.7 545.6 409.7ZM552.85 416.14C552 416.14 551.305 415.809 550.764 415.146C550.232 414.474 549.966 413.489 549.966 412.192C549.966 410.885 550.236 409.896 550.778 409.224C551.319 408.552 552.028 408.216 552.906 408.216C553.27 408.216 553.592 408.267 553.872 408.37C554.152 408.463 554.39 408.594 554.586 408.762C554.791 408.93 554.964 409.121 555.104 409.336H555.174C555.146 409.187 555.113 408.972 555.076 408.692C555.038 408.403 555.02 408.109 555.02 407.81V405.36H557.106V416H555.51L555.104 415.006H555.02C554.889 415.211 554.721 415.403 554.516 415.58C554.32 415.748 554.086 415.883 553.816 415.986C553.545 416.089 553.223 416.14 552.85 416.14ZM553.578 414.474C554.156 414.474 554.562 414.306 554.796 413.97C555.029 413.625 555.15 413.111 555.16 412.43V412.206C555.16 411.459 555.043 410.89 554.81 410.498C554.586 410.106 554.166 409.91 553.55 409.91C553.092 409.91 552.733 410.111 552.472 410.512C552.21 410.904 552.08 411.473 552.08 412.22C552.08 412.967 552.21 413.531 552.472 413.914C552.733 414.287 553.102 414.474 553.578 414.474ZM558.517 410.484V409H565.307V410.484H558.517ZM558.517 413.144V411.646H565.307V413.144H558.517ZM569.959 414.474C570.192 414.474 570.416 414.451 570.631 414.404C570.846 414.357 571.06 414.301 571.275 414.236V415.79C571.051 415.883 570.771 415.963 570.435 416.028C570.108 416.103 569.749 416.14 569.357 416.14C568.9 416.14 568.489 416.065 568.125 415.916C567.77 415.767 567.486 415.51 567.271 415.146C567.066 414.773 566.963 414.259 566.963 413.606V409.924H565.969V409.042L567.117 408.342L567.719 406.732H569.049V408.356H571.191V409.924H569.049V413.606C569.049 413.895 569.133 414.115 569.301 414.264C569.469 414.404 569.688 414.474 569.959 414.474ZM576.799 408.216C576.902 408.216 577.023 408.221 577.163 408.23C577.303 408.239 577.415 408.253 577.499 408.272L577.345 410.232C577.28 410.213 577.182 410.199 577.051 410.19C576.93 410.171 576.823 410.162 576.729 410.162C576.459 410.162 576.197 410.199 575.945 410.274C575.693 410.339 575.465 410.447 575.259 410.596C575.063 410.745 574.905 410.946 574.783 411.198C574.671 411.441 574.615 411.744 574.615 412.108V416H572.529V408.356H574.111L574.419 409.644H574.517C574.667 409.383 574.853 409.145 575.077 408.93C575.301 408.715 575.558 408.543 575.847 408.412C576.146 408.281 576.463 408.216 576.799 408.216ZM585.621 408.356V416H584.025L583.745 415.02H583.633C583.474 415.281 583.269 415.496 583.017 415.664C582.774 415.823 582.503 415.939 582.205 416.014C581.906 416.098 581.598 416.14 581.281 416.14C580.739 416.14 580.263 416.042 579.853 415.846C579.442 415.65 579.125 415.347 578.901 414.936C578.677 414.525 578.565 413.993 578.565 413.34V408.356H580.651V412.822C580.651 413.363 580.749 413.774 580.945 414.054C581.141 414.334 581.453 414.474 581.883 414.474C582.312 414.474 582.643 414.376 582.877 414.18C583.119 413.984 583.287 413.699 583.381 413.326C583.483 412.953 583.535 412.495 583.535 411.954V408.356H585.621ZM590.678 408.216C591.387 408.216 591.994 408.351 592.498 408.622C593.011 408.893 593.408 409.285 593.688 409.798C593.968 410.311 594.108 410.941 594.108 411.688V412.696H589.18C589.198 413.284 589.371 413.746 589.698 414.082C590.034 414.418 590.496 414.586 591.084 414.586C591.578 414.586 592.026 414.539 592.428 414.446C592.829 414.343 593.244 414.189 593.674 413.984V415.594C593.3 415.781 592.904 415.916 592.484 416C592.073 416.093 591.574 416.14 590.986 416.14C590.22 416.14 589.544 416 588.956 415.72C588.368 415.431 587.906 414.997 587.57 414.418C587.234 413.839 587.066 413.111 587.066 412.234C587.066 411.338 587.215 410.596 587.514 410.008C587.822 409.411 588.246 408.963 588.788 408.664C589.329 408.365 589.959 408.216 590.678 408.216ZM590.692 409.7C590.29 409.7 589.954 409.831 589.684 410.092C589.422 410.353 589.268 410.759 589.222 411.31H592.148C592.148 411.002 592.092 410.727 591.98 410.484C591.877 410.241 591.718 410.05 591.504 409.91C591.289 409.77 591.018 409.7 590.692 409.7ZM601.97 412.164C601.97 412.911 601.895 413.643 601.746 414.362C601.606 415.081 601.382 415.762 601.074 416.406C600.775 417.059 600.388 417.661 599.912 418.212H598.218C598.638 417.633 598.988 417.013 599.268 416.35C599.557 415.697 599.777 415.015 599.926 414.306C600.075 413.587 600.15 412.869 600.15 412.15C600.15 411.413 600.075 410.685 599.926 409.966C599.777 409.247 599.557 408.552 599.268 407.88C598.988 407.208 598.633 406.583 598.204 406.004H599.912C600.388 406.564 600.775 407.175 601.074 407.838C601.382 408.501 601.606 409.196 601.746 409.924C601.895 410.652 601.97 411.399 601.97 412.164ZM614.453 404.282V417.246H616.329V404.282H614.453ZM615.909 409.112V410.652H618.205V409.112H615.909ZM606.557 405.304V414.25H612.857V405.304H611.009V408.454H608.405V405.304H606.557ZM608.405 409.896H611.009V412.752H608.405V409.896ZM618.778 414.306V415.818H630.51V414.306H618.778ZM623.692 411.856V414.922H625.554V411.856H623.692ZM620.094 405.122V406.592H627.346V407.978H620.122V411.618H621.97V409.434H629.194V405.122H620.094ZM620.122 410.876V412.374H629.488V410.876H620.122ZM634.733 414.306V415.818H646.465V414.306H634.733ZM639.647 411.856V414.922H641.509V411.856H639.647ZM636.049 405.122V406.592H643.301V407.978H636.077V411.618H637.925V409.434H645.149V405.122H636.049ZM636.077 410.876V412.374H645.443V410.876H636.077ZM648.522 405.472V406.942H656.74V405.472H648.522ZM647.332 414.04V415.552H659.05V414.04H647.332ZM655.76 405.472V407.012C655.76 408.762 655.76 410.61 655.284 413.102L657.146 413.256C657.608 410.596 657.608 408.832 657.608 407.012V405.472H655.76ZM663.288 414.236V415.748H675.02V414.236H663.288ZM668.202 411.366V414.586H670.064V411.366H668.202ZM664.506 405.234V411.604H673.732V405.234H664.506ZM671.912 406.718V410.134H666.34V406.718H671.912ZM684.847 404.282V417.246H686.709V404.282H684.847ZM676.559 405.514V413.564H678.407V405.514H676.559ZM676.559 412.472V414.054H677.707C679.681 414.054 681.823 413.914 684.049 413.452L683.839 411.912C681.697 412.332 679.597 412.472 677.707 412.472H676.559ZM697.502 404.268V417.274H699.35V404.268H697.502ZM695.276 408.832V410.344H697.712V408.832H695.276ZM689.06 412.836V414.348H690.096C692.28 414.348 693.96 414.292 695.836 413.998L695.668 412.514C693.834 412.808 692.238 412.836 690.096 412.836H689.06ZM689.06 405.36V413.312H690.908V406.872H695.066V405.36H689.06ZM690.488 408.972V410.428H694.618V408.972H690.488ZM709.975 404.296V412.15H711.851V404.296H709.975ZM701.743 410.134V411.632H702.877C705.467 411.632 707.189 411.59 709.121 411.254L708.911 409.77C707.035 410.078 705.397 410.134 702.877 410.134H701.743ZM701.729 405.052V406.536H705.859V407.614H701.743V410.974H703.577V409H707.693V405.052H701.729ZM707.483 412.388C704.739 412.388 703.059 413.27 703.059 414.824C703.059 416.364 704.739 417.26 707.483 417.26C710.227 417.26 711.935 416.364 711.935 414.824C711.935 413.27 710.227 412.388 707.483 412.388ZM707.483 413.83C709.191 413.83 710.073 414.138 710.073 414.824C710.073 415.496 709.191 415.818 707.483 415.818C705.789 415.818 704.907 415.496 704.907 414.824C704.907 414.138 705.789 413.83 707.483 413.83ZM720.19 405.276V407.166C720.19 409.686 719.126 412.178 716.872 413.158L717.978 414.698C720.554 413.508 721.702 410.498 721.702 407.166V405.276H720.19ZM720.554 405.276V407.166C720.554 410.358 721.702 413.242 724.208 414.39L725.3 412.892C723.088 411.94 722.066 409.56 722.066 407.166V405.276H720.554ZM725.916 404.268V417.274H727.792V404.268H725.916ZM732.509 405.612V406.424C732.509 408.048 731.599 409.728 729.429 410.428L730.395 411.87C732.873 411.072 734.035 408.874 734.035 406.424V405.612H732.509ZM732.887 405.612V406.424C732.887 408.748 734.007 410.862 736.429 411.646L737.381 410.204C735.281 409.532 734.399 407.95 734.399 406.424V405.612H732.887ZM729.933 405.038V406.522H736.933V405.038H729.933ZM737.969 404.282V412.094H739.831V404.282H737.969ZM739.313 407.418V408.944H741.553V407.418H739.313ZM731.179 412.654V414.152H737.969V417.246H739.831V412.654H731.179Z" fill="white"/>
<rect x="307" y="403" width="11.3137" height="11.3137" transform="rotate(45 307 403)" fill="#296CF2"/>
</svg>
