<svg width="40" height="40" viewBox="0 0 40 40" fill="none" xmlns="http://www.w3.org/2000/svg">
<path fill-rule="evenodd" clip-rule="evenodd" d="M26.9851 17.1668C27.0496 18.0883 27.0832 19.0348 27.0832 20C27.0832 20.9653 27.0496 21.912 26.9851 22.8335H33.883C34.0691 21.9179 34.1668 20.9704 34.1668 20.0002C34.1668 19.0299 34.0691 18.0824 33.883 17.1668H26.9851ZM24.1406 17.1668C24.2113 18.0794 24.2498 19.0265 24.2498 20C24.2498 20.9737 24.2113 21.9208 24.1405 22.8335H15.8589C15.7883 21.9208 15.7498 20.9737 15.7498 20C15.7498 19.0265 15.7883 18.0794 15.8589 17.1668H24.1406ZM26.6796 14.3335H32.9865C31.3648 10.6264 28.2007 7.74535 24.3035 6.50215C25.383 8.48726 26.2175 11.1999 26.6796 14.3335ZM20.0084 5.83351C21.255 5.86212 22.9974 9.29876 23.8056 14.3335H16.1931C16.9996 9.29797 18.7378 5.86089 19.9779 5.8335C19.9806 5.8335 19.9833 5.8335 19.986 5.8335C19.9935 5.8335 20.0009 5.8335 20.0084 5.83351ZM13.3192 14.3335C13.7807 11.1971 14.6144 8.48243 15.6932 6.49685C11.7959 7.73715 8.63178 10.6211 7.0113 14.3335H13.3192ZM13.0144 17.1668C12.95 18.0883 12.9165 19.0348 12.9165 20C12.9165 20.9653 12.95 21.912 13.0144 22.8335H6.11668C5.93097 21.9179 5.8335 20.9704 5.8335 20.0002C5.8335 19.0299 5.93097 18.0824 6.11668 17.1668H13.0144ZM13.3193 25.6668H7.0113C8.63181 29.3793 11.796 32.2633 15.6934 33.5035C14.6146 31.518 13.7808 28.8033 13.3193 25.6668ZM24.3033 33.4982C28.2006 32.2551 31.3647 29.374 32.9865 25.6668H26.6795C26.2174 28.8005 25.3829 31.5132 24.3033 33.4982ZM23.8055 25.6668H16.1932C17.0029 30.7224 18.7518 34.1667 19.9928 34.1667C21.2404 34.1667 22.9939 30.7225 23.8055 25.6668Z" fill="#45B96E"/>
</svg>
