<svg width="40" height="40" viewBox="0 0 40 40" fill="none" xmlns="http://www.w3.org/2000/svg">
<path fill-rule="evenodd" clip-rule="evenodd" d="M33.3333 8.66669C33.3333 7.56212 32.4379 6.66669 31.3333 6.66669H8.66667C7.5621 6.66669 6.66667 7.56212 6.66667 8.66669V31.3334C6.66667 32.4379 7.5621 33.3334 8.66667 33.3334H31.3333C32.4379 33.3334 33.3333 32.4379 33.3333 31.3334V8.66669ZM25.3333 14.3432L23.4477 16.2288L27.219 20L23.4477 23.7713L25.3333 25.6569L29.1046 21.8856L30.9902 20L29.1046 18.1144L25.3333 14.3432ZM16.5523 16.2288L14.6667 14.3432L10.8954 18.1144L9.00981 20L10.8954 21.8856L14.6667 25.6569L16.5523 23.7713L12.7811 20L16.5523 16.2288ZM23.5331 14.1914L21.0272 13.2794L16.4669 25.8086L18.9728 26.7207L23.5331 14.1914Z" fill="#00B0E2"/>
</svg>
