<svg width="24" height="24" viewBox="0 0 24 24" fill="none" xmlns="http://www.w3.org/2000/svg">
<path fill-rule="evenodd" clip-rule="evenodd" d="M5 3H3V19V21H5H21V19H5V3ZM9 15C9.55228 15 10 14.5523 10 14C10 13.4477 9.55228 13 9 13C8.44772 13 8 13.4477 8 14C8 14.5523 8.44772 15 9 15ZM19 7C19 7.55228 18.5523 8 18 8C17.4477 8 17 7.55228 17 7C17 6.44772 17.4477 6 18 6C18.5523 6 19 6.44772 19 7ZM18 14C18 15.1046 17.1046 16 16 16C14.8954 16 14 15.1046 14 14C14 12.8954 14.8954 12 16 12C17.1046 12 18 12.8954 18 14ZM11 10C12.1046 10 13 9.10457 13 8C13 6.89543 12.1046 6 11 6C9.89543 6 9 6.89543 9 8C9 9.10457 9.89543 10 11 10Z" fill="#757575"/>
</svg>
