<svg width="24" height="24" viewBox="0 0 24 24" fill="none" xmlns="http://www.w3.org/2000/svg">
<path fill-rule="evenodd" clip-rule="evenodd" d="M20.8063 22.0542L22.25 20.6105L16.6607 15.0212L18.6205 15.0212V13H13.0209L13.0209 18.5997H15.042L15.042 16.2899L20.8063 22.0542ZM5.40448 15.0214L5.40448 13.0002H11.0041V18.5999H8.98296V16.6152L3.54368 22.0545L2.09998 20.6108L7.68938 15.0214L5.40448 15.0214Z" fill="#757575"/>
<path fill-rule="evenodd" clip-rule="evenodd" d="M20.8063 2.00027L22.25 3.44397L16.6607 9.03326L18.6205 9.03326V11.0544H13.0209L13.0209 5.45478H15.042L15.042 7.76452L20.8063 2.00027ZM5.40448 9.03302L5.40448 11.0542H11.0041V5.45455H8.98296V7.4392L3.54368 1.99992L2.09998 3.44363L7.68938 9.03302L5.40448 9.03302Z" fill="#757575"/>
</svg>
