<svg width="24" height="24" viewBox="0 0 24 24" fill="none" xmlns="http://www.w3.org/2000/svg">
<path fill-rule="evenodd" clip-rule="evenodd" d="M15.0053 18.9835L15.0053 21.0058L21.0054 21.0054V15.0051L19.0053 15.005L19.0053 17.5912L13.994 12.5799L12.5798 13.9941L17.5688 18.9832L15.0053 18.9835ZM9.01021 2.98975L9.01021 5.01206L6.44674 5.01235L11.4358 10.0014L10.0216 11.4156L5.01024 6.40427V8.99052L3.01017 8.99041L3.01018 2.99011L9.01021 2.98975ZM18.9935 9.00028L21.0158 9.00028L21.0154 3.00024H15.0151L15.015 5.00031L17.6013 5.00031L12.5899 10.0116L14.0041 11.4258L18.9932 6.43681L18.9935 9.00028ZM2.99976 14.9954H5.02206L5.02236 17.5589L10.0114 12.5698L11.4256 13.984L6.41428 18.9954H9.00053L9.00042 20.9954L3.00012 20.9954L2.99976 14.9954Z" fill="#757575"/>
</svg>
