<svg class="SVGInline-svg" style="width: 16px;height: 16px;" width="24px" height="24px" viewBox="0 0 24 24" version="1.1" xmlns="http://www.w3.org/2000/svg" xmlns:xlink="http://www.w3.org/1999/xlink">
    <!-- Generator: Sketch 59.1 (86144) - https://sketch.com -->
    <!-- <title>ic-copy</title> -->
    <desc>Created with Sketch.</desc>
    <g id="Icon-Set" stroke="none" stroke-width="1" fill="none" fill-rule="evenodd">
        <g id="WhaTap_Icon_Set" transform="translate(-260.000000, -1395.000000)" fill="#757575">
            <g id="editor-icons" transform="translate(40.000000, 1350.000000)">
                <g id="ic-copy" transform="translate(220.000000, 45.000000)">
                    <g transform="translate(3.000000, 2.000000)">
                        <path d="M-3.12638804e-13,1.42108547e-14 C-3.12638804e-13,1.42108547e-14 -5.96855898e-13,0.9 -5.96855898e-13,2 L-1.76214598e-12,17 L2,17 L2,2 L13,2 L13,1.95399252e-14 L-3.12638804e-13,1.42108547e-14 Z M4,4 C4,4 4,4.9 4,6 L4,18 C4,19.1 4,20 4,20 L18,20 C18,20 18,19.1 18,18 L18,6 C18,4.9 18,4 18,4 L4,4 Z M6,18 L6,6 L16,6 L16,18 L6,18 Z"></path>
                    </g>
                </g>
            </g>
        </g>
    </g>
</svg>