<svg class="SVGInline-svg" style="width: 16px;height: 16px;" width="24px" height="24px" viewBox="0 0 24 24" version="1.1" xmlns="http://www.w3.org/2000/svg" xmlns:xlink="http://www.w3.org/1999/xlink">
    <!-- Generator: Sketch 59.1 (86144) - https://sketch.com -->
    <!-- <title>ic-grid-chart</title> -->
    <desc>Created with Sketch.</desc>
    <g id="Icon-Set" stroke="none" stroke-width="1" fill="none" fill-rule="evenodd">
        <g id="WhaTap_Icon_Set" transform="translate(-260.000000, -1704.000000)" fill="#757575">
            <g id="data-icons" transform="translate(40.000000, 1579.000000)">
                <g id="ic-grid-chart" transform="translate(220.000000, 125.000000)">
                    <g transform="translate(2.000000, 2.000000)" id="Combined-Shape">
                        <path d="M20,0 L20,20 L0,20 L0,0 L20,0 Z M9,8 L2,8 L2,18 L9,18 L9,8 Z M18,14 L11,14 L11,18 L18,18 L18,14 Z M18,8 L11,8 L11,12 L18,12 L18,8 Z M18,2 L2,2 L2,6 L18,6 L18,2 Z"></path>
                    </g>
                </g>
            </g>
        </g>
    </g>
</svg>