<svg class="SVGInline-svg" style="width: 16px;height: 16px;" width="24px" height="24px" viewBox="0 0 24 24" version="1.1" xmlns="http://www.w3.org/2000/svg" xmlns:xlink="http://www.w3.org/1999/xlink">
  <!-- Generator: Sketch 59.1 (86144) - https://sketch.com -->
  <!-- <title>ic-project</title> -->
  <desc>Created with Sketch.</desc>
  <g id="Icon-Set" stroke="none" stroke-width="1" fill="none" fill-rule="evenodd">
      <g id="WhaTap_Icon_Set" transform="translate(-740.000000, -2791.000000)" fill="#757575">
          <g id="application-icons" transform="translate(40.000000, 2346.000000)">
              <g id="ic-project" transform="translate(700.000000, 445.000000)">
                  <g transform="translate(2.000000, 2.000000)" id="Shape">
                      <path d="M20,0 L20,20 L0,20 L0,0 L20,0 Z M2,2 L2,18 L18,18 L18,2 L2,2 Z M7,15 L5,15 L5,9 L7,9 L7,15 L7,15 Z M11,15 L9,15 L9,5 L11,5 L11,15 L11,15 Z M15,15 L13,15 L13,10 L15,10 L15,15 L15,15 Z"></path>
                  </g>
              </g>
          </g>
      </g>
  </g>
</svg>