<svg class="SVGInline-svg" style="width: 16px;height: 16px;" width="24px" height="24px" viewBox="0 0 24 24" version="1.1" xmlns="http://www.w3.org/2000/svg" xmlns:xlink="http://www.w3.org/1999/xlink">
    <!-- Generator: Sketch 59.1 (86144) - https://sketch.com -->
    <!-- <title>ic-eye</title> -->
    <desc>Created with Sketch.</desc>
    <g id="Icon-Set" stroke="none" stroke-width="1" fill="none" fill-rule="evenodd">
        <g id="WhaTap_Icon_Set" transform="translate(-164.000000, -2551.000000)" fill="#757575">
            <g id="application-icons" transform="translate(40.000000, 2346.000000)">
                <g id="ic-eye" transform="translate(124.000000, 205.000000)">
                    <g transform="translate(2.000000, 4.000000)" id="Ic_showpw_off">
                        <path d="M-2.82829316e-14,7.5 C1.73,11.89 5,15 10,15 C15,15 18.27,11.89 20,7.5 C18.27,3.11 15,0 10,0 C5,0 1.73,3.11 -2.82829316e-14,7.5 Z M5,7.5 C5,4.74 7.24,2.5 10,2.5 C12.76,2.5 15,4.74 15,7.5 C15,10.26 12.76,12.5 10,12.5 C7.24,12.5 5,10.26 5,7.5 Z M7,7.5 C7,9.16 8.34,10.5 10,10.5 C11.66,10.5 13,9.16 13,7.5 C13,5.84 11.66,4.5 10,4.5 C8.34,4.5 7,5.84 7,7.5 Z"></path>
                    </g>
                </g>
            </g>
        </g>
    </g>
</svg>