<svg class="SVGInline-svg" style="width: 60px;height: 60px;" xmlns="http://www.w3.org/2000/svg" width="40" height="40" viewBox="0 0 40 40">
  <g fill="none" fill-rule="evenodd">
      <g>
          <g>
              <g>
                  <path d="M28 16H52V40H28z" transform="translate(-732 -4295) translate(712 4293)"></path>
              </g>
              <g>
                  <path d="M0 0L40 0 40 40 0 40z" transform="translate(-732 -4295) translate(712 4293) translate(20 2)"></path>
                  <g>
                      <path fill="#909CA8" d="M16.573 13.514l.14.332-.139.04c-.562.162-.607.178-.623.19l-.003.01c-.003.027.002.093.016.164l.05.306c.078.514.13 1.052.163 1.69l.005.136c.018.557.005 1.75-.022 2.13l-.037.435c-.114 1.287-.275 2.382-.474 3.225l-.099.391c-.387 1.456-1.031 3.124-1.897 4.891l-.069.14c-.246.5-.45.884-.48.903l-.02.004c-.089.009-.45.008-.725-.004l-.324-.016c-1.58-.096-4.102-.464-5.448-.805l-.3-.079c-.82-.223-1.798-.56-2.408-.828l-.266-.122c-1.23-.585-2.27-1.395-2.811-2.19l-.106-.168c-.362-.62-.44-1.283-.226-1.938l.057-.154c.153-.37.43-.818.769-1.243l.125-.149c.277-.315.694-.724.99-.957l.163-.131c.283-.23.624-.52.986-.831l.387-.34c.251-.225.491-.448.724-.67l1.37-.361 4.9-2.162 5.632-1.84zm-2.64 12.042h-.004l-.027.007c-.048.016-.14.056-.245.103l-.502.227c-.669.29-1.334.535-2.005.74l-.133.04c-.622.187-1.278.35-2.549.636l-.634.145.102.021.092.02c.562.119 2.197.403 3.194.555l.127.019c.611.089 1.487.211 1.555.215h.004l.016-.004c.022-.014.044-.059.086-.162l.039-.095c.096-.24.236-.61.376-.99l.118-.326c.215-.593.4-1.129.39-1.151zM9.38 24.29l-.005.01-.255.382-.315.47c-.435.628-.923 1.269-1.413 1.854l-.06.071c-.095.115-.165.207-.165.214 0 .016.114.049.167.049h.009l.007-.002.015-.004c.066-.018.328-.092.627-.179l.263-.075c1.769-.51 3.829-1.119 4.526-1.338l.118-.037c.442-.141.97-.318.997-.333-.005-.016-.052-.023-.127-.03l-.221-.022c-.625-.069-1.524-.228-2.167-.391l-.337-.088c-.43-.117-.8-.235-1.243-.401l-.095-.036c-.184-.068-.322-.117-.326-.114zm-.75.022l-.013.001c-.034.007-.122.032-.22.063l-.124.038c-.678.21-1.697.498-3.452.975l-.148.04-1.146.313c.043.057.423.298.732.464l.174.09c.244.122.535.253.818.365l.08.031c.365.14 1.294.467 1.435.506l.064.017.124-.217.063-.105c.07-.116.158-.261.222-.363l.04-.065.526-.83.103-.162c.464-.734.727-1.157.723-1.161zM5.983 21.86l-.753.907-.187.226c-.966 1.168-1.433 1.762-1.81 2.306l-.123.18.077.054c.042.03.08.056.085.056.084-.028.61-.209 1.238-.43l.14-.048c1.254-.436 3.667-1.294 3.696-1.314-.027-.027-.117-.085-.23-.15l-.278-.168c-.636-.403-1.182-.866-1.719-1.466l-.136-.153zm-.545-.209l-.013.003-.438.104-.087.02c-.296.072-.904.215-1.437.337l-.178.042c-1.009.234-2.026.474-2.086.49l-.018.014c-.024.036-.017.135.022.306l.05.19c.12.385.347.794.66 1.185l.088.104c.196.227.511.544.704.704l.192.162.179-.277.086-.13c.095-.145.215-.319.301-.44l.045-.064.371-.523.18-.254.09-.125.124-.174c.692-.97 1.173-1.666 1.165-1.674zm9.71-.332l-.019.005c-.027.01-.078.034-.139.072l-.107.063c-.773.441-2.684 1.352-4.528 2.159l-.105.046c-.272.12-.473.214-.466.222l.023.013c.096.05.462.213.727.32l.46.175c.93.34 1.917.602 3 .799.026.008.051.013.056.013.024-.06.105-.304.195-.592l.083-.262c.105-.332.187-.597.263-.85l.11-.379.055-.195.039-.139c.17-.616.357-1.379.353-1.47zm-4.206-1.468l-.012.004-.294.12-.44.183c-1.029.42-2.083.775-3.298 1.106l-.387.106.077.094.184.22c.518.59 1.24 1.182 2.042 1.674.153.094.28.17.285.17l.007-.01c.03-.047.149-.25.287-.496l.226-.406c.515-.936.927-1.784 1.25-2.57l.025-.059c.03-.075.052-.133.048-.136zm.677-.222l-.006.016c-.01.025-.028.081-.054.142l-.1.294c-.291.816-.768 1.873-1.24 2.758l-.041.076c-.078.147-.134.257-.134.26l.002.001.02-.004c.018-.005.046-.014.076-.027l.029-.011c.09-.035.329-.125.571-.214l.26-.097c1.81-.683 3.529-1.403 4.07-1.704l.135-.076-.098-.022-.366-.092c-.992-.268-2.084-.707-2.894-1.176l-.071-.041c-.09-.051-.156-.086-.159-.083zm-6.64-1.187h-.006l-.003.004-.022.01c-.13.063-.73.396-1.132.624l-.215.127c-.479.288-.798.544-1.185.946l-.162.175c-.579.65-.987 1.384-1.077 1.958-.01.056-.01.07.005.07h.008l.009-.002.016-.005.494-.136.11-.03c.87-.242 2.993-.863 3.51-1.025l.098-.032.016-.007-.003-.01c-.013-.036-.073-.164-.146-.313l-.106-.23c-.224-.518-.299-.938-.269-1.481l.009-.115c.01-.122.025-.258.038-.34l.01-.068c.016-.097.017-.12.003-.12zm10.556-1.26l-.068.051-.045.038c-.136.107-.464.341-.691.494l-.429.279c-.587.371-1.232.74-1.9 1.087l-.087.047c-.169.09-.3.158-.304.162l.006.01c.068.063.608.395.99.603l.382.2c.519.259 1.065.478 1.576.639.144.042.268.076.268.076l.003-.012c.008-.038.027-.156.048-.294l.06-.427c.116-.887.191-1.96.191-2.774v-.18zm-7.343-.298l-.015.004c-.175.06-1.791.819-2.309 1.081l-.042.022c-.085.045-.088.071-.137.302l-.027.165c-.047.353-.049.819.006 1.103l.045.205c.068.275.167.555.283.783.048.093.066.125.08.125l.01-.004.008-.01.013-.02c.032-.049.115-.178.2-.317l.22-.353c.496-.807.887-1.501 1.248-2.205l.058-.114c.193-.382.371-.76.36-.767zm.852-.353l-.018.002c-.015.003-.035.009-.055.015l-.035.021c-.03.021-.046.045-.058.09l-.011.032c-.026.072-.086.228-.147.384l-.104.257c-.437 1.055-1.117 2.413-1.577 3.132-.094.148-.118.186-.099.186l.006-.001.008-.002.36-.118.359-.116.492-.16c.803-.266 1.524-.521 2.194-.777l.13-.05c.563-.213.554-.211.53-.235L11 19.177c-.034-.03-.11-.096-.192-.164l-.162-.145c-.277-.258-.58-.595-.821-.915l-.115-.16c-.233-.34-.475-.786-.592-1.104l-.02-.055c-.019-.052-.037-.092-.044-.098l-.006-.004h-.006zm3.375-1.324l-.01.004c-.028.013-.028.051-.032.434l-.009.294c-.037.804-.193 1.757-.447 2.699-.034.127-.06.234-.05.234l.011-.004c.043-.017.197-.082.375-.162l.387-.175c1.01-.464 1.85-.927 2.538-1.396l.083-.056c.275-.187.248-.17.104-.233l-.12-.054c-.56-.262-1.645-.871-2.46-1.38l-.092-.058c-.168-.102-.245-.143-.278-.143h-.005l.005-.004zm-.591.23l-.02.004-.048.015-.175.063c-.585.215-2.031.778-2.086.816l.002.017c.019.077.15.391.237.562l.123.225c.175.303.394.609.66.915.188.218.753.772.79.772l.002-.001.007-.014c.015-.04.051-.153.09-.284l.109-.383c.133-.502.222-.971.283-1.469l.008-.071c.028-.33.041-1.144.018-1.167zm3.46-1.17l-.022.004c-.187.047-1.464.458-2.021.646l-.095.033c-.254.088-.254.094-.216.12l.041.032c.21.152.929.628 1.321.875.49.307 1.175.711 1.21.711l.003-.01c.006-.03.008-.134 0-.28l-.006-.141c-.042-.825-.166-1.99-.215-1.99zM10.767.385l.016.003c.034.01.048.055.111.308l.063.215c.138.45.344 1.008.559 1.5l.116.26c.33.722.817 1.678 1.263 2.465l.098.174.485.077.017.002.017.002-.038.32-3.695-.635-3.23-.579-1.359-.434-.57-.54.006-.076.02-.07.028-.05c.09-.136.341-.379.546-.524l.166-.112c.637-.416 1.595-.886 2.801-1.378.964-.391 2.451-.928 2.576-.928h.004zm.757 3.278h-.008l-.009.008-.018.015-.186.155-.246.2c-.334.26-.695.501-1.052.699l-.039.022c-.035.02-.06.038-.06.042.052.017.54.097 1.908.319.334.054.464.077.507.077l.017-.003c.008-.005-.006-.018-.018-.036l-.038-.062c-.152-.256-.537-.993-.668-1.283l-.028-.06c-.032-.069-.048-.093-.062-.093zM6.595 2.51l.222.2.058.055c.258.245.812.776 1.504 1.448l.425.417.17.025c.094.013.184.03.2.03l.018-.005c.041-.018.146-.077.26-.148l.208-.127c.44-.263 1.001-.572 1.52-.83l.073-.036c.116-.057.198-.102.195-.105l-.016-.002-.248-.024-.246-.023c-1.284-.133-3.33-.532-4.177-.82l-.166-.055zm-.17.132l-.055.038-.148.109c-.523.396-.828.775-.831 1.036v.06l.234.077.103.032c.234.07.431.121.837.215.435.098 1.241.256 1.315.256l.005-.001-.005-.01c-.015-.024-.065-.085-.123-.156l-.029-.036c-.11-.134-.408-.5-.703-.87l-.6-.75zM10.703.603h-.005l-.033.01c-.138.044-.611.237-1.108.445l-.332.14c-.327.14-.635.274-.83.363l-.091.043c-.489.235-1.397.711-1.381.727l.011.004c.044.01.213.035.406.06l.215.03c1.385.2 3.161.508 3.574.621.052.016.09.03.112.03l.016-.003c.033-.019-.003-.117-.103-.414l-.116-.368c-.143-.484-.239-.947-.297-1.424l-.01-.08c-.013-.103-.025-.18-.028-.184z" transform="translate(-732 -4295) translate(712 4293) translate(20 2) translate(7.5 5)"></path>
                      <path fill="#A81C21" d="M4.671 3.69c.055.135.217.301.4.472 0 0 1.894 1.847 2.124 2.111 1.047 1.209 1.503 2.4 1.545 4.044.026 1.056-.174 1.984-.672 3.06-.886 1.933-2.754 4.066-5.636 6.432l.422-.14c.272-.205.642-.422 1.51-.898 2.005-1.099 4.262-2.107 7.028-3.146 3.985-1.498 10.536-3.252 14.264-3.823l.388-.06-.06-.093c-.34-.528-.574-.855-.855-1.204-.818-1.014-1.81-1.835-3.023-2.516-1.668-.932-3.826-1.66-6.56-2.2-.514-.103-1.646-.299-2.566-.44-1.95-.301-3.21-.51-4.597-.748-.498-.086-1.243-.213-1.737-.32-.255-.055-.745-.17-1.128-.302-.306-.12-.749-.238-.843-.6 0 0-.093.149-.004.37zM8.18 7.03C7.68 6.155 6.893 5.265 5.982 4.55c-.119-.085-.208-.162-.208-.166.004-.004.072.021.161.051.162.055.37.12.618.187.186.052.374.102.561.15.256.063.469.123.473.123.03.03.46 1.404.604 1.932.056.2.098.37.094.37-.007 0-.053-.07-.106-.165zm-.311-2.068c.021 0 .115.013.23.038.723.162 2.022.409 2.852.55.14.02.25.046.25.055 0 .008-.05.038-.114.072-.14.072-.707.409-.894.536-.473.315-.898.656-1.205.962-.123.124-.23.226-.23.226s-.025-.072-.046-.162c-.154-.591-.473-1.468-.762-2.085-.042-.088-.077-.17-.084-.191l.003-.001zm3.784 3.46c-.455-.144-1.196-.361-1.83-.54-.362-.098-.656-.187-.656-.196 0-.025.528-.553.754-.753.43-.38 1.596-1.281 1.634-1.269.026.009.068.154.153.473.158.617.23 1.307.205 1.95-.009.178-.017.344-.026.365l-.013.043-.221-.072zm.707-.263c0-.809-.162-1.626-.46-2.316-.03-.068-.055-.132-.051-.136.013-.013 1.762.29 2.558.443.592.115 1.452.293 1.503.315.025.008-.064.06-.35.187-1.123.506-1.957.962-2.787 1.515-.218.145-.4.264-.405.264-.004 0-.008-.123-.008-.272zm2.413 1.617c-.494-.29-1.055-.562-1.668-.817-.17-.072-.32-.132-.324-.14-.03-.026 1.34-.933 2.065-1.367.574-.349 1.51-.868 1.528-.851.012.013-.043.357-.094.562-.153.634-.566 1.575-1.073 2.46-.089.158-.17.285-.178.29h-.002c-.014 0-.126-.063-.254-.137zm1.073-.144c.455-.967.749-1.976.821-2.835.005-.081.017-.145.03-.145.038 0 .813.213 1.218.332 1 .298 2.15.72 2.898 1.06l.311.14-.217.051c-1.83.422-3.397.907-4.908 1.52-.123.051-.234.094-.242.094-.01 0 .033-.098.089-.217zm-6.781 1.583c.098-.715.077-1.635-.06-2.567-.012-.119-.025-.221-.02-.225.012-.013.604.127.923.217.485.136 1.515.48 1.515.506 0 .005-.115.102-.25.222-.559.464-1.095.953-1.738 1.575-.191.183-.353.332-.361.332-.009 0-.013-.026-.009-.06zm8.875 1.469c-.477-.716-1.047-1.341-1.724-1.903-.128-.107-.268-.222-.315-.256-.047-.034-.085-.068-.085-.072 0-.013.724-.323 1.273-.545.962-.391 2.273-.86 3.256-1.162.515-.162 1.064-.32 1.073-.31.008.008-.273.45-.451.702-.256.366-.63.851-1.478 1.915-.446.562-.949 1.196-1.115 1.41-.17.212-.31.39-.315.39-.004 0-.06-.076-.119-.17zm3.806-4.163c.017-.005.119.046.242.119 1.035.591 2.048 1.353 2.848 2.137.226.221.783.8.775.804 0 0-.196.017-.426.034-1.792.136-4.086.515-6.291 1.047-.15.034-.281.064-.29.064-.008 0 .158-.166.366-.366 1.294-1.247 1.886-2.035 2.584-3.44.098-.208.183-.387.192-.4-.005 0-.005 0 0 0zm-10.39 3.422c.382-.698.689-1.532.863-2.346.017-.063.034-.106.047-.106.06.013.613.273 1.03.481.383.192.958.498.988.524.004.004-.2.11-.451.234-.8.4-1.486.779-2.201 1.213-.205.123-.375.226-.38.226-.016 0-.012-.018.103-.226zm-1.189.532c-.276-.268-.502-.434-.791-.583-.115-.06-.205-.11-.205-.12 0-.033.728-.693 1.286-1.17.4-.345 1.243-1.022 1.256-1.009.012.013-.132.537-.222.822-.174.54-.468 1.217-.753 1.728-.068.12-.17.294-.226.392l-.106.17-.239-.23zm1.92 2.026c1.124-1.034 2.12-2.175 2.86-3.286l.15-.23.208.136c.477.311 1.039.724 1.469 1.086.242.2.71.621.804.723l.051.056-.344.098c-1.95.54-3.457 1.021-5.215 1.668-.196.073-.362.132-.374.132h-.007c-.019 0 .001-.017.398-.383zm-.894.392c0-.515-.132-1.064-.362-1.533-.097-.195-.114-.242-.093-.264.08-.072 1.32-.779 2.103-1.2.527-.28 1.353-.698 1.366-.69.009.009-.575.83-.924 1.295-.417.553-1.158 1.48-1.668 2.085-.213.251-.396.46-.405.464-.013 0-.017-.062-.017-.157zm-3.38-.277c.282-.43.422-.672.571-.983.132-.277.264-.605.357-.89.034-.123.077-.217.086-.217.012 0 .11.051.221.11.272.15.515.316.732.495.009.008-.102.097-.247.204-.404.29-1.017.753-1.375 1.038-.26.208-.346.275-.36.275-.005 0 .003-.013.016-.032zM6.579 17.03c0-.005.132-.102.294-.222 1.273-.923 2.375-1.937 3.2-2.95.09-.106.171-.204.18-.208h.008c.021-.004.047.034.162.204.242.362.43.847.477 1.239l.008.085-.583.226c-1.043.404-2.005.804-2.656 1.102-.183.085-.502.238-.711.34-.203.104-.37.184-.379.184zm-.226-.528c.281-.302.494-.558.737-.873.162-.208.191-.238.426-.404.625-.451 2.068-1.43 2.085-1.413.017.017-.468.566-.8.902-.821.839-1.634 1.494-2.643 2.133l-.256.161-.007.003c-.01 0 .063-.08.458-.51z" transform="translate(-732 -4295) translate(712 4293) translate(20 2) translate(7.5 5)"></path>
                  </g>
              </g>
          </g>
      </g>
  </g>
</svg>