<svg class="SVGInline-svg" style="width: 20px;height: 20px;" width="25px" height="24px" viewBox="0 0 25 24" version="1.1" xmlns="http://www.w3.org/2000/svg" xmlns:xlink="http://www.w3.org/1999/xlink">
    <!-- Generator: Sketch 59.1 (86144) - https://sketch.com -->
    <!-- <title>ic-undo</title> -->
    <desc>Created with Sketch.</desc>
    <g id="Icon-Set" stroke="none" stroke-width="1" fill="none" fill-rule="evenodd">
        <g id="WhaTap_Icon_Set" transform="translate(-356.000000, -1475.000000)" fill="#757575">
            <g id="editor-icons" transform="translate(40.000000, 1350.000000)">
                <g id="ic-undo" transform="translate(316.500000, 125.000000)">
                    <g transform="translate(1.000000, 2.000000)">
                        <path d="M10,0 L10,2 L10,2 C5.581722,2 2,5.581722 2,10 C2,14.418278 5.581722,18 10,18 C14.418278,18 18,14.418278 18,10 C18,8.66292701 17.6719832,7.40246643 17.0920305,6.29469904 L15.3519238,7.29903811 L16.45,3.20096189 L20.5480762,4.29903811 L18.8258623,5.29430316 C19.57519,6.69678749 20,8.2987839 20,10 C20,15.5228475 15.5228475,20 10,20 C4.4771525,20 -8.52651283e-14,15.5228475 -8.52651283e-14,10 C-8.52651283e-14,4.4771525 4.4771525,0 10,0 Z" transform="translate(10.274038, 10.000000) rotate(-180.000000) translate(-10.274038, -10.000000) "></path>
                    </g>
                </g>
            </g>
        </g>
    </g>
</svg>