<svg class="SVGInline-svg" style="width: 24px;height: 24px;" xmlns="http://www.w3.org/2000/svg" width="24" height="24" viewBox="0 0 24 24">
    <path fill="#757575" fill-rule="evenodd" d="M8.336 1.5l-1.41 1.41 2.38 2.38-6.529 6.547c-.59.59-.59 1.54 0 2.12l7.192 6.845c.29.29.68.44 1.06.44s.77-.15 1.06-.44l6.712-6.62c.59-.58.59-1.53 0-2.12L8.336 1.5zm2.332 5.026l6.143 6.09-12.206.003 6.063-6.093zM16.5 21.389c0 1.227 1.125 2.23 2.5 2.23s2.5-1.003 2.5-2.23c0-1.483-2.5-3.902-2.5-3.902-1.25 1.951-2.5 2.42-2.5 3.902z"></path>
</svg>