<svg width="127" height="25" viewBox="0 0 127 25" fill="none" xmlns="http://www.w3.org/2000/svg"><g clip-path="url(#clip0_124_1030)"><path fill-rule="evenodd" clip-rule="evenodd" d="M49.617 0h2.897L46.72 19.316h-2.536L40.563 4.95l-3.501 14.366h-2.535L28.732 0h2.897l4.226 14.849L39.597 0h2.052l3.743 14.849L49.617 0zm6.64 19.316H53.6V0h2.656v6.398a4.914 4.914 0 011.69-1.448 5.082 5.082 0 012.414-.483 5.178 5.178 0 014.105 1.69 7.086 7.086 0 011.448 4.708v8.45H63.26v-7.484a6.194 6.194 0 00-.846-3.622 2.752 2.752 0 00-2.535-1.207 2.91 2.91 0 00-1.81.483c-.53.347-.981.8-1.328 1.328-.248.398-.373.86-.363 1.328-.12.839-.161 1.688-.12 2.535v6.64zm24.386 0v-1.811a7.075 7.075 0 01-2.294 1.57 6.494 6.494 0 01-2.656.482 7.376 7.376 0 01-5.433-2.173 7.46 7.46 0 01-2.172-5.553c0-.997.205-1.984.603-2.898a6.434 6.434 0 011.57-2.414 7.98 7.98 0 012.414-1.69 7.46 7.46 0 013.018-.604 6.592 6.592 0 015.07 2.053v-1.57h2.535v14.608h-2.655zm-9.779-7.364a5.396 5.396 0 001.449 3.742 4.913 4.913 0 003.621 1.449 4.564 4.564 0 003.38-1.45 4.828 4.828 0 001.45-3.5 5.155 5.155 0 00-4.95-5.191 4.829 4.829 0 00-3.501 1.449 4.468 4.468 0 00-1.449 3.5zm19.557 7.364h-2.777V2.656h-4.95V0h12.677v2.656h-4.95v16.66zm15.694 0v-1.811a7.07 7.07 0 01-2.294 1.57 6.49 6.49 0 01-2.656.482 7.376 7.376 0 01-5.432-2.173 7.46 7.46 0 01-2.173-5.553c0-.997.205-1.984.603-2.898a6.435 6.435 0 011.57-2.414 7.98 7.98 0 012.414-1.69 7.46 7.46 0 013.018-.604 6.596 6.596 0 015.071 2.053v-1.57h2.656v14.608h-2.777zm-9.778-7.364a5.396 5.396 0 001.448 3.742 4.913 4.913 0 003.622 1.449 4.562 4.562 0 003.38-1.45 4.83 4.83 0 001.449-3.5 4.927 4.927 0 00-1.449-3.622 4.055 4.055 0 00-3.38-1.69 4.83 4.83 0 00-3.501 1.449 4.587 4.587 0 00-1.57 3.621zm18.108 5.553v6.519h-2.656V4.708h2.656V6.52a7.07 7.07 0 012.294-1.57 6.49 6.49 0 012.655-.482A7.425 7.425 0 01127 12.072a8.281 8.281 0 01-.604 2.898 6.431 6.431 0 01-1.569 2.414 7.987 7.987 0 01-2.414 1.69 7.465 7.465 0 01-3.019.604 7.087 7.087 0 01-2.776-.483 8.865 8.865 0 01-2.173-1.69zm-.121-5.553a5.397 5.397 0 001.449 3.742 4.959 4.959 0 003.501 1.57 4.826 4.826 0 003.501-1.45 4.91 4.91 0 001.448-3.621 5.392 5.392 0 00-1.448-3.742A4.914 4.914 0 00119.153 7a4.558 4.558 0 00-3.38 1.45 4.83 4.83 0 00-1.449 3.5z" fill="#4F4F4F"/><path d="M0 13.28h2.897v6.036H0V13.28z" fill="#F25022"/><path d="M5.312 6.76h2.897v12.556H5.312V6.76z" fill="#FFB902"/><path d="M10.624 0h2.897v19.316h-2.897V0z" fill="#80BA01"/><path d="M18.833 0h4.346v2.897h-4.346v16.419h-2.898V0h2.898z" fill="#19A0E5"/></g><defs><clipPath id="clip0_124_1030"><path fill="#fff" d="M0 0h127v24.024H0z"/></clipPath></defs></svg>