<svg width="40" height="40" viewBox="0 0 40 40" fill="none" xmlns="http://www.w3.org/2000/svg">
<path fill-rule="evenodd" clip-rule="evenodd" d="M31.25 12.5C31.25 9.04822 26.2132 6.25 20 6.25C13.7868 6.25 8.75 9.04822 8.75 12.5V13.1953C9.42961 15.9838 14.0973 18.5938 20 18.5938C25.9027 18.5938 30.5704 15.9838 31.25 13.1953V12.5ZM31.25 16.6874C28.9533 19.0469 24.7744 20.625 20 20.625C15.2256 20.625 11.0467 19.0469 8.75 16.6874V18.1953C9.42961 20.9838 14.0973 23.5938 20 23.5938C25.9027 23.5938 30.5704 20.9838 31.25 18.1953V16.6874ZM8.75 23.1953V21.6874C11.0467 24.0469 15.2256 25.625 20 25.625C24.7744 25.625 28.9533 24.0469 31.25 21.6874V23.1953C30.5704 25.9838 25.9027 28.5938 20 28.5938C14.0973 28.5938 9.42961 25.9838 8.75 23.1953ZM8.75 26.6874V27.5C8.75 30.9518 13.7868 33.75 20 33.75C26.2132 33.75 31.25 30.9518 31.25 27.5V26.6874C28.9533 29.0469 24.7744 30.625 20 30.625C15.2256 30.625 11.0467 29.0469 8.75 26.6874Z" fill="#936CE7"/>
</svg>
