<svg width="40" height="40" viewBox="0 0 40 40" fill="none" xmlns="http://www.w3.org/2000/svg">
<path d="M32.335 13C29.7922 13 28.1984 14.7708 28.1984 14.7708C27.3517 13.6668 26.1841 13.0028 24.2085 13.0028C22.1223 13.0028 20.7388 14.7708 20.7388 14.7708C19.8921 13.6668 18.362 13 17.1667 13C15.3184 13 13.8519 13.8162 12.9555 15.8748L9.95612 22.4352L6.56388 14.104C6.135 13.1605 5.07804 12.7344 4.09302 13.1743C3.10523 13.617 2.74276 14.7183 3.18823 15.6618L7.33031 25.0029C7.98054 26.4223 8.6695 27.1666 9.95612 27.1666C11.334 27.1666 11.9317 26.3559 12.5847 25.0029C12.5847 25.0029 15.4042 18.7109 15.7501 17.9583C16.0959 17.2057 16.6714 16.5417 17.5209 16.5417C18.4948 16.5417 19.2917 17.3385 19.2917 18.3125V25.3073C19.2917 26.331 20.0609 27.1666 21.0791 27.1666C22.0946 27.1666 22.8334 26.331 22.8334 25.3073V18.3125C22.8334 17.3385 23.6302 16.5417 24.6042 16.5417C25.5782 16.5417 26.375 17.3385 26.375 18.3125V25.3958C26.375 26.3698 27.1719 27.1666 28.1459 27.1666C29.1198 27.1666 29.9167 26.3698 29.9167 25.3958V18.3125C29.9167 17.3385 30.7136 16.5417 31.6875 16.5417C32.6615 16.5417 33.4583 17.3385 33.4583 18.3125V25.3958C33.4583 26.3698 34.2552 27.1666 35.2292 27.1666C36.2031 27.1666 37 26.3698 37 25.3958V17.5018C37 14.8538 34.8833 13 32.335 13Z" fill="black"/>
</svg>
